<svg xmlns="http://www.w3.org/2000/svg" viewBox="0 0 416.64 455.54"><g id="Layer_2" data-name="Layer 2"><path d="M214.74,215.28l-8.86,0c-.19-2.11-1.45-17.94,1.64-21.73a3.8,3.8,0,0,1,2.67-1.67c1.39,0,2.43,1.36,2.86,1.92C216.17,197.84,214.91,213.24,214.74,215.28Z" fill="#fff"/><path d="M205.9,289.11A468.88,468.88,0,0,1,144,285l-2.55-.35a3.85,3.85,0,0,1-2.6-1.56l-1.52-2.1a42.43,42.43,0,0,1-7.36-32.36l1-5.39a3.89,3.89,0,0,1,3.67-3.23,16.46,16.46,0,0,1,3.66-5.44c.26-.26.53-.5.8-.74,0-.18.07-.35.1-.53-6-16.42-11.38-33.28-16-50.12-3.64-13.13-6.89-26.5-9.67-39.73-1.53-7.17-3-14.65-4.3-22.21l-.71-4a4,4,0,0,1,1.67-4L113.4,111A171.91,171.91,0,0,1,178,84.39l-.83-8.78A3.94,3.94,0,0,1,180,71.44L184.76,70A91.74,91.74,0,0,1,211,66.18h.51a91.56,91.56,0,0,1,23.37,3.19L240,70.74A4,4,0,0,1,242.81,75l-1.1,9.84A172.36,172.36,0,0,1,303.94,111l3.31,2.24a4,4,0,0,1,1.67,4l-.7,4c-1.28,7.35-2.59,14.22-4,21-2.92,14.11-6.36,28.36-10.22,42.35-4.38,15.82-9.42,31.69-15,47.19l.27.91a17.17,17.17,0,0,1,4,4.83l1.34-.14a3.89,3.89,0,0,1,4.21,3.28l.92,5.75a48.55,48.55,0,0,1,.15,14.39,47.72,47.72,0,0,1-6.62,18.38l-1.48,2.41a3.86,3.86,0,0,1-2.7,1.81l-2.76.42a470.51,470.51,0,0,1-63.55,5.28c-2.31,0-4.59.05-6.86.05h0Zm-63.71-8.86,2.33.31a462.24,462.24,0,0,0,61.38,4.09h0c2.25,0,4.51,0,6.8,0a466.8,466.8,0,0,0,63-5.23l2.53-.39,1.35-2.21a43.13,43.13,0,0,0,6-16.64,43.86,43.86,0,0,0-.14-13l-.84-5.27-1.21.13a3.76,3.76,0,0,1-3.78-2,12.66,12.66,0,0,0-3.52-4.16l-.58-.44-1.09-3.73.26-.69c5.62-15.62,10.71-31.62,15.13-47.56,3.84-13.9,7.25-28.05,10.15-42.06,1.41-6.75,2.71-13.58,4-20.88l.64-3.66-3-2.06a168.18,168.18,0,0,0-61.1-25.55,4,4,0,0,1-3.11-4.32l1.1-9.87-4.63-1.26a87.66,87.66,0,0,0-22.28-3H211a87.89,87.89,0,0,0-25,3.65l-4.41,1.31.83,8.84a4,4,0,0,1-3.17,4.26,167.49,167.49,0,0,0-63.42,26l-3,2.06.64,3.67c1.32,7.5,2.76,14.92,4.27,22,2.76,13.14,6,26.42,9.61,39.46,4.64,16.77,10,33.57,16,49.93a4.08,4.08,0,0,1,.14,2.22c-.08.4-.15.8-.21,1.21l-.12.93-.74.57a11.8,11.8,0,0,0-3.88,5.19,3.82,3.82,0,0,1-3.36,2.45l-.89,5a37.81,37.81,0,0,0,6.56,28.89Z" fill="#414042"/><path d="M298.47,119.41q-1.75,10-3.94,20.69c-2.75,13.27-6.07,27.2-10.07,41.7-5.14,18.55-10.78,35.71-16.56,51.4a6.49,6.49,0,0,1,.94,5.62,7.1,7.1,0,0,1,6.13,4.36,7.29,7.29,0,0,1-.15,5.34c1.72-.16,3.44-.33,5.14-.51a38.47,38.47,0,0,1,.12,11.31,37.57,37.57,0,0,1-5.21,14.43,460.16,460.16,0,0,1-62.23,5.18,456.74,456.74,0,0,1-67.4-4,32.13,32.13,0,0,1-5.56-24.48c1.41.08,2.83.19,4.24.26-1.38-3.29-.89-6.81,1.19-8.86a6.64,6.64,0,0,1,4-1.79,9.05,9.05,0,0,1,.58-7c-5.94-16-11.75-33.61-17-52.69-3.76-13.55-6.9-26.61-9.53-39.1q-2.39-11.25-4.23-21.87A162,162,0,0,1,188.78,93c-.41-4.4-.84-8.81-1.25-13.21a81.61,81.61,0,0,1,44.84-.57c-.52,4.69-1.05,9.39-1.57,14.07A162.2,162.2,0,0,1,298.47,119.41Z" fill="none"/><path d="M214.74,215.28l-8.86,0c-.19-2.11-1.45-17.94,1.64-21.73a3.8,3.8,0,0,1,2.67-1.67c1.39,0,2.43,1.36,2.86,1.92C216.17,197.84,214.91,213.24,214.74,215.28Z" fill="#fff"/><path d="M160.54,222.82a5,5,0,0,0-.24.46,2.54,2.54,0,0,0-.18.41,8.26,8.26,0,0,0-.62,2.69c0,.16,0,.34,0,.52a9.32,9.32,0,0,0,.34,2.48c-.25-.1-4.53-1.63-8,1.16a8.13,8.13,0,0,0-2.11,2.56c-5.95-16-11.75-33.61-17-52.69-3.75-13.55-6.89-26.61-9.52-39.1a150.85,150.85,0,0,1,15.13-8.84l.13-.07c2.42,14.17,5.45,29.1,9.25,44.68C151.59,193.39,156,208.64,160.54,222.82Z" fill="#fff"/><path d="M279.44,131.55c-2.58,14.88-5.79,30.56-9.84,46.95-4,16.17-8.39,31.35-13,45.47a7.4,7.4,0,0,0-6-1.29c2.52-7.84,5-16.2,7.24-25.06s4.21-17.55,5.81-25.72a10.46,10.46,0,0,0-5.39-1.86q-.74,3-1.49,6a20.21,20.21,0,0,0-2.52-.62,23.21,23.21,0,0,0-2.86-.34c.43-2,.87-4,1.29-6a12.31,12.31,0,0,0-2.86-.83,12.73,12.73,0,0,0-2.7-.17c-.34,2-.69,4.05-1,6.07-.85-.18-1.78-.33-2.77-.45a31.16,31.16,0,0,0-3.17-.21q.26-2.91.52-5.81a15.57,15.57,0,0,0-2.89-.59,15.41,15.41,0,0,0-3.3,0q-.42,7-1,14.21c-3.4-.57-7.15-1.06-11.18-1.4q.69-11.24,1.63-22a11.14,11.14,0,0,0-2.9-.64,11.51,11.51,0,0,0-2.86.11q-.18,3.24-.35,6.46a21.69,21.69,0,0,0-2.24-.14,21.36,21.36,0,0,0-2.62.12q0-3.33-.12-6.67a21.07,21.07,0,0,0-3.05-.09,20.28,20.28,0,0,0-3.31.38c0,2.32-.12,4.65-.18,7a16.8,16.8,0,0,0-4.18.38c-.34-2.21-.68-4.43-1-6.64a15.55,15.55,0,0,0-3.3.33,17.29,17.29,0,0,0-2.42.71q1,10.27,1.79,20.89c-4.36.43-8.4,1.05-12,1.74q-1-8-2.1-15.85a13.71,13.71,0,0,0-3.07.32,15.31,15.31,0,0,0-2.37.78c.47,2.2.93,4.39,1.4,6.58a17.16,17.16,0,0,0-2.71.42,15.43,15.43,0,0,0-1.76.53q-1-3.14-2-6.3a11.2,11.2,0,0,0-2.61.56,11.42,11.42,0,0,0-2.53,1.25l1.23,5.82a17.41,17.41,0,0,0-2.34.54,15.6,15.6,0,0,0-2.23.85l-2-5.41a10.58,10.58,0,0,0-2.78.66,10.46,10.46,0,0,0-2.52,1.43q2.13,9.94,4.65,20.31,3.15,12.93,6.59,25a7.7,7.7,0,0,0-5.76,1.57l-.38.35-.23.23a6.76,6.76,0,0,0-1,1.41c-4.57-14.18-8.95-29.43-12.91-45.74-3.8-15.58-6.83-30.51-9.25-44.68l1.33-.67,1.09-.53c3.38-1.67,7.1-3.33,11.15-4.93l2.68-1,1.66-.61c1.53-.56,3.12-1.11,4.74-1.64s3.47-1.11,5.28-1.63l1.64-.46c3-.85,6.2-1.63,9.49-2.32q2.66-.57,5.44-1.06,4-.69,8.11-1.19l.72,7.55c3.71-.26,7.62-.45,11.71-.53.3,6.33.61,12.63.91,18.94a26.43,26.43,0,0,0,5.58.44A26,26,0,0,0,215,142q.22-9.32.45-18.6,6.22.21,11.89.73c.29-2.67.59-5.32.89-8A163.26,163.26,0,0,1,279.44,131.55Z" fill="#80888e"/><path d="M298.47,119.41c-1.17,6.69-2.46,13.6-3.94,20.69a151.71,151.71,0,0,0-13.39-7.69l-.5-.26-1.2-.6h0a163,163,0,0,0-51.19-15.38l2.55-22.93A162.16,162.16,0,0,1,298.47,119.41Z" fill="#fff"/><path d="M294.53,140.1c-2.75,13.27-6.06,27.2-10.06,41.7-5.14,18.55-10.78,35.71-16.56,51.41a5.78,5.78,0,0,0-.73-.84,6.18,6.18,0,0,0-7.8-.29,8.13,8.13,0,0,0-1.53-7,7.7,7.7,0,0,0-1.21-1.14c4.57-14.12,9-29.3,13-45.47,4-16.38,7.26-32.06,9.84-46.94h0l1.2.6.5.26A151.71,151.71,0,0,1,294.53,140.1Z" fill="#fff"/><path d="M275,243.18a7.1,7.1,0,0,0-6.13-4.36,6.55,6.55,0,0,0-.94-5.62,5.23,5.23,0,0,0-.73-.83,6.16,6.16,0,0,0-7.8-.29,8.15,8.15,0,0,0-1.53-7,7.21,7.21,0,0,0-1.21-1.13,7.4,7.4,0,0,0-6-1.29c2.52-7.84,5-16.2,7.24-25.06s4.21-17.55,5.81-25.72a10.46,10.46,0,0,0-5.39-1.86q-.74,3-1.49,6a20.21,20.21,0,0,0-2.52-.62,23.21,23.21,0,0,0-2.86-.34c.43-2,.87-4,1.29-6a12.31,12.31,0,0,0-2.86-.83,12.73,12.73,0,0,0-2.7-.17c-.34,2-.69,4.05-1,6.07-.85-.18-1.78-.33-2.77-.45a31.16,31.16,0,0,0-3.17-.21q.26-2.91.52-5.81a15.57,15.57,0,0,0-2.89-.59,15.41,15.41,0,0,0-3.3,0q-.42,7-1,14.21c-3.4-.57-7.15-1.06-11.18-1.4q.69-11.24,1.63-22a11.14,11.14,0,0,0-2.9-.64,11.51,11.51,0,0,0-2.86.11q-.18,3.24-.35,6.46a21.69,21.69,0,0,0-2.24-.14,21.36,21.36,0,0,0-2.62.12q0-3.33-.12-6.67a21.07,21.07,0,0,0-3.05-.09,20.28,20.28,0,0,0-3.31.38c0,2.32-.12,4.65-.18,7a16.8,16.8,0,0,0-4.18.38c-.34-2.21-.68-4.43-1-6.64a15.55,15.55,0,0,0-3.3.33,17.29,17.29,0,0,0-2.42.71q1,10.27,1.79,20.89c-4.36.43-8.4,1.05-12,1.74q-1-8-2.1-15.85a13.71,13.71,0,0,0-3.07.32,15.31,15.31,0,0,0-2.37.78c.47,2.2.93,4.39,1.4,6.58a17.16,17.16,0,0,0-2.71.42,15.43,15.43,0,0,0-1.76.53q-1-3.14-2-6.3a11.2,11.2,0,0,0-2.61.56,11.42,11.42,0,0,0-2.53,1.25l1.23,5.82a17.41,17.41,0,0,0-2.34.54,15.6,15.6,0,0,0-2.23.85l-2-5.41a10.58,10.58,0,0,0-2.78.66,10.46,10.46,0,0,0-2.52,1.43q2.13,9.94,4.65,20.31,3.15,12.93,6.59,25a7.7,7.7,0,0,0-5.76,1.57l-.38.35-.23.23a6.76,6.76,0,0,0-1,1.41,5,5,0,0,0-.24.46,2.54,2.54,0,0,0-.18.41,8.26,8.26,0,0,0-.62,2.69c0,.16,0,.34,0,.52a9.32,9.32,0,0,0,.34,2.48c-.25-.1-4.53-1.63-8,1.16a8.13,8.13,0,0,0-2.11,2.56,9,9,0,0,0-.58,7,6.62,6.62,0,0,0-4,1.79c-2.09,2-2.58,5.57-1.19,8.86,21.21,1.33,44.1,1.93,68.43,1.44,22.12-.44,43-1.76,62.46-3.64A7.27,7.27,0,0,0,275,243.18Zm-60.24-27.9-8.86-.05c-.18-2.1-1.45-17.93,1.64-21.72a3.8,3.8,0,0,1,2.67-1.67c1.4,0,2.43,1.36,2.86,1.91C216.17,197.84,214.91,213.24,214.74,215.28Zm34.68-12.39a2.93,2.93,0,0,1-2.48,1.91,28,28,0,0,0-1.76,5.26,29.44,29.44,0,0,0-.73,6,13,13,0,0,1,3.24,4.95c2.1,5.91-1,11.78-3,14.82a4.58,4.58,0,0,0-4.52,1,4.68,4.68,0,0,0-1.92-5.65,4.42,4.42,0,0,0-4.46,0,4.52,4.52,0,0,0-1.24,1,4.58,4.58,0,0,0-2.22-3.52,12.4,12.4,0,0,1,11.26-13.39,30.92,30.92,0,0,0,1.21-6.86,30.58,30.58,0,0,0-.09-4.67,2.4,2.4,0,0,1-1.15-1.61,3.05,3.05,0,0,1,1.15-2.52,4.22,4.22,0,0,1,3.51-.86,4.1,4.1,0,0,1,3,2A3,3,0,0,1,249.42,202.89Z" fill="#fff"/><path d="M249.42,202.89a2.93,2.93,0,0,1-2.49,1.91,29.08,29.08,0,0,0-1.75,5.26,28.74,28.74,0,0,0-.73,6,13.15,13.15,0,0,1,3.24,4.95c2.1,5.91-1,11.78-3,14.82a4.57,4.57,0,0,0-4.51,1,4.69,4.69,0,0,0-1.92-5.66,4.44,4.44,0,0,0-4.46,0,4.31,4.31,0,0,0-1.24,1,4.59,4.59,0,0,0-2.22-3.52,12.38,12.38,0,0,1,11.26-13.38,30.42,30.42,0,0,0,1.21-6.86,30.11,30.11,0,0,0,0-3.69c0-.33,0-.66-.08-1a2.5,2.5,0,0,1-1.16-1.6,2.94,2.94,0,0,1,1.16-2.52,4.48,4.48,0,0,1,6.47,1.09A3,3,0,0,1,249.42,202.89Z" fill="#b4162c"/><path d="M191,116.32q-4.16.5-8.11,1.19-2.79.49-5.44,1.06c-3.29.69-6.45,1.47-9.49,2.32l-1.64.46c-1.81.52-3.57,1.07-5.28,1.63s-3.21,1.08-4.74,1.64l-1.66.61-2.68,1c-4,1.6-7.77,3.26-11.15,4.93l-1.09.53-1.33.67-.13.07a150.85,150.85,0,0,0-15.13,8.84q-2.39-11.25-4.23-21.87A162,162,0,0,1,188.79,93Q189.89,104.64,191,116.32Z" fill="#fff"/><path d="M232.37,79.17q-.78,7-1.57,14.08l-2.55,22.93q-.45,4-.89,8c-3.77-.33-7.74-.59-11.89-.72-1.93-.07-3.92-.11-5.94-.14s-4.12,0-6.11,0c-4.1.08-8,.27-11.71.52l-.72-7.55q-1.1-11.67-2.2-23.36l-1.26-13.22a81.86,81.86,0,0,1,44.84-.57Z" fill="#fff"/><path d="M280.08,259.33a37.89,37.89,0,0,1-5.2,14.43,460.43,460.43,0,0,1-62.24,5.17,456.59,456.59,0,0,1-67.39-4,32.11,32.11,0,0,1-5.56-24.48c1.4.09,2.82.19,4.24.27,21.21,1.32,44.1,1.93,68.43,1.44,22.12-.45,43-1.77,62.46-3.65,1.73-.16,3.44-.32,5.14-.5A38.11,38.11,0,0,1,280.08,259.33Z" fill="#fff"/><path d="M149.75,233.34c0-.08-.05-.16-.08-.23" fill="#fff"/><path d="M160.8,223.61c-.09-.26-.17-.52-.26-.79" fill="#fff"/><path d="M229.4,220.69q1.84-14.16,3.25-29.33c.31-3.39.6-6.76.86-10.08" fill="#fff"/><path d="M185.17,181.81q.66,5.19,1.34,10.41,2,15.69,3.9,31.23Z" fill="#fff"/><path d="M220.77,221.36Q221,204.24,222,186q.17-3.06.36-6.08" fill="#fff"/><path d="M197.21,180.07c.1,1.14.17,2.28.26,3.42q1.44,20,2,38.91Z" fill="#fff"/><path d="M184.19,238.92a5.67,5.67,0,0,1,1.86-5.41,5.37,5.37,0,0,1,6-.57,4.8,4.8,0,0,1,2.79-4.84,4.68,4.68,0,0,1,5.85,2.28" fill="#fff"/><path d="M207.49,239.58a4.06,4.06,0,0,1,2.79-3.22,4,4,0,0,1,4.27,1.42" fill="#fff"/><path d="M244.65,235.8a3.9,3.9,0,0,1,1.18.65,4.53,4.53,0,0,1,1.49,4.27" fill="#fff"/><path d="M224.57,230.09a4.36,4.36,0,0,1,4.37-2,4.13,4.13,0,0,1,1.36.5" fill="#fff"/><path d="M170.08,227.62a3.38,3.38,0,0,0-4.45-.76,3.56,3.56,0,0,0-1.21,4.56" fill="#fff"/><path d="M214.74,215.28l-8.86,0c-.19-2.11-1.45-17.94,1.64-21.73a3.8,3.8,0,0,1,2.67-1.67c1.39,0,2.43,1.36,2.86,1.92C216.17,197.84,214.91,213.24,214.74,215.28Z" fill="#fff"/><path d="M242.68,203.68a.17.17,0,0,1,0-.07" fill="#fff"/><path d="M215.47,123.43q-.21,9.3-.45,18.6a26,26,0,0,1-5.11.69,26.43,26.43,0,0,1-5.58-.44c-.3-6.31-.61-12.61-.91-18.94q3-.06,6.11,0C211.55,123.32,213.54,123.37,215.47,123.43Z" fill="#fff"/><path d="M233.71,231.1a19.9,19.9,0,0,1,.21-4.75,11,11,0,0,1,1.65-4.56,7.87,7.87,0,0,1,1.7-1.8,5.53,5.53,0,0,1,2.28-1.08,4.26,4.26,0,0,1,4.37,1.89l-.08.07a5.8,5.8,0,0,0-2-.93,4.26,4.26,0,0,0-2,.06,7.48,7.48,0,0,0-3.53,2.33,10.29,10.29,0,0,0-1.81,4.13,19.58,19.58,0,0,0-.63,4.64Z" fill="#fff"/><path d="M228.32,125.37l-1.06-.1c-5.86-.51-11.83-.8-17.73-.85s-11.87.14-17.74.57l-1.06.07-4.37-46.13.87-.26a83.07,83.07,0,0,1,45.42-.58l.91.25Zm-20.53-3.19h1.75c5.61,0,11.28.3,16.85.77L231.18,80a80.82,80.82,0,0,0-42.47.55l4,42.13C197.7,122.35,202.76,122.18,207.79,122.18Z" fill="#414042"/><path d="M294,141a156.25,156.25,0,0,0-65.81-23.64l.26-2.22a158.25,158.25,0,0,1,66.71,24Z" fill="#414042"/><path d="M123.71,142.25l-1.19-1.87a158.11,158.11,0,0,1,68.35-25.17l.25,2.22A156,156,0,0,0,123.71,142.25Z" fill="#414042"/><path d="M206,280.1a460.26,460.26,0,0,1-60.86-4.05l-.46-.06-.28-.38a33.25,33.25,0,0,1-5.76-25.35l.17-1,1,.06c24.07,1.63,48.49,2.2,72.59,1.71,22.46-.46,45.18-1.85,67.51-4.14l1-.11.16,1a38.66,38.66,0,0,1-5.23,26.52l-.26.43-.5.08a462.14,462.14,0,0,1-62.38,5.19Q209.32,280.09,206,280.1Zm-60.11-6.2a458.77,458.77,0,0,0,66.76,3.92,460.47,460.47,0,0,0,61.6-5.09,36.39,36.39,0,0,0,4.81-23.5c-22,2.24-44.47,3.6-66.65,4.05-23.83.49-48-.07-71.79-1.64a30.9,30.9,0,0,0,5.27,22.26Z" fill="#414042"/><path d="M257.68,224.32l-2.07-.7c4.82-14.9,9.17-30.17,12.93-45.39,3.81-15.42,7.11-31.2,9.82-46.88l2.15.39c-2.72,15.74-6,31.56-9.86,47C266.88,194,262.52,209.37,257.68,224.32Z" fill="#414042"/><path d="M148.73,233.74c-6.43-17.34-12.2-35.18-17.14-53-5.54-20-10.18-40.59-13.78-61.07l-.13-.72.6-.41a162.39,162.39,0,0,1,70.37-26.67l.27,2.22A160.31,160.31,0,0,0,120.08,120c3.57,20.18,8.15,40.41,13.61,60.14,4.92,17.78,10.67,35.56,17.08,52.84Z" fill="#414042"/><path d="M159.49,223.2c-4.89-15-9.28-30.44-13-45.81-3.6-14.71-6.72-29.76-9.28-44.73l2.15-.38c2.55,14.91,5.66,29.91,9.25,44.57,3.74,15.32,8.12,30.67,13,45.65Z" fill="#414042"/><path d="M251.39,223l-1.56-.52c2.64-8.22,5.07-16.64,7.23-25s4-16.71,5.68-25.12a8.94,8.94,0,0,0-1.79-.86,9.24,9.24,0,0,0-2.06-.5L257.37,177l-.82-.24a22.63,22.63,0,0,0-2.43-.59,25.53,25.53,0,0,0-2.77-.33l-1-.05,1.36-6.28a11.33,11.33,0,0,0-2.06-.53,11.71,11.71,0,0,0-1.87-.17l-1,6.24-.83-.17c-.89-.19-1.8-.34-2.7-.44s-2.05-.19-3.09-.21l-.88,0,.54-6a15,15,0,0,0-2.09-.37,14.2,14.2,0,0,0-2.44,0c-.49,7.85-1.1,15.8-1.82,23.61-.9,9.77-2,19.64-3.25,29.36l-1.62-.22c1.26-9.69,2.35-19.55,3.24-29.3.74-8,1.37-16.2,1.86-24.27l0-.69.68-.09a15.92,15.92,0,0,1,6.51.58l.64.2-.5,5.6c.8,0,1.59.1,2.37.2s1.34.18,2,.3l1-5.9.67,0a13,13,0,0,1,2.85.18,13.56,13.56,0,0,1,3.06.88l.63.26-1.24,5.78c.67.06,1.34.16,2,.28s1.19.24,1.79.39l1.44-5.78.67,0a11.24,11.24,0,0,1,5.8,2l.45.32-.11.54c-1.67,8.62-3.63,17.29-5.81,25.77S254,214.7,251.39,223Z" fill="#414042"/><path d="M274.72,248.48a6.7,6.7,0,0,0-.64-6.22,6.79,6.79,0,0,0-5.28-2.81l-.73,0,.19-.76a6.12,6.12,0,0,0-.15-3.45,5,5,0,0,0-2-2.6,5,5,0,0,0-3.11-.77,5.9,5.9,0,0,0-3,1.17l-2.28,1.69.57-2.9a9,9,0,0,0,0-3.31,6.63,6.63,0,0,0-1.39-3,7.11,7.11,0,0,0-2.73-2.06,8,8,0,0,0-3.57-.63l0-.22a6.9,6.9,0,0,1,4-.35,7.51,7.51,0,0,1,3.72,2,7.89,7.89,0,0,1,2.19,3.78,8.82,8.82,0,0,1,0,4.42l-1.71-1.22a7.2,7.2,0,0,1,8.3,0,6.75,6.75,0,0,1,2.46,3.57,7.53,7.53,0,0,1-.06,4.26l-.55-.8a7.85,7.85,0,0,1,3.35,1.13,7.27,7.27,0,0,1,2.47,2.52,6.82,6.82,0,0,1,.94,3.37,7.8,7.8,0,0,1-.73,3.35Z" fill="#414042"/><path d="M167.93,219.38a8.41,8.41,0,0,0-3.55.87,6.71,6.71,0,0,0-2.57,2.26,7.45,7.45,0,0,0-1.15,3.18,8.93,8.93,0,0,0,.25,3.37l.57,2.15-2-.74a9,9,0,0,0-4.07-.45,6.55,6.55,0,0,0-3.68,1.78,7.63,7.63,0,0,0-2.12,3.7,8.72,8.72,0,0,0,.09,4.39l.21.74-.71.05a6.62,6.62,0,0,0-3,.95,5.68,5.68,0,0,0-2.08,2.43,8.65,8.65,0,0,0,0,6.63l-.2.09a10.07,10.07,0,0,1-.91-3.43,8.33,8.33,0,0,1,.49-3.59,6.53,6.53,0,0,1,2.2-2.94,7.17,7.17,0,0,1,3.42-1.35l-.51.8a10.1,10.1,0,0,1-.37-5.09,9.3,9.3,0,0,1,2.33-4.62A8.7,8.7,0,0,1,155,228a10.06,10.06,0,0,1,5.21.29l-1.49,1.41a9.4,9.4,0,0,1-.18-4.38,8.51,8.51,0,0,1,1.87-3.92,7.1,7.1,0,0,1,3.56-2.27,7.46,7.46,0,0,1,4,0Z" fill="#414042"/><path d="M189.6,223.55c-1.25-10.32-2.57-20.83-3.9-31.22q-1.63-12.83-3.33-25.52a12.51,12.51,0,0,0-2.2.29,14.56,14.56,0,0,0-1.59.48l1.45,6.84-.95.06a16,16,0,0,0-2.57.4,16.44,16.44,0,0,0-1.69.51l-.79.28L172,169.21a10.06,10.06,0,0,0-1.78.44,9.89,9.89,0,0,0-1.87.86l1.29,6.11-.86.13a17.13,17.13,0,0,0-2.23.51,16.57,16.57,0,0,0-2.12.82l-.79.36-2.13-5.62a8.86,8.86,0,0,0-1.94.53,9.57,9.57,0,0,0-1.9,1c1.41,6.6,2.93,13.24,4.52,19.75,2,8.31,4.24,16.7,6.58,24.94l-1.57.46c-2.34-8.26-4.56-16.66-6.6-25-1.64-6.71-3.2-13.55-4.64-20.34l-.12-.52.42-.33a11.58,11.58,0,0,1,2.72-1.53,11.07,11.07,0,0,1,3-.72l.62-.06,2,5.2c.5-.21,1-.39,1.53-.55s1.06-.3,1.6-.41l-1.17-5.54.48-.31a11.93,11.93,0,0,1,2.7-1.34,12.36,12.36,0,0,1,2.81-.6l.65-.05,2,6.13c.35-.11.71-.2,1.07-.29a17,17,0,0,1,1.89-.34l-1.34-6.34.62-.27a13.19,13.19,0,0,1,2.51-.83,13.82,13.82,0,0,1,3.27-.34h.7l.1.71q1.74,13.07,3.43,26.26c1.34,10.4,2.65,20.91,3.9,31.23Z" fill="#414042"/><path d="M185.32,182.63,185,181c4-.76,8.09-1.35,12.13-1.75l.16,1.66C193.31,181.3,189.27,181.88,185.32,182.63Z" fill="#414042"/><path d="M233.38,182.1c-3.67-.61-7.41-1.08-11.12-1.39l.13-1.67c3.75.32,7.54.79,11.25,1.41Z" fill="#414042"/><path d="M198.69,222.43c-.43-12.9-1.11-26-2-38.88-.58-8.11-1.27-16.28-2-24.28l-.06-.64.59-.23a17.09,17.09,0,0,1,2.53-.75,18.9,18.9,0,0,1,3.47-.34h.69l1,6.49q.72-.12,1.44-.18c.42,0,.84-.06,1.27-.06l.18-6.83.65-.12a23,23,0,0,1,3.41-.4,24.19,24.19,0,0,1,3.18.1l.72.08.12,6.52c.61,0,1.22-.06,1.82,0s1,0,1.45.06l.34-6.25.65-.11a12,12,0,0,1,6.18.56l.6.21-.06.65c-.81,9.29-1.48,18.72-2,28-.64,11.72-1,23.62-1.21,35.37l-1.63,0c.16-11.78.56-23.7,1.21-35.44.49-9.1,1.15-18.32,1.94-27.42a10.79,10.79,0,0,0-2.1-.39,10.6,10.6,0,0,0-2,0l-.36,6.65-.86-.1c-.72-.08-1.44-.13-2.15-.14a21.16,21.16,0,0,0-2.52.12l-.89.09-.12-6.82a20.71,20.71,0,0,0-2.23,0,19.55,19.55,0,0,0-2.52.25l-.19,7.13-.83,0a15.07,15.07,0,0,0-1.9,0,16.42,16.42,0,0,0-2.07.31l-.85.19-1-6.8a15.35,15.35,0,0,0-2.44.3,14.8,14.8,0,0,0-1.7.47c.75,7.8,1.41,15.76,2,23.66.93,12.92,1.62,26,2,39Z" fill="#414042"/><path d="M184.09,238.94a5.77,5.77,0,0,1,0-3.24,5.87,5.87,0,0,1,1.81-2.8,6.1,6.1,0,0,1,6.55-.74l-1.27.85a6.22,6.22,0,0,1,.72-3.76,4.81,4.81,0,0,1,3.09-2.39,4.88,4.88,0,0,1,3.72.62,4.51,4.51,0,0,1,2.06,2.84l-.19.11a5.74,5.74,0,0,0-2.51-1.51,4,4,0,0,0-2.49.1,4.25,4.25,0,0,0-1.88,1.42,3.86,3.86,0,0,0-.8,2.43l0,1.67-1.29-.82a4.71,4.71,0,0,0-5.1.07,5.32,5.32,0,0,0-2.28,5.11Z" fill="#414042"/><path d="M207.38,239.56a4.27,4.27,0,0,1,2.85-4.11,3.37,3.37,0,0,1,2.83-.07,2.74,2.74,0,0,1,1.57,2.33l-.17.14a17.35,17.35,0,0,0-2.12-.37,10.8,10.8,0,0,0-1.69-.3,3.39,3.39,0,0,0-1.75.7,3.94,3.94,0,0,0-1.3,1.72Z" fill="#414042"/><path d="M224.48,230a4.6,4.6,0,0,1,2-1.91,4.39,4.39,0,0,1,2.84-.35,4.75,4.75,0,0,1,2.55,1.5,5.33,5.33,0,0,1,1.26,2.79l-1.11-.41a5.76,5.76,0,0,1,6.5-1.37,6.16,6.16,0,0,1,2.75,2.36,5.86,5.86,0,0,1,.89,3.64l-1.62-1.13a5.2,5.2,0,0,1,5.49.6,4.46,4.46,0,0,1,1.48,2.39,4.58,4.58,0,0,1-.13,2.6l-.21,0a5.7,5.7,0,0,0-.68-2.17,3.63,3.63,0,0,0-1.41-1.37,3.86,3.86,0,0,0-3.56.06l-1.72.9.11-2a4.72,4.72,0,0,0-.47-2.36A3.93,3.93,0,0,0,237.8,232a4.22,4.22,0,0,0-4.83.65l-1,1-.06-1.39a4.06,4.06,0,0,0-2.71-3.62,4.1,4.1,0,0,0-4.5,1.58Z" fill="#414042"/><path d="M170,227.69a3.22,3.22,0,0,0-2.12-.76,2.79,2.79,0,0,0-1.83.72c-.48.45-.55,1.07-.84,1.56a7.5,7.5,0,0,0-.69,2.16l-.2.1a2.76,2.76,0,0,1-1.22-2.81,3.44,3.44,0,0,1,2-2.5,3.87,3.87,0,0,1,3-.33,3.63,3.63,0,0,1,2.12,1.72Z" fill="#414042"/><path d="M215.48,216.12l-10.36-.05-.06-.76c-.36-4.27-1.29-18.5,1.83-22.33a4.6,4.6,0,0,1,3.29-2h0c1.79,0,3,1.63,3.51,2.25,3.13,4.1,2.2,18,1.85,22.11Zm-8.85-1.71,7.35,0c.61-7.74.55-17.37-1.57-20.16-.37-.48-1.23-1.61-2.22-1.61h0c-.92,0-1.71,1-2,1.38C206.05,196.63,206,206.45,206.63,214.41Z" fill="#414042"/><path d="M209.08,143.85a27.19,27.19,0,0,1-4.94-.46l-.85-.16-1-19.83,2.18-.11.87,18a25,25,0,0,0,4.49.26,24.29,24.29,0,0,0,4.08-.47l.43-17.73,2.18.06-.47,19.46-.82.2a27.33,27.33,0,0,1-5.33.71Z" fill="#414042"/><path d="M268.93,233.6l-2-.79c6.19-16.79,11.75-34.06,16.52-51.32,5.59-20.18,10.25-40.88,13.86-61.55a160.51,160.51,0,0,0-66.62-25.58l.3-2.21a162.7,162.7,0,0,1,68.12,26.34l.6.4-.13.72c-3.64,21-8.36,42-14,62.49C280.72,199.42,275.14,216.75,268.93,233.6Z" fill="#414042"/><path d="M123.81,326.63l.49-.06c.49,0,1.3,0,2.43.08.59,0,1,0,1.21,0s1,0,2-.07l3.69-.2c1-.08,2.09-.12,3.37-.12a13.74,13.74,0,0,1,5.42.88,6.48,6.48,0,0,1,3.1,2.77,7.39,7.39,0,0,1,1.1,3.75,7.18,7.18,0,0,1-2.38,5.37,8.93,8.93,0,0,1-6.41,2.26,7.29,7.29,0,0,1-1.89-.2,7,7,0,0,1-1.73-.81,1.09,1.09,0,0,1-.5-.54.5.5,0,0,1,.24-.19,1.84,1.84,0,0,1,.63.12,6.45,6.45,0,0,0,1.86.23,7,7,0,0,0,3.24-.77A5.21,5.21,0,0,0,142,337a6.21,6.21,0,0,0,.78-3,6,6,0,0,0-.82-3,6.64,6.64,0,0,0-2.16-2.33,7,7,0,0,0-2.32-.83,12.18,12.18,0,0,0-2.43-.34,7.63,7.63,0,0,0-3.18.36l0,.27.06,2.25,0,.39c0,.36,0,.91,0,1.65,0,2.7,0,4.38.13,5v1.11l.28,9.07c0,.14,0,.38-.05.74a8.59,8.59,0,0,0-.06.93,4.45,4.45,0,0,0,.18,1.45q.51.13,3,.66l1.27.29a.63.63,0,0,1,.31.26.7.7,0,0,1-.23.39,1.13,1.13,0,0,1-.55.09c-.18,0-.58,0-1.21-.1-1.25-.12-2.22-.18-2.93-.18l-3.81.14-2.27-.06-1.26,0,0-.52,2.82-.49a1.85,1.85,0,0,0,.84-.36,1.93,1.93,0,0,0,.22-1.09c0-.12,0-.38,0-.78s0-.66,0-1.15q0-2.34-.22-10c-.06-2.38-.08-4.8-.08-7.26v-.34c0-.95-.16-1.56-.48-1.81-.53-.43-1.87-.79-4-1.07a.89.89,0,0,1-.1-.36A.78.78,0,0,1,123.81,326.63Z"/><path d="M163.14,341.49l-8.69.06h-1.64c-.66,0-1.34,0-2,.08a3.18,3.18,0,0,0-.19.82l0,.2v.19l0,1a7.3,7.3,0,0,0,.83,3,6.11,6.11,0,0,0,2.38,2.68,7.93,7.93,0,0,0,3.87,1,8.41,8.41,0,0,0,2-.28,10.09,10.09,0,0,0,2.08-1l1.56-1.17.13.79c0,.1,0,.2,0,.3a9.34,9.34,0,0,1-2.47,2,12.61,12.61,0,0,1-3,1.25,11.44,11.44,0,0,1-2.43.18,8.27,8.27,0,0,1-3-.58,7.26,7.26,0,0,1-3.48-2.81,8.44,8.44,0,0,1-1.26-4.7,9.61,9.61,0,0,1,.35-2.24,11.37,11.37,0,0,1,1.29-2.92,5.86,5.86,0,0,1,1.54-1.73,10.56,10.56,0,0,1,2.27-1.33,9.11,9.11,0,0,1,3.27-.54,7,7,0,0,1,3.29.68,6.23,6.23,0,0,1,2.59,2.3,5.08,5.08,0,0,1,.86,2.59Zm-12.08-.71h1c.74,0,2.93-.11,6.59-.32a3.06,3.06,0,0,0,1.06-.16,1,1,0,0,0,.39-.67,3,3,0,0,0-.44-1.4,2.88,2.88,0,0,0-1.33-1.22,4.87,4.87,0,0,0-2.09-.42,5.07,5.07,0,0,0-4,1.72A3.81,3.81,0,0,0,151.06,340.78Z"/><path d="M167.13,346.94a14.49,14.49,0,0,0,1.22,2.44,5.9,5.9,0,0,0,2,1.76,5.16,5.16,0,0,0,2.49.62,3.88,3.88,0,0,0,2.44-1,2.19,2.19,0,0,0,.87-1.71,3.43,3.43,0,0,0-1-2.38,10,10,0,0,0-3.86-2.06,9.19,9.19,0,0,1-3.83-2.09,3.89,3.89,0,0,1-.17-4.93,4.83,4.83,0,0,1,2.21-1.56,7.49,7.49,0,0,1,2.6-.53,16.42,16.42,0,0,1,2.76.22,7.47,7.47,0,0,1,2.11.68,26.57,26.57,0,0,1,.28,3l0,.63a4.11,4.11,0,0,1-.47,0h-.3a5.76,5.76,0,0,0-2-2.61,4.47,4.47,0,0,0-2.63-1,3,3,0,0,0-2.1.72,2.47,2.47,0,0,0-.8,1.9,2.26,2.26,0,0,0,.65,1.59,8.88,8.88,0,0,0,3,1.58,16.65,16.65,0,0,1,3.49,1.66,4.68,4.68,0,0,1,1.61,1.86,4.8,4.8,0,0,1,.52,2.09,4,4,0,0,1-1,2.56,5.22,5.22,0,0,1-2.47,1.68,8.76,8.76,0,0,1-2.65.49,13.26,13.26,0,0,1-5.07-.94.76.76,0,0,1-.24-.59,5.53,5.53,0,0,0,0-.58c-.23-1.79-.35-2.85-.35-3.18a.36.36,0,0,1,.11-.31A1.08,1.08,0,0,1,167.13,346.94Z"/><path d="M180.91,352l0-.57a1,1,0,0,1,.33-.15c.1,0,.46-.05,1.09-.09s1-.17,1.18-.39a7.65,7.65,0,0,0,.24-2.71l0-7.84,0-1.39c0-.12,0-.56,0-1.33,0-.35,0-.78,0-1.29l-.08-3.45,0-3a2,2,0,0,0-.34-1.4,6.07,6.07,0,0,0-2.37-.56v-.24c0-.08,0-.19,0-.34a14.31,14.31,0,0,0,2.19-.59c.33-.14,1.18-.55,2.54-1.24h.67c0,.31,0,.49,0,.56v1.73l0,.85.07,1.57,0,2.36,0,3.94-.07,4.89v1.5c0,.19,0,.45,0,.78l.24,0a2.77,2.77,0,0,0,1.5-.5,40.59,40.59,0,0,0,4.26-3c.58-.53.87-.92.87-1.16a1.07,1.07,0,0,0-.28-.56,5.1,5.1,0,0,0-1.45-.43l-.52-.1c-.26-.07-.48-.11-.65-.14l0-.2a1.28,1.28,0,0,1,.11-.4q3.42-.12,6-.12c.95,0,2,0,3,.06v.26a.9.9,0,0,1-.11.36l-1,.18a7,7,0,0,0-2,.55,17,17,0,0,0-3.44,2.29c-.71.58-1.33,1.07-1.85,1.47l-.77.62a1.75,1.75,0,0,0,.28.33l.34.36.93.93q2.34,2.26,3.47,3.5c.24.27.52.56.82.87,1.13,1.16,1.78,1.8,2,1.93a5.63,5.63,0,0,0,1.8.56l1,.18a1.08,1.08,0,0,1,.09.37l0,.2c-1-.08-1.76-.12-2.21-.12h-.39l-6,.16a4,4,0,0,1-.48,0,1.53,1.53,0,0,1-.45-.08.79.79,0,0,1-.06-.28v-.14a.54.54,0,0,1,.23-.21,23.94,23.94,0,0,0,2.48-.26.72.72,0,0,0,.37-.22,2.2,2.2,0,0,0-.63-1.09c-.41-.51-1.46-1.61-3.13-3.32a15.39,15.39,0,0,0-2.06-1.9,2.58,2.58,0,0,0-1.29-.27h-.83c0,.48-.08,1.57-.08,3.27a6.68,6.68,0,0,0,.43,3.05,1.49,1.49,0,0,0,1.13.48,2.4,2.4,0,0,1,1.14.3c.12.08.19.26.22.55l-2.19,0c-.95,0-2,0-3.11.06-.68,0-1.22,0-1.61,0Z"/><path d="M201.09,344a7.78,7.78,0,0,1,.61-2.89,8,8,0,0,1,1.87-2.76,8.52,8.52,0,0,1,2.67-1.82,12.22,12.22,0,0,1,4.81-.84,9.5,9.5,0,0,1,6.76,2.55,8.07,8.07,0,0,1,2.72,6.11,7.39,7.39,0,0,1-2.85,5.67,11.17,11.17,0,0,1-12.26,1.21,8.72,8.72,0,0,1-3.06-2.88A7.64,7.64,0,0,1,201.09,344Zm9.58,7.74a6.67,6.67,0,0,0,3.17-.81,5.8,5.8,0,0,0,2.44-2.61,9.07,9.07,0,0,0,.91-4.16,11.2,11.2,0,0,0-.7-3.6,6,6,0,0,0-2.17-3.07,5.87,5.87,0,0,0-3.44-1,7.56,7.56,0,0,0-2.91.61,5.38,5.38,0,0,0-2.52,2.37,9.8,9.8,0,0,0-1,5,7.63,7.63,0,0,0,1.79,5.48A6,6,0,0,0,210.67,351.74Z"/><path d="M220.86,336.19c1.61,0,3,.07,4.21.16.85,0,1.47,0,1.86,0l.52,0,2.42,0,.8.1a.42.42,0,0,1,.24.22.76.76,0,0,1-.13.41,3.17,3.17,0,0,1-.76.12,18.5,18.5,0,0,0-2.72.45c-.11.07-.16.13-.16.2a1.67,1.67,0,0,0,.22.61c0,.06.09.22.2.47l2.17,4.78c1,2.18,1.86,4,2.69,5.53.56-1,1.08-2,1.55-3.05s1.17-2.7,2.1-4.95a18.76,18.76,0,0,0,.73-2.36,2.33,2.33,0,0,0,.07-.47.81.81,0,0,0-.3-.53,2.18,2.18,0,0,0-1-.46l-2-.3a.83.83,0,0,1-.28-.22v-.15a1.28,1.28,0,0,1,0-.26,7.3,7.3,0,0,1,.76-.06l2.55,0,1.24-.06c2.29,0,3.67,0,4.13.06q.14,0,.24.24a.72.72,0,0,1-.13.39l-.67.16-.41,0a5.65,5.65,0,0,0-2.3.48,6,6,0,0,0-1,2c-.22.6-.54,1.35-1,2.27l-1.12,2.5-.52,1.18-3.35,7.12h-.66a10,10,0,0,0-.48-1l-1.64-3.2-3.88-8.33a15.81,15.81,0,0,0-1.41-2.63,14.24,14.24,0,0,0-2.77-.83,1.74,1.74,0,0,1-.13-.46Z"/><path d="M242.27,351.33a9,9,0,0,1,1.25-.24,4,4,0,0,0,1.64-.42,1.51,1.51,0,0,0,.27-1.09l0-.71c0-.26,0-.6,0-1l0-6.08a2.46,2.46,0,0,0-.34-1.58,4,4,0,0,0-2.17-.77v-.73a6.78,6.78,0,0,0,2.42-1,7.21,7.21,0,0,0,2.08-2.43l.74,0c0,.62.06,1.07.06,1.33v1.32l0,.35q.25-.15.6-.39a14.64,14.64,0,0,1,2.67-1.47,13.48,13.48,0,0,1,2.42-.79,7,7,0,0,1,1.52-.16,5.29,5.29,0,0,1,3,.88,4,4,0,0,1,1.66,2.06,18.73,18.73,0,0,1,.38,4.7v3c0,.08,0,.34,0,.79s0,1,0,1.55a7,7,0,0,0,.13,1.77,1.19,1.19,0,0,0,.56.52,5.35,5.35,0,0,1,2.43.62v.16a1.43,1.43,0,0,1-.13.49h-.41l-2.86,0-2.82.06c-1,0-2,0-2.88,0l-.13-.42a.56.56,0,0,1,.16-.31,5.44,5.44,0,0,1,1.64-.32,4.44,4.44,0,0,0,.87-.12,2.31,2.31,0,0,0,.58-.32,1.68,1.68,0,0,0,.26-.79c0-.1,0-.28,0-.56q-.06-.92-.09-4.56v-1l.05-1.59c0-1.71-.38-2.89-1.13-3.54a4.43,4.43,0,0,0-3-1,7.26,7.26,0,0,0-2.84.59,9.56,9.56,0,0,0-2.68,1.75c0,.64,0,1.18,0,1.63l.07,4.39c0,2.29,0,3.7.11,4.22a.85.85,0,0,0,.15.43,1.54,1.54,0,0,0,.69.26c.35.07.75.16,1.2.28l.9.22a.82.82,0,0,1,.59.39l0,.4h-2.28l-4.67-.06-2.06,0h-.54l-.05-.26A2,2,0,0,1,242.27,351.33Z"/><path d="M264.89,337.88l0-.59c.94-.25,1.44-.4,1.51-.44a7,7,0,0,0,1.64-1,7,7,0,0,0,1.44-1.48l.41,0,.26,0c.06.64.09,1.1.09,1.39,0,.07,0,.37-.05.9v1.05l0,5.72-.06,6.06a1.35,1.35,0,0,0,.26,1,4.45,4.45,0,0,0,1.67.65c.57.14,1,.27,1.3.37a.69.69,0,0,1,.06.24.65.65,0,0,1-.11.3c-.56,0-1.28-.05-2.16-.1-1.2-.09-2-.14-2.39-.14l-3.46.1c-.43,0-.85.05-1.26.1a1.61,1.61,0,0,1-.34-.06.42.42,0,0,1-.11-.24c0-.18.14-.33.41-.43.06,0,.79-.18,2.21-.46a1.46,1.46,0,0,0,.91-.4,2,2,0,0,0,.37-1.33q0-1.51,0-8.37a6.23,6.23,0,0,0-.13-1.7,1.57,1.57,0,0,0-.57-.55A6.81,6.81,0,0,0,264.89,337.88Zm1.81-10.31a1.43,1.43,0,0,1,.56-1.13,1.94,1.94,0,0,1,1.33-.48,2.08,2.08,0,0,1,1.41.54,1.53,1.53,0,0,1,.6,1.15,1.57,1.57,0,0,1-.6,1.16,2.09,2.09,0,0,1-1.41.55,1.9,1.9,0,0,1-1.34-.5A1.64,1.64,0,0,1,266.7,327.57Z"/><path d="M274.51,352l0-.57a.84.84,0,0,1,.32-.15c.1,0,.47-.05,1.09-.09s1-.17,1.19-.39a8.07,8.07,0,0,0,.23-2.71l.05-7.84-.05-1.39c0-.12,0-.56.05-1.33,0-.35,0-.78,0-1.29l-.09-3.45,0-3a2,2,0,0,0-.33-1.4,6.13,6.13,0,0,0-2.37-.56v-.24a2.38,2.38,0,0,1,0-.34,15,15,0,0,0,2.19-.59c.33-.14,1.17-.55,2.53-1.24H280c0,.31,0,.49,0,.56v1.73l0,.85.06,1.57,0,2.36,0,3.94-.06,4.89v1.5c0,.19,0,.45,0,.78l.24,0a2.71,2.71,0,0,0,1.49-.5,40,40,0,0,0,4.27-3c.57-.53.86-.92.86-1.16a1,1,0,0,0-.28-.56,5,5,0,0,0-1.45-.43l-.52-.1a6.56,6.56,0,0,0-.65-.14l0-.2a1,1,0,0,1,.11-.4q3.42-.12,5.95-.12c.95,0,2,0,3.05.06v.26a.86.86,0,0,1-.1.36l-1,.18a7,7,0,0,0-2,.55,17,17,0,0,0-3.44,2.29c-.71.58-1.32,1.07-1.84,1.47l-.78.62a2.24,2.24,0,0,0,.28.33l.35.36q.26.28.93.93,2.34,2.26,3.46,3.5c.25.27.52.56.83.87a25.64,25.64,0,0,0,2,1.93,5.47,5.47,0,0,0,1.79.56l1,.18a1,1,0,0,1,.08.37l0,.2c-1-.08-1.76-.12-2.21-.12h-.39l-6,.16-.48,0a1.54,1.54,0,0,1-.46-.08.79.79,0,0,1-.06-.28v-.14c.09-.11.16-.19.24-.21a24.33,24.33,0,0,0,2.48-.26.76.76,0,0,0,.37-.22,2.2,2.2,0,0,0-.63-1.09c-.42-.51-1.46-1.61-3.13-3.32a15.2,15.2,0,0,0-2.07-1.9,2.58,2.58,0,0,0-1.29-.27H280q-.09.72-.09,3.27a6.64,6.64,0,0,0,.44,3.05c.15.25.53.41,1.12.48a2.45,2.45,0,0,1,1.15.3.77.77,0,0,1,.22.55l-2.19,0q-1.43,0-3.12.06c-.68,0-1.21,0-1.6,0Z"/><path d="M74,379.54a10.69,10.69,0,0,1,.91-4.2,28.77,28.77,0,0,1,2.41-4.44,23.58,23.58,0,0,1,3.35-3.34,15.81,15.81,0,0,1,4-2.09,9.68,9.68,0,0,1,3.19-.63l1.28-.12c.52-.05,1-.08,1.33-.08a10.54,10.54,0,0,1,8.08,3.89q2.57,2.88,2.56,7.91a12.59,12.59,0,0,1-.81,4.05,14.88,14.88,0,0,1-2.4,4.33,21.86,21.86,0,0,1-3.67,3.65,14.17,14.17,0,0,1-4.41,2.38,14.87,14.87,0,0,1-4.61.75,10.67,10.67,0,0,1-5.28-1.33,11.28,11.28,0,0,1-3.85-3.5A12.61,12.61,0,0,1,74,379.54Zm6.58,9.51a6.07,6.07,0,0,0,1.29.87,23.55,23.55,0,0,0,2.37.76,4.78,4.78,0,0,0,1.34.08l.91,0a13.69,13.69,0,0,0,3.28-1,9.63,9.63,0,0,0,2.63-2.13,17.75,17.75,0,0,0,2.8-4.21,29.13,29.13,0,0,0,1.62-4,14.09,14.09,0,0,0,.72-4.21A12.5,12.5,0,0,0,97,371.8a11,11,0,0,0-.8-2.21,9.38,9.38,0,0,0-1.75-2.21,7.29,7.29,0,0,0-4.87-1.85,10.06,10.06,0,0,0-4.45,1,11.13,11.13,0,0,0-3.64,2.79,18.75,18.75,0,0,0-2.87,5.21,17.63,17.63,0,0,0-1.36,6.34,13,13,0,0,0,1,5.38A9.3,9.3,0,0,0,80.55,389.05Z" fill="#b4162c"/><path d="M117.41,376.94l2.41-6.86c.1-.29.25-.76.44-1.43a2,2,0,0,1,.09-.31,7.29,7.29,0,0,0,.47-1.66.63.63,0,0,0-.29-.48,6.09,6.09,0,0,0-2-.71l-.47-.11.18-.58a17.41,17.41,0,0,0,5-.46l.27,0a2.52,2.52,0,0,1,.58.08c-.1.4-.18.67-.22.82l0,.12L122,370.26l-2.23,6.36c-.4,1.08-.66,1.89-.8,2.4a17,17,0,0,1-.67,2.15l-3.16,8.44.07.12c.53-.08,1.9-1.2,4.09-3.36a1.31,1.31,0,0,1,.54.36,16.88,16.88,0,0,1-4.15,4,5.34,5.34,0,0,1-2.48,1.1,2.31,2.31,0,0,1-.49-.08.56.56,0,0,1-.13-.32,11.59,11.59,0,0,1,.76-2.76c.5-1.45.85-2.49,1-3.14-.38.33-1,.88-1.7,1.65a22.19,22.19,0,0,1-4.51,3.63,6.07,6.07,0,0,1-3.09,1,1.41,1.41,0,0,1-1.18-.55,3.74,3.74,0,0,1-.69-2.41,9.48,9.48,0,0,1,1-4,25.17,25.17,0,0,1,1.88-3.22,18.22,18.22,0,0,1,2.94-3.42,11.7,11.7,0,0,1,3.08-2.11,6.71,6.71,0,0,1,2.66-.64,3.42,3.42,0,0,1,1.66.39A3.6,3.6,0,0,1,117.41,376.94Zm-9.88,12.87a3.87,3.87,0,0,0,2-.74,17.4,17.4,0,0,0,3.93-3.58,15.68,15.68,0,0,0,3.33-7.1,1.77,1.77,0,0,0-.53-1.21,1.47,1.47,0,0,0-1-.58,4.78,4.78,0,0,0-1.93.52,8.43,8.43,0,0,0-2.38,1.76,21.56,21.56,0,0,0-2.18,2.9,27.39,27.39,0,0,0-2.17,3.8,6.56,6.56,0,0,0-.72,2.44,1.79,1.79,0,0,0,.47,1.31A1.56,1.56,0,0,0,107.53,389.81Z" fill="#b4162c"/><path d="M114,400.64a20,20,0,0,1,2.17-.32l1-.1a6.37,6.37,0,0,1,.67-.12,1.3,1.3,0,0,0,.45-.26,4.28,4.28,0,0,0,.6-1l2.21-5.17a23.24,23.24,0,0,0,.89-2.24c.18-.52.37-1,.59-1.51a7.13,7.13,0,0,0,.37-1,5.81,5.81,0,0,1,.22-.65l2.08-5.15,1.67-4.37c.31-.82.59-1.64.85-2.46a25.87,25.87,0,0,0-2.77.56l-.69.18a4.81,4.81,0,0,1-1,.29,1.9,1.9,0,0,1-.56-.13l0-.22a.56.56,0,0,1,.36-.48,21.48,21.48,0,0,1,5.17-1.39,27.12,27.12,0,0,0,1.3-3.38,4.1,4.1,0,0,1,.76-1.65,4.92,4.92,0,0,1,.56,0l.94,0c.25.24.38.44.38.58l-.09.28c0,.07-.13.37-.29.91a11.59,11.59,0,0,1-.42,1.14c-.39.88-.64,1.48-.74,1.78.65,0,1.09-.06,1.31-.06l1.07,0h.11a6.24,6.24,0,0,1,2.46.56,5.65,5.65,0,0,1,2.63,2.13,5.82,5.82,0,0,1,.82,3.11,7.83,7.83,0,0,1-.58,2.84,12.65,12.65,0,0,1-1.76,3.08,11.75,11.75,0,0,1-2.69,2.63,9.58,9.58,0,0,1-2.7,1.42,15.15,15.15,0,0,1-3.49.84,6.84,6.84,0,0,1-1.41-.16,14.35,14.35,0,0,1-1.69-.48c-.59,1.08-1.58,3.37-3,6.9-.27.7-.48,1.22-.65,1.56a2,2,0,0,0-.24.78l0,.18.25.18a7.69,7.69,0,0,0,1.43.2,11.49,11.49,0,0,1,1.47.14,1.13,1.13,0,0,0,.29.13l.11.32a.35.35,0,0,1-.11.22c-.58,0-1,0-1.34,0l-.52,0-.53,0-4.11-.14a9.42,9.42,0,0,0-1.71.12c-.53,0-1,0-1.34,0h-.83l0-.14A1.15,1.15,0,0,1,114,400.64Zm18.55-12.34a12.78,12.78,0,0,0,3-4.14,9.83,9.83,0,0,0,.88-3.71,7,7,0,0,0-.31-2,2.12,2.12,0,0,0-.65-1,4.36,4.36,0,0,0-1.33-.89,7.53,7.53,0,0,0-2.73-.42c-.34,0-.74,0-1.22.06q-1.47,4.09-2.43,6.36l-1.86,4.75a5.46,5.46,0,0,0-.31,1.11,2.73,2.73,0,0,0-.07.59,1.12,1.12,0,0,0,.43,1,3.25,3.25,0,0,0,1.84.45,5.64,5.64,0,0,0,2-.37A16.61,16.61,0,0,0,132.54,388.3Z" fill="#b4162c"/><path d="M146.19,376.46a8.68,8.68,0,0,0-1.39,1.11c-.12.12-.79.92-2,2.39l-.91,0a12.31,12.31,0,0,1,2.07-2.65,11.06,11.06,0,0,1,2.62-2.14,4,4,0,0,1,1.61-.44,1.53,1.53,0,0,1,.76.37.81.81,0,0,1,.22.58,2.63,2.63,0,0,1-.09.67,29.81,29.81,0,0,1-1,3.1,33.65,33.65,0,0,1-1.3,3.2l-1.16,2.45-.09.35c.2-.31.63-1,1.27-2.12q3.63-6.14,5.24-7.57a4.07,4.07,0,0,1,2.77-1,2.58,2.58,0,0,1,1.67.64,1.63,1.63,0,0,1,.58,1.31,2.17,2.17,0,0,1-.65,1.57,1.7,1.7,0,0,1-1.27.45,1.34,1.34,0,0,1-1-.28,2.62,2.62,0,0,1-.34-1.44c-.2-.35-.41-.52-.65-.52a1.19,1.19,0,0,0-.76.34c-.72.57-2.06,2.39-4,5.46a50.64,50.64,0,0,0-3.72,6.41,14.79,14.79,0,0,1-1.21,2.47,1.09,1.09,0,0,1-.91.34,1.5,1.5,0,0,1-.85-.19.59.59,0,0,1-.26-.49,2.31,2.31,0,0,1,.22-.91c.64-1.39,1.67-4,3.08-7.69l1.56-4.25a7.58,7.58,0,0,1,.23-.73l.13-.29C146.63,376.84,146.48,376.67,146.19,376.46Z" fill="#b4162c"/><path d="M161.53,376.6h-1.36l-.62,0-1.45,0h-.29a2.65,2.65,0,0,1,.38-1c2.17-.06,3.46-.1,3.87-.14.29-.64.53-1.15.74-1.53.43-.86.89-1.88,1.35-3.06a8,8,0,0,1,.49-1.06c.32,0,.7-.06,1.13-.06a5.71,5.71,0,0,1,1,.1l0,.32a29.93,29.93,0,0,1-2,4.37,8.4,8.4,0,0,0-.38.94l.75.1h.47l.75,0,2.12,0a2,2,0,0,1-.27,1.07c-.59.05-1.36.08-2.31.08-.47,0-.78,0-.91,0a4.8,4.8,0,0,0-1.3.2l-3.63,7.75c-.4.75-1.1,2.17-2.08,4.27a.44.44,0,0,0,.14.27l.29,0a2.67,2.67,0,0,0,1.49-.67,25.94,25.94,0,0,0,3.66-3.48,2.8,2.8,0,0,1,.65.42,42.61,42.61,0,0,1-3.09,3.17A16.74,16.74,0,0,1,159,390.3a16.06,16.06,0,0,1-1.66.92,3,3,0,0,1-1,.18,1.31,1.31,0,0,1-.81-.21.74.74,0,0,1-.26-.61,9.06,9.06,0,0,1,1.07-2.68l.93-1.85,3.29-7.05Q161.14,377.64,161.53,376.6Z" fill="#b4162c"/><path d="M172.87,376.46a2.85,2.85,0,0,0-.69.06,10.47,10.47,0,0,0-1.54.85,13.13,13.13,0,0,0-1.9,1.63l-1.29.26a13.44,13.44,0,0,1,3.81-3.24,7.5,7.5,0,0,1,3.31-1.17,1.14,1.14,0,0,1,.77.23.75.75,0,0,1,.25.59,8.3,8.3,0,0,1-1.24,3.24c-.11.18-.36.66-.74,1.43q-1.35,2.6-2.86,4.92c-.33.5-.68,1.1-1.07,1.79-.21.37-.4.68-.56.93a3.33,3.33,0,0,0-.69,1.53.33.33,0,0,0,.12.25.44.44,0,0,0,.3.11,2,2,0,0,0,.75-.24,10.56,10.56,0,0,0,2-1.32,11.44,11.44,0,0,0,2.05-2.12h1a17,17,0,0,1-2,2.47,10.63,10.63,0,0,1-3,2.22,5.16,5.16,0,0,1-2.24.64,1.8,1.8,0,0,1-1.1-.27.85.85,0,0,1-.35-.71q0-1.53,2.52-5.76l3.6-6a12.47,12.47,0,0,0,.78-1.47,1.45,1.45,0,0,0,.13-.45A1.19,1.19,0,0,0,172.87,376.46Zm1.27-8.92a1.64,1.64,0,0,1,.6-1.24,2,2,0,0,1,1.41-.55,1.88,1.88,0,0,1,1.29.48,1.43,1.43,0,0,1,.54,1.09,2,2,0,0,1-.67,1.45,2.18,2.18,0,0,1-1.47.38,1.77,1.77,0,0,1-1.21-.44A1.48,1.48,0,0,1,174.14,367.54Z" fill="#b4162c"/><path d="M197,365.39l.07-.57c1.82-.13,3.2-.2,4.14-.2h1v.27l-.69,1.92c0,.06-.58,1.28-1.63,3.68l-3,7q-.81,2-2.68,6.08l-.74,1.73a14.68,14.68,0,0,1-1.25,2.54,3.4,3.4,0,0,0-.74,1.58l.09.32a3.78,3.78,0,0,0,1.81-.89,13.47,13.47,0,0,0,2.86-3,3.12,3.12,0,0,1,.64-.08l.25,0a10.66,10.66,0,0,1-1.8,2.36,19.17,19.17,0,0,1-2.1,1.81,12.48,12.48,0,0,1-2.46,1.33,4,4,0,0,1-1.48.3.82.82,0,0,1-.58-.18.59.59,0,0,1-.19-.46c0-.62,1.19-3.36,3.57-8.2q1.1-2.21,2.28-5.05,2.07-5,3.19-7.07a21.89,21.89,0,0,0,1.62-3.79,1.26,1.26,0,0,0,.05-.29.7.7,0,0,0-.31-.53A5.53,5.53,0,0,0,197,365.39Z" fill="#b4162c"/><path d="M213.78,376.66a2.46,2.46,0,0,0,.29-.54,1.8,1.8,0,0,1,.54-.77c.42,0,.72-.06.92-.06a1.83,1.83,0,0,1,.73.14l.07.24a1,1,0,0,1-.11.35c0,.08-.14.33-.29.76l-.18.4-1.47,3.55c-.63,1.6-1.17,2.88-1.64,3.83a26,26,0,0,0-1.22,2.91,9.41,9.41,0,0,1-.94,2.12l-.09.19c0,.08.08.18.24.31a7.89,7.89,0,0,0,1.59-1.08c1.11-1,1.77-1.6,2-1.84l.44-.48a3.7,3.7,0,0,1,.46.42,20.43,20.43,0,0,1-2,2.1,10.93,10.93,0,0,1-2.54,1.89,3.87,3.87,0,0,1-1.65.42,1.19,1.19,0,0,1-.74-.2.62.62,0,0,1-.24-.5,4.37,4.37,0,0,1,.22-1c.37-.88.63-1.45.78-1.73s.35-.71.6-1.29c.15-.36.46-1,.92-1.87a11.74,11.74,0,0,0-1.08,1.11,30.68,30.68,0,0,1-4.27,3.84,15.67,15.67,0,0,1-2.66,1.33,8.18,8.18,0,0,1-1.83.34,3.79,3.79,0,0,1-1.2-.16,2.12,2.12,0,0,1-.89-.82,2.51,2.51,0,0,1-.25-1.29,7.46,7.46,0,0,1,.64-2.82,14,14,0,0,1,2.21-3.91,20.42,20.42,0,0,1,3.79-3.5,16.49,16.49,0,0,1,3.46-1.88,10.31,10.31,0,0,1,3.6-.8,6,6,0,0,1,1,.08A4,4,0,0,1,213.78,376.66Zm-10.89,13a3.69,3.69,0,0,0,1-.34c.17-.08.77-.44,1.79-1.09,1.88-1.63,2.93-2.56,3.18-2.8a18.47,18.47,0,0,0,1.82-2.13,20.7,20.7,0,0,0,1.17-1.86l.58-1.37a10.55,10.55,0,0,0,.31-1.4,1.44,1.44,0,0,0-.52-1.05,1.69,1.69,0,0,0-1.12-.3,4.17,4.17,0,0,0-1.54.26,11.4,11.4,0,0,0-2.64,1.51,17.64,17.64,0,0,0-3.1,3.21,19.33,19.33,0,0,0-2.12,3.27,7.33,7.33,0,0,0-.85,2.7,1.52,1.52,0,0,0,.35,1.09,1.15,1.15,0,0,0,.87.36Z" fill="#b4162c"/><path d="M225.39,366a3.58,3.58,0,0,0-1.79-.36h-.36l0-.57a16.23,16.23,0,0,1,2.47-.18c.26,0,1.21-.05,2.86-.14-.05.2-.51,1.48-1.38,3.83l-1.68,4.67c-.15.51-.53,1.56-1.13,3.16L222,383.47l3.18-3.79q2.79-2.94,3.27-3.34a7.83,7.83,0,0,1,2.11-1.3,4.69,4.69,0,0,1,1.62-.35,2,2,0,0,1,1.47.7,3,3,0,0,1,.83,2.14,11.36,11.36,0,0,1-1.49,5.38,18,18,0,0,1-4.11,5.09,18.36,18.36,0,0,1-5,2.86,8.41,8.41,0,0,1-3,.78,3.09,3.09,0,0,1-2-.62,1.84,1.84,0,0,1-.74-1.47,8.15,8.15,0,0,1,.47-2.54l1.18-3.69,4.35-11.73c.51-1.49,1-2.76,1.45-3.82a2.83,2.83,0,0,0,.27-1.09A1.12,1.12,0,0,0,225.39,366Zm-3.63,24.81a3.15,3.15,0,0,0,1.47-.41,13.75,13.75,0,0,0,3.42-2.77,27.26,27.26,0,0,0,2.6-3,26,26,0,0,0,2.37-4.31,7,7,0,0,0,.7-2.78,1.12,1.12,0,0,0-.4-.9,1.57,1.57,0,0,0-1-.35,3,3,0,0,0-1.34.38,14,14,0,0,0-3.31,2.81A46.22,46.22,0,0,0,222.3,384a12.8,12.8,0,0,0-1.47,3,9.47,9.47,0,0,0-.57,2.29,1.4,1.4,0,0,0,.42,1A1.49,1.49,0,0,0,221.76,390.8Z" fill="#b4162c"/><path d="M249.88,379.76a12,12,0,0,1-3.13,8.18q-3.13,3.58-6.51,3.58a3.82,3.82,0,0,1-2.92-1.2,5.44,5.44,0,0,1-1.11-3.77,11.26,11.26,0,0,1,.87-4,11.59,11.59,0,0,1,2.25-3.75c.21-.22.45-.49.71-.81a11.09,11.09,0,0,1,2.81-2.31,6.66,6.66,0,0,1,3.33-.93,3.44,3.44,0,0,1,2.63,1.16A5.6,5.6,0,0,1,249.88,379.76Zm-11.6,9a1.75,1.75,0,0,0,.48,1.35,2.28,2.28,0,0,0,1.55.43,3.27,3.27,0,0,0,2.12-.91,17.67,17.67,0,0,0,3.84-5.74,16.42,16.42,0,0,0,1.92-6.42,1.85,1.85,0,0,0-.47-1.32,1.47,1.47,0,0,0-1.07-.49,4.11,4.11,0,0,0-2.75,1.38,19,19,0,0,0-4.19,6.35A14.41,14.41,0,0,0,238.28,388.8Z" fill="#b4162c"/><path d="M257.15,376.46a9.07,9.07,0,0,0-1.38,1.11c-.12.12-.79.92-2,2.39l-.91,0a12.31,12.31,0,0,1,2.07-2.65,11.06,11.06,0,0,1,2.62-2.14,4,4,0,0,1,1.61-.44,1.53,1.53,0,0,1,.76.37.85.85,0,0,1,.22.58,2.63,2.63,0,0,1-.09.67,29.81,29.81,0,0,1-1,3.1,30.87,30.87,0,0,1-1.31,3.2l-1.16,2.45-.08.35c.2-.31.63-1,1.27-2.12q3.63-6.14,5.24-7.57a4.07,4.07,0,0,1,2.77-1,2.58,2.58,0,0,1,1.67.64,1.63,1.63,0,0,1,.58,1.31,2.17,2.17,0,0,1-.65,1.57,1.7,1.7,0,0,1-1.27.45,1.34,1.34,0,0,1-1-.28,2.6,2.6,0,0,1-.35-1.44c-.19-.35-.4-.52-.64-.52a1.19,1.19,0,0,0-.76.34c-.72.57-2.06,2.39-4.05,5.46a50.64,50.64,0,0,0-3.72,6.41,15.63,15.63,0,0,1-1.21,2.47,1.09,1.09,0,0,1-.91.34,1.5,1.5,0,0,1-.85-.19.59.59,0,0,1-.26-.49,2.31,2.31,0,0,1,.22-.91c.64-1.39,1.67-4,3.08-7.69l1.56-4.25a7.58,7.58,0,0,1,.23-.73l.13-.29Q257.6,376.78,257.15,376.46Z" fill="#b4162c"/><path d="M280.89,376.66a2.46,2.46,0,0,0,.29-.54,1.8,1.8,0,0,1,.54-.77c.42,0,.72-.06.92-.06a1.86,1.86,0,0,1,.73.14l.07.24a1,1,0,0,1-.11.35,6.26,6.26,0,0,0-.29.76l-.18.4-1.47,3.55c-.63,1.6-1.18,2.88-1.65,3.83a28,28,0,0,0-1.21,2.91,9.89,9.89,0,0,1-.94,2.12l-.09.19c0,.08.08.18.24.31a7.8,7.8,0,0,0,1.58-1.08c1.12-1,1.78-1.6,2-1.84s.3-.33.44-.48a3.7,3.7,0,0,1,.46.42,20.43,20.43,0,0,1-2,2.1,10.75,10.75,0,0,1-2.55,1.89,3.8,3.8,0,0,1-1.64.42,1.19,1.19,0,0,1-.74-.2.63.63,0,0,1-.25-.5,4.57,4.57,0,0,1,.23-1c.37-.88.63-1.45.78-1.73s.35-.71.6-1.29c.15-.36.45-1,.92-1.87a11.74,11.74,0,0,0-1.08,1.11,30.68,30.68,0,0,1-4.27,3.84,16.1,16.1,0,0,1-2.66,1.33,8.17,8.17,0,0,1-1.84.34,3.77,3.77,0,0,1-1.19-.16,2.12,2.12,0,0,1-.89-.82,2.49,2.49,0,0,1-.26-1.29,7.66,7.66,0,0,1,.64-2.82,14.28,14.28,0,0,1,2.22-3.91A20.42,20.42,0,0,1,272,379a16.49,16.49,0,0,1,3.46-1.88,10.31,10.31,0,0,1,3.6-.8,6,6,0,0,1,1,.08A4,4,0,0,1,280.89,376.66Zm-10.89,13a3.69,3.69,0,0,0,1-.34c.17-.08.76-.44,1.79-1.09,1.87-1.63,2.93-2.56,3.18-2.8a18.47,18.47,0,0,0,1.82-2.13,20.7,20.7,0,0,0,1.17-1.86l.58-1.37a10.55,10.55,0,0,0,.31-1.4,1.44,1.44,0,0,0-.52-1.05,1.69,1.69,0,0,0-1.12-.3,4.17,4.17,0,0,0-1.54.26,11.4,11.4,0,0,0-2.64,1.51,17.67,17.67,0,0,0-3.11,3.21,19.17,19.17,0,0,0-2.11,3.27,7.14,7.14,0,0,0-.85,2.7,1.52,1.52,0,0,0,.35,1.09,1.15,1.15,0,0,0,.87.36Z" fill="#b4162c"/><path d="M290.51,376.6h-1.36l-.63,0-1.45,0h-.29a2.53,2.53,0,0,1,.39-1c2.17-.06,3.45-.1,3.86-.14.29-.64.54-1.15.74-1.53.44-.86.89-1.88,1.36-3.06a6.92,6.92,0,0,1,.48-1.06c.33,0,.71-.06,1.14-.06a5.51,5.51,0,0,1,1,.1l.05.32a30.75,30.75,0,0,1-2,4.37,6.79,6.79,0,0,0-.37.94c.42.06.67.1.75.1h.46l.75,0,2.12,0a2,2,0,0,1-.27,1.07c-.59.05-1.36.08-2.31.08-.47,0-.77,0-.9,0a4.71,4.71,0,0,0-1.3.2l-3.63,7.75q-.61,1.13-2.08,4.27a.42.42,0,0,0,.13.27l.29,0a2.72,2.72,0,0,0,1.5-.67,25.35,25.35,0,0,0,3.65-3.48,3.1,3.1,0,0,1,.66.42q-2.21,2.4-3.09,3.17a16.9,16.9,0,0,1-2.27,1.59,16.45,16.45,0,0,1-1.65.92,3.06,3.06,0,0,1-1,.18,1.25,1.25,0,0,1-.8-.21.72.72,0,0,1-.27-.61,9.06,9.06,0,0,1,1.07-2.68l.94-1.85,3.28-7.05C289.9,378.09,290.25,377.29,290.51,376.6Z" fill="#b4162c"/><path d="M309.85,379.76a12,12,0,0,1-3.13,8.18q-3.14,3.58-6.51,3.58a3.8,3.8,0,0,1-2.92-1.2,5.44,5.44,0,0,1-1.12-3.77,11.26,11.26,0,0,1,.87-4,11.61,11.61,0,0,1,2.26-3.75c.21-.22.44-.49.71-.81a11.09,11.09,0,0,1,2.81-2.31,6.66,6.66,0,0,1,3.33-.93,3.44,3.44,0,0,1,2.63,1.16A5.6,5.6,0,0,1,309.85,379.76Zm-11.6,9a1.75,1.75,0,0,0,.48,1.35,2.28,2.28,0,0,0,1.55.43,3.27,3.27,0,0,0,2.12-.91,17.67,17.67,0,0,0,3.84-5.74,16.37,16.37,0,0,0,1.91-6.42,1.85,1.85,0,0,0-.46-1.32,1.48,1.48,0,0,0-1.07-.49,4.09,4.09,0,0,0-2.75,1.38,19,19,0,0,0-4.19,6.35A14.41,14.41,0,0,0,298.25,388.8Z" fill="#b4162c"/><path d="M317.12,376.46a9.07,9.07,0,0,0-1.38,1.11c-.12.12-.8.92-2,2.39l-.91,0a12.31,12.31,0,0,1,2.07-2.65,10.86,10.86,0,0,1,2.62-2.14,4,4,0,0,1,1.6-.44,1.53,1.53,0,0,1,.77.37.84.84,0,0,1,.21.58,2.63,2.63,0,0,1-.09.67,27,27,0,0,1-1,3.1,30.87,30.87,0,0,1-1.31,3.2l-1.16,2.45-.09.35c.21-.31.64-1,1.28-2.12q3.63-6.14,5.24-7.57a4.07,4.07,0,0,1,2.77-1,2.58,2.58,0,0,1,1.67.64,1.63,1.63,0,0,1,.58,1.31,2.17,2.17,0,0,1-.65,1.57,1.71,1.71,0,0,1-1.27.45,1.34,1.34,0,0,1-1-.28,2.6,2.6,0,0,1-.35-1.44c-.19-.35-.41-.52-.64-.52a1.19,1.19,0,0,0-.76.34q-1.08.86-4.05,5.46a50.64,50.64,0,0,0-3.72,6.41,14.62,14.62,0,0,1-1.22,2.47,1.05,1.05,0,0,1-.9.34,1.54,1.54,0,0,1-.86-.19.58.58,0,0,1-.25-.49,2.31,2.31,0,0,1,.22-.91c.64-1.39,1.67-4,3.08-7.69l1.56-4.25a7.58,7.58,0,0,1,.23-.73l.13-.29Q317.57,376.78,317.12,376.46Z" fill="#b4162c"/><path d="M331.83,376.46a2.79,2.79,0,0,0-.69.06,10.47,10.47,0,0,0-1.54.85,12.62,12.62,0,0,0-1.9,1.63l-1.29.26a13.44,13.44,0,0,1,3.81-3.24,7.5,7.5,0,0,1,3.31-1.17,1.14,1.14,0,0,1,.77.23.75.75,0,0,1,.25.59,8.2,8.2,0,0,1-1.25,3.24c-.1.18-.35.66-.73,1.43q-1.35,2.6-2.86,4.92c-.33.5-.69,1.1-1.07,1.79-.21.37-.4.68-.56.93a3.33,3.33,0,0,0-.69,1.53.33.33,0,0,0,.12.25.44.44,0,0,0,.3.11,2,2,0,0,0,.75-.24,10.56,10.56,0,0,0,2-1.32,11.44,11.44,0,0,0,2.05-2.12h1a16.53,16.53,0,0,1-2,2.47,10.45,10.45,0,0,1-3,2.22,5.16,5.16,0,0,1-2.24.64,1.8,1.8,0,0,1-1.1-.27.85.85,0,0,1-.35-.71q0-1.53,2.52-5.76l3.59-6a10,10,0,0,0,.78-1.47,1.57,1.57,0,0,0,.14-.45A1.19,1.19,0,0,0,331.83,376.46Zm1.27-8.92a1.64,1.64,0,0,1,.6-1.24,2,2,0,0,1,1.41-.55,1.88,1.88,0,0,1,1.29.48,1.43,1.43,0,0,1,.54,1.09,2,2,0,0,1-.67,1.45,2.2,2.2,0,0,1-1.48.38,1.76,1.76,0,0,1-1.2-.44A1.48,1.48,0,0,1,333.1,367.54Z" fill="#b4162c"/><path d="M325,398.13a3.47,3.47,0,0,1,.73-.14,1.3,1.3,0,0,1,.8.33,2.13,2.13,0,0,1,.64,1,1.36,1.36,0,0,0,.64.83,6.42,6.42,0,0,0,1.56-.18,5,5,0,0,0,1.42-.78,10.12,10.12,0,0,0,1.61-1.78,23.8,23.8,0,0,0,1.9-3.17c.76-1.45,1.34-2.63,1.74-3.55.21-.51.42-1,.63-1.43l3-6.41,1.05-2.25c.21-.41.5-1,.88-1.67a4,4,0,0,0,.57-1.84.42.42,0,0,0-.13-.33.41.41,0,0,0-.29-.13,3.12,3.12,0,0,0-1.19.53,16.43,16.43,0,0,0-3.05,2.81,2.23,2.23,0,0,1-.58-.4,19,19,0,0,1,2.53-2.6,12,12,0,0,1,3.13-2,5.1,5.1,0,0,1,2-.42.69.69,0,0,1,.34.54q0,2-3,8c-.21.43-.41.89-.62,1.39-.63,1.53-1.54,3.47-2.73,5.84a63.35,63.35,0,0,1-3.59,6.59,10.75,10.75,0,0,1-2.33,2.38,7.57,7.57,0,0,1-2.42,1.29,10.71,10.71,0,0,1-2.85.45,4.48,4.48,0,0,1-1.61-.2,3.07,3.07,0,0,1-1.25-.84,1.12,1.12,0,0,1-.27-.78A1.24,1.24,0,0,1,325,398.13Zm18.85-30.21a1.38,1.38,0,0,1,.56-1.08,2.09,2.09,0,0,1,1.43-.47,1.23,1.23,0,0,1,.88.39,1.41,1.41,0,0,1-.06,2,1.83,1.83,0,0,1-1.27.4,1.65,1.65,0,0,1-1.12-.38A1.14,1.14,0,0,1,343.83,367.92Z" fill="#b4162c"/></g></svg>