<?xml version="1.0" encoding="UTF-8" standalone="no"?>
<svg
   viewBox="0 0 269.80099 299.99999"
   version="1.1"
   id="svg153"
   sodipodi:docname="olfs-logo.svg"
   inkscape:version="1.1.2 (0a00cf5339, 2022-02-04)"
   width="269.80099"
   height="300"
   xmlns:inkscape="http://www.inkscape.org/namespaces/inkscape"
   xmlns:sodipodi="http://sodipodi.sourceforge.net/DTD/sodipodi-0.dtd"
   xmlns="http://www.w3.org/2000/svg"
   xmlns:svg="http://www.w3.org/2000/svg">
  <defs
     id="defs157" />
  <sodipodi:namedview
     id="namedview155"
     pagecolor="#ffffff"
     bordercolor="#666666"
     borderopacity="1.0"
     inkscape:pageshadow="2"
     inkscape:pageopacity="0.0"
     inkscape:pagecheckerboard="0"
     showgrid="false"
     inkscape:zoom="1.8417702"
     inkscape:cx="124.87986"
     inkscape:cy="154.19948"
     inkscape:window-width="1920"
     inkscape:window-height="1011"
     inkscape:window-x="0"
     inkscape:window-y="1056"
     inkscape:window-maximized="1"
     inkscape:current-layer="Layer_2"
     showguides="true"
     inkscape:guide-bbox="true">
    <sodipodi:guide
       position="0,319.5464"
       orientation="-1,0"
       id="guide55"
       inkscape:label=""
       inkscape:locked="false"
       inkscape:color="rgb(0,0,255)" />
    <sodipodi:guide
       position="299.99999,404.24752"
       orientation="-1,0"
       id="guide57"
       inkscape:label=""
       inkscape:locked="false"
       inkscape:color="rgb(0,0,255)" />
    <sodipodi:guide
       position="29.319618,299.99999"
       orientation="0,1"
       id="guide59"
       inkscape:label=""
       inkscape:locked="false"
       inkscape:color="rgb(0,0,255)" />
    <sodipodi:guide
       position="-149.85583,0"
       orientation="0,1"
       id="guide61"
       inkscape:label=""
       inkscape:locked="false"
       inkscape:color="rgb(0,0,255)" />
  </sodipodi:namedview>
  <g
     id="Layer_2"
     data-name="Layer 2">
    <path
       d="m 143.00023,200.60998 h -11.92089 c -0.25563,-2.83895 -1.95092,-24.13779 2.20658,-29.23713 a 5.1127939,5.1127956 0 0 1 3.59241,-2.24694 c 1.87021,0 3.2695,1.82985 3.84805,2.5833 4.19788,5.43572 2.50258,26.15599 2.27385,28.90077 z"
       fill="#ffffff"
       id="path2"
       style="stroke-width:1.34547" />
    <path
       d="m 131.10625,299.94621 a 630.86495,630.86516 0 0 1 -83.284713,-5.5299 l -3.430953,-0.47091 a 5.1800676,5.1800693 0 0 1 -3.498228,-2.09894 l -2.045118,-2.82549 a 57.088381,57.088399 0 0 1 -9.902674,-43.5395 l 1.345473,-7.25208 a 5.2338864,5.2338881 0 0 1 4.937882,-4.34588 22.14647,22.146477 0 0 1 4.924428,-7.31937 c 0.349822,-0.34982 0.713099,-0.67275 1.076377,-0.99565 0,-0.24218 0.09419,-0.47092 0.134548,-0.7131 C 33.290438,202.76273 26.051799,180.07806 19.835718,157.4203 14.9382,139.75426 10.565415,121.76527 6.8250026,103.96468 4.7664299,94.317636 2.7885859,84.253503 1.0394724,74.08173 L 0.08418747,68.699841 A 5.3818884,5.3818902 0 0 1 2.3311251,63.317951 L 6.6500913,60.304093 A 231.30011,231.30018 0 0 1 93.567583,24.501068 L 92.45084,12.68782 A 5.3011601,5.3011618 0 0 1 96.258531,7.0771992 L 102.66298,5.1397186 A 123.43361,123.43365 0 0 1 137.96817,1.3316146e-5 h 0.68619 A 123.19143,123.19147 0 0 1 170.09804,4.2920709 l 6.88881,1.8432981 a 5.3818884,5.3818902 0 0 1 3.78078,5.731712 l -1.48001,13.23945 a 231.90557,231.90564 0 0 1 83.72872,35.197562 l 4.45351,3.013858 a 5.3818884,5.3818902 0 0 1 2.24695,5.38189 l -0.94184,5.381889 c -1.7222,9.889224 -3.48477,19.132624 -5.38188,28.25492 -3.92878,18.98462 -8.55721,38.1576 -13.75073,56.98077 -5.89316,21.28537 -12.67435,42.63802 -20.18208,63.49284 l 0.36327,1.22438 a 23.101756,23.101763 0 0 1 5.38189,6.49864 l 1.80294,-0.18836 a 5.2338864,5.2338881 0 0 1 5.66443,4.41313 l 1.23784,7.73648 a 65.32267,65.322691 0 0 1 0.20182,19.36135 64.205929,64.20595 0 0 1 -8.90703,24.72978 l -1.9913,3.24259 a 5.1935223,5.1935239 0 0 1 -3.63277,2.4353 l -3.7135,0.5651 a 633.05808,633.05829 0 0 1 -85.50475,7.1041 c -3.10804,0 -6.17572,0.0673 -9.22995,0.0673 v 0 z m -85.720017,-11.92088 3.13495,0.41709 a 621.93102,621.93123 0 0 0 82.585067,5.50298 v 0 c 3.02732,0 6.06809,0 9.14922,0 a 628.06638,628.06658 0 0 0 84.76474,-7.03682 l 3.40405,-0.52474 1.81638,-2.97349 a 58.030212,58.03023 0 0 0 8.07283,-22.38866 59.012406,59.012426 0 0 0 -0.18837,-17.49114 l -1.13019,-7.09065 -1.62802,0.17492 a 5.0589751,5.0589767 0 0 1 -5.08588,-2.69094 17.033677,17.033683 0 0 0 -4.73607,-5.59717 l -0.78037,-0.59201 -1.46656,-5.01862 0.34982,-0.92837 c 7.56155,-21.01628 14.41001,-42.54384 20.35699,-63.99068 5.16661,-18.70206 9.75468,-37.74049 13.65655,-56.59057 1.89711,-9.081939 3.64622,-18.27152 5.38188,-28.093469 l 0.8611,-4.924429 -4.03642,-2.771674 A 226.2815,226.28158 0 0 0 177.65959,31.040065 5.3818884,5.3818902 0 0 1 173.47518,25.227623 L 174.9552,11.94781 168.72565,10.252514 A 117.94409,117.94413 0 0 0 138.74854,6.2160967 h -0.78037 a 118.25354,118.25358 0 0 0 -33.63681,4.9109743 l -5.933533,1.76257 1.116743,11.893977 A 5.3818884,5.3818902 0 0 1 95.249427,30.515331 225.35312,225.35319 0 0 0 9.919588,65.497616 l -4.0364156,2.771674 0.8611014,4.937884 c 1.7760231,10.091044 3.7135042,20.074449 5.7451662,29.600406 3.713504,17.6795 8.072833,35.54738 12.929987,53.09234 6.242991,22.56358 13.454721,45.1675 21.527554,67.17944 a 5.4895261,5.4895278 0 0 1 0.188366,2.98695 c -0.107638,0.53818 -0.201821,1.07637 -0.28255,1.62802 l -0.161456,1.2513 -0.995649,0.7669 a 15.876571,15.876576 0 0 0 -5.220432,6.983 5.1397034,5.1397051 0 0 1 -4.520786,3.29641 l -1.197471,6.72737 a 50.8723,50.872316 0 0 0 8.826298,38.87071 z"
       fill="#414042"
       id="path4"
       style="stroke-width:1.34547" />
    <path
       d="m 255.65661,71.619517 q -2.35457,13.454724 -5.30116,27.837829 c -3.70005,17.854424 -8.16702,36.596844 -13.54891,56.106204 -6.91572,24.95852 -14.50419,48.04682 -22.28102,69.15728 a 8.7321139,8.7321167 0 0 1 1.26475,7.56156 9.5528519,9.552855 0 0 1 8.24775,5.86627 9.8084916,9.8084948 0 0 1 -0.20182,7.18482 c 2.3142,-0.21528 4.62842,-0.444 6.91572,-0.68619 a 51.760311,51.760327 0 0 1 0.16146,15.21729 50.549386,50.549402 0 0 1 -7.00991,19.41517 619.13244,619.13264 0 0 1 -83.72873,6.96956 614.53092,614.53112 0 0 1 -90.684817,-5.3819 43.230018,43.230032 0 0 1 -7.480824,-32.93717 c 1.897115,0.10764 3.807685,0.25564 5.704801,0.34982 -1.856752,-4.4266 -1.19747,-9.16266 1.601112,-11.92088 a 8.9339347,8.9339376 0 0 1 5.381888,-2.40839 12.176523,12.176526 0 0 1 0.780374,-9.4183 C 47.48517,203.0049 39.667976,179.31114 32.604248,153.63953 27.545273,135.40837 23.320491,117.83649 19.7819,101.03154 Q 16.566221,85.89498 14.090552,71.606062 A 217.96648,217.96655 0 0 1 108.07178,36.085587 c -0.55165,-5.920078 -1.1302,-11.853613 -1.68185,-17.773692 a 109.80398,109.80401 0 0 1 60.33098,-0.766919 c -0.69965,6.310266 -1.41275,12.633986 -2.1124,18.930797 a 218.23557,218.23564 0 0 1 91.0481,35.143744 z"
       fill="none"
       id="path6"
       style="stroke-width:1.34547" />
    <path
       d="m 143.00023,200.60998 h -11.92089 c -0.25563,-2.83895 -1.95092,-24.13779 2.20658,-29.23713 a 5.1127939,5.1127956 0 0 1 3.59241,-2.24694 c 1.87021,0 3.2695,1.82985 3.84805,2.5833 4.19788,5.43572 2.50258,26.15599 2.27385,28.90077 z"
       fill="#ffffff"
       id="path8"
       style="stroke-width:1.34547" />
    <path
       d="m 70.075645,210.75483 a 6.7273605,6.7273626 0 0 0 -0.322915,0.61891 3.4174991,3.4175002 0 0 0 -0.242186,0.55165 11.113599,11.113603 0 0 0 -0.834187,3.61933 c 0,0.21527 0,0.45746 0,0.69965 a 12.5398,12.539804 0 0 0 0.457463,3.33676 c -0.336375,-0.13455 -6.094995,-2.19311 -10.763781,1.56076 a 10.938688,10.938692 0 0 0 -2.838947,3.44439 C 47.525534,203.05872 39.721795,179.36496 32.658067,153.69335 27.612547,135.46219 23.387764,117.89032 19.849172,101.08536 A 202.96446,202.96452 0 0 1 40.206166,89.191387 l 0.174911,-0.09413 c 3.256042,19.065353 7.332823,39.153253 12.445617,60.115703 5.206977,21.94467 11.140507,42.46312 17.248951,61.54192 z"
       fill="#ffffff"
       id="path10"
       style="stroke-width:1.34547" />
    <path
       d="m 230.05228,87.953556 c -3.47132,20.020624 -7.79029,41.117634 -13.23945,63.169944 -5.38189,21.75629 -11.28851,42.18056 -17.49114,61.17863 a 9.9564935,9.9564966 0 0 0 -8.07283,-1.73566 c 3.39059,-10.54851 6.72736,-21.79665 9.74122,-33.71755 3.01386,-11.92088 5.66444,-23.61304 7.81719,-34.60555 a 14.073638,14.073643 0 0 0 -7.25209,-2.50257 q -0.99566,4.03641 -2.00476,8.07283 a 27.191991,27.191999 0 0 0 -3.39059,-0.83419 31.228408,31.228418 0 0 0 -3.84805,-0.45747 c 0.57855,-2.69094 1.17057,-5.38188 1.73567,-8.07282 a 16.562762,16.562767 0 0 0 -3.84805,-1.11675 17.12786,17.127865 0 0 0 -3.63279,-0.22873 c -0.45745,2.69094 -0.92837,5.44915 -1.34547,8.16702 -1.14365,-0.2422 -2.39494,-0.444 -3.72696,-0.60546 a 41.924911,41.924924 0 0 0 -4.26514,-0.28256 q 0.34982,-3.91533 0.69965,-7.81719 a 20.949,20.949007 0 0 0 -3.88842,-0.79383 20.733725,20.733732 0 0 0 -4.44006,0 q -0.56509,9.4183 -1.34547,19.11916 c -4.57461,-0.76692 -9.62013,-1.42621 -15.04237,-1.88365 q 0.92837,-15.12312 2.19311,-29.60041 a 14.988559,14.988564 0 0 0 -3.90187,-0.86109 15.486384,15.486389 0 0 0 -3.84805,0.14799 q -0.24218,4.35934 -0.47091,8.69176 a 29.18329,29.1833 0 0 0 -3.01386,-0.18837 28.739284,28.739294 0 0 0 -3.52514,0.16146 q 0,-4.48042 -0.16145,-8.9743 a 28.349097,28.349106 0 0 0 -4.10369,-0.12109 27.286175,27.286184 0 0 0 -4.45352,0.51127 c 0,3.1215 -0.16145,6.25645 -0.24217,9.41831 a 22.603931,22.603938 0 0 0 -5.62409,0.51129 c -0.45745,-2.97351 -0.91491,-5.96045 -1.34547,-8.93394 a 20.922091,20.922098 0 0 0 -4.44006,0.444 23.263213,23.26322 0 0 0 -3.25603,0.95528 q 1.34546,13.81802 2.40839,28.10692 c -5.86626,0.57856 -11.30196,1.41275 -16.14567,2.34113 q -1.34547,-10.76377 -2.82549,-21.32574 a 18.446422,18.446427 0 0 0 -4.1306,0.43054 20.599178,20.599185 0 0 0 -3.18877,1.04948 c 0.63238,2.96004 1.25129,5.90663 1.88367,8.85321 a 23.088301,23.08831 0 0 0 -3.646233,0.56509 20.760634,20.76064 0 0 0 -2.368032,0.71311 q -1.345469,-4.22478 -2.690945,-8.47648 a 15.069287,15.069292 0 0 0 -3.511675,0.75346 15.365292,15.365297 0 0 0 -3.404047,1.68184 l 1.654934,7.83065 a 23.424669,23.424677 0 0 0 -3.14841,0.72655 20.989364,20.989371 0 0 0 -3.000403,1.14365 l -2.690938,-7.27899 a 14.235094,14.2351 0 0 0 -3.740421,0.88801 14.073638,14.073643 0 0 0 -3.390587,1.92402 q 2.865855,13.374 6.256442,27.32655 4.238243,17.39696 8.866671,33.63682 a 10.360135,10.360138 0 0 0 -7.749929,2.11238 l -0.511272,0.47091 -0.309465,0.30947 a 9.0953914,9.0953943 0 0 0 -1.345469,1.89712 C 64.142118,191.77022 58.248947,171.25176 52.920877,149.3071 47.808082,128.34464 43.731302,108.25674 40.47526,89.191387 l 1.789477,-0.901466 1.466565,-0.713099 c 4.547696,-2.24694 9.552852,-4.480426 15.002014,-6.633181 l 3.60587,-1.345473 2.233475,-0.820737 c 2.058578,-0.753466 4.197874,-1.493475 6.37754,-2.206575 2.179666,-0.713101 4.668787,-1.493476 7.104099,-2.193121 l 2.206565,-0.618918 c 4.036416,-1.14365 8.341926,-2.193119 12.768536,-3.121495 q 3.578954,-0.76692 7.319369,-1.426202 5.38188,-0.928376 10.91178,-1.601111 l 0.96873,10.158317 c 4.9917,-0.349823 10.2525,-0.605463 15.75548,-0.713102 0.40365,8.516842 0.82074,16.993317 1.22438,25.483256 a 35.560828,35.56084 0 0 0 7.50774,0.59201 34.982275,34.982286 0 0 0 6.63317,-1.11674 q 0.29601,-12.539808 0.60546,-25.025798 8.36884,0.282549 15.99767,0.982195 c 0.39019,-3.592412 0.79383,-7.157914 1.19747,-10.763781 a 219.66177,219.66184 0 0 1 68.90163,20.74719 z"
       fill="#80888e"
       id="path12"
       style="stroke-width:1.34547" />
    <path
       d="m 255.65661,71.619517 c -1.57421,9.00121 -3.30986,18.298428 -5.30116,27.837829 A 204.12157,204.12165 0 0 0 232.33957,89.110658 l -0.67272,-0.349824 -1.61457,-0.807278 v 0 A 219.31196,219.31203 0 0 0 161.17756,67.260185 l 3.43095,-30.851686 a 218.18175,218.18182 0 0 1 91.0481,35.211018 z"
       fill="#ffffff"
       id="path14"
       style="stroke-width:1.34547" />
    <path
       d="m 250.35545,99.457346 c -3.70005,17.854424 -8.15356,36.596844 -13.53545,56.106204 -6.91573,24.95852 -14.50419,48.04682 -22.28102,69.17074 a 7.7768287,7.7768312 0 0 0 -0.98219,-1.1302 8.3150175,8.3150203 0 0 0 -10.49469,-0.39018 10.938688,10.938692 0 0 0 -2.05856,-9.41831 10.360135,10.360138 0 0 0 -1.62803,-1.53384 c 6.14881,-18.99807 12.10925,-39.42233 17.49114,-61.17863 5.38188,-22.03885 9.76812,-43.13585 13.23944,-63.156483 v 0 l 1.61457,0.807277 0.67273,0.349824 a 204.12157,204.12165 0 0 1 17.96206,10.373598 z"
       fill="#ffffff"
       id="path16"
       style="stroke-width:1.34547" />
    <path
       d="m 224.07838,238.14866 a 9.5528519,9.552855 0 0 0 -8.24775,-5.86627 8.8128422,8.8128451 0 0 0 -1.26474,-7.56156 7.036819,7.0368213 0 0 0 -0.98219,-1.11674 8.2881081,8.2881108 0 0 0 -10.49469,-0.39018 10.965598,10.965601 0 0 0 -2.05856,-9.41831 9.7008538,9.7008569 0 0 0 -1.62803,-1.52038 9.9564935,9.9564966 0 0 0 -8.07283,-1.73566 c 3.39059,-10.54851 6.72736,-21.79665 9.74122,-33.71755 3.01386,-11.92088 5.66444,-23.61304 7.81719,-34.60554 a 14.073638,14.073643 0 0 0 -7.25209,-2.50258 q -0.99566,4.03641 -2.00476,8.07282 a 27.191991,27.191999 0 0 0 -3.39059,-0.83418 31.228408,31.228418 0 0 0 -3.84805,-0.45746 c 0.57855,-2.69095 1.17056,-5.38189 1.73566,-8.07283 a 16.562762,16.562767 0 0 0 -3.84804,-1.11675 17.12786,17.127865 0 0 0 -3.63279,-0.22873 c -0.45745,2.69094 -0.92837,5.44915 -1.34547,8.16702 -1.14365,-0.2422 -2.39494,-0.444 -3.72696,-0.60546 a 41.924911,41.924924 0 0 0 -4.26514,-0.28256 q 0.34982,-3.91531 0.69965,-7.81718 a 20.949,20.949007 0 0 0 -3.88842,-0.79384 20.733725,20.733732 0 0 0 -4.44006,0 q -0.56509,9.41831 -1.34547,19.11917 c -4.57461,-0.76692 -9.62013,-1.42621 -15.04237,-1.88366 q 0.92837,-15.12312 2.19311,-29.60041 a 14.988559,14.988564 0 0 0 -3.90187,-0.86109 15.486384,15.486389 0 0 0 -3.84805,0.14799 q -0.24218,4.35934 -0.47091,8.69176 a 29.18329,29.1833 0 0 0 -3.01386,-0.18837 28.739284,28.739294 0 0 0 -3.52514,0.16146 q 0,-4.48042 -0.16145,-8.9743 a 28.349097,28.349106 0 0 0 -4.10369,-0.12109 27.286175,27.286184 0 0 0 -4.45352,0.51127 c 0,3.1215 -0.16146,6.25645 -0.24218,9.41833 a 22.603931,22.603938 0 0 0 -5.62408,0.51127 c -0.45745,-2.97351 -0.91491,-5.96045 -1.34547,-8.93394 a 20.922091,20.922098 0 0 0 -4.44006,0.444 23.263213,23.26322 0 0 0 -3.25604,0.95529 q 1.34547,13.81801 2.4084,28.10691 c -5.86626,0.57857 -11.30197,1.41275 -16.14567,2.34113 q -1.34547,-10.76377 -2.82549,-21.32573 a 18.446422,18.446427 0 0 0 -4.130602,0.43054 20.599178,20.599185 0 0 0 -3.18877,1.04947 c 0.632381,2.96004 1.251291,5.90663 1.883671,8.85321 a 23.088301,23.08831 0 0 0 -3.646233,0.5651 20.760634,20.76064 0 0 0 -2.368033,0.7131 q -1.345469,-4.22478 -2.690944,-8.47648 a 15.069287,15.069292 0 0 0 -3.511675,0.75346 15.365292,15.365297 0 0 0 -3.404047,1.68184 l 1.654934,7.83066 a 23.424669,23.424677 0 0 0 -3.14841,0.72654 20.989364,20.989371 0 0 0 -3.000403,1.14366 l -2.690948,-7.279 a 14.235094,14.2351 0 0 0 -3.740411,0.88801 14.073638,14.073643 0 0 0 -3.390587,1.92403 q 2.865855,13.374 6.256442,27.32654 4.238243,17.39697 8.86666,33.63682 a 10.360135,10.360138 0 0 0 -7.749918,2.11239 l -0.511272,0.4709 -0.309465,0.30947 a 9.0953914,9.0953943 0 0 0 -1.345469,1.89712 6.7273605,6.7273626 0 0 0 -0.322915,0.61892 3.4174991,3.4175002 0 0 0 -0.242186,0.55164 11.113599,11.113603 0 0 0 -0.834187,3.61933 c 0,0.21526 0,0.45745 0,0.69963 a 12.5398,12.539804 0 0 0 0.457453,3.33677 c -0.336365,-0.13454 -6.094984,-2.19311 -10.763772,1.56076 a 10.938688,10.938692 0 0 0 -2.838946,3.4444 12.109249,12.109253 0 0 0 -0.780374,9.41831 8.9070252,8.9070282 0 0 0 -5.381889,2.4084 c -2.812037,2.69094 -3.471318,7.49428 -1.601112,11.92087 28.53746,1.78949 59.335318,2.59678 92.070648,1.9375 29.76185,-0.59201 57.8553,-2.36803 84.03819,-4.89752 a 9.7815821,9.7815853 0 0 0 -0.0942,-7.29246 z m -81.05124,-37.53868 -11.92089,-0.0673 c -0.24218,-2.82548 -1.95092,-24.12432 2.20658,-29.22366 a 5.1127939,5.1127956 0 0 1 3.59241,-2.24694 c 1.88366,0 3.2695,1.82985 3.84805,2.56986 4.17097,5.50297 2.47567,26.22324 2.24694,28.96802 z m 46.66097,-16.67042 a 3.9422332,3.9422345 0 0 1 -3.33676,2.56986 37.673218,37.673231 0 0 0 -2.36804,7.07718 39.610698,39.61071 0 0 0 -0.98219,8.07284 17.491137,17.491143 0 0 1 4.35933,6.66009 c 2.82549,7.95174 -1.34548,15.84966 -4.03642,19.9399 a 6.1622622,6.1622643 0 0 0 -6.08153,1.34548 6.2968094,6.2968114 0 0 0 -2.58331,-7.60193 5.9469866,5.9469885 0 0 0 -6.00081,0 6.0815339,6.0815359 0 0 0 -1.66838,1.34547 6.1622622,6.1622643 0 0 0 -2.98695,-4.73605 16.683854,16.683859 0 0 1 15.15002,-18.01589 41.601997,41.60201 0 0 0 1.62801,-9.22993 41.144537,41.14455 0 0 0 -0.12108,-6.28337 3.229133,3.229134 0 0 1 -1.5473,-2.1662 4.1036899,4.1036912 0 0 1 1.5473,-3.39059 5.6778922,5.6778941 0 0 1 4.7226,-1.15711 5.5164356,5.5164374 0 0 1 4.03642,2.69095 4.0364163,4.0364176 0 0 1 0.24219,2.8793 z"
       fill="#ffffff"
       id="path18"
       style="stroke-width:1.34547" />
    <path
       d="m 189.66121,183.93956 a 3.9422332,3.9422345 0 0 1 -3.35023,2.56986 39.126329,39.126341 0 0 0 -2.35458,7.07718 38.668868,38.66888 0 0 0 -0.98219,8.07284 17.692958,17.692964 0 0 1 4.35933,6.66009 c 2.82549,7.95174 -1.34548,15.84966 -4.03641,19.9399 a 6.1488075,6.1488095 0 0 0 -6.06809,1.34548 6.3102641,6.3102661 0 0 0 -2.58331,-7.61539 5.9738961,5.973898 0 0 0 -6.0008,0 5.7989847,5.7989866 0 0 0 -1.66839,1.34548 6.1757169,6.1757189 0 0 0 -2.98694,-4.73606 16.656944,16.656949 0 0 1 15.15001,-18.00243 40.929261,40.929274 0 0 0 1.62802,-9.22993 40.512165,40.512178 0 0 0 0,-4.9648 c 0,-0.44401 0,-0.88801 -0.10763,-1.34548 a 3.3636803,3.3636814 0 0 1 -1.56075,-2.15275 3.955688,3.9556892 0 0 1 1.56075,-3.39059 6.027715,6.0277169 0 0 1 8.7052,1.46657 4.0364163,4.0364176 0 0 1 0.29601,2.96003 z"
       fill="#b4162c"
       id="path20"
       style="stroke-width:1.34547" />
    <path
       d="m 111.05872,67.462007 q -5.59716,0.672735 -10.91178,1.601112 -3.753861,0.65928 -7.319365,1.4262 c -4.426601,0.928377 -8.678291,1.977844 -12.768527,3.121497 l -2.206575,0.618917 c -2.435302,0.699646 -4.803335,1.439655 -7.104089,2.19312 -2.300764,0.753465 -4.318972,1.45311 -6.37754,2.206575 l -2.233485,0.820739 -3.605864,1.345472 c -5.381888,2.152757 -10.454318,4.38624 -15.002013,6.633175 l -1.466565,0.713109 -1.789478,0.901466 -0.174911,0.09413 A 202.96446,202.96452 0 0 0 19.741535,101.03154 Q 16.525857,85.89498 14.050188,71.606062 A 217.96648,217.96655 0 0 1 108.08523,36.085587 q 1.48002,15.6613 2.97349,31.37642 z"
       fill="#ffffff"
       id="path22"
       style="stroke-width:1.34547" />
    <path
       d="m 166.72091,17.477702 q -1.04948,9.418307 -2.1124,18.944252 l -3.43095,30.851686 q -0.60546,5.381889 -1.19747,10.76378 c -5.07243,-0.444005 -10.41396,-0.793829 -15.99767,-0.96874 -2.59676,-0.09418 -5.27424,-0.148002 -7.9921,-0.188367 -2.71785,-0.04036 -5.54335,0 -8.22083,0 -5.51644,0.107639 -10.76378,0.363278 -15.75549,0.699647 l -0.96873,-10.158318 q -1.48002,-15.701664 -2.96004,-31.430238 l -1.6953,-17.787147 a 110.14035,110.14039 0 0 1 60.33098,-0.76692 z"
       fill="#ffffff"
       id="path24"
       style="stroke-width:1.34547" />
    <path
       d="m 230.91338,259.87804 a 50.979938,50.979954 0 0 1 -6.99645,19.41517 619.49571,619.49591 0 0 1 -83.74219,6.9561 614.3291,614.32931 0 0 1 -90.671362,-5.3819 43.203109,43.203123 0 0 1 -7.480826,-32.93717 c 1.883662,0.12109 3.794232,0.25564 5.704803,0.36328 28.537463,1.77602 59.335315,2.59676 92.070655,1.93748 29.76184,-0.60547 57.8553,-2.38149 84.03819,-4.91097 2.32766,-0.21528 4.62842,-0.43055 6.91572,-0.67274 a 51.275942,51.275958 0 0 1 0.16146,15.23075 z"
       fill="#ffffff"
       id="path26"
       style="stroke-width:1.34547" />
    <path
       d="m 55.558002,224.9092 c 0,-0.10764 -0.06727,-0.21527 -0.107638,-0.30945"
       fill="#ffffff"
       id="path28"
       style="stroke-width:1.34547" />
    <path
       d="m 70.425469,211.81774 c -0.121098,-0.34981 -0.228726,-0.69963 -0.349824,-1.06291"
       fill="#ffffff"
       id="path30"
       style="stroke-width:1.34547" />
    <path
       d="m 162.72485,207.88897 q 2.47567,-19.05188 4.37279,-39.4627 c 0.41709,-4.56114 0.80728,-9.09539 1.1571,-13.56236"
       fill="#ffffff"
       id="path32"
       style="stroke-width:1.34547" />
    <path
       d="m 103.21462,155.57701 q 0.88801,6.983 1.80293,14.00636 2.69095,21.11047 5.24734,42.01912 z"
       fill="#ffffff"
       id="path34"
       style="stroke-width:1.34547" />
    <path
       d="m 151.11343,208.79044 q 0.30946,-23.03449 1.65492,-47.57591 0.22874,-4.11715 0.48438,-8.18046"
       fill="#ffffff"
       id="path36"
       style="stroke-width:1.34547" />
    <path
       d="m 119.41411,153.23588 c 0.13455,1.53384 0.22872,3.06768 0.34982,4.60152 q 1.93748,26.90945 2.69094,52.35234 z"
       fill="#ffffff"
       id="path38"
       style="stroke-width:1.34547" />
    <path
       d="m 101.89606,232.41694 a 7.6288268,7.6288292 0 0 1 2.50257,-7.27899 7.2251852,7.2251875 0 0 1 8.07284,-0.76693 6.4582661,6.4582681 0 0 1 3.75387,-6.51209 6.2968094,6.2968114 0 0 1 7.871,3.06767"
       fill="#ffffff"
       id="path40"
       style="stroke-width:1.34547" />
    <path
       d="m 133.24556,233.30495 a 5.4626167,5.4626184 0 0 1 3.75386,-4.33241 5.3818884,5.3818902 0 0 1 5.74517,1.91057"
       fill="#ffffff"
       id="path42"
       style="stroke-width:1.34547" />
    <path
       d="m 183.24331,228.21908 a 5.2473412,5.2473429 0 0 1 1.58765,0.87454 6.0949886,6.0949905 0 0 1 2.00475,5.74517"
       fill="#ffffff"
       id="path44"
       style="stroke-width:1.34547" />
    <path
       d="m 156.22622,220.53642 a 5.8662583,5.8662602 0 0 1 5.87972,-2.69095 5.5567997,5.5568015 0 0 1 1.82984,0.67274"
       fill="#ffffff"
       id="path46"
       style="stroke-width:1.34547" />
    <path
       d="m 82.911453,217.2131 a 4.5476957,4.5476972 0 0 0 -5.987356,-1.02255 4.7898807,4.7898822 0 0 0 -1.628024,6.13535"
       fill="#ffffff"
       id="path48"
       style="stroke-width:1.34547" />
    <path
       d="m 143.00023,200.60998 h -11.92089 c -0.25563,-2.83895 -1.95092,-24.13779 2.20658,-29.23713 a 5.1127939,5.1127956 0 0 1 3.59241,-2.24694 c 1.87021,0 3.2695,1.82985 3.84805,2.5833 4.19788,5.43572 2.50258,26.15599 2.27385,28.90077 z"
       fill="#ffffff"
       id="path50"
       style="stroke-width:1.34547" />
    <path
       d="m 180.59272,185.00249 a 0.22873026,0.22873033 0 0 1 0,-0.0941"
       fill="#ffffff"
       id="path52"
       style="stroke-width:1.34547" />
    <path
       d="m 143.98242,77.028316 q -0.28254,12.512895 -0.60546,25.025794 a 34.982275,34.982286 0 0 1 -6.87536,0.92837 35.560828,35.56084 0 0 1 -7.50773,-0.59201 c -0.40365,-8.489927 -0.82074,-16.966405 -1.22438,-25.483246 q 4.03641,-0.08074 8.22083,0 c 2.71786,-0.02691 5.39534,0.04036 7.9921,0.121092 z"
       fill="#ffffff"
       id="path54"
       style="stroke-width:1.34547" />
    <path
       d="m 168.52384,221.89535 a 26.774895,26.774904 0 0 1 0.28254,-6.39099 14.800193,14.800198 0 0 1 2.22004,-6.13536 10.588866,10.58887 0 0 1 2.2873,-2.42185 7.4404607,7.4404631 0 0 1 3.06767,-1.45311 5.7317111,5.7317129 0 0 1 5.87972,2.54294 l -0.10764,0.0941 a 7.8037382,7.8037407 0 0 0 -2.69094,-1.2513 5.7317111,5.7317129 0 0 0 -2.69095,0.0807 10.064131,10.064134 0 0 0 -4.74952,3.13495 13.844908,13.844913 0 0 0 -2.4353,5.5568 26.344343,26.344351 0 0 0 -0.84765,6.243 z"
       fill="#ffffff"
       id="path56"
       style="stroke-width:1.34547" />
    <path
       d="m 161.27174,79.638532 -1.4262,-0.134546 c -7.88446,-0.686192 -15.91694,-1.076379 -23.85522,-1.143652 -7.93829,-0.06728 -15.97075,0.188367 -23.86868,0.766919 l -1.4262,0.09418 -5.8797,-62.066647 1.17056,-0.349824 a 111.76837,111.76841 0 0 1 61.11134,-0.780374 l 1.22438,0.336368 z M 133.6492,75.346475 h 2.35458 c 7.5481,0 15.17692,0.403643 22.6712,1.036014 l 6.44481,-57.788045 a 108.74105,108.74109 0 0 0 -57.14219,0.74001 l 5.38188,56.684758 c 6.71391,-0.444006 13.52199,-0.672737 20.28972,-0.672737 z"
       fill="#414042"
       id="path58"
       style="stroke-width:1.34547" />
    <path
       d="M 249.64235,100.66827 A 210.23002,210.23008 0 0 0 161.09683,68.861298 l 0.34983,-2.986949 a 212.92096,212.92103 0 0 1 89.75644,32.291337 z"
       fill="#414042"
       id="path60"
       style="stroke-width:1.34547" />
    <path
       d="M 20.521909,102.35011 18.920797,99.83407 A 212.73259,212.73266 0 0 1 110.88381,65.968531 l 0.33637,2.98695 A 209.89364,209.89371 0 0 0 20.521909,102.35011 Z"
       fill="#414042"
       id="path62"
       style="stroke-width:1.34547" />
    <path
       d="m 131.2408,287.8235 a 619.26699,619.26718 0 0 1 -81.885424,-5.44916 l -0.618917,-0.0807 -0.376732,-0.51128 a 44.736948,44.736962 0 0 1 -7.74992,-34.10773 l 0.22873,-1.34547 1.345473,0.0808 c 32.385514,2.19312 65.24194,2.96004 97.66782,2.30076 30.2193,-0.61892 60.78842,-2.48912 90.83282,-5.57026 l 1.34547,-0.148 0.21528,1.34547 a 52.015951,52.015968 0 0 1 -7.03682,35.68193 l -0.34983,0.57856 -0.67274,0.10763 a 621.79648,621.79668 0 0 1 -83.93054,6.983 q -4.5477,0.12109 -9.01467,0.13455 z m -80.876321,-8.34193 a 617.26224,617.26244 0 0 0 89.823711,5.27425 619.54953,619.54973 0 0 0 82.88109,-6.84845 48.961729,48.961744 0 0 0 6.47172,-31.61861 c -29.60039,3.01387 -59.83315,4.84371 -89.67572,5.44917 -32.0626,0.65929 -64.582657,-0.0942 -96.591438,-2.20658 a 41.575088,41.575101 0 0 0 7.090637,29.95022 z"
       fill="#414042"
       id="path64"
       style="stroke-width:1.34547" />
    <path
       d="m 200.7748,212.77304 -2.78513,-0.94183 c 6.48518,-20.04754 12.33798,-40.59291 17.39696,-61.071 5.12625,-20.74717 9.56631,-41.97874 13.21253,-63.07575 l 2.89277,0.524732 c -3.65968,21.177738 -8.07284,42.463118 -13.26635,63.237208 -5.07243,20.53192 -10.93869,41.21183 -17.45078,61.32664 z"
       fill="#414042"
       id="path66"
       style="stroke-width:1.34547" />
    <path
       d="M 54.18562,225.44739 C 45.534235,202.1169 37.770861,178.11367 31.124228,154.13735 23.670313,127.2279 17.427322,99.524615 12.583624,71.969339 l -0.174912,-0.96874 0.807284,-0.551644 A 218.49121,218.49128 0 0 1 107.89687,34.565202 l 0.36327,2.98695 A 215.69263,215.6927 0 0 0 15.637845,72.413345 c 4.803335,27.151639 10.965597,54.370545 18.311875,80.916715 6.619723,23.92251 14.356188,47.84501 22.980663,71.09478 z"
       fill="#414042"
       id="path68"
       style="stroke-width:1.34547" />
    <path
       d="M 68.662897,211.26611 C 62.08354,191.08402 56.176919,170.30994 51.171763,149.63002 46.328064,129.83811 42.130191,109.58875 38.685782,89.447023 l 2.892765,-0.511272 c 3.430953,20.060999 7.615372,40.243079 12.445617,59.967709 5.032066,20.61265 10.925231,41.26564 17.491138,61.42082 z"
       fill="#414042"
       id="path70"
       style="stroke-width:1.34547" />
    <path
       d="m 192.31178,210.99701 -2.09893,-0.69964 c 3.55204,-11.05978 6.82154,-22.38866 9.72776,-33.63681 2.90622,-11.24816 5.38189,-22.48285 7.64228,-33.79826 a 12.02852,12.028524 0 0 0 -2.40839,-1.15712 12.432162,12.432166 0 0 0 -2.77167,-0.67273 l -2.04512,8.07284 -1.10329,-0.32292 a 30.448034,30.448044 0 0 0 -3.26949,-0.79382 34.349903,34.349914 0 0 0 -3.72697,-0.44402 l -1.34546,-0.0673 1.82984,-8.44957 a 15.244199,15.244204 0 0 0 -2.77168,-0.71309 15.755479,15.755485 0 0 0 -2.51603,-0.22874 l -1.34547,8.39574 -1.11674,-0.22872 c -1.19747,-0.25563 -2.42185,-0.45746 -3.63277,-0.59202 -1.21094,-0.13453 -2.75823,-0.25563 -4.15752,-0.28254 h -1.18401 l 0.72655,-8.07283 a 20.182081,20.182087 0 0 0 -2.81204,-0.49783 19.105704,19.10571 0 0 0 -3.28295,0 c -0.65928,10.56196 -1.48001,21.25847 -2.44876,31.7666 -1.21092,13.14528 -2.69094,26.42509 -4.37278,39.50307 l -2.17967,-0.29599 c 1.6953,-13.03763 3.16187,-26.30399 4.35934,-39.42235 0.99564,-10.76377 1.84329,-21.79665 2.50258,-32.65462 v -0.92838 l 0.91491,-0.12108 a 21.419916,21.419922 0 0 1 8.75903,0.78037 l 0.8611,0.26909 -0.67274,7.53465 c 1.07639,0 2.1393,0.13454 3.18877,0.26909 1.04947,0.13456 1.80293,0.24219 2.69095,0.40364 l 1.34547,-7.93827 h 0.90146 a 17.491137,17.491143 0 0 1 3.8346,0.24217 18.244602,18.244608 0 0 1 4.11714,1.18402 l 0.84766,0.34983 -1.6684,7.77683 c 0.90147,0.0808 1.80293,0.21527 2.69095,0.37673 0.88802,0.16146 1.60112,0.32291 2.40839,0.52472 l 1.93748,-7.77683 h 0.90147 a 15.123107,15.123112 0 0 1 7.80374,2.69095 l 0.60547,0.43056 -0.14801,0.72655 c -2.24694,11.59797 -4.88406,23.26322 -7.81719,34.67282 -2.93313,11.40962 -6.18917,22.65776 -9.70086,33.82518 z"
       fill="#414042"
       id="path72"
       style="stroke-width:1.34547" />
    <path
       d="m 223.70165,245.27966 a 9.0146631,9.014666 0 0 0 -0.86111,-8.36884 9.1357556,9.1357585 0 0 0 -7.10408,-3.78077 h -0.9822 l 0.25564,-1.02257 a 8.2342892,8.2342918 0 0 0 -0.20182,-4.64188 6.7273605,6.7273626 0 0 0 -2.69095,-3.49822 6.7273605,6.7273626 0 0 0 -4.18441,-1.03602 7.9382854,7.9382879 0 0 0 -4.03642,1.57422 l -3.06768,2.27383 0.76692,-3.90187 a 12.109249,12.109253 0 0 0 0,-4.45351 8.92048,8.920483 0 0 0 -1.8702,-4.03643 9.5663066,9.5663097 0 0 0 -3.67315,-2.77166 10.763777,10.763781 0 0 0 -4.80333,-0.84766 v -0.29599 a 9.2837574,9.2837604 0 0 1 5.38189,-0.47092 10.104495,10.104498 0 0 1 5.00516,2.69094 10.615775,10.615778 0 0 1 2.94658,5.08589 11.867064,11.867068 0 0 1 0,5.94699 l -2.30075,-1.64148 a 9.6873991,9.6874023 0 0 1 11.16741,0 9.0819366,9.0819395 0 0 1 3.30986,4.80334 10.131405,10.131408 0 0 1 -0.0807,5.73172 l -0.74001,-1.07639 a 10.561956,10.561959 0 0 1 4.50733,1.52039 9.7815821,9.7815853 0 0 1 3.32332,3.3906 9.1761197,9.1761227 0 0 1 1.26475,4.53424 10.494682,10.494686 0 0 1 -0.98219,4.50733 z"
       fill="#414042"
       id="path74"
       style="stroke-width:1.34547" />
    <path
       d="m 80.018689,206.12641 a 11.31542,11.315424 0 0 0 -4.776425,1.17057 9.0281177,9.0281207 0 0 0 -3.457866,3.04076 10.023767,10.02377 0 0 0 -1.547296,4.2786 12.015065,12.015068 0 0 0 0.336365,4.53424 l 0.766918,2.89276 -2.690938,-0.99563 a 12.109249,12.109253 0 0 0 -5.476074,-0.60547 8.8128422,8.8128451 0 0 0 -4.951336,2.39493 10.265952,10.265956 0 0 0 -2.852401,4.97825 11.732517,11.73252 0 0 0 0.121093,5.90662 l 0.282548,0.99567 -0.955285,0.0672 a 8.9070252,8.9070282 0 0 0 -4.036416,1.27819 7.6422815,7.642284 0 0 0 -2.798582,3.2695 11.638333,11.638337 0 0 0 0,8.92049 l -0.269094,0.1211 a 13.548904,13.548908 0 0 1 -1.22438,-4.61498 11.207783,11.207787 0 0 1 0.659282,-4.83024 8.7859327,8.7859357 0 0 1 2.960038,-3.95569 9.6470349,9.647038 0 0 1 4.601515,-1.81638 l -0.686191,1.07637 a 13.589269,13.589273 0 0 1 -0.497824,-6.84846 12.512891,12.512895 0 0 1 3.134949,-6.21608 11.705607,11.705611 0 0 1 5.960443,-3.44441 13.535449,13.535453 0 0 1 7.00991,0.39019 l -2.004759,1.89712 a 12.647437,12.647441 0 0 1 -0.242186,-5.89317 11.449967,11.44997 0 0 1 2.516041,-5.27426 9.5528519,9.552855 0 0 1 4.789874,-3.05423 10.037222,10.037225 0 0 1 5.381896,0 z"
       fill="#414042"
       id="path76"
       style="stroke-width:1.34547" />
    <path
       d="m 109.17506,211.73703 c -1.68183,-13.88528 -3.45786,-28.02619 -5.24734,-42.00564 q -2.19311,-17.26242 -4.480419,-34.33648 a 16.831856,16.831861 0 0 0 -2.960044,0.3902 19.590073,19.590079 0 0 0 -2.139296,0.64582 l 1.950929,9.20302 -1.27819,0.0808 a 21.527554,21.52756 0 0 0 -3.457866,0.53819 22.119562,22.119569 0 0 0 -2.273854,0.68619 l -1.062923,0.37674 -2.731304,-8.69177 a 13.535449,13.535453 0 0 0 -2.394933,0.59202 13.306719,13.306723 0 0 0 -2.51604,1.15711 l 1.735663,8.22084 -1.157102,0.1749 a 23.047937,23.047944 0 0 0 -3.000403,0.68619 22.294473,22.29448 0 0 0 -2.852405,1.1033 l -1.062924,0.48437 -2.865855,-7.56156 a 11.920883,11.920887 0 0 0 -2.610219,0.7131 12.876168,12.876172 0 0 0 -2.55639,1.34548 c 1.897111,8.88011 3.942229,17.81406 6.081525,26.57308 2.690948,11.18087 5.70481,22.4694 8.853211,33.55607 l -2.112387,0.61893 C 75.888084,195.17436 72.90114,183.87239 70.156374,172.65116 67.949798,163.62303 65.850861,154.42 63.913382,145.28423 l -0.161458,-0.69964 0.565101,-0.444 a 15.580567,15.580572 0 0 1 3.659683,-2.05858 14.894376,14.894381 0 0 1 4.036416,-0.96872 l 0.834197,-0.0808 2.690938,6.99646 c 0.672739,-0.28255 1.345479,-0.52475 2.058578,-0.74001 0.713099,-0.21528 1.426197,-0.40365 2.152756,-0.55165 l -1.574205,-7.45393 0.64583,-0.41708 a 16.051482,16.051487 0 0 1 3.632772,-1.80294 16.630035,16.63004 0 0 1 3.780771,-0.80728 l 0.874566,-0.0673 2.690935,8.24775 c 0.470913,-0.14799 0.955285,-0.26909 1.439657,-0.39019 a 22.873026,22.873033 0 0 1 2.542941,-0.45745 l -1.802932,-8.5303 0.834197,-0.36328 a 17.746777,17.746783 0 0 1 3.377127,-1.11675 18.594424,18.59443 0 0 1 4.399698,-0.45744 h 0.94183 l 0.13455,0.95528 q 2.34112,17.58532 4.61496,35.3321 c 1.80294,13.99292 3.56551,28.13383 5.24735,42.01911 z"
       fill="#414042"
       id="path78"
       style="stroke-width:1.34547" />
    <path
       d="m 103.41644,156.68029 -0.43054,-2.19312 c 5.38188,-1.02257 10.88487,-1.8164 16.32057,-2.35458 l 0.21528,2.23349 c -5.35499,0.52473 -10.79069,1.30511 -16.10531,2.31421 z"
       fill="#414042"
       id="path80"
       style="stroke-width:1.34547" />
    <path
       d="m 168.07983,155.96719 c -4.93788,-0.82074 -9.96995,-1.45311 -14.96165,-1.8702 l 0.17492,-2.24694 c 5.04552,0.43055 10.14486,1.06292 15.13656,1.89712 z"
       fill="#414042"
       id="path82"
       style="stroke-width:1.34547" />
    <path
       d="m 121.40541,210.23009 c -0.57855,-17.35659 -1.49348,-34.98227 -2.69095,-52.31196 -0.78037,-10.91178 -1.70875,-21.9043 -2.69095,-32.66808 l -0.0807,-0.8611 0.79383,-0.30946 a 22.994118,22.994125 0 0 1 3.40404,-1.0091 25.429423,25.429431 0 0 1 4.66879,-0.45746 h 0.92838 l 1.34547,8.73212 q 0.96873,-0.16145 1.93748,-0.24219 c 0.5651,0 1.13019,-0.0807 1.70875,-0.0807 l 0.24218,-9.18958 0.87455,-0.16146 a 30.945858,30.945868 0 0 1 4.58807,-0.53819 32.54697,32.546981 0 0 1 4.2786,0.13456 l 0.96874,0.10763 0.16146,8.77249 c 0.82073,0 1.64147,-0.0807 2.44876,0 0.80727,0.0807 1.34547,0 1.95093,0.0807 l 0.45746,-8.40921 0.87456,-0.14801 a 16.145665,16.145672 0 0 1 8.31502,0.75347 l 0.80727,0.28255 -0.0807,0.87456 c -1.08983,12.49943 -1.9913,25.18723 -2.69094,37.67323 -0.86111,15.76894 -1.34547,31.78006 -1.62803,47.58936 h -2.19311 c 0.21527,-15.84966 0.75345,-31.8877 1.62801,-47.68355 0.65929,-12.24379 1.5473,-24.64904 2.61022,-36.89285 a 14.517644,14.517649 0 0 0 -2.82549,-0.52473 14.262004,14.262008 0 0 0 -2.69094,0 l -0.48438,8.94739 -1.1571,-0.13455 c -0.96874,-0.10764 -1.93748,-0.17492 -2.89276,-0.18837 a 28.47019,28.470199 0 0 0 -3.3906,0.16146 l -1.19746,0.12109 -0.16146,-9.17612 a 27.864727,27.864737 0 0 0 -3.0004,0 26.303979,26.303987 0 0 0 -3.3906,0.33637 l -0.25563,9.59323 h -1.11675 a 20.276265,20.276272 0 0 0 -2.5564,0 22.092652,22.092659 0 0 0 -2.78512,0.41709 l -1.14365,0.25564 -1.34547,-9.14922 a 20.652997,20.653004 0 0 0 -3.28295,0.40364 19.912987,19.912993 0 0 0 -2.28731,0.63237 c 1.00911,10.49469 1.89711,21.20466 2.69094,31.83388 1.25129,17.38351 2.17967,34.98229 2.69095,52.47344 z"
       fill="#414042"
       id="path84"
       style="stroke-width:1.34547" />
    <path
       d="m 101.76152,232.44385 a 7.763374,7.7633765 0 0 1 0,-4.35932 7.8979212,7.8979237 0 0 1 2.4353,-3.76733 8.2073797,8.2073823 0 0 1 8.81284,-0.99566 l -1.70875,1.14366 a 8.3688364,8.3688391 0 0 1 0.96874,-5.05897 6.4717208,6.4717229 0 0 1 4.1575,-3.21568 6.5659038,6.5659059 0 0 1 5.00517,0.83418 6.0680791,6.068081 0 0 1 2.77166,3.82114 l -0.25563,0.14801 a 7.7230098,7.7230122 0 0 0 -3.37714,-2.03167 5.3818884,5.3818902 0 0 0 -3.35023,0.13455 5.7182564,5.7182583 0 0 0 -2.52948,1.91057 5.1935223,5.1935239 0 0 0 -1.07638,3.2695 v 2.24694 l -1.73565,-1.10328 a 6.3371736,6.3371756 0 0 0 -6.86192,0.0942 7.1579115,7.1579138 0 0 0 -3.06767,6.87535 z"
       fill="#414042"
       id="path86"
       style="stroke-width:1.34547" />
    <path
       d="m 133.09755,233.27804 a 5.7451659,5.7451678 0 0 1 3.8346,-5.5299 4.534241,4.5342425 0 0 1 3.80769,-0.0942 3.6865935,3.6865946 0 0 1 2.11239,3.13496 l -0.22873,0.18836 a 23.34394,23.343947 0 0 0 -2.8524,-0.49783 14.531099,14.531103 0 0 0 -2.27385,-0.40364 4.5611504,4.5611518 0 0 0 -2.35458,0.94182 5.3011601,5.3011618 0 0 0 -1.74911,2.31422 z"
       fill="#414042"
       id="path88"
       style="stroke-width:1.34547" />
    <path
       d="m 156.10513,220.41533 a 6.1891716,6.1891735 0 0 1 2.69094,-2.56986 5.9066225,5.9066244 0 0 1 3.82114,-0.47091 6.3909924,6.3909945 0 0 1 3.43096,2.01821 7.1713663,7.1713686 0 0 1 1.69529,3.75387 l -1.49347,-0.55165 a 7.7499193,7.7499218 0 0 1 8.74557,-1.8433 8.2881081,8.2881108 0 0 1 3.70005,3.17531 7.8844665,7.8844691 0 0 1 1.19747,4.89753 l -2.17967,-1.52039 a 6.9964548,6.9964571 0 0 1 7.38665,0.80729 6.0008056,6.0008075 0 0 1 1.9913,3.21569 6.1622622,6.1622643 0 0 1 -0.17492,3.49821 h -0.28255 a 7.669191,7.6691935 0 0 0 -0.91492,-2.91967 4.8840637,4.8840653 0 0 0 -1.89711,-1.8433 5.1935223,5.1935239 0 0 0 -4.78989,0.0808 l -2.31421,1.21093 0.14801,-2.69095 a 6.3506283,6.3506304 0 0 0 -0.63237,-3.17531 5.2877054,5.2877071 0 0 0 -2.20658,-2.38149 5.6778922,5.6778941 0 0 0 -6.49863,0.87454 l -1.34548,1.34549 -0.0807,-1.87021 a 5.4626167,5.4626184 0 0 0 -3.64622,-4.87061 5.5164356,5.5164374 0 0 0 -6.05462,2.12584 z"
       fill="#414042"
       id="path90"
       style="stroke-width:1.34547" />
    <path
       d="m 82.803815,217.30729 a 4.3324202,4.3324216 0 0 0 -2.852405,-1.02257 3.7538672,3.7538684 0 0 0 -2.462212,0.96875 c -0.645829,0.60546 -0.740008,1.43965 -1.130202,2.09894 a 10.091041,10.091044 0 0 0 -0.928375,2.90621 l -0.269086,0.13455 a 3.713503,3.7135042 0 0 1 -1.641484,-3.78077 4.628424,4.6284255 0 0 1 2.690947,-3.36369 5.206977,5.2069788 0 0 1 4.036417,-0.444 4.8840637,4.8840653 0 0 1 2.852405,2.31421 z"
       fill="#414042"
       id="path92"
       style="stroke-width:1.34547" />
    <path
       d="m 143.99588,201.74016 -13.93909,-0.0673 -0.0807,-1.02256 c -0.48437,-5.74517 -1.73566,-24.89123 2.46221,-30.0444 a 6.1891716,6.1891735 0 0 1 4.4266,-2.69095 v 0 c 2.40841,0 4.03642,2.19313 4.72262,3.02733 4.21132,5.51643 2.96003,24.2185 2.48912,29.74839 z m -11.90743,-2.30074 h 9.88922 c 0.82074,-10.41397 0.74001,-23.37086 -2.11239,-27.12475 -0.49783,-0.6458 -1.65493,-2.16619 -2.98695,-2.16619 v 0 c -1.23783,0 -2.30075,1.34546 -2.69094,1.85674 -2.87931,3.51168 -2.94659,16.72423 -2.09894,27.4342 z"
       fill="#414042"
       id="path94"
       style="stroke-width:1.34547" />
    <path
       d="m 135.38486,104.50287 a 36.583387,36.583399 0 0 1 -6.64663,-0.61892 l -1.14365,-0.21528 -1.34548,-26.680718 2.93313,-0.148003 1.17057,24.218501 a 33.636803,33.636814 0 0 0 6.04116,0.34983 32.681517,32.681527 0 0 0 5.48953,-0.63237 l 0.57856,-23.855232 2.93312,0.08073 -0.63237,26.182902 -1.10328,0.26909 a 36.771753,36.771765 0 0 1 -7.17137,0.95528 z"
       fill="#414042"
       id="path96"
       style="stroke-width:1.34547" />
    <path
       d="m 215.91136,225.25902 -2.69094,-1.06292 c 8.32847,-22.59049 15.8093,-45.82679 22.2272,-69.04965 7.52119,-27.15163 13.79109,-55.00292 18.64824,-82.813834 A 215.96173,215.9618 0 0 0 164.46051,37.91543 l 0.40364,-2.973494 a 218.90831,218.90838 0 0 1 91.65357,35.439746 l 0.80727,0.538189 -0.1749,0.968739 c -4.89753,28.25492 -11.24815,56.50984 -18.83662,84.07858 -6.53899,23.30359 -14.04673,46.62062 -22.40211,69.29183 z"
       fill="#414042"
       id="path98"
       style="stroke-width:1.34547" />
  </g>
</svg>
