<?xml version="1.0" encoding="UTF-8" standalone="no"?>
<svg
   viewBox="0 0 178.584 129.453"
   version="1.1"
   id="svg153"
   sodipodi:docname="favicon.svg"
   inkscape:version="1.1.2 (0a00cf5339, 2022-02-04)"
   width="178.584"
   height="129.453"
   xmlns:inkscape="http://www.inkscape.org/namespaces/inkscape"
   xmlns:sodipodi="http://sodipodi.sourceforge.net/DTD/sodipodi-0.dtd"
   xmlns="http://www.w3.org/2000/svg"
   xmlns:svg="http://www.w3.org/2000/svg">
  <defs
     id="defs157" />
  <sodipodi:namedview
     id="namedview155"
     pagecolor="#ffffff"
     bordercolor="#666666"
     borderopacity="1.0"
     inkscape:pageshadow="2"
     inkscape:pageopacity="0.0"
     inkscape:pagecheckerboard="0"
     showgrid="false"
     inkscape:zoom="1.8417702"
     inkscape:cx="59.725149"
     inkscape:cy="154.74243"
     inkscape:window-width="1920"
     inkscape:window-height="1011"
     inkscape:window-x="0"
     inkscape:window-y="1056"
     inkscape:window-maximized="1"
     inkscape:current-layer="Layer_2"
     showguides="true"
     inkscape:guide-bbox="true">
    <sodipodi:guide
       position="0,319.5464"
       orientation="-1,0"
       id="guide55"
       inkscape:label=""
       inkscape:locked="false"
       inkscape:color="rgb(0,0,255)" />
    <sodipodi:guide
       position="299.99999,404.24752"
       orientation="-1,0"
       id="guide57"
       inkscape:label=""
       inkscape:locked="false"
       inkscape:color="rgb(0,0,255)" />
    <sodipodi:guide
       position="29.319618,299.99999"
       orientation="0,1"
       id="guide59"
       inkscape:label=""
       inkscape:locked="false"
       inkscape:color="rgb(0,0,255)" />
    <sodipodi:guide
       position="-149.85583,0"
       orientation="0,1"
       id="guide61"
       inkscape:label=""
       inkscape:locked="false"
       inkscape:color="rgb(0,0,255)" />
  </sodipodi:namedview>
  <g
     id="Layer_2"
     data-name="Layer 2">
    <path
       d="m 96.549837,79.496243 h -11.92089 c -0.25563,-2.83895 -1.95092,-24.137784 2.20658,-29.237122 a 5.1127939,5.1127935 0 0 1 3.59241,-2.246938 c 1.87021,0 3.2695,1.829849 3.84805,2.583299 4.19788,5.435717 2.50258,26.155982 2.27385,28.900761 z"
       fill="#ffffff"
       id="path2"
       style="stroke-width:1.34547" />
    <path
       d="m 255.65661,71.619517 q -2.35457,13.454724 -5.30116,27.837829 c -3.70005,17.854424 -8.16702,36.596844 -13.54891,56.106204 -6.91572,24.95852 -14.50419,48.04682 -22.28102,69.15728 a 8.7321139,8.7321167 0 0 1 1.26475,7.56156 9.5528519,9.552855 0 0 1 8.24775,5.86627 9.8084916,9.8084948 0 0 1 -0.20182,7.18482 c 2.3142,-0.21528 4.62842,-0.444 6.91572,-0.68619 a 51.760311,51.760327 0 0 1 0.16146,15.21729 50.549386,50.549402 0 0 1 -7.00991,19.41517 619.13244,619.13264 0 0 1 -83.72873,6.96956 614.53092,614.53112 0 0 1 -90.684817,-5.3819 43.230018,43.230032 0 0 1 -7.480824,-32.93717 c 1.897115,0.10764 3.807685,0.25564 5.704801,0.34982 -1.856752,-4.4266 -1.19747,-9.16266 1.601112,-11.92088 a 8.9339347,8.9339376 0 0 1 5.381888,-2.40839 12.176523,12.176526 0 0 1 0.780374,-9.4183 C 47.48517,203.0049 39.667976,179.31114 32.604248,153.63953 27.545273,135.40837 23.320491,117.83649 19.7819,101.03154 Q 16.566221,85.89498 14.090552,71.606062 A 217.96648,217.96655 0 0 1 108.07178,36.085587 c -0.55165,-5.920078 -1.1302,-11.853613 -1.68185,-17.773692 a 109.80398,109.80401 0 0 1 60.33098,-0.766919 c -0.69965,6.310266 -1.41275,12.633986 -2.1124,18.930797 a 218.23557,218.23564 0 0 1 91.0481,35.143744 z"
       fill="none"
       id="path6"
       style="stroke-width:1.34547" />
    <path
       d="m 96.549837,79.496243 h -11.92089 c -0.25563,-2.83895 -1.95092,-24.137784 2.20658,-29.237122 a 5.1127939,5.1127935 0 0 1 3.59241,-2.246938 c 1.87021,0 3.2695,1.829849 3.84805,2.583299 4.19788,5.435717 2.50258,26.155982 2.27385,28.900761 z"
       fill="#ffffff"
       id="path8"
       style="stroke-width:1.34547" />
    <path
       d="m 177.62799,117.03491 a 9.5528519,9.5528511 0 0 0 -8.24775,-5.86627 8.8128422,8.8128416 0 0 0 -1.26474,-7.56155 7.036819,7.0368185 0 0 0 -0.98219,-1.11674 8.2881081,8.2881074 0 0 0 -10.49469,-0.39018 10.965598,10.965597 0 0 0 -2.05856,-9.418312 9.7008538,9.7008529 0 0 0 -1.62803,-1.52038 9.9564935,9.9564926 0 0 0 -8.07283,-1.73566 c 3.39059,-10.548505 6.72736,-21.796643 9.74122,-33.717538 3.01386,-11.920875 5.66444,-23.613031 7.81719,-34.605526 a 14.073638,14.073638 0 0 0 -7.25209,-2.502579 q -0.99566,4.036408 -2.00476,8.072816 a 27.191991,27.191988 0 0 0 -3.39059,-0.83418 31.228408,31.228405 0 0 0 -3.84805,-0.45746 c 0.57855,-2.690948 1.17056,-5.381887 1.73566,-8.072826 a 16.562762,16.562761 0 0 0 -3.84804,-1.116749 17.12786,17.127858 0 0 0 -3.63279,-0.228731 c -0.45745,2.690939 -0.92837,5.449148 -1.34547,8.167018 -1.14365,-0.2422 -2.39494,-0.444001 -3.72696,-0.605461 a 41.924911,41.924907 0 0 0 -4.26514,-0.282559 q 0.34982,-3.915308 0.69965,-7.817177 a 20.949,20.948999 0 0 0 -3.88842,-0.79384 20.733725,20.733723 0 0 0 -4.44006,0 q -0.56509,9.418306 -1.34547,19.119163 c -4.57461,-0.76692 -9.62013,-1.42621 -15.04237,-1.88366 q 0.92837,-15.123114 2.19311,-29.6003975 a 14.988559,14.988558 0 0 0 -3.90187,-0.8610897 15.486384,15.486383 0 0 0 -3.84805,0.14799 q -0.24218,4.3593382 -0.47091,8.6917562 a 29.18329,29.183289 0 0 0 -3.013863,-0.18837 28.739284,28.739282 0 0 0 -3.52514,0.16146 q 0,-4.4804179 -0.16145,-8.9742961 a 28.349097,28.349095 0 0 0 -4.10369,-0.1210899 27.286175,27.286173 0 0 0 -4.45352,0.5112698 c 0,3.1214987 -0.16146,6.2564474 -0.24218,9.4183252 a 22.603931,22.603929 0 0 0 -5.62408,0.511271 c -0.45745,-2.9735091 -0.91491,-5.9604479 -1.34547,-8.9339366 a 20.922091,20.92209 0 0 0 -4.44006,0.4439997 23.263213,23.26321 0 0 0 -3.25604,0.9552897 q 1.34547,13.8180042 2.4084,28.1068982 c -5.86626,0.57857 -11.30197,1.412749 -16.14567,2.341129 q -1.34547,-10.763765 -2.82549,-21.325722 a 18.446422,18.446419 0 0 0 -4.130602,0.430541 20.599178,20.599176 0 0 0 -3.18877,1.049469 c 0.632381,2.960039 1.251291,5.906627 1.883671,8.853207 a 23.088301,23.0883 0 0 0 -3.646233,0.565099 20.760634,20.760631 0 0 0 -2.368033,0.7131 q -1.345469,-4.224779 -2.690944,-8.476477 a 15.069287,15.069286 0 0 0 -3.511675,0.75346 15.365292,15.365291 0 0 0 -3.404047,1.68184 l 1.654934,7.830656 a 23.424669,23.424667 0 0 0 -3.14841,0.72654 20.989364,20.989362 0 0 0 -3.000403,1.14366 l -2.690948,-7.278998 a 14.235094,14.235094 0 0 0 -3.740411,0.88801 14.073638,14.073638 0 0 0 -3.390587,1.92403 q 2.865855,13.373993 6.256442,27.326528 4.238243,17.396963 8.86666,33.636809 a 10.360135,10.360134 0 0 0 -7.749918,2.112389 l -0.511272,0.4709 -0.309465,0.30947 a 9.0953914,9.0953906 0 0 0 -1.345469,1.89712 6.7273605,6.7273598 0 0 0 -0.322915,0.618919 3.4174991,3.4174988 0 0 0 -0.242186,0.55164 11.113599,11.113598 0 0 0 -0.834187,3.619329 c 0,0.21526 0,0.457449 0,0.699629 a 12.5398,12.539799 0 0 0 0.457453,3.336769 c -0.336365,-0.13454 -6.094984,-2.193109 -10.763772,1.560765 a 10.938688,10.938687 0 0 0 -2.8389455,3.4444 12.109249,12.109248 0 0 0 -0.780374,9.4183 8.9070252,8.9070246 0 0 0 -5.3818889,2.4084 c -2.81203708,2.69095 -3.47131808,7.49428 -1.601112,11.92087 28.5374594,1.78949 59.3353174,2.59678 92.0706474,1.9375 29.761853,-0.59201 57.855303,-2.36804 84.038193,-4.89752 a 9.7815821,9.7815813 0 0 0 -0.0942,-7.29246 z m -81.051243,-37.538667 -11.92089,-0.0673 c -0.24218,-2.825479 -1.95092,-24.124314 2.20658,-29.223652 a 5.1127939,5.1127935 0 0 1 3.59241,-2.246939 c 1.88366,0 3.2695,1.82985 3.84805,2.56986 4.17097,5.502968 2.47567,26.223232 2.24694,28.96801 z M 143.23772,62.825826 a 3.9422332,3.9422329 0 0 1 -3.33676,2.56986 37.673218,37.673216 0 0 0 -2.36804,7.077177 39.610698,39.610694 0 0 0 -0.98219,8.07284 17.491137,17.491136 0 0 1 4.35933,6.660087 c 2.82549,7.951736 -1.34548,15.84966 -4.03642,19.9399 a 6.1622622,6.1622618 0 0 0 -6.08153,1.34548 6.2968094,6.2968088 0 0 0 -2.58331,-7.60193 5.9469866,5.9469861 0 0 0 -6.00081,0 6.0815339,6.0815334 0 0 0 -1.66838,1.34547 6.1622622,6.1622618 0 0 0 -2.98695,-4.736055 16.683854,16.683852 0 0 1 15.15002,-18.015882 41.601997,41.601993 0 0 0 1.62801,-9.229929 41.144537,41.144533 0 0 0 -0.12108,-6.283368 3.229133,3.2291327 0 0 1 -1.5473,-2.166199 4.1036899,4.1036896 0 0 1 1.5473,-3.390589 5.6778922,5.6778918 0 0 1 4.7226,-1.157109 5.5164356,5.5164351 0 0 1 4.03642,2.690949 4.0364163,4.036416 0 0 1 0.24219,2.879298 z"
       fill="#ffffff"
       id="path18"
       style="stroke-width:1.34547" />
    <path
       d="m 143.21082,62.825826 a 3.9422332,3.9422329 0 0 1 -3.35023,2.56986 39.126329,39.126325 0 0 0 -2.35458,7.077177 38.668868,38.668865 0 0 0 -0.98219,8.07284 17.692958,17.692956 0 0 1 4.35933,6.660087 c 2.82549,7.951736 -1.34548,15.84966 -4.03641,19.9399 a 6.1488075,6.148807 0 0 0 -6.06809,1.34548 6.3102641,6.3102636 0 0 0 -2.58331,-7.61539 5.9738961,5.9738956 0 0 0 -6.0008,0 5.7989847,5.7989842 0 0 0 -1.66839,1.34548 6.1757169,6.1757164 0 0 0 -2.98694,-4.736065 16.656944,16.656942 0 0 1 15.15001,-18.002422 40.929261,40.929257 0 0 0 1.62802,-9.229929 40.512165,40.512161 0 0 0 0,-4.964799 c 0,-0.444009 0,-0.888009 -0.10763,-1.345479 a 3.3636803,3.36368 0 0 1 -1.56075,-2.152749 3.955688,3.9556876 0 0 1 1.56075,-3.390589 6.027715,6.0277145 0 0 1 8.7052,1.46657 4.0364163,4.036416 0 0 1 0.29601,2.960028 z"
       fill="#b4162c"
       id="path20"
       style="stroke-width:1.34547" />
    <path
       d="m 9.1076095,103.79546 c 0,-0.10764 -0.06727,-0.21527 -0.107638,-0.30945"
       fill="#ffffff"
       id="path28"
       style="stroke-width:1.34547" />
    <path
       d="m 23.975076,90.703998 c -0.121098,-0.34981 -0.228726,-0.69963 -0.349824,-1.062909"
       fill="#ffffff"
       id="path30"
       style="stroke-width:1.34547" />
    <path
       d="m 116.27446,86.77523 q 2.47567,-19.051875 4.37279,-39.462687 c 0.41709,-4.561138 0.80728,-9.095387 1.1571,-13.562354"
       fill="#ffffff"
       id="path32"
       style="stroke-width:1.34547" />
    <path
       d="m 56.764227,34.463288 q 0.88801,6.982997 1.80293,14.006354 2.69095,21.110462 5.24734,42.019106 z"
       fill="#ffffff"
       id="path34"
       style="stroke-width:1.34547" />
    <path
       d="m 104.66304,87.676699 q 0.30946,-23.034483 1.65492,-47.575893 0.22874,-4.117149 0.48438,-8.180457"
       fill="#ffffff"
       id="path36"
       style="stroke-width:1.34547" />
    <path
       d="m 72.963717,32.122159 c 0.13455,1.53384 0.22872,3.067679 0.34982,4.601518 q 1.93748,26.909439 2.69094,52.352322 z"
       fill="#ffffff"
       id="path38"
       style="stroke-width:1.34547" />
    <path
       d="m 55.445667,111.3032 a 7.6288268,7.6288261 0 0 1 2.50257,-7.27899 7.2251852,7.2251845 0 0 1 8.07284,-0.76693 6.4582661,6.4582655 0 0 1 3.75387,-6.512094 6.2968094,6.2968088 0 0 1 7.871,3.067669"
       fill="#ffffff"
       id="path40"
       style="stroke-width:1.34547" />
    <path
       d="m 86.795167,112.19121 a 5.4626167,5.4626162 0 0 1 3.75386,-4.33242 5.3818884,5.3818881 0 0 1 5.74517,1.91058"
       fill="#ffffff"
       id="path42"
       style="stroke-width:1.34547" />
    <path
       d="m 136.79292,107.10534 a 5.2473412,5.2473408 0 0 1 1.58765,0.87454 6.0949886,6.0949881 0 0 1 2.00475,5.74516"
       fill="#ffffff"
       id="path44"
       style="stroke-width:1.34547" />
    <path
       d="m 109.77583,99.422674 a 5.8662583,5.8662578 0 0 1 5.87972,-2.690948 5.5567997,5.5567992 0 0 1 1.82984,0.672739"
       fill="#ffffff"
       id="path46"
       style="stroke-width:1.34547" />
    <path
       d="m 36.46106,96.099356 a 4.5476957,4.5476954 0 0 0 -5.987356,-1.02255 4.7898807,4.7898802 0 0 0 -1.628024,6.135354"
       fill="#ffffff"
       id="path48"
       style="stroke-width:1.34547" />
    <path
       d="m 96.549837,79.496243 h -11.92089 c -0.25563,-2.83895 -1.95092,-24.137784 2.20658,-29.237122 a 5.1127939,5.1127935 0 0 1 3.59241,-2.246938 c 1.87021,0 3.2695,1.829849 3.84805,2.583299 4.19788,5.435717 2.50258,26.155982 2.27385,28.900761 z"
       fill="#ffffff"
       id="path50"
       style="stroke-width:1.34547" />
    <path
       d="m 134.14233,63.888756 a 0.22873026,0.22873024 0 0 1 0,-0.0941"
       fill="#ffffff"
       id="path52"
       style="stroke-width:1.34547" />
    <path
       d="m 122.07345,100.78161 a 26.774895,26.774894 0 0 1 0.28254,-6.390993 14.800193,14.800192 0 0 1 2.22004,-6.135358 10.588866,10.588866 0 0 1 2.2873,-2.421849 7.4404607,7.44046 0 0 1 3.06767,-1.453109 5.7317111,5.7317106 0 0 1 5.87972,2.542939 l -0.10764,0.0941 a 7.8037382,7.8037376 0 0 0 -2.69094,-1.251299 5.7317111,5.7317106 0 0 0 -2.69095,0.0807 10.064131,10.06413 0 0 0 -4.74952,3.13495 13.844908,13.844907 0 0 0 -2.4353,5.556796 26.344343,26.34434 0 0 0 -0.84765,6.243003 z"
       fill="#ffffff"
       id="path56"
       style="stroke-width:1.34547" />
    <path
       d="m 145.86139,89.883269 -2.09893,-0.69964 c 3.55204,-11.059776 6.82154,-22.388654 9.72776,-33.6368 2.90622,-11.248155 5.38189,-22.48284 7.64228,-33.798246 a 12.02852,12.028519 0 0 0 -2.40839,-1.157119 12.432162,12.432161 0 0 0 -2.77167,-0.67273 l -2.04512,8.072837 -1.10329,-0.32292 a 30.448034,30.448032 0 0 0 -3.26949,-0.793819 34.349903,34.3499 0 0 0 -3.72697,-0.44402 l -1.34546,-0.0673 1.82984,-8.449566 a 15.244199,15.244198 0 0 0 -2.77168,-0.71309 15.755479,15.755478 0 0 0 -2.51603,-0.22874 l -1.34547,8.395737 -1.11674,-0.22872 c -1.19747,-0.25563 -2.42185,-0.45746 -3.63277,-0.59202 -1.21094,-0.134529 -2.75823,-0.25563 -4.15752,-0.28254 h -1.18401 l 0.72655,-8.072826 a 20.182081,20.182078 0 0 0 -2.81204,-0.497831 19.105704,19.105702 0 0 0 -3.28295,0 c -0.65928,10.561957 -1.48001,21.258462 -2.44876,31.766587 -1.21092,13.145275 -2.69094,26.42508 -4.37278,39.503058 l -2.17967,-0.29599 c 1.6953,-13.037628 3.16187,-26.303982 4.35934,-39.422337 0.99564,-10.763765 1.84329,-21.796642 2.50258,-32.654607 v -0.92838 l 0.91491,-0.121079 a 21.419916,21.419914 0 0 1 8.75903,0.78037 l 0.8611,0.269089 -0.67274,7.534648 c 1.07639,0 2.1393,0.134539 3.18877,0.269089 1.04947,0.13456 1.80293,0.24219 2.69095,0.40364 l 1.34547,-7.938267 h 0.90146 a 17.491137,17.491136 0 0 1 3.8346,0.24217 18.244602,18.2446 0 0 1 4.11714,1.184019 l 0.84766,0.34983 -1.6684,7.776828 c 0.90147,0.0808 1.80293,0.215269 2.69095,0.376729 0.88802,0.16146 1.60112,0.32291 2.40839,0.52472 l 1.93748,-7.776827 h 0.90147 a 15.123107,15.123105 0 0 1 7.80374,2.690949 l 0.60547,0.43056 -0.14801,0.726549 c -2.24694,11.597966 -4.88406,23.263211 -7.81719,34.672806 -2.93313,11.409616 -6.18917,22.657754 -9.70086,33.82517 z"
       fill="#414042"
       id="path72"
       style="stroke-width:1.34547" />
    <path
       d="m 177.25126,124.16591 a 9.0146631,9.0146624 0 0 0 -0.86111,-8.36884 9.1357556,9.1357548 0 0 0 -7.10408,-3.78077 h -0.9822 l 0.25564,-1.02256 a 8.2342892,8.2342885 0 0 0 -0.20182,-4.64188 6.7273605,6.7273598 0 0 0 -2.69095,-3.49822 6.7273605,6.7273598 0 0 0 -4.18441,-1.03602 7.9382854,7.9382846 0 0 0 -4.03642,1.57422 l -3.06768,2.27382 0.76692,-3.90186 a 12.109249,12.109248 0 0 0 0,-4.453515 8.92048,8.9204794 0 0 0 -1.8702,-4.036428 9.5663066,9.5663058 0 0 0 -3.67315,-2.771658 10.763777,10.763777 0 0 0 -4.80333,-0.84766 v -0.29599 a 9.2837574,9.2837566 0 0 1 5.38189,-0.47092 10.104495,10.104494 0 0 1 5.00516,2.690939 10.615775,10.615774 0 0 1 2.94658,5.085888 11.867064,11.867063 0 0 1 0,5.946994 l -2.30075,-1.64148 a 9.6873991,9.6873984 0 0 1 11.16741,0 9.0819366,9.0819359 0 0 1 3.30986,4.80333 10.131405,10.131404 0 0 1 -0.0807,5.73172 l -0.74001,-1.07638 a 10.561956,10.561954 0 0 1 4.50733,1.52038 9.7815821,9.7815813 0 0 1 3.32332,3.3906 9.1761197,9.176119 0 0 1 1.26475,4.53424 10.494682,10.494682 0 0 1 -0.98219,4.50733 z"
       fill="#414042"
       id="path74"
       style="stroke-width:1.34547" />
    <path
       d="m 33.568296,85.012671 a 11.31542,11.315419 0 0 0 -4.776425,1.170569 9.0281177,9.0281171 0 0 0 -3.457866,3.040758 10.023767,10.023766 0 0 0 -1.547296,4.278599 12.015065,12.015063 0 0 0 0.336365,4.534239 l 0.766918,2.892764 -2.690938,-0.995635 a 12.109249,12.109248 0 0 0 -5.476074,-0.60547 8.8128422,8.8128416 0 0 0 -4.951336,2.394935 10.265952,10.265952 0 0 0 -2.8524005,4.97825 11.732517,11.732515 0 0 0 0.121093,5.90662 l 0.282548,0.99566 -0.955285,0.0672 a 8.9070252,8.9070246 0 0 0 -4.0364159,1.27819 7.6422815,7.6422809 0 0 0 -2.798582,3.2695 11.638333,11.638332 0 0 0 0,8.92048 l -0.269094,0.12111 a 13.548904,13.548902 0 0 1 -1.22438008,-4.61498 11.207783,11.207783 0 0 1 0.659282,-4.83024 8.7859327,8.7859321 0 0 1 2.96003808,-3.95568 9.6470349,9.647034 0 0 1 4.6015149,-1.81638 l -0.686191,1.07636 a 13.589269,13.589267 0 0 1 -0.497824,-6.84845 12.512891,12.51289 0 0 1 3.1349485,-6.21608 11.705607,11.705606 0 0 1 5.960443,-3.444414 13.535449,13.535448 0 0 1 7.00991,0.39019 l -2.004759,1.897119 a 12.647437,12.647436 0 0 1 -0.242186,-5.893168 11.449967,11.449965 0 0 1 2.516041,-5.274257 9.5528519,9.5528511 0 0 1 4.789874,-3.05423 10.037222,10.037221 0 0 1 5.381896,0 z"
       fill="#414042"
       id="path76"
       style="stroke-width:1.34547" />
    <path
       d="M 62.724667,90.623289 C 61.042837,76.738014 59.266807,62.597106 57.477327,48.617663 Q 55.284217,31.355249 52.996908,14.281197 a 16.831856,16.831854 0 0 0 -2.960044,0.390199 19.590073,19.590071 0 0 0 -2.139296,0.64582 l 1.950929,9.203016 -1.27819,0.0808 a 21.527554,21.527551 0 0 0 -3.457866,0.538189 22.119562,22.11956 0 0 0 -2.273854,0.686191 l -1.062923,0.376739 -2.731304,-8.691766 a 13.535449,13.535448 0 0 0 -2.394933,0.59202 13.306719,13.306717 0 0 0 -2.51604,1.157109 l 1.735663,8.220837 -1.157102,0.1749 a 23.047937,23.047934 0 0 0 -3.000403,0.68619 22.294473,22.294471 0 0 0 -2.852405,1.103299 l -1.062924,0.48437 -2.865855,-7.561557 a 11.920883,11.920883 0 0 0 -2.610219,0.7131 12.876168,12.876167 0 0 0 -2.55639,1.345479 c 1.897111,8.880107 3.942229,17.814053 6.081525,26.573069 2.690948,11.180865 5.70481,22.469391 8.853211,33.55606 L 32.586101,85.17419 C 29.437691,74.060621 26.450747,62.758657 23.705981,51.537431 21.499405,42.509305 19.400468,33.306278 17.462989,24.170512 l -0.161458,-0.699639 0.565101,-0.444 a 15.580567,15.580565 0 0 1 3.659683,-2.05858 14.894376,14.894375 0 0 1 4.036416,-0.968719 l 0.834197,-0.0808 2.690938,6.996457 c 0.672739,-0.28255 1.345479,-0.52475 2.058578,-0.740009 0.713099,-0.21528 1.426197,-0.403651 2.152756,-0.55165 l -1.574205,-7.453927 0.64583,-0.41708 a 16.051482,16.05148 0 0 1 3.632772,-1.802939 16.630035,16.630033 0 0 1 3.780771,-0.80728 l 0.874566,-0.0673 2.690935,8.247746 c 0.470913,-0.147989 0.955285,-0.26909 1.439657,-0.390189 a 22.873026,22.873024 0 0 1 2.542941,-0.45745 l -1.802932,-8.530296 0.834197,-0.363281 a 17.746777,17.746776 0 0 1 3.377127,-1.116749 18.594424,18.594423 0 0 1 4.399698,-0.45744 h 0.94183 l 0.13455,0.95528 q 2.34112,17.585312 4.61496,35.332086 c 1.80294,13.992913 3.56551,28.133821 5.24735,42.019096 z"
       fill="#414042"
       id="path78"
       style="stroke-width:1.34547" />
    <path
       d="m 56.966047,35.566568 -0.43054,-2.19312 c 5.38188,-1.022569 10.88487,-1.816399 16.32057,-2.354579 l 0.21528,2.233489 c -5.35499,0.524731 -10.79069,1.30511 -16.10531,2.31421 z"
       fill="#414042"
       id="path80"
       style="stroke-width:1.34547" />
    <path
       d="m 121.62944,34.853468 c -4.93788,-0.820739 -9.96995,-1.453109 -14.96165,-1.870199 l 0.17492,-2.24694 c 5.04552,0.430551 10.14486,1.062921 15.13656,1.89712 z"
       fill="#414042"
       id="path82"
       style="stroke-width:1.34547" />
    <path
       d="M 74.955017,89.116349 C 74.376467,71.759763 73.461537,54.13409 72.264067,36.804407 71.483697,25.892631 70.555317,14.900116 69.573117,4.1363407 l -0.0807,-0.8610997 0.79383,-0.3094598 a 22.994118,22.994116 0 0 1 3.40404,-1.0090995 25.429423,25.429421 0 0 1 4.66879,-0.4574599 h 0.92838 l 1.34547,8.7321162 q 0.96873,-0.16145 1.93748,-0.2421896 c 0.5651,0 1.13019,-0.0807 1.70875,-0.0807 l 0.24218,-9.18957626 0.87455,-0.16145994 a 30.945858,30.945855 0 0 1 4.58807,-0.53818978 32.54697,32.546967 0 0 1 4.2786,0.13455995 l 0.96874,0.10762995 0.16146,8.77248648 c 0.82073,0 1.64147,-0.0807 2.44876,0 0.80727,0.0807 1.34547,0 1.95093,0.0807 l 0.457463,-8.40920655 0.87456,-0.14800994 a 16.145665,16.145666 0 0 1 8.31502,0.75346969 l 0.80727,0.2825498 -0.0807,0.8745597 c -1.08983,12.4994245 -1.9913,25.1872195 -2.69094,37.6732135 -0.86111,15.768934 -1.34547,31.780048 -1.62803,47.589344 h -2.19311 c 0.21527,-15.849657 0.75345,-31.887689 1.62801,-47.683534 0.65929,-12.243784 1.5473,-24.64903 2.61022,-36.8928337 a 14.517644,14.517643 0 0 0 -2.82549,-0.5247298 14.262004,14.262002 0 0 0 -2.69094,0 l -0.48438,8.9473855 -1.1571,-0.13455 c -0.968743,-0.107639 -1.937483,-0.17492 -2.892763,-0.188369 a 28.47019,28.470188 0 0 0 -3.3906,0.16146 l -1.19746,0.121089 -0.16146,-9.1761154 a 27.864727,27.864725 0 0 0 -3.0004,0 26.303979,26.303976 0 0 0 -3.3906,0.3363698 l -0.25563,9.5932256 h -1.11675 a 20.276265,20.276264 0 0 0 -2.5564,0 22.092652,22.09265 0 0 0 -2.78512,0.41709 l -1.14365,0.25564 -1.34547,-9.1492161 a 20.652997,20.652995 0 0 0 -3.28295,0.4036399 19.912987,19.912985 0 0 0 -2.28731,0.6323697 c 1.00911,10.4946855 1.89711,21.2046505 2.69094,31.8338675 1.25129,17.383502 2.17967,34.982275 2.69095,52.473421 z"
       fill="#414042"
       id="path84"
       style="stroke-width:1.34547" />
    <path
       d="m 55.311127,111.33011 a 7.763374,7.7633734 0 0 1 0,-4.35933 7.8979212,7.8979205 0 0 1 2.4353,-3.76732 8.2073797,8.2073789 0 0 1 8.81284,-0.99566 l -1.70875,1.14366 a 8.3688364,8.3688358 0 0 1 0.96874,-5.058975 6.4717208,6.4717203 0 0 1 4.1575,-3.215679 6.5659038,6.5659032 0 0 1 5.00517,0.83418 6.0680791,6.0680785 0 0 1 2.77166,3.821139 l -0.25563,0.148009 a 7.7230098,7.723009 0 0 0 -3.37714,-2.031669 5.3818884,5.3818881 0 0 0 -3.35023,0.13455 5.7182564,5.718256 0 0 0 -2.52948,1.91057 5.1935223,5.1935218 0 0 0 -1.07638,3.269505 v 2.24694 l -1.73565,-1.10328 a 6.3371736,6.337173 0 0 0 -6.86192,0.0942 7.1579115,7.1579109 0 0 0 -3.06767,6.87534 z"
       fill="#414042"
       id="path86"
       style="stroke-width:1.34547" />
    <path
       d="m 86.647157,112.1643 a 5.7451659,5.7451655 0 0 1 3.8346,-5.5299 4.534241,4.5342407 0 0 1 3.80769,-0.0942 3.6865935,3.6865931 0 0 1 2.11239,3.13497 l -0.22873,0.18835 a 23.34394,23.343937 0 0 0 -2.8524,-0.49783 14.531099,14.531097 0 0 0 -2.27385,-0.40364 4.5611504,4.5611499 0 0 0 -2.35458,0.94182 5.3011601,5.3011596 0 0 0 -1.74911,2.31422 z"
       fill="#414042"
       id="path88"
       style="stroke-width:1.34547" />
    <path
       d="m 109.65474,99.301584 a 6.1891716,6.189171 0 0 1 2.69094,-2.569858 5.9066225,5.906622 0 0 1 3.82114,-0.47091 6.3909924,6.3909919 0 0 1 3.43096,2.018209 7.1713663,7.1713657 0 0 1 1.69529,3.753875 l -1.49347,-0.55165 a 7.7499193,7.7499187 0 0 1 8.74557,-1.843305 8.2881081,8.2881074 0 0 1 3.70005,3.175315 7.8844665,7.8844659 0 0 1 1.19747,4.89753 l -2.17967,-1.5204 a 6.9964548,6.9964542 0 0 1 7.38665,0.80729 6.0008056,6.000805 0 0 1 1.9913,3.2157 6.1622622,6.1622618 0 0 1 -0.17492,3.4982 h -0.28255 a 7.669191,7.6691904 0 0 0 -0.91492,-2.91967 4.8840637,4.8840634 0 0 0 -1.89711,-1.84329 5.1935223,5.1935218 0 0 0 -4.78989,0.0808 l -2.31421,1.21093 0.14801,-2.69096 a 6.3506283,6.3506278 0 0 0 -0.63237,-3.1753 5.2877054,5.2877049 0 0 0 -2.20658,-2.38149 5.6778922,5.6778918 0 0 0 -6.49863,0.87454 l -1.34548,1.34548 -0.0807,-1.8702 a 5.4626167,5.4626162 0 0 0 -3.64622,-4.870614 5.5164356,5.5164351 0 0 0 -6.05462,2.125839 z"
       fill="#414042"
       id="path90"
       style="stroke-width:1.34547" />
    <path
       d="m 36.353422,96.193546 a 4.3324202,4.3324199 0 0 0 -2.852405,-1.022569 3.7538672,3.7538669 0 0 0 -2.462212,0.968749 c -0.645829,0.60546 -0.740008,1.43965 -1.130202,2.098939 a 10.091041,10.09104 0 0 0 -0.928375,2.906215 l -0.269086,0.13455 a 3.713503,3.7135027 0 0 1 -1.641484,-3.780775 4.628424,4.6284236 0 0 1 2.690947,-3.363688 5.206977,5.2069767 0 0 1 4.036417,-0.444 4.8840637,4.8840634 0 0 1 2.852405,2.314209 z"
       fill="#414042"
       id="path92"
       style="stroke-width:1.34547" />
    <path
       d="m 97.545487,80.626422 -13.93909,-0.0673 -0.0807,-1.022559 c -0.48437,-5.745171 -1.73566,-24.891223 2.46221,-30.044391 a 6.1891716,6.189171 0 0 1 4.4266,-2.690949 v 0 c 2.40841,0 4.03642,2.193129 4.72262,3.027329 4.21132,5.516428 2.96003,24.21849 2.48912,29.748381 z m -11.90743,-2.300739 h 9.88922 c 0.82074,-10.413968 0.74001,-23.370853 -2.11239,-27.124742 -0.49783,-0.645799 -1.65493,-2.166189 -2.98695,-2.166189 v 0 c -1.23783,0 -2.30075,1.345459 -2.69094,1.856739 -2.87931,3.511679 -2.94659,16.724223 -2.09894,27.434192 z"
       fill="#414042"
       id="path94"
       style="stroke-width:1.34547" />
  </g>
</svg>
