<?xml version="1.0" encoding="UTF-8" standalone="no"?>
<svg
   viewBox="0 0 1111 292.99999"
   version="1.1"
   id="svg153"
   sodipodi:docname="logo-z-napisom-ob-strani.svg"
   inkscape:version="1.2.2 (b0a8486541, 2022-12-01)"
   width="1111"
   height="293"
   xmlns:inkscape="http://www.inkscape.org/namespaces/inkscape"
   xmlns:sodipodi="http://sodipodi.sourceforge.net/DTD/sodipodi-0.dtd"
   xmlns="http://www.w3.org/2000/svg"
   xmlns:svg="http://www.w3.org/2000/svg">
  <defs
     id="defs157" />
  <sodipodi:namedview
     id="namedview155"
     pagecolor="#ffffff"
     bordercolor="#000000"
     borderopacity="0.25"
     inkscape:showpageshadow="2"
     inkscape:pageopacity="0.0"
     inkscape:pagecheckerboard="0"
     inkscape:deskcolor="#d1d1d1"
     showgrid="false"
     showguides="true"
     inkscape:zoom="0.60692529"
     inkscape:cx="452.27972"
     inkscape:cy="194.42261"
     inkscape:window-width="1920"
     inkscape:window-height="1011"
     inkscape:window-x="0"
     inkscape:window-y="0"
     inkscape:window-maximized="1"
     inkscape:current-layer="svg153">
    <sodipodi:guide
       position="118.25399,68.725187"
       orientation="0,-1"
       id="guide740"
       inkscape:locked="false" />
  </sodipodi:namedview>
  <g
     id="g592"
     transform="matrix(1.3125551,0,0,1.3125551,-142.35635,-86.864884)"
     inkscape:export-filename="logo-z-napisom-ob-strani.svg"
     inkscape:export-xdpi="96"
     inkscape:export-ydpi="96">
    <path
       d="m 214.74,215.28 h -8.86 c -0.19,-2.11 -1.45,-17.94 1.64,-21.73 a 3.8,3.8 0 0 1 2.67,-1.67 c 1.39,0 2.43,1.36 2.86,1.92 3.12,4.04 1.86,19.44 1.69,21.48 z"
       fill="#ffffff"
       id="path2" />
    <path
       d="M 205.9,289.11 A 468.88,468.88 0 0 1 144,285 l -2.55,-0.35 a 3.85,3.85 0 0 1 -2.6,-1.56 l -1.52,-2.1 a 42.43,42.43 0 0 1 -7.36,-32.36 l 1,-5.39 a 3.89,3.89 0 0 1 3.67,-3.23 16.46,16.46 0 0 1 3.66,-5.44 c 0.26,-0.26 0.53,-0.5 0.8,-0.74 0,-0.18 0.07,-0.35 0.1,-0.53 -6,-16.42 -11.38,-33.28 -16,-50.12 -3.64,-13.13 -6.89,-26.5 -9.67,-39.73 -1.53,-7.17 -3,-14.65 -4.3,-22.21 l -0.71,-4 a 4,4 0 0 1 1.67,-4 L 113.4,111 A 171.91,171.91 0 0 1 178,84.39 l -0.83,-8.78 A 3.94,3.94 0 0 1 180,71.44 L 184.76,70 A 91.74,91.74 0 0 1 211,66.18 h 0.51 a 91.56,91.56 0 0 1 23.37,3.19 l 5.12,1.37 a 4,4 0 0 1 2.81,4.26 l -1.1,9.84 A 172.36,172.36 0 0 1 303.94,111 l 3.31,2.24 a 4,4 0 0 1 1.67,4 l -0.7,4 c -1.28,7.35 -2.59,14.22 -4,21 -2.92,14.11 -6.36,28.36 -10.22,42.35 -4.38,15.82 -9.42,31.69 -15,47.19 l 0.27,0.91 a 17.17,17.17 0 0 1 4,4.83 l 1.34,-0.14 a 3.89,3.89 0 0 1 4.21,3.28 l 0.92,5.75 a 48.55,48.55 0 0 1 0.15,14.39 47.72,47.72 0 0 1 -6.62,18.38 l -1.48,2.41 a 3.86,3.86 0 0 1 -2.7,1.81 l -2.76,0.42 a 470.51,470.51 0 0 1 -63.55,5.28 c -2.31,0 -4.59,0.05 -6.86,0.05 v 0 z m -63.71,-8.86 2.33,0.31 a 462.24,462.24 0 0 0 61.38,4.09 v 0 c 2.25,0 4.51,0 6.8,0 a 466.8,466.8 0 0 0 63,-5.23 l 2.53,-0.39 1.35,-2.21 a 43.13,43.13 0 0 0 6,-16.64 43.86,43.86 0 0 0 -0.14,-13 l -0.84,-5.27 -1.21,0.13 a 3.76,3.76 0 0 1 -3.78,-2 12.66,12.66 0 0 0 -3.52,-4.16 l -0.58,-0.44 -1.09,-3.73 0.26,-0.69 c 5.62,-15.62 10.71,-31.62 15.13,-47.56 3.84,-13.9 7.25,-28.05 10.15,-42.06 1.41,-6.75 2.71,-13.58 4,-20.88 l 0.64,-3.66 -3,-2.06 a 168.18,168.18 0 0 0 -61.1,-25.55 4,4 0 0 1 -3.11,-4.32 l 1.1,-9.87 -4.63,-1.26 a 87.66,87.66 0 0 0 -22.28,-3 H 211 a 87.89,87.89 0 0 0 -25,3.65 l -4.41,1.31 0.83,8.84 a 4,4 0 0 1 -3.17,4.26 167.49,167.49 0 0 0 -63.42,26 l -3,2.06 0.64,3.67 c 1.32,7.5 2.76,14.92 4.27,22 2.76,13.14 6,26.42 9.61,39.46 4.64,16.77 10,33.57 16,49.93 a 4.08,4.08 0 0 1 0.14,2.22 c -0.08,0.4 -0.15,0.8 -0.21,1.21 l -0.12,0.93 -0.74,0.57 a 11.8,11.8 0 0 0 -3.88,5.19 3.82,3.82 0 0 1 -3.36,2.45 l -0.89,5 a 37.81,37.81 0 0 0 6.56,28.89 z"
       fill="#414042"
       id="path4" />
    <path
       d="m 298.47,119.41 q -1.75,10 -3.94,20.69 c -2.75,13.27 -6.07,27.2 -10.07,41.7 -5.14,18.55 -10.78,35.71 -16.56,51.4 a 6.49,6.49 0 0 1 0.94,5.62 7.1,7.1 0 0 1 6.13,4.36 7.29,7.29 0 0 1 -0.15,5.34 c 1.72,-0.16 3.44,-0.33 5.14,-0.51 a 38.47,38.47 0 0 1 0.12,11.31 37.57,37.57 0 0 1 -5.21,14.43 460.16,460.16 0 0 1 -62.23,5.18 456.74,456.74 0 0 1 -67.4,-4 32.13,32.13 0 0 1 -5.56,-24.48 c 1.41,0.08 2.83,0.19 4.24,0.26 -1.38,-3.29 -0.89,-6.81 1.19,-8.86 a 6.64,6.64 0 0 1 4,-1.79 9.05,9.05 0 0 1 0.58,-7 c -5.94,-16 -11.75,-33.61 -17,-52.69 -3.76,-13.55 -6.9,-26.61 -9.53,-39.1 q -2.39,-11.25 -4.23,-21.87 A 162,162 0 0 1 188.78,93 c -0.41,-4.4 -0.84,-8.81 -1.25,-13.21 a 81.61,81.61 0 0 1 44.84,-0.57 c -0.52,4.69 -1.05,9.39 -1.57,14.07 a 162.2,162.2 0 0 1 67.67,26.12 z"
       fill="none"
       id="path6" />
    <path
       d="m 214.74,215.28 h -8.86 c -0.19,-2.11 -1.45,-17.94 1.64,-21.73 a 3.8,3.8 0 0 1 2.67,-1.67 c 1.39,0 2.43,1.36 2.86,1.92 3.12,4.04 1.86,19.44 1.69,21.48 z"
       fill="#ffffff"
       id="path8" />
    <path
       d="m 160.54,222.82 a 5,5 0 0 0 -0.24,0.46 2.54,2.54 0 0 0 -0.18,0.41 8.26,8.26 0 0 0 -0.62,2.69 c 0,0.16 0,0.34 0,0.52 a 9.32,9.32 0 0 0 0.34,2.48 c -0.25,-0.1 -4.53,-1.63 -8,1.16 a 8.13,8.13 0 0 0 -2.11,2.56 c -5.95,-16 -11.75,-33.61 -17,-52.69 -3.75,-13.55 -6.89,-26.61 -9.52,-39.1 a 150.85,150.85 0 0 1 15.13,-8.84 l 0.13,-0.07 c 2.42,14.17 5.45,29.1 9.25,44.68 3.87,16.31 8.28,31.56 12.82,45.74 z"
       fill="#ffffff"
       id="path10" />
    <path
       d="m 279.44,131.55 c -2.58,14.88 -5.79,30.56 -9.84,46.95 -4,16.17 -8.39,31.35 -13,45.47 a 7.4,7.4 0 0 0 -6,-1.29 c 2.52,-7.84 5,-16.2 7.24,-25.06 2.24,-8.86 4.21,-17.55 5.81,-25.72 a 10.46,10.46 0 0 0 -5.39,-1.86 q -0.74,3 -1.49,6 a 20.21,20.21 0 0 0 -2.52,-0.62 23.21,23.21 0 0 0 -2.86,-0.34 c 0.43,-2 0.87,-4 1.29,-6 a 12.31,12.31 0 0 0 -2.86,-0.83 12.73,12.73 0 0 0 -2.7,-0.17 c -0.34,2 -0.69,4.05 -1,6.07 -0.85,-0.18 -1.78,-0.33 -2.77,-0.45 a 31.16,31.16 0 0 0 -3.17,-0.21 q 0.26,-2.91 0.52,-5.81 a 15.57,15.57 0 0 0 -2.89,-0.59 15.41,15.41 0 0 0 -3.3,0 q -0.42,7 -1,14.21 c -3.4,-0.57 -7.15,-1.06 -11.18,-1.4 q 0.69,-11.24 1.63,-22 a 11.14,11.14 0 0 0 -2.9,-0.64 11.51,11.51 0 0 0 -2.86,0.11 q -0.18,3.24 -0.35,6.46 a 21.69,21.69 0 0 0 -2.24,-0.14 21.36,21.36 0 0 0 -2.62,0.12 q 0,-3.33 -0.12,-6.67 a 21.07,21.07 0 0 0 -3.05,-0.09 20.28,20.28 0 0 0 -3.31,0.38 c 0,2.32 -0.12,4.65 -0.18,7 a 16.8,16.8 0 0 0 -4.18,0.38 c -0.34,-2.21 -0.68,-4.43 -1,-6.64 a 15.55,15.55 0 0 0 -3.3,0.33 17.29,17.29 0 0 0 -2.42,0.71 q 1,10.27 1.79,20.89 c -4.36,0.43 -8.4,1.05 -12,1.74 q -1,-8 -2.1,-15.85 a 13.71,13.71 0 0 0 -3.07,0.32 15.31,15.31 0 0 0 -2.37,0.78 c 0.47,2.2 0.93,4.39 1.4,6.58 a 17.16,17.16 0 0 0 -2.71,0.42 15.43,15.43 0 0 0 -1.76,0.53 q -1,-3.14 -2,-6.3 a 11.2,11.2 0 0 0 -2.61,0.56 11.42,11.42 0 0 0 -2.53,1.25 l 1.23,5.82 a 17.41,17.41 0 0 0 -2.34,0.54 15.6,15.6 0 0 0 -2.23,0.85 l -2,-5.41 a 10.58,10.58 0 0 0 -2.78,0.66 10.46,10.46 0 0 0 -2.52,1.43 q 2.13,9.94 4.65,20.31 3.15,12.93 6.59,25 a 7.7,7.7 0 0 0 -5.76,1.57 l -0.38,0.35 -0.23,0.23 a 6.76,6.76 0 0 0 -1,1.41 c -4.57,-14.18 -8.95,-29.43 -12.91,-45.74 -3.8,-15.58 -6.83,-30.51 -9.25,-44.68 l 1.33,-0.67 1.09,-0.53 c 3.38,-1.67 7.1,-3.33 11.15,-4.93 l 2.68,-1 1.66,-0.61 c 1.53,-0.56 3.12,-1.11 4.74,-1.64 1.62,-0.53 3.47,-1.11 5.28,-1.63 l 1.64,-0.46 c 3,-0.85 6.2,-1.63 9.49,-2.32 q 2.66,-0.57 5.44,-1.06 4,-0.69 8.11,-1.19 l 0.72,7.55 c 3.71,-0.26 7.62,-0.45 11.71,-0.53 0.3,6.33 0.61,12.63 0.91,18.94 a 26.43,26.43 0 0 0 5.58,0.44 A 26,26 0 0 0 215,142 q 0.22,-9.32 0.45,-18.6 6.22,0.21 11.89,0.73 c 0.29,-2.67 0.59,-5.32 0.89,-8 a 163.26,163.26 0 0 1 51.21,15.42 z"
       fill="#80888e"
       id="path12" />
    <path
       d="m 298.47,119.41 c -1.17,6.69 -2.46,13.6 -3.94,20.69 a 151.71,151.71 0 0 0 -13.39,-7.69 l -0.5,-0.26 -1.2,-0.6 v 0 a 163,163 0 0 0 -51.19,-15.38 l 2.55,-22.93 a 162.16,162.16 0 0 1 67.67,26.17 z"
       fill="#ffffff"
       id="path14" />
    <path
       d="m 294.53,140.1 c -2.75,13.27 -6.06,27.2 -10.06,41.7 -5.14,18.55 -10.78,35.71 -16.56,51.41 a 5.78,5.78 0 0 0 -0.73,-0.84 6.18,6.18 0 0 0 -7.8,-0.29 8.13,8.13 0 0 0 -1.53,-7 7.7,7.7 0 0 0 -1.21,-1.14 c 4.57,-14.12 9,-29.3 13,-45.47 4,-16.38 7.26,-32.06 9.84,-46.94 v 0 l 1.2,0.6 0.5,0.26 a 151.71,151.71 0 0 1 13.35,7.71 z"
       fill="#ffffff"
       id="path16" />
    <path
       d="m 275,243.18 a 7.1,7.1 0 0 0 -6.13,-4.36 6.55,6.55 0 0 0 -0.94,-5.62 5.23,5.23 0 0 0 -0.73,-0.83 6.16,6.16 0 0 0 -7.8,-0.29 8.15,8.15 0 0 0 -1.53,-7 7.21,7.21 0 0 0 -1.21,-1.13 7.4,7.4 0 0 0 -6,-1.29 c 2.52,-7.84 5,-16.2 7.24,-25.06 2.24,-8.86 4.21,-17.55 5.81,-25.72 a 10.46,10.46 0 0 0 -5.39,-1.86 q -0.74,3 -1.49,6 a 20.21,20.21 0 0 0 -2.52,-0.62 23.21,23.21 0 0 0 -2.86,-0.34 c 0.43,-2 0.87,-4 1.29,-6 a 12.31,12.31 0 0 0 -2.86,-0.83 12.73,12.73 0 0 0 -2.7,-0.17 c -0.34,2 -0.69,4.05 -1,6.07 -0.85,-0.18 -1.78,-0.33 -2.77,-0.45 a 31.16,31.16 0 0 0 -3.17,-0.21 q 0.26,-2.91 0.52,-5.81 a 15.57,15.57 0 0 0 -2.89,-0.59 15.41,15.41 0 0 0 -3.3,0 q -0.42,7 -1,14.21 c -3.4,-0.57 -7.15,-1.06 -11.18,-1.4 q 0.69,-11.24 1.63,-22 a 11.14,11.14 0 0 0 -2.9,-0.64 11.51,11.51 0 0 0 -2.86,0.11 q -0.18,3.24 -0.35,6.46 a 21.69,21.69 0 0 0 -2.24,-0.14 21.36,21.36 0 0 0 -2.62,0.12 q 0,-3.33 -0.12,-6.67 a 21.07,21.07 0 0 0 -3.05,-0.09 20.28,20.28 0 0 0 -3.31,0.38 c 0,2.32 -0.12,4.65 -0.18,7 a 16.8,16.8 0 0 0 -4.18,0.38 c -0.34,-2.21 -0.68,-4.43 -1,-6.64 a 15.55,15.55 0 0 0 -3.3,0.33 17.29,17.29 0 0 0 -2.42,0.71 q 1,10.27 1.79,20.89 c -4.36,0.43 -8.4,1.05 -12,1.74 q -1,-8 -2.1,-15.85 a 13.71,13.71 0 0 0 -3.07,0.32 15.31,15.31 0 0 0 -2.37,0.78 c 0.47,2.2 0.93,4.39 1.4,6.58 a 17.16,17.16 0 0 0 -2.71,0.42 15.43,15.43 0 0 0 -1.76,0.53 q -1,-3.14 -2,-6.3 a 11.2,11.2 0 0 0 -2.61,0.56 11.42,11.42 0 0 0 -2.53,1.25 l 1.23,5.82 a 17.41,17.41 0 0 0 -2.34,0.54 15.6,15.6 0 0 0 -2.23,0.85 l -2,-5.41 a 10.58,10.58 0 0 0 -2.78,0.66 10.46,10.46 0 0 0 -2.52,1.43 q 2.13,9.94 4.65,20.31 3.15,12.93 6.59,25 a 7.7,7.7 0 0 0 -5.76,1.57 l -0.38,0.35 -0.23,0.23 a 6.76,6.76 0 0 0 -1,1.41 5,5 0 0 0 -0.24,0.46 2.54,2.54 0 0 0 -0.18,0.41 8.26,8.26 0 0 0 -0.62,2.69 c 0,0.16 0,0.34 0,0.52 a 9.32,9.32 0 0 0 0.34,2.48 c -0.25,-0.1 -4.53,-1.63 -8,1.16 a 8.13,8.13 0 0 0 -2.11,2.56 9,9 0 0 0 -0.58,7 6.62,6.62 0 0 0 -4,1.79 c -2.09,2 -2.58,5.57 -1.19,8.86 21.21,1.33 44.1,1.93 68.43,1.44 22.12,-0.44 43,-1.76 62.46,-3.64 A 7.27,7.27 0 0 0 275,243.18 Z m -60.24,-27.9 -8.86,-0.05 c -0.18,-2.1 -1.45,-17.93 1.64,-21.72 a 3.8,3.8 0 0 1 2.67,-1.67 c 1.4,0 2.43,1.36 2.86,1.91 3.1,4.09 1.84,19.49 1.67,21.53 z m 34.68,-12.39 a 2.93,2.93 0 0 1 -2.48,1.91 28,28 0 0 0 -1.76,5.26 29.44,29.44 0 0 0 -0.73,6 13,13 0 0 1 3.24,4.95 c 2.1,5.91 -1,11.78 -3,14.82 a 4.58,4.58 0 0 0 -4.52,1 4.68,4.68 0 0 0 -1.92,-5.65 4.42,4.42 0 0 0 -4.46,0 4.52,4.52 0 0 0 -1.24,1 4.58,4.58 0 0 0 -2.22,-3.52 12.4,12.4 0 0 1 11.26,-13.39 30.92,30.92 0 0 0 1.21,-6.86 30.58,30.58 0 0 0 -0.09,-4.67 2.4,2.4 0 0 1 -1.15,-1.61 3.05,3.05 0 0 1 1.15,-2.52 4.22,4.22 0 0 1 3.51,-0.86 4.1,4.1 0 0 1 3,2 3,3 0 0 1 0.18,2.14 z"
       fill="#ffffff"
       id="path18" />
    <path
       d="m 249.42,202.89 a 2.93,2.93 0 0 1 -2.49,1.91 29.08,29.08 0 0 0 -1.75,5.26 28.74,28.74 0 0 0 -0.73,6 13.15,13.15 0 0 1 3.24,4.95 c 2.1,5.91 -1,11.78 -3,14.82 a 4.57,4.57 0 0 0 -4.51,1 4.69,4.69 0 0 0 -1.92,-5.66 4.44,4.44 0 0 0 -4.46,0 4.31,4.31 0 0 0 -1.24,1 4.59,4.59 0 0 0 -2.22,-3.52 12.38,12.38 0 0 1 11.26,-13.38 30.42,30.42 0 0 0 1.21,-6.86 30.11,30.11 0 0 0 0,-3.69 c 0,-0.33 0,-0.66 -0.08,-1 a 2.5,2.5 0 0 1 -1.16,-1.6 2.94,2.94 0 0 1 1.16,-2.52 4.48,4.48 0 0 1 6.47,1.09 3,3 0 0 1 0.22,2.2 z"
       fill="#b4162c"
       id="path20" />
    <path
       d="m 191,116.32 q -4.16,0.5 -8.11,1.19 -2.79,0.49 -5.44,1.06 c -3.29,0.69 -6.45,1.47 -9.49,2.32 l -1.64,0.46 c -1.81,0.52 -3.57,1.07 -5.28,1.63 -1.71,0.56 -3.21,1.08 -4.74,1.64 l -1.66,0.61 -2.68,1 c -4,1.6 -7.77,3.26 -11.15,4.93 l -1.09,0.53 -1.33,0.67 -0.13,0.07 a 150.85,150.85 0 0 0 -15.13,8.84 Q 120.74,130.02 118.9,119.4 A 162,162 0 0 1 188.79,93 q 1.1,11.64 2.21,23.32 z"
       fill="#ffffff"
       id="path22" />
    <path
       d="m 232.37,79.17 q -0.78,7 -1.57,14.08 l -2.55,22.93 q -0.45,4 -0.89,8 c -3.77,-0.33 -7.74,-0.59 -11.89,-0.72 -1.93,-0.07 -3.92,-0.11 -5.94,-0.14 -2.02,-0.03 -4.12,0 -6.11,0 -4.1,0.08 -8,0.27 -11.71,0.52 l -0.72,-7.55 q -1.1,-11.67 -2.2,-23.36 l -1.26,-13.22 a 81.86,81.86 0 0 1 44.84,-0.57 z"
       fill="#ffffff"
       id="path24" />
    <path
       d="m 280.08,259.33 a 37.89,37.89 0 0 1 -5.2,14.43 460.43,460.43 0 0 1 -62.24,5.17 456.59,456.59 0 0 1 -67.39,-4 32.11,32.11 0 0 1 -5.56,-24.48 c 1.4,0.09 2.82,0.19 4.24,0.27 21.21,1.32 44.1,1.93 68.43,1.44 22.12,-0.45 43,-1.77 62.46,-3.65 1.73,-0.16 3.44,-0.32 5.14,-0.5 a 38.11,38.11 0 0 1 0.12,11.32 z"
       fill="#ffffff"
       id="path26" />
    <path
       d="m 149.75,233.34 c 0,-0.08 -0.05,-0.16 -0.08,-0.23"
       fill="#ffffff"
       id="path28" />
    <path
       d="m 160.8,223.61 c -0.09,-0.26 -0.17,-0.52 -0.26,-0.79"
       fill="#ffffff"
       id="path30" />
    <path
       d="m 229.4,220.69 q 1.84,-14.16 3.25,-29.33 c 0.31,-3.39 0.6,-6.76 0.86,-10.08"
       fill="#ffffff"
       id="path32" />
    <path
       d="m 185.17,181.81 q 0.66,5.19 1.34,10.41 2,15.69 3.9,31.23 z"
       fill="#ffffff"
       id="path34" />
    <path
       d="M 220.77,221.36 Q 221,204.24 222,186 q 0.17,-3.06 0.36,-6.08"
       fill="#ffffff"
       id="path36" />
    <path
       d="m 197.21,180.07 c 0.1,1.14 0.17,2.28 0.26,3.42 q 1.44,20 2,38.91 z"
       fill="#ffffff"
       id="path38" />
    <path
       d="m 184.19,238.92 a 5.67,5.67 0 0 1 1.86,-5.41 5.37,5.37 0 0 1 6,-0.57 4.8,4.8 0 0 1 2.79,-4.84 4.68,4.68 0 0 1 5.85,2.28"
       fill="#ffffff"
       id="path40" />
    <path
       d="m 207.49,239.58 a 4.06,4.06 0 0 1 2.79,-3.22 4,4 0 0 1 4.27,1.42"
       fill="#ffffff"
       id="path42" />
    <path
       d="m 244.65,235.8 a 3.9,3.9 0 0 1 1.18,0.65 4.53,4.53 0 0 1 1.49,4.27"
       fill="#ffffff"
       id="path44" />
    <path
       d="m 224.57,230.09 a 4.36,4.36 0 0 1 4.37,-2 4.13,4.13 0 0 1 1.36,0.5"
       fill="#ffffff"
       id="path46" />
    <path
       d="m 170.08,227.62 a 3.38,3.38 0 0 0 -4.45,-0.76 3.56,3.56 0 0 0 -1.21,4.56"
       fill="#ffffff"
       id="path48" />
    <path
       d="m 214.74,215.28 h -8.86 c -0.19,-2.11 -1.45,-17.94 1.64,-21.73 a 3.8,3.8 0 0 1 2.67,-1.67 c 1.39,0 2.43,1.36 2.86,1.92 3.12,4.04 1.86,19.44 1.69,21.48 z"
       fill="#ffffff"
       id="path50" />
    <path
       d="m 242.68,203.68 a 0.17,0.17 0 0 1 0,-0.07"
       fill="#ffffff"
       id="path52" />
    <path
       d="m 215.47,123.43 q -0.21,9.3 -0.45,18.6 a 26,26 0 0 1 -5.11,0.69 26.43,26.43 0 0 1 -5.58,-0.44 c -0.3,-6.31 -0.61,-12.61 -0.91,-18.94 q 3,-0.06 6.11,0 c 2.02,-0.02 4.01,0.03 5.94,0.09 z"
       fill="#ffffff"
       id="path54" />
    <path
       d="m 233.71,231.1 a 19.9,19.9 0 0 1 0.21,-4.75 11,11 0 0 1 1.65,-4.56 7.87,7.87 0 0 1 1.7,-1.8 5.53,5.53 0 0 1 2.28,-1.08 4.26,4.26 0 0 1 4.37,1.89 l -0.08,0.07 a 5.8,5.8 0 0 0 -2,-0.93 4.26,4.26 0 0 0 -2,0.06 7.48,7.48 0 0 0 -3.53,2.33 10.29,10.29 0 0 0 -1.81,4.13 19.58,19.58 0 0 0 -0.63,4.64 z"
       fill="#ffffff"
       id="path56" />
    <path
       d="m 228.32,125.37 -1.06,-0.1 c -5.86,-0.51 -11.83,-0.8 -17.73,-0.85 -5.9,-0.05 -11.87,0.14 -17.74,0.57 l -1.06,0.07 -4.37,-46.13 0.87,-0.26 a 83.07,83.07 0 0 1 45.42,-0.58 l 0.91,0.25 z m -20.53,-3.19 h 1.75 c 5.61,0 11.28,0.3 16.85,0.77 L 231.18,80 a 80.82,80.82 0 0 0 -42.47,0.55 l 4,42.13 c 4.99,-0.33 10.05,-0.5 15.08,-0.5 z"
       fill="#414042"
       id="path58" />
    <path
       d="m 294,141 a 156.25,156.25 0 0 0 -65.81,-23.64 l 0.26,-2.22 a 158.25,158.25 0 0 1 66.71,24 z"
       fill="#414042"
       id="path60" />
    <path
       d="m 123.71,142.25 -1.19,-1.87 a 158.11,158.11 0 0 1 68.35,-25.17 l 0.25,2.22 a 156,156 0 0 0 -67.41,24.82 z"
       fill="#414042"
       id="path62" />
    <path
       d="m 206,280.1 a 460.26,460.26 0 0 1 -60.86,-4.05 l -0.46,-0.06 -0.28,-0.38 a 33.25,33.25 0 0 1 -5.76,-25.35 l 0.17,-1 1,0.06 c 24.07,1.63 48.49,2.2 72.59,1.71 22.46,-0.46 45.18,-1.85 67.51,-4.14 l 1,-0.11 0.16,1 a 38.66,38.66 0 0 1 -5.23,26.52 l -0.26,0.43 -0.5,0.08 A 462.14,462.14 0 0 1 212.7,280 q -3.38,0.09 -6.7,0.1 z m -60.11,-6.2 a 458.77,458.77 0 0 0 66.76,3.92 460.47,460.47 0 0 0 61.6,-5.09 36.39,36.39 0 0 0 4.81,-23.5 c -22,2.24 -44.47,3.6 -66.65,4.05 -23.83,0.49 -48,-0.07 -71.79,-1.64 a 30.9,30.9 0 0 0 5.27,22.26 z"
       fill="#414042"
       id="path64" />
    <path
       d="m 257.68,224.32 -2.07,-0.7 c 4.82,-14.9 9.17,-30.17 12.93,-45.39 3.81,-15.42 7.11,-31.2 9.82,-46.88 l 2.15,0.39 c -2.72,15.74 -6,31.56 -9.86,47 -3.77,15.26 -8.13,30.63 -12.97,45.58 z"
       fill="#414042"
       id="path66" />
    <path
       d="m 148.73,233.74 c -6.43,-17.34 -12.2,-35.18 -17.14,-53 -5.54,-20 -10.18,-40.59 -13.78,-61.07 l -0.13,-0.72 0.6,-0.41 a 162.39,162.39 0 0 1 70.37,-26.67 l 0.27,2.22 A 160.31,160.31 0 0 0 120.08,120 c 3.57,20.18 8.15,40.41 13.61,60.14 4.92,17.78 10.67,35.56 17.08,52.84 z"
       fill="#414042"
       id="path68" />
    <path
       d="m 159.49,223.2 c -4.89,-15 -9.28,-30.44 -13,-45.81 -3.6,-14.71 -6.72,-29.76 -9.28,-44.73 l 2.15,-0.38 c 2.55,14.91 5.66,29.91 9.25,44.57 3.74,15.32 8.12,30.67 13,45.65 z"
       fill="#414042"
       id="path70" />
    <path
       d="m 251.39,223 -1.56,-0.52 c 2.64,-8.22 5.07,-16.64 7.23,-25 2.16,-8.36 4,-16.71 5.68,-25.12 a 8.94,8.94 0 0 0 -1.79,-0.86 9.24,9.24 0 0 0 -2.06,-0.5 l -1.52,6 -0.82,-0.24 a 22.63,22.63 0 0 0 -2.43,-0.59 25.53,25.53 0 0 0 -2.77,-0.33 l -1,-0.05 1.36,-6.28 a 11.33,11.33 0 0 0 -2.06,-0.53 11.71,11.71 0 0 0 -1.87,-0.17 l -1,6.24 -0.83,-0.17 c -0.89,-0.19 -1.8,-0.34 -2.7,-0.44 -0.9,-0.1 -2.05,-0.19 -3.09,-0.21 h -0.88 l 0.54,-6 a 15,15 0 0 0 -2.09,-0.37 14.2,14.2 0 0 0 -2.44,0 c -0.49,7.85 -1.1,15.8 -1.82,23.61 -0.9,9.77 -2,19.64 -3.25,29.36 l -1.62,-0.22 c 1.26,-9.69 2.35,-19.55 3.24,-29.3 0.74,-8 1.37,-16.2 1.86,-24.27 v -0.69 l 0.68,-0.09 a 15.92,15.92 0 0 1 6.51,0.58 l 0.64,0.2 -0.5,5.6 c 0.8,0 1.59,0.1 2.37,0.2 0.78,0.1 1.34,0.18 2,0.3 l 1,-5.9 h 0.67 a 13,13 0 0 1 2.85,0.18 13.56,13.56 0 0 1 3.06,0.88 l 0.63,0.26 -1.24,5.78 c 0.67,0.06 1.34,0.16 2,0.28 0.66,0.12 1.19,0.24 1.79,0.39 l 1.44,-5.78 h 0.67 a 11.24,11.24 0 0 1 5.8,2 l 0.45,0.32 -0.11,0.54 c -1.67,8.62 -3.63,17.29 -5.81,25.77 -2.18,8.48 -4.6,16.84 -7.21,25.14 z"
       fill="#414042"
       id="path72" />
    <path
       d="m 274.72,248.48 a 6.7,6.7 0 0 0 -0.64,-6.22 6.79,6.79 0 0 0 -5.28,-2.81 h -0.73 l 0.19,-0.76 a 6.12,6.12 0 0 0 -0.15,-3.45 5,5 0 0 0 -2,-2.6 5,5 0 0 0 -3.11,-0.77 5.9,5.9 0 0 0 -3,1.17 l -2.28,1.69 0.57,-2.9 a 9,9 0 0 0 0,-3.31 6.63,6.63 0 0 0 -1.39,-3 7.11,7.11 0 0 0 -2.73,-2.06 8,8 0 0 0 -3.57,-0.63 v -0.22 a 6.9,6.9 0 0 1 4,-0.35 7.51,7.51 0 0 1 3.72,2 7.89,7.89 0 0 1 2.19,3.78 8.82,8.82 0 0 1 0,4.42 l -1.71,-1.22 a 7.2,7.2 0 0 1 8.3,0 6.75,6.75 0 0 1 2.46,3.57 7.53,7.53 0 0 1 -0.06,4.26 l -0.55,-0.8 a 7.85,7.85 0 0 1 3.35,1.13 7.27,7.27 0 0 1 2.47,2.52 6.82,6.82 0 0 1 0.94,3.37 7.8,7.8 0 0 1 -0.73,3.35 z"
       fill="#414042"
       id="path74" />
    <path
       d="m 167.93,219.38 a 8.41,8.41 0 0 0 -3.55,0.87 6.71,6.71 0 0 0 -2.57,2.26 7.45,7.45 0 0 0 -1.15,3.18 8.93,8.93 0 0 0 0.25,3.37 l 0.57,2.15 -2,-0.74 a 9,9 0 0 0 -4.07,-0.45 6.55,6.55 0 0 0 -3.68,1.78 7.63,7.63 0 0 0 -2.12,3.7 8.72,8.72 0 0 0 0.09,4.39 l 0.21,0.74 -0.71,0.05 a 6.62,6.62 0 0 0 -3,0.95 5.68,5.68 0 0 0 -2.08,2.43 8.65,8.65 0 0 0 0,6.63 l -0.2,0.09 a 10.07,10.07 0 0 1 -0.91,-3.43 8.33,8.33 0 0 1 0.49,-3.59 6.53,6.53 0 0 1 2.2,-2.94 7.17,7.17 0 0 1 3.42,-1.35 l -0.51,0.8 a 10.1,10.1 0 0 1 -0.37,-5.09 9.3,9.3 0 0 1 2.33,-4.62 8.7,8.7 0 0 1 4.43,-2.56 10.06,10.06 0 0 1 5.21,0.29 l -1.49,1.41 a 9.4,9.4 0 0 1 -0.18,-4.38 8.51,8.51 0 0 1 1.87,-3.92 7.1,7.1 0 0 1 3.56,-2.27 7.46,7.46 0 0 1 4,0 z"
       fill="#414042"
       id="path76" />
    <path
       d="m 189.6,223.55 c -1.25,-10.32 -2.57,-20.83 -3.9,-31.22 q -1.63,-12.83 -3.33,-25.52 a 12.51,12.51 0 0 0 -2.2,0.29 14.56,14.56 0 0 0 -1.59,0.48 l 1.45,6.84 -0.95,0.06 a 16,16 0 0 0 -2.57,0.4 16.44,16.44 0 0 0 -1.69,0.51 l -0.79,0.28 -2.03,-6.46 a 10.06,10.06 0 0 0 -1.78,0.44 9.89,9.89 0 0 0 -1.87,0.86 l 1.29,6.11 -0.86,0.13 a 17.13,17.13 0 0 0 -2.23,0.51 16.57,16.57 0 0 0 -2.12,0.82 l -0.79,0.36 -2.13,-5.62 a 8.86,8.86 0 0 0 -1.94,0.53 9.57,9.57 0 0 0 -1.9,1 c 1.41,6.6 2.93,13.24 4.52,19.75 2,8.31 4.24,16.7 6.58,24.94 l -1.57,0.46 c -2.34,-8.26 -4.56,-16.66 -6.6,-25 -1.64,-6.71 -3.2,-13.55 -4.64,-20.34 l -0.12,-0.52 0.42,-0.33 a 11.58,11.58 0 0 1 2.72,-1.53 11.07,11.07 0 0 1 3,-0.72 l 0.62,-0.06 2,5.2 c 0.5,-0.21 1,-0.39 1.53,-0.55 0.53,-0.16 1.06,-0.3 1.6,-0.41 l -1.17,-5.54 0.48,-0.31 a 11.93,11.93 0 0 1 2.7,-1.34 12.36,12.36 0 0 1 2.81,-0.6 l 0.65,-0.05 2,6.13 c 0.35,-0.11 0.71,-0.2 1.07,-0.29 a 17,17 0 0 1 1.89,-0.34 l -1.34,-6.34 0.62,-0.27 a 13.19,13.19 0 0 1 2.51,-0.83 13.82,13.82 0 0 1 3.27,-0.34 h 0.7 l 0.1,0.71 q 1.74,13.07 3.43,26.26 c 1.34,10.4 2.65,20.91 3.9,31.23 z"
       fill="#414042"
       id="path78" />
    <path
       d="M 185.32,182.63 185,181 c 4,-0.76 8.09,-1.35 12.13,-1.75 l 0.16,1.66 c -3.98,0.39 -8.02,0.97 -11.97,1.72 z"
       fill="#414042"
       id="path80" />
    <path
       d="m 233.38,182.1 c -3.67,-0.61 -7.41,-1.08 -11.12,-1.39 l 0.13,-1.67 c 3.75,0.32 7.54,0.79 11.25,1.41 z"
       fill="#414042"
       id="path82" />
    <path
       d="m 198.69,222.43 c -0.43,-12.9 -1.11,-26 -2,-38.88 -0.58,-8.11 -1.27,-16.28 -2,-24.28 l -0.06,-0.64 0.59,-0.23 a 17.09,17.09 0 0 1 2.53,-0.75 18.9,18.9 0 0 1 3.47,-0.34 h 0.69 l 1,6.49 q 0.72,-0.12 1.44,-0.18 c 0.42,0 0.84,-0.06 1.27,-0.06 l 0.18,-6.83 0.65,-0.12 a 23,23 0 0 1 3.41,-0.4 24.19,24.19 0 0 1 3.18,0.1 l 0.72,0.08 0.12,6.52 c 0.61,0 1.22,-0.06 1.82,0 0.6,0.06 1,0 1.45,0.06 l 0.34,-6.25 0.65,-0.11 a 12,12 0 0 1 6.18,0.56 l 0.6,0.21 -0.06,0.65 c -0.81,9.29 -1.48,18.72 -2,28 -0.64,11.72 -1,23.62 -1.21,35.37 h -1.63 c 0.16,-11.78 0.56,-23.7 1.21,-35.44 0.49,-9.1 1.15,-18.32 1.94,-27.42 a 10.79,10.79 0 0 0 -2.1,-0.39 10.6,10.6 0 0 0 -2,0 l -0.36,6.65 -0.86,-0.1 c -0.72,-0.08 -1.44,-0.13 -2.15,-0.14 a 21.16,21.16 0 0 0 -2.52,0.12 l -0.89,0.09 -0.12,-6.82 a 20.71,20.71 0 0 0 -2.23,0 19.55,19.55 0 0 0 -2.52,0.25 l -0.19,7.13 h -0.83 a 15.07,15.07 0 0 0 -1.9,0 16.42,16.42 0 0 0 -2.07,0.31 l -0.85,0.19 -1,-6.8 a 15.35,15.35 0 0 0 -2.44,0.3 14.8,14.8 0 0 0 -1.7,0.47 c 0.75,7.8 1.41,15.76 2,23.66 0.93,12.92 1.62,26 2,39 z"
       fill="#414042"
       id="path84" />
    <path
       d="m 184.09,238.94 a 5.77,5.77 0 0 1 0,-3.24 5.87,5.87 0 0 1 1.81,-2.8 6.1,6.1 0 0 1 6.55,-0.74 l -1.27,0.85 a 6.22,6.22 0 0 1 0.72,-3.76 4.81,4.81 0 0 1 3.09,-2.39 4.88,4.88 0 0 1 3.72,0.62 4.51,4.51 0 0 1 2.06,2.84 l -0.19,0.11 a 5.74,5.74 0 0 0 -2.51,-1.51 4,4 0 0 0 -2.49,0.1 4.25,4.25 0 0 0 -1.88,1.42 3.86,3.86 0 0 0 -0.8,2.43 v 1.67 l -1.29,-0.82 a 4.71,4.71 0 0 0 -5.1,0.07 5.32,5.32 0 0 0 -2.28,5.11 z"
       fill="#414042"
       id="path86" />
    <path
       d="m 207.38,239.56 a 4.27,4.27 0 0 1 2.85,-4.11 3.37,3.37 0 0 1 2.83,-0.07 2.74,2.74 0 0 1 1.57,2.33 l -0.17,0.14 a 17.35,17.35 0 0 0 -2.12,-0.37 10.8,10.8 0 0 0 -1.69,-0.3 3.39,3.39 0 0 0 -1.75,0.7 3.94,3.94 0 0 0 -1.3,1.72 z"
       fill="#414042"
       id="path88" />
    <path
       d="m 224.48,230 a 4.6,4.6 0 0 1 2,-1.91 4.39,4.39 0 0 1 2.84,-0.35 4.75,4.75 0 0 1 2.55,1.5 5.33,5.33 0 0 1 1.26,2.79 l -1.11,-0.41 a 5.76,5.76 0 0 1 6.5,-1.37 6.16,6.16 0 0 1 2.75,2.36 5.86,5.86 0 0 1 0.89,3.64 l -1.62,-1.13 a 5.2,5.2 0 0 1 5.49,0.6 4.46,4.46 0 0 1 1.48,2.39 4.58,4.58 0 0 1 -0.13,2.6 h -0.21 a 5.7,5.7 0 0 0 -0.68,-2.17 3.63,3.63 0 0 0 -1.41,-1.37 3.86,3.86 0 0 0 -3.56,0.06 l -1.72,0.9 0.11,-2 a 4.72,4.72 0 0 0 -0.47,-2.36 3.93,3.93 0 0 0 -1.64,-1.77 4.22,4.22 0 0 0 -4.83,0.65 l -1,1 -0.06,-1.39 a 4.06,4.06 0 0 0 -2.71,-3.62 4.1,4.1 0 0 0 -4.5,1.58 z"
       fill="#414042"
       id="path90" />
    <path
       d="m 170,227.69 a 3.22,3.22 0 0 0 -2.12,-0.76 2.79,2.79 0 0 0 -1.83,0.72 c -0.48,0.45 -0.55,1.07 -0.84,1.56 a 7.5,7.5 0 0 0 -0.69,2.16 l -0.2,0.1 a 2.76,2.76 0 0 1 -1.22,-2.81 3.44,3.44 0 0 1 2,-2.5 3.87,3.87 0 0 1 3,-0.33 3.63,3.63 0 0 1 2.12,1.72 z"
       fill="#414042"
       id="path92" />
    <path
       d="m 215.48,216.12 -10.36,-0.05 -0.06,-0.76 c -0.36,-4.27 -1.29,-18.5 1.83,-22.33 a 4.6,4.6 0 0 1 3.29,-2 v 0 c 1.79,0 3,1.63 3.51,2.25 3.13,4.1 2.2,18 1.85,22.11 z m -8.85,-1.71 h 7.35 c 0.61,-7.74 0.55,-17.37 -1.57,-20.16 -0.37,-0.48 -1.23,-1.61 -2.22,-1.61 v 0 c -0.92,0 -1.71,1 -2,1.38 -2.14,2.61 -2.19,12.43 -1.56,20.39 z"
       fill="#414042"
       id="path94" />
    <path
       d="m 209.08,143.85 a 27.19,27.19 0 0 1 -4.94,-0.46 l -0.85,-0.16 -1,-19.83 2.18,-0.11 0.87,18 a 25,25 0 0 0 4.49,0.26 24.29,24.29 0 0 0 4.08,-0.47 l 0.43,-17.73 2.18,0.06 -0.47,19.46 -0.82,0.2 a 27.33,27.33 0 0 1 -5.33,0.71 z"
       fill="#414042"
       id="path96" />
    <path
       d="m 268.93,233.6 -2,-0.79 c 6.19,-16.79 11.75,-34.06 16.52,-51.32 5.59,-20.18 10.25,-40.88 13.86,-61.55 A 160.51,160.51 0 0 0 230.69,94.36 l 0.3,-2.21 a 162.7,162.7 0 0 1 68.12,26.34 l 0.6,0.4 -0.13,0.72 c -3.64,21 -8.36,42 -14,62.49 -4.86,17.32 -10.44,34.65 -16.65,51.5 z"
       fill="#414042"
       id="path98" />
  </g>
  <g
     id="g541"
     transform="matrix(2.8603044,0,0,2.8603044,118.00199,-857.10984)">
    <g
       id="g738">
      <g
         id="g706"
         transform="translate(-49.732948)">
        <path
           d="m 123.81,326.63 0.49,-0.06 c 0.49,0 1.3,0 2.43,0.08 0.59,0 1,0 1.21,0 0.21,0 1,0 2,-0.07 l 3.69,-0.2 c 1,-0.08 2.09,-0.12 3.37,-0.12 a 13.74,13.74 0 0 1 5.42,0.88 6.48,6.48 0 0 1 3.1,2.77 7.39,7.39 0 0 1 1.1,3.75 7.18,7.18 0 0 1 -2.38,5.37 8.93,8.93 0 0 1 -6.41,2.26 7.29,7.29 0 0 1 -1.89,-0.2 7,7 0 0 1 -1.73,-0.81 1.09,1.09 0 0 1 -0.5,-0.54 0.5,0.5 0 0 1 0.24,-0.19 1.84,1.84 0 0 1 0.63,0.12 6.45,6.45 0 0 0 1.86,0.23 7,7 0 0 0 3.24,-0.77 5.21,5.21 0 0 0 2.32,-2.13 6.21,6.21 0 0 0 0.78,-3 6,6 0 0 0 -0.82,-3 6.64,6.64 0 0 0 -2.16,-2.33 7,7 0 0 0 -2.32,-0.83 12.18,12.18 0 0 0 -2.43,-0.34 7.63,7.63 0 0 0 -3.18,0.36 v 0.27 l 0.06,2.25 v 0.39 c 0,0.36 0,0.91 0,1.65 0,2.7 0,4.38 0.13,5 v 1.11 l 0.28,9.07 c 0,0.14 0,0.38 -0.05,0.74 a 8.59,8.59 0 0 0 -0.06,0.93 4.45,4.45 0 0 0 0.18,1.45 q 0.51,0.13 3,0.66 l 1.27,0.29 a 0.63,0.63 0 0 1 0.31,0.26 0.7,0.7 0 0 1 -0.23,0.39 1.13,1.13 0 0 1 -0.55,0.09 c -0.18,0 -0.58,0 -1.21,-0.1 -1.25,-0.12 -2.22,-0.18 -2.93,-0.18 l -3.81,0.14 -2.27,-0.06 h -1.26 v -0.52 l 2.82,-0.49 a 1.85,1.85 0 0 0 0.84,-0.36 1.93,1.93 0 0 0 0.22,-1.09 c 0,-0.12 0,-0.38 0,-0.78 0,-0.4 0,-0.66 0,-1.15 q 0,-2.34 -0.22,-10 c -0.06,-2.38 -0.08,-4.8 -0.08,-7.26 v -0.34 c 0,-0.95 -0.16,-1.56 -0.48,-1.81 -0.53,-0.43 -1.87,-0.79 -4,-1.07 a 0.89,0.89 0 0 1 -0.1,-0.36 0.78,0.78 0 0 1 0.08,-0.35 z"
           id="path100" />
        <path
           d="m 163.14,341.49 -8.69,0.06 h -1.64 c -0.66,0 -1.34,0 -2,0.08 a 3.18,3.18 0 0 0 -0.19,0.82 v 0.2 0.19 1 a 7.3,7.3 0 0 0 0.83,3 6.11,6.11 0 0 0 2.38,2.68 7.93,7.93 0 0 0 3.87,1 8.41,8.41 0 0 0 2,-0.28 10.09,10.09 0 0 0 2.08,-1 l 1.56,-1.17 0.13,0.79 c 0,0.1 0,0.2 0,0.3 a 9.34,9.34 0 0 1 -2.47,2 12.61,12.61 0 0 1 -3,1.25 11.44,11.44 0 0 1 -2.43,0.18 8.27,8.27 0 0 1 -3,-0.58 7.26,7.26 0 0 1 -3.48,-2.81 8.44,8.44 0 0 1 -1.26,-4.7 9.61,9.61 0 0 1 0.35,-2.24 11.37,11.37 0 0 1 1.29,-2.92 5.86,5.86 0 0 1 1.54,-1.73 10.56,10.56 0 0 1 2.27,-1.33 9.11,9.11 0 0 1 3.27,-0.54 7,7 0 0 1 3.29,0.68 6.23,6.23 0 0 1 2.59,2.3 5.08,5.08 0 0 1 0.86,2.59 z m -12.08,-0.71 h 1 c 0.74,0 2.93,-0.11 6.59,-0.32 a 3.06,3.06 0 0 0 1.06,-0.16 1,1 0 0 0 0.39,-0.67 3,3 0 0 0 -0.44,-1.4 2.88,2.88 0 0 0 -1.33,-1.22 4.87,4.87 0 0 0 -2.09,-0.42 5.07,5.07 0 0 0 -4,1.72 3.81,3.81 0 0 0 -1.18,2.47 z"
           id="path102" />
        <path
           d="m 167.13,346.94 a 14.49,14.49 0 0 0 1.22,2.44 5.9,5.9 0 0 0 2,1.76 5.16,5.16 0 0 0 2.49,0.62 3.88,3.88 0 0 0 2.44,-1 2.19,2.19 0 0 0 0.87,-1.71 3.43,3.43 0 0 0 -1,-2.38 10,10 0 0 0 -3.86,-2.06 9.19,9.19 0 0 1 -3.83,-2.09 3.89,3.89 0 0 1 -0.17,-4.93 4.83,4.83 0 0 1 2.21,-1.56 7.49,7.49 0 0 1 2.6,-0.53 16.42,16.42 0 0 1 2.76,0.22 7.47,7.47 0 0 1 2.11,0.68 26.57,26.57 0 0 1 0.28,3 v 0.63 a 4.11,4.11 0 0 1 -0.47,0 h -0.3 a 5.76,5.76 0 0 0 -2,-2.61 4.47,4.47 0 0 0 -2.63,-1 3,3 0 0 0 -2.1,0.72 2.47,2.47 0 0 0 -0.8,1.9 2.26,2.26 0 0 0 0.65,1.59 8.88,8.88 0 0 0 3,1.58 16.65,16.65 0 0 1 3.49,1.66 4.68,4.68 0 0 1 1.61,1.86 4.8,4.8 0 0 1 0.52,2.09 4,4 0 0 1 -1,2.56 5.22,5.22 0 0 1 -2.47,1.68 8.76,8.76 0 0 1 -2.65,0.49 13.26,13.26 0 0 1 -5.07,-0.94 0.76,0.76 0 0 1 -0.24,-0.59 5.53,5.53 0 0 0 0,-0.58 c -0.23,-1.79 -0.35,-2.85 -0.35,-3.18 a 0.36,0.36 0 0 1 0.11,-0.31 1.08,1.08 0 0 1 0.58,-0.01 z"
           id="path104" />
        <path
           d="m 180.91,352 v -0.57 a 1,1 0 0 1 0.33,-0.15 c 0.1,0 0.46,-0.05 1.09,-0.09 0.63,-0.04 1,-0.17 1.18,-0.39 a 7.65,7.65 0 0 0 0.24,-2.71 v -7.84 -1.39 c 0,-0.12 0,-0.56 0,-1.33 0,-0.35 0,-0.78 0,-1.29 l -0.08,-3.45 v -3 a 2,2 0 0 0 -0.34,-1.4 6.07,6.07 0 0 0 -2.37,-0.56 v -0.24 c 0,-0.08 0,-0.19 0,-0.34 a 14.31,14.31 0 0 0 2.19,-0.59 c 0.33,-0.14 1.18,-0.55 2.54,-1.24 h 0.67 c 0,0.31 0,0.49 0,0.56 v 1.73 0.85 l 0.07,1.57 v 2.36 3.94 l -0.07,4.89 v 1.5 c 0,0.19 0,0.45 0,0.78 h 0.24 a 2.77,2.77 0 0 0 1.5,-0.5 40.59,40.59 0 0 0 4.26,-3 c 0.58,-0.53 0.87,-0.92 0.87,-1.16 a 1.07,1.07 0 0 0 -0.28,-0.56 5.1,5.1 0 0 0 -1.45,-0.43 l -0.52,-0.1 c -0.26,-0.07 -0.48,-0.11 -0.65,-0.14 v -0.2 a 1.28,1.28 0 0 1 0.11,-0.4 q 3.42,-0.12 6,-0.12 c 0.95,0 2,0 3,0.06 v 0.26 a 0.9,0.9 0 0 1 -0.11,0.36 l -1,0.18 a 7,7 0 0 0 -2,0.55 17,17 0 0 0 -3.44,2.29 c -0.71,0.58 -1.33,1.07 -1.85,1.47 l -0.77,0.62 a 1.75,1.75 0 0 0 0.28,0.33 l 0.34,0.36 0.93,0.93 q 2.34,2.26 3.47,3.5 c 0.24,0.27 0.52,0.56 0.82,0.87 1.13,1.16 1.78,1.8 2,1.93 a 5.63,5.63 0 0 0 1.8,0.56 l 1,0.18 a 1.08,1.08 0 0 1 0.09,0.37 v 0.2 c -1,-0.08 -1.76,-0.12 -2.21,-0.12 h -0.39 l -6,0.16 a 4,4 0 0 1 -0.48,0 1.53,1.53 0 0 1 -0.45,-0.08 0.79,0.79 0 0 1 -0.06,-0.28 v -0.14 a 0.54,0.54 0 0 1 0.23,-0.21 23.94,23.94 0 0 0 2.48,-0.26 0.72,0.72 0 0 0 0.37,-0.22 2.2,2.2 0 0 0 -0.63,-1.09 c -0.41,-0.51 -1.46,-1.61 -3.13,-3.32 a 15.39,15.39 0 0 0 -2.06,-1.9 2.58,2.58 0 0 0 -1.29,-0.27 h -0.83 c 0,0.48 -0.08,1.57 -0.08,3.27 a 6.68,6.68 0 0 0 0.43,3.05 1.49,1.49 0 0 0 1.13,0.48 2.4,2.4 0 0 1 1.14,0.3 c 0.12,0.08 0.19,0.26 0.22,0.55 h -2.19 c -0.95,0 -2,0 -3.11,0.06 -0.68,0 -1.22,0 -1.61,0 z"
           id="path106" />
        <path
           d="m 201.09,344 a 7.78,7.78 0 0 1 0.61,-2.89 8,8 0 0 1 1.87,-2.76 8.52,8.52 0 0 1 2.67,-1.82 12.22,12.22 0 0 1 4.81,-0.84 9.5,9.5 0 0 1 6.76,2.55 8.07,8.07 0 0 1 2.72,6.11 7.39,7.39 0 0 1 -2.85,5.67 11.17,11.17 0 0 1 -12.26,1.21 8.72,8.72 0 0 1 -3.06,-2.88 7.64,7.64 0 0 1 -1.27,-4.35 z m 9.58,7.74 a 6.67,6.67 0 0 0 3.17,-0.81 5.8,5.8 0 0 0 2.44,-2.61 9.07,9.07 0 0 0 0.91,-4.16 11.2,11.2 0 0 0 -0.7,-3.6 6,6 0 0 0 -2.17,-3.07 5.87,5.87 0 0 0 -3.44,-1 7.56,7.56 0 0 0 -2.91,0.61 5.38,5.38 0 0 0 -2.52,2.37 9.8,9.8 0 0 0 -1,5 7.63,7.63 0 0 0 1.79,5.48 6,6 0 0 0 4.43,1.79 z"
           id="path108" />
        <path
           d="m 220.86,336.19 c 1.61,0 3,0.07 4.21,0.16 0.85,0 1.47,0 1.86,0 h 0.52 2.42 l 0.8,0.1 a 0.42,0.42 0 0 1 0.24,0.22 0.76,0.76 0 0 1 -0.13,0.41 3.17,3.17 0 0 1 -0.76,0.12 18.5,18.5 0 0 0 -2.72,0.45 c -0.11,0.07 -0.16,0.13 -0.16,0.2 a 1.67,1.67 0 0 0 0.22,0.61 c 0,0.06 0.09,0.22 0.2,0.47 l 2.17,4.78 c 1,2.18 1.86,4 2.69,5.53 0.56,-1 1.08,-2 1.55,-3.05 0.47,-1.05 1.17,-2.7 2.1,-4.95 a 18.76,18.76 0 0 0 0.73,-2.36 2.33,2.33 0 0 0 0.07,-0.47 0.81,0.81 0 0 0 -0.3,-0.53 2.18,2.18 0 0 0 -1,-0.46 l -2,-0.3 a 0.83,0.83 0 0 1 -0.28,-0.22 v -0.15 a 1.28,1.28 0 0 1 0,-0.26 7.3,7.3 0 0 1 0.76,-0.06 h 2.55 l 1.24,-0.06 c 2.29,0 3.67,0 4.13,0.06 q 0.14,0 0.24,0.24 a 0.72,0.72 0 0 1 -0.13,0.39 l -0.67,0.16 H 241 a 5.65,5.65 0 0 0 -2.3,0.48 6,6 0 0 0 -1,2 c -0.22,0.6 -0.54,1.35 -1,2.27 l -1.12,2.5 -0.52,1.18 -3.35,7.12 h -0.66 a 10,10 0 0 0 -0.48,-1 l -1.64,-3.2 -3.88,-8.33 a 15.81,15.81 0 0 0 -1.41,-2.63 14.24,14.24 0 0 0 -2.77,-0.83 1.74,1.74 0 0 1 -0.13,-0.46 z"
           id="path110" />
        <path
           d="m 242.27,351.33 a 9,9 0 0 1 1.25,-0.24 4,4 0 0 0 1.64,-0.42 1.51,1.51 0 0 0 0.27,-1.09 v -0.71 c 0,-0.26 0,-0.6 0,-1 v -6.08 a 2.46,2.46 0 0 0 -0.34,-1.58 4,4 0 0 0 -2.17,-0.77 v -0.73 a 6.78,6.78 0 0 0 2.42,-1 7.21,7.21 0 0 0 2.08,-2.43 h 0.74 c 0,0.62 0.06,1.07 0.06,1.33 v 1.32 0.35 q 0.25,-0.15 0.6,-0.39 a 14.64,14.64 0 0 1 2.67,-1.47 13.48,13.48 0 0 1 2.42,-0.79 7,7 0 0 1 1.52,-0.16 5.29,5.29 0 0 1 3,0.88 4,4 0 0 1 1.66,2.06 18.73,18.73 0 0 1 0.38,4.7 v 3 c 0,0.08 0,0.34 0,0.79 0,0.45 0,1 0,1.55 a 7,7 0 0 0 0.13,1.77 1.19,1.19 0 0 0 0.56,0.52 5.35,5.35 0 0 1 2.43,0.62 v 0.16 a 1.43,1.43 0 0 1 -0.13,0.49 h -0.41 -2.86 l -2.82,0.06 c -1,0 -2,0 -2.88,0 l -0.13,-0.42 a 0.56,0.56 0 0 1 0.16,-0.31 5.44,5.44 0 0 1 1.64,-0.32 4.44,4.44 0 0 0 0.87,-0.12 2.31,2.31 0 0 0 0.58,-0.32 1.68,1.68 0 0 0 0.26,-0.79 c 0,-0.1 0,-0.28 0,-0.56 q -0.06,-0.92 -0.09,-4.56 v -1 l 0.05,-1.59 c 0,-1.71 -0.38,-2.89 -1.13,-3.54 a 4.43,4.43 0 0 0 -3,-1 7.26,7.26 0 0 0 -2.84,0.59 9.56,9.56 0 0 0 -2.68,1.75 c 0,0.64 0,1.18 0,1.63 l 0.07,4.39 c 0,2.29 0,3.7 0.11,4.22 a 0.85,0.85 0 0 0 0.15,0.43 1.54,1.54 0 0 0 0.69,0.26 c 0.35,0.07 0.75,0.16 1.2,0.28 l 0.9,0.22 a 0.82,0.82 0 0 1 0.59,0.39 v 0.4 h -2.28 l -4.67,-0.06 h -2.06 -0.54 l -0.05,-0.26 a 2,2 0 0 1 -0.02,-0.45 z"
           id="path112" />
        <path
           d="m 264.89,337.88 v -0.59 c 0.94,-0.25 1.44,-0.4 1.51,-0.44 a 7,7 0 0 0 1.64,-1 7,7 0 0 0 1.44,-1.48 h 0.41 0.26 c 0.06,0.64 0.09,1.1 0.09,1.39 0,0.07 0,0.37 -0.05,0.9 v 1.05 5.72 l -0.06,6.06 a 1.35,1.35 0 0 0 0.26,1 4.45,4.45 0 0 0 1.67,0.65 c 0.57,0.14 1,0.27 1.3,0.37 a 0.69,0.69 0 0 1 0.06,0.24 0.65,0.65 0 0 1 -0.11,0.3 c -0.56,0 -1.28,-0.05 -2.16,-0.1 -1.2,-0.09 -2,-0.14 -2.39,-0.14 l -3.46,0.1 c -0.43,0 -0.85,0.05 -1.26,0.1 a 1.61,1.61 0 0 1 -0.34,-0.06 0.42,0.42 0 0 1 -0.11,-0.24 c 0,-0.18 0.14,-0.33 0.41,-0.43 0.06,0 0.79,-0.18 2.21,-0.46 a 1.46,1.46 0 0 0 0.91,-0.4 2,2 0 0 0 0.37,-1.33 q 0,-1.51 0,-8.37 a 6.23,6.23 0 0 0 -0.13,-1.7 1.57,1.57 0 0 0 -0.57,-0.55 6.81,6.81 0 0 0 -1.9,-0.59 z m 1.81,-10.31 a 1.43,1.43 0 0 1 0.56,-1.13 1.94,1.94 0 0 1 1.33,-0.48 2.08,2.08 0 0 1 1.41,0.54 1.53,1.53 0 0 1 0.6,1.15 1.57,1.57 0 0 1 -0.6,1.16 2.09,2.09 0 0 1 -1.41,0.55 1.9,1.9 0 0 1 -1.34,-0.5 1.64,1.64 0 0 1 -0.55,-1.29 z"
           id="path114" />
        <path
           d="m 274.51,352 v -0.57 a 0.84,0.84 0 0 1 0.32,-0.15 c 0.1,0 0.47,-0.05 1.09,-0.09 0.62,-0.04 1,-0.17 1.19,-0.39 a 8.07,8.07 0 0 0 0.23,-2.71 l 0.05,-7.84 -0.05,-1.39 c 0,-0.12 0,-0.56 0.05,-1.33 0,-0.35 0,-0.78 0,-1.29 l -0.09,-3.45 v -3 a 2,2 0 0 0 -0.33,-1.4 6.13,6.13 0 0 0 -2.37,-0.56 v -0.24 a 2.38,2.38 0 0 1 0,-0.34 15,15 0 0 0 2.19,-0.59 c 0.33,-0.14 1.17,-0.55 2.53,-1.24 H 280 c 0,0.31 0,0.49 0,0.56 v 1.73 0.85 l 0.06,1.57 v 2.36 3.94 l -0.06,4.89 v 1.5 c 0,0.19 0,0.45 0,0.78 h 0.24 a 2.71,2.71 0 0 0 1.49,-0.5 40,40 0 0 0 4.27,-3 c 0.57,-0.53 0.86,-0.92 0.86,-1.16 a 1,1 0 0 0 -0.28,-0.56 5,5 0 0 0 -1.45,-0.43 l -0.52,-0.1 a 6.56,6.56 0 0 0 -0.65,-0.14 v -0.2 a 1,1 0 0 1 0.11,-0.4 q 3.42,-0.12 5.95,-0.12 c 0.95,0 2,0 3.05,0.06 v 0.26 a 0.86,0.86 0 0 1 -0.1,0.36 l -1,0.18 a 7,7 0 0 0 -2,0.55 17,17 0 0 0 -3.44,2.29 c -0.71,0.58 -1.32,1.07 -1.84,1.47 l -0.78,0.62 a 2.24,2.24 0 0 0 0.28,0.33 l 0.35,0.36 q 0.26,0.28 0.93,0.93 2.34,2.26 3.46,3.5 c 0.25,0.27 0.52,0.56 0.83,0.87 a 25.64,25.64 0 0 0 2,1.93 5.47,5.47 0 0 0 1.79,0.56 l 1,0.18 a 1,1 0 0 1 0.08,0.37 v 0.2 c -1,-0.08 -1.76,-0.12 -2.21,-0.12 h -0.39 l -6,0.16 h -0.48 a 1.54,1.54 0 0 1 -0.46,-0.08 0.79,0.79 0 0 1 -0.06,-0.28 v -0.14 c 0.09,-0.11 0.16,-0.19 0.24,-0.21 a 24.33,24.33 0 0 0 2.48,-0.26 0.76,0.76 0 0 0 0.37,-0.22 2.2,2.2 0 0 0 -0.63,-1.09 c -0.42,-0.51 -1.46,-1.61 -3.13,-3.32 a 15.2,15.2 0 0 0 -2.07,-1.9 2.58,2.58 0 0 0 -1.29,-0.27 h -1 q -0.09,0.72 -0.09,3.27 a 6.64,6.64 0 0 0 0.44,3.05 c 0.15,0.25 0.53,0.41 1.12,0.48 a 2.45,2.45 0 0 1 1.15,0.3 0.77,0.77 0 0 1 0.22,0.55 h -2.19 q -1.43,0 -3.12,0.06 c -0.68,0 -1.21,0 -1.6,0 z"
           id="path116" />
      </g>
      <g
         id="g695">
        <path
           d="m 74,379.54 a 10.69,10.69 0 0 1 0.91,-4.2 28.77,28.77 0 0 1 2.41,-4.44 23.58,23.58 0 0 1 3.35,-3.34 15.81,15.81 0 0 1 4,-2.09 9.68,9.68 0 0 1 3.19,-0.63 l 1.28,-0.12 c 0.52,-0.05 1,-0.08 1.33,-0.08 a 10.54,10.54 0 0 1 8.08,3.89 q 2.57,2.88 2.56,7.91 a 12.59,12.59 0 0 1 -0.81,4.05 14.88,14.88 0 0 1 -2.4,4.33 21.86,21.86 0 0 1 -3.67,3.65 14.17,14.17 0 0 1 -4.41,2.38 14.87,14.87 0 0 1 -4.61,0.75 10.67,10.67 0 0 1 -5.28,-1.33 11.28,11.28 0 0 1 -3.85,-3.5 12.61,12.61 0 0 1 -2.08,-7.23 z m 6.58,9.51 a 6.07,6.07 0 0 0 1.29,0.87 23.55,23.55 0 0 0 2.37,0.76 4.78,4.78 0 0 0 1.34,0.08 h 0.91 a 13.69,13.69 0 0 0 3.28,-1 9.63,9.63 0 0 0 2.63,-2.13 17.75,17.75 0 0 0 2.8,-4.21 29.13,29.13 0 0 0 1.62,-4 14.09,14.09 0 0 0 0.72,-4.21 12.5,12.5 0 0 0 -0.54,-3.41 11,11 0 0 0 -0.8,-2.21 9.38,9.38 0 0 0 -1.75,-2.21 7.29,7.29 0 0 0 -4.87,-1.85 10.06,10.06 0 0 0 -4.45,1 11.13,11.13 0 0 0 -3.64,2.79 18.75,18.75 0 0 0 -2.87,5.21 17.63,17.63 0 0 0 -1.36,6.34 13,13 0 0 0 1,5.38 9.3,9.3 0 0 0 2.29,2.8 z"
           fill="#b4162c"
           id="path118" />
        <path
           d="m 117.41,376.94 2.41,-6.86 c 0.1,-0.29 0.25,-0.76 0.44,-1.43 a 2,2 0 0 1 0.09,-0.31 7.29,7.29 0 0 0 0.47,-1.66 0.63,0.63 0 0 0 -0.29,-0.48 6.09,6.09 0 0 0 -2,-0.71 l -0.47,-0.11 0.18,-0.58 a 17.41,17.41 0 0 0 5,-0.46 h 0.27 a 2.52,2.52 0 0 1 0.58,0.08 c -0.1,0.4 -0.18,0.67 -0.22,0.82 v 0.12 l -1.87,4.9 -2.23,6.36 c -0.4,1.08 -0.66,1.89 -0.8,2.4 a 17,17 0 0 1 -0.67,2.15 l -3.16,8.44 0.07,0.12 c 0.53,-0.08 1.9,-1.2 4.09,-3.36 a 1.31,1.31 0 0 1 0.54,0.36 16.88,16.88 0 0 1 -4.15,4 5.34,5.34 0 0 1 -2.48,1.1 2.31,2.31 0 0 1 -0.49,-0.08 0.56,0.56 0 0 1 -0.13,-0.32 11.59,11.59 0 0 1 0.76,-2.76 c 0.5,-1.45 0.85,-2.49 1,-3.14 -0.38,0.33 -1,0.88 -1.7,1.65 a 22.19,22.19 0 0 1 -4.51,3.63 6.07,6.07 0 0 1 -3.09,1 1.41,1.41 0 0 1 -1.18,-0.55 3.74,3.74 0 0 1 -0.69,-2.41 9.48,9.48 0 0 1 1,-4 25.17,25.17 0 0 1 1.88,-3.22 18.22,18.22 0 0 1 2.94,-3.42 11.7,11.7 0 0 1 3.08,-2.11 6.71,6.71 0 0 1 2.66,-0.64 3.42,3.42 0 0 1 1.66,0.39 3.6,3.6 0 0 1 1.01,1.09 z m -9.88,12.87 a 3.87,3.87 0 0 0 2,-0.74 17.4,17.4 0 0 0 3.93,-3.58 15.68,15.68 0 0 0 3.33,-7.1 1.77,1.77 0 0 0 -0.53,-1.21 1.47,1.47 0 0 0 -1,-0.58 4.78,4.78 0 0 0 -1.93,0.52 8.43,8.43 0 0 0 -2.38,1.76 21.56,21.56 0 0 0 -2.18,2.9 27.39,27.39 0 0 0 -2.17,3.8 6.56,6.56 0 0 0 -0.72,2.44 1.79,1.79 0 0 0 0.47,1.31 1.56,1.56 0 0 0 1.18,0.48 z"
           fill="#b4162c"
           id="path120" />
        <path
           d="m 114,400.64 a 20,20 0 0 1 2.17,-0.32 l 1,-0.1 a 6.37,6.37 0 0 1 0.67,-0.12 1.3,1.3 0 0 0 0.45,-0.26 4.28,4.28 0 0 0 0.6,-1 l 2.21,-5.17 a 23.24,23.24 0 0 0 0.89,-2.24 c 0.18,-0.52 0.37,-1 0.59,-1.51 a 7.13,7.13 0 0 0 0.37,-1 5.81,5.81 0 0 1 0.22,-0.65 l 2.08,-5.15 1.67,-4.37 c 0.31,-0.82 0.59,-1.64 0.85,-2.46 a 25.87,25.87 0 0 0 -2.77,0.56 l -0.69,0.18 a 4.81,4.81 0 0 1 -1,0.29 1.9,1.9 0 0 1 -0.56,-0.13 v -0.22 a 0.56,0.56 0 0 1 0.36,-0.48 21.48,21.48 0 0 1 5.17,-1.39 27.12,27.12 0 0 0 1.3,-3.38 4.1,4.1 0 0 1 0.76,-1.65 4.92,4.92 0 0 1 0.56,0 h 0.94 c 0.25,0.24 0.38,0.44 0.38,0.58 l -0.09,0.28 c 0,0.07 -0.13,0.37 -0.29,0.91 a 11.59,11.59 0 0 1 -0.42,1.14 c -0.39,0.88 -0.64,1.48 -0.74,1.78 0.65,0 1.09,-0.06 1.31,-0.06 h 1.07 0.11 a 6.24,6.24 0 0 1 2.46,0.56 5.65,5.65 0 0 1 2.63,2.13 5.82,5.82 0 0 1 0.82,3.11 7.83,7.83 0 0 1 -0.58,2.84 12.65,12.65 0 0 1 -1.76,3.08 11.75,11.75 0 0 1 -2.69,2.63 9.58,9.58 0 0 1 -2.7,1.42 15.15,15.15 0 0 1 -3.49,0.84 6.84,6.84 0 0 1 -1.41,-0.16 14.35,14.35 0 0 1 -1.69,-0.48 c -0.59,1.08 -1.58,3.37 -3,6.9 -0.27,0.7 -0.48,1.22 -0.65,1.56 a 2,2 0 0 0 -0.24,0.78 v 0.18 l 0.25,0.18 a 7.69,7.69 0 0 0 1.43,0.2 11.49,11.49 0 0 1 1.47,0.14 1.13,1.13 0 0 0 0.29,0.13 l 0.11,0.32 a 0.35,0.35 0 0 1 -0.11,0.22 c -0.58,0 -1,0 -1.34,0 h -0.52 -0.53 l -4.11,-0.14 a 9.42,9.42 0 0 0 -1.71,0.12 c -0.53,0 -1,0 -1.34,0 h -0.83 v -0.14 a 1.15,1.15 0 0 1 0.07,-0.48 z m 18.55,-12.34 a 12.78,12.78 0 0 0 3,-4.14 9.83,9.83 0 0 0 0.88,-3.71 7,7 0 0 0 -0.31,-2 2.12,2.12 0 0 0 -0.65,-1 4.36,4.36 0 0 0 -1.33,-0.89 7.53,7.53 0 0 0 -2.73,-0.42 c -0.34,0 -0.74,0 -1.22,0.06 q -1.47,4.09 -2.43,6.36 l -1.86,4.75 a 5.46,5.46 0 0 0 -0.31,1.11 2.73,2.73 0 0 0 -0.07,0.59 1.12,1.12 0 0 0 0.43,1 3.25,3.25 0 0 0 1.84,0.45 5.64,5.64 0 0 0 2,-0.37 16.61,16.61 0 0 0 2.75,-1.79 z"
           fill="#b4162c"
           id="path122" />
        <path
           d="m 146.19,376.46 a 8.68,8.68 0 0 0 -1.39,1.11 c -0.12,0.12 -0.79,0.92 -2,2.39 h -0.91 a 12.31,12.31 0 0 1 2.07,-2.65 11.06,11.06 0 0 1 2.62,-2.14 4,4 0 0 1 1.61,-0.44 1.53,1.53 0 0 1 0.76,0.37 0.81,0.81 0 0 1 0.22,0.58 2.63,2.63 0 0 1 -0.09,0.67 29.81,29.81 0 0 1 -1,3.1 33.65,33.65 0 0 1 -1.3,3.2 l -1.16,2.45 -0.09,0.35 c 0.2,-0.31 0.63,-1 1.27,-2.12 q 3.63,-6.14 5.24,-7.57 a 4.07,4.07 0 0 1 2.77,-1 2.58,2.58 0 0 1 1.67,0.64 1.63,1.63 0 0 1 0.58,1.31 2.17,2.17 0 0 1 -0.65,1.57 1.7,1.7 0 0 1 -1.27,0.45 1.34,1.34 0 0 1 -1,-0.28 2.62,2.62 0 0 1 -0.34,-1.44 c -0.2,-0.35 -0.41,-0.52 -0.65,-0.52 a 1.19,1.19 0 0 0 -0.76,0.34 c -0.72,0.57 -2.06,2.39 -4,5.46 a 50.64,50.64 0 0 0 -3.72,6.41 14.79,14.79 0 0 1 -1.21,2.47 1.09,1.09 0 0 1 -0.91,0.34 1.5,1.5 0 0 1 -0.85,-0.19 0.59,0.59 0 0 1 -0.26,-0.49 2.31,2.31 0 0 1 0.22,-0.91 c 0.64,-1.39 1.67,-4 3.08,-7.69 l 1.56,-4.25 a 7.58,7.58 0 0 1 0.23,-0.73 l 0.13,-0.29 c -0.03,-0.12 -0.18,-0.29 -0.47,-0.5 z"
           fill="#b4162c"
           id="path124" />
        <path
           d="m 161.53,376.6 h -1.36 -0.62 -1.45 -0.29 a 2.65,2.65 0 0 1 0.38,-1 c 2.17,-0.06 3.46,-0.1 3.87,-0.14 0.29,-0.64 0.53,-1.15 0.74,-1.53 0.43,-0.86 0.89,-1.88 1.35,-3.06 a 8,8 0 0 1 0.49,-1.06 c 0.32,0 0.7,-0.06 1.13,-0.06 a 5.71,5.71 0 0 1 1,0.1 v 0.32 a 29.93,29.93 0 0 1 -2,4.37 8.4,8.4 0 0 0 -0.38,0.94 l 0.75,0.1 h 0.47 0.75 2.12 a 2,2 0 0 1 -0.27,1.07 c -0.59,0.05 -1.36,0.08 -2.31,0.08 -0.47,0 -0.78,0 -0.91,0 a 4.8,4.8 0 0 0 -1.3,0.2 l -3.63,7.75 c -0.4,0.75 -1.1,2.17 -2.08,4.27 a 0.44,0.44 0 0 0 0.14,0.27 h 0.29 a 2.67,2.67 0 0 0 1.49,-0.67 25.94,25.94 0 0 0 3.66,-3.48 2.8,2.8 0 0 1 0.65,0.42 42.61,42.61 0 0 1 -3.09,3.17 16.74,16.74 0 0 1 -2.12,1.64 16.06,16.06 0 0 1 -1.66,0.92 3,3 0 0 1 -1,0.18 1.31,1.31 0 0 1 -0.81,-0.21 0.74,0.74 0 0 1 -0.26,-0.61 9.06,9.06 0 0 1 1.07,-2.68 l 0.93,-1.85 3.29,-7.05 q 0.58,-1.36 0.97,-2.4 z"
           fill="#b4162c"
           id="path126" />
        <path
           d="m 172.87,376.46 a 2.85,2.85 0 0 0 -0.69,0.06 10.47,10.47 0 0 0 -1.54,0.85 13.13,13.13 0 0 0 -1.9,1.63 l -1.29,0.26 a 13.44,13.44 0 0 1 3.81,-3.24 7.5,7.5 0 0 1 3.31,-1.17 1.14,1.14 0 0 1 0.77,0.23 0.75,0.75 0 0 1 0.25,0.59 8.3,8.3 0 0 1 -1.24,3.24 c -0.11,0.18 -0.36,0.66 -0.74,1.43 q -1.35,2.6 -2.86,4.92 c -0.33,0.5 -0.68,1.1 -1.07,1.79 -0.21,0.37 -0.4,0.68 -0.56,0.93 a 3.33,3.33 0 0 0 -0.69,1.53 0.33,0.33 0 0 0 0.12,0.25 0.44,0.44 0 0 0 0.3,0.11 2,2 0 0 0 0.75,-0.24 10.56,10.56 0 0 0 2,-1.32 11.44,11.44 0 0 0 2.05,-2.12 h 1 a 17,17 0 0 1 -2,2.47 10.63,10.63 0 0 1 -3,2.22 5.16,5.16 0 0 1 -2.24,0.64 1.8,1.8 0 0 1 -1.1,-0.27 0.85,0.85 0 0 1 -0.35,-0.71 q 0,-1.53 2.52,-5.76 l 3.6,-6 a 12.47,12.47 0 0 0 0.78,-1.47 1.45,1.45 0 0 0 0.13,-0.45 1.19,1.19 0 0 0 -0.12,-0.4 z m 1.27,-8.92 a 1.64,1.64 0 0 1 0.6,-1.24 2,2 0 0 1 1.41,-0.55 1.88,1.88 0 0 1 1.29,0.48 1.43,1.43 0 0 1 0.54,1.09 2,2 0 0 1 -0.67,1.45 2.18,2.18 0 0 1 -1.47,0.38 1.77,1.77 0 0 1 -1.21,-0.44 1.48,1.48 0 0 1 -0.49,-1.17 z"
           fill="#b4162c"
           id="path128" />
        <path
           d="m 197,365.39 0.07,-0.57 c 1.82,-0.13 3.2,-0.2 4.14,-0.2 h 1 v 0.27 l -0.69,1.92 c 0,0.06 -0.58,1.28 -1.63,3.68 l -3,7 q -0.81,2 -2.68,6.08 l -0.74,1.73 a 14.68,14.68 0 0 1 -1.25,2.54 3.4,3.4 0 0 0 -0.74,1.58 l 0.09,0.32 a 3.78,3.78 0 0 0 1.81,-0.89 13.47,13.47 0 0 0 2.86,-3 3.12,3.12 0 0 1 0.64,-0.08 h 0.25 a 10.66,10.66 0 0 1 -1.8,2.36 19.17,19.17 0 0 1 -2.1,1.81 12.48,12.48 0 0 1 -2.46,1.33 4,4 0 0 1 -1.48,0.3 0.82,0.82 0 0 1 -0.58,-0.18 0.59,0.59 0 0 1 -0.19,-0.46 c 0,-0.62 1.19,-3.36 3.57,-8.2 q 1.1,-2.21 2.28,-5.05 2.07,-5 3.19,-7.07 a 21.89,21.89 0 0 0 1.62,-3.79 1.26,1.26 0 0 0 0.05,-0.29 0.7,0.7 0 0 0 -0.31,-0.53 5.53,5.53 0 0 0 -1.92,-0.61 z"
           fill="#b4162c"
           id="path130" />
        <path
           d="m 213.78,376.66 a 2.46,2.46 0 0 0 0.29,-0.54 1.8,1.8 0 0 1 0.54,-0.77 c 0.42,0 0.72,-0.06 0.92,-0.06 a 1.83,1.83 0 0 1 0.73,0.14 l 0.07,0.24 a 1,1 0 0 1 -0.11,0.35 c 0,0.08 -0.14,0.33 -0.29,0.76 l -0.18,0.4 -1.47,3.55 c -0.63,1.6 -1.17,2.88 -1.64,3.83 a 26,26 0 0 0 -1.22,2.91 9.41,9.41 0 0 1 -0.94,2.12 l -0.09,0.19 c 0,0.08 0.08,0.18 0.24,0.31 a 7.89,7.89 0 0 0 1.59,-1.08 c 1.11,-1 1.77,-1.6 2,-1.84 l 0.44,-0.48 a 3.7,3.7 0 0 1 0.46,0.42 20.43,20.43 0 0 1 -2,2.1 10.93,10.93 0 0 1 -2.54,1.89 3.87,3.87 0 0 1 -1.65,0.42 1.19,1.19 0 0 1 -0.74,-0.2 0.62,0.62 0 0 1 -0.24,-0.5 4.37,4.37 0 0 1 0.22,-1 c 0.37,-0.88 0.63,-1.45 0.78,-1.73 0.15,-0.28 0.35,-0.71 0.6,-1.29 0.15,-0.36 0.46,-1 0.92,-1.87 a 11.74,11.74 0 0 0 -1.08,1.11 30.68,30.68 0 0 1 -4.27,3.84 15.67,15.67 0 0 1 -2.66,1.33 8.18,8.18 0 0 1 -1.83,0.34 3.79,3.79 0 0 1 -1.2,-0.16 2.12,2.12 0 0 1 -0.89,-0.82 2.51,2.51 0 0 1 -0.25,-1.29 7.46,7.46 0 0 1 0.64,-2.82 14,14 0 0 1 2.21,-3.91 20.42,20.42 0 0 1 3.79,-3.5 16.49,16.49 0 0 1 3.46,-1.88 10.31,10.31 0 0 1 3.6,-0.8 6,6 0 0 1 1,0.08 4,4 0 0 1 0.79,0.21 z m -10.89,13 a 3.69,3.69 0 0 0 1,-0.34 c 0.17,-0.08 0.77,-0.44 1.79,-1.09 1.88,-1.63 2.93,-2.56 3.18,-2.8 a 18.47,18.47 0 0 0 1.82,-2.13 20.7,20.7 0 0 0 1.17,-1.86 l 0.58,-1.37 a 10.55,10.55 0 0 0 0.31,-1.4 1.44,1.44 0 0 0 -0.52,-1.05 1.69,1.69 0 0 0 -1.12,-0.3 4.17,4.17 0 0 0 -1.54,0.26 11.4,11.4 0 0 0 -2.64,1.51 17.64,17.64 0 0 0 -3.1,3.21 19.33,19.33 0 0 0 -2.12,3.27 7.33,7.33 0 0 0 -0.85,2.7 1.52,1.52 0 0 0 0.35,1.09 1.15,1.15 0 0 0 0.87,0.36 z"
           fill="#b4162c"
           id="path132" />
        <path
           d="m 225.39,366 a 3.58,3.58 0 0 0 -1.79,-0.36 h -0.36 v -0.57 a 16.23,16.23 0 0 1 2.47,-0.18 c 0.26,0 1.21,-0.05 2.86,-0.14 -0.05,0.2 -0.51,1.48 -1.38,3.83 l -1.68,4.67 c -0.15,0.51 -0.53,1.56 -1.13,3.16 l -2.38,7.06 3.18,-3.79 q 2.79,-2.94 3.27,-3.34 a 7.83,7.83 0 0 1 2.11,-1.3 4.69,4.69 0 0 1 1.62,-0.35 2,2 0 0 1 1.47,0.7 3,3 0 0 1 0.83,2.14 11.36,11.36 0 0 1 -1.49,5.38 18,18 0 0 1 -4.11,5.09 18.36,18.36 0 0 1 -5,2.86 8.41,8.41 0 0 1 -3,0.78 3.09,3.09 0 0 1 -2,-0.62 1.84,1.84 0 0 1 -0.74,-1.47 8.15,8.15 0 0 1 0.47,-2.54 l 1.18,-3.69 4.35,-11.73 c 0.51,-1.49 1,-2.76 1.45,-3.82 a 2.83,2.83 0 0 0 0.27,-1.09 1.12,1.12 0 0 0 -0.47,-0.68 z m -3.63,24.81 a 3.15,3.15 0 0 0 1.47,-0.41 13.75,13.75 0 0 0 3.42,-2.77 27.26,27.26 0 0 0 2.6,-3 26,26 0 0 0 2.37,-4.31 7,7 0 0 0 0.7,-2.78 1.12,1.12 0 0 0 -0.4,-0.9 1.57,1.57 0 0 0 -1,-0.35 3,3 0 0 0 -1.34,0.38 14,14 0 0 0 -3.31,2.81 46.22,46.22 0 0 0 -3.97,4.52 12.8,12.8 0 0 0 -1.47,3 9.47,9.47 0 0 0 -0.57,2.29 1.4,1.4 0 0 0 0.42,1 1.49,1.49 0 0 0 1.08,0.51 z"
           fill="#b4162c"
           id="path134" />
        <path
           d="m 249.88,379.76 a 12,12 0 0 1 -3.13,8.18 q -3.13,3.58 -6.51,3.58 a 3.82,3.82 0 0 1 -2.92,-1.2 5.44,5.44 0 0 1 -1.11,-3.77 11.26,11.26 0 0 1 0.87,-4 11.59,11.59 0 0 1 2.25,-3.75 c 0.21,-0.22 0.45,-0.49 0.71,-0.81 a 11.09,11.09 0 0 1 2.81,-2.31 6.66,6.66 0 0 1 3.33,-0.93 3.44,3.44 0 0 1 2.63,1.16 5.6,5.6 0 0 1 1.07,3.85 z m -11.6,9 a 1.75,1.75 0 0 0 0.48,1.35 2.28,2.28 0 0 0 1.55,0.43 3.27,3.27 0 0 0 2.12,-0.91 17.67,17.67 0 0 0 3.84,-5.74 16.42,16.42 0 0 0 1.92,-6.42 1.85,1.85 0 0 0 -0.47,-1.32 1.47,1.47 0 0 0 -1.07,-0.49 4.11,4.11 0 0 0 -2.75,1.38 19,19 0 0 0 -4.19,6.35 14.41,14.41 0 0 0 -1.43,5.41 z"
           fill="#b4162c"
           id="path136" />
        <path
           d="m 257.15,376.46 a 9.07,9.07 0 0 0 -1.38,1.11 c -0.12,0.12 -0.79,0.92 -2,2.39 h -0.91 a 12.31,12.31 0 0 1 2.07,-2.65 11.06,11.06 0 0 1 2.62,-2.14 4,4 0 0 1 1.61,-0.44 1.53,1.53 0 0 1 0.76,0.37 0.85,0.85 0 0 1 0.22,0.58 2.63,2.63 0 0 1 -0.09,0.67 29.81,29.81 0 0 1 -1,3.1 30.87,30.87 0 0 1 -1.31,3.2 l -1.16,2.45 -0.08,0.35 c 0.2,-0.31 0.63,-1 1.27,-2.12 q 3.63,-6.14 5.24,-7.57 a 4.07,4.07 0 0 1 2.77,-1 2.58,2.58 0 0 1 1.67,0.64 1.63,1.63 0 0 1 0.58,1.31 2.17,2.17 0 0 1 -0.65,1.57 1.7,1.7 0 0 1 -1.27,0.45 1.34,1.34 0 0 1 -1,-0.28 2.6,2.6 0 0 1 -0.35,-1.44 c -0.19,-0.35 -0.4,-0.52 -0.64,-0.52 a 1.19,1.19 0 0 0 -0.76,0.34 c -0.72,0.57 -2.06,2.39 -4.05,5.46 a 50.64,50.64 0 0 0 -3.72,6.41 15.63,15.63 0 0 1 -1.21,2.47 1.09,1.09 0 0 1 -0.91,0.34 1.5,1.5 0 0 1 -0.85,-0.19 0.59,0.59 0 0 1 -0.26,-0.49 2.31,2.31 0 0 1 0.22,-0.91 c 0.64,-1.39 1.67,-4 3.08,-7.69 l 1.56,-4.25 a 7.58,7.58 0 0 1 0.23,-0.73 l 0.13,-0.29 q 0.02,-0.18 -0.43,-0.5 z"
           fill="#b4162c"
           id="path138" />
        <path
           d="m 280.89,376.66 a 2.46,2.46 0 0 0 0.29,-0.54 1.8,1.8 0 0 1 0.54,-0.77 c 0.42,0 0.72,-0.06 0.92,-0.06 a 1.86,1.86 0 0 1 0.73,0.14 l 0.07,0.24 a 1,1 0 0 1 -0.11,0.35 6.26,6.26 0 0 0 -0.29,0.76 l -0.18,0.4 -1.47,3.55 c -0.63,1.6 -1.18,2.88 -1.65,3.83 a 28,28 0 0 0 -1.21,2.91 9.89,9.89 0 0 1 -0.94,2.12 l -0.09,0.19 c 0,0.08 0.08,0.18 0.24,0.31 a 7.8,7.8 0 0 0 1.58,-1.08 c 1.12,-1 1.78,-1.6 2,-1.84 0.22,-0.24 0.3,-0.33 0.44,-0.48 a 3.7,3.7 0 0 1 0.46,0.42 20.43,20.43 0 0 1 -2,2.1 10.75,10.75 0 0 1 -2.55,1.89 3.8,3.8 0 0 1 -1.64,0.42 1.19,1.19 0 0 1 -0.74,-0.2 0.63,0.63 0 0 1 -0.25,-0.5 4.57,4.57 0 0 1 0.23,-1 c 0.37,-0.88 0.63,-1.45 0.78,-1.73 0.15,-0.28 0.35,-0.71 0.6,-1.29 0.15,-0.36 0.45,-1 0.92,-1.87 a 11.74,11.74 0 0 0 -1.08,1.11 30.68,30.68 0 0 1 -4.27,3.84 16.1,16.1 0 0 1 -2.66,1.33 8.17,8.17 0 0 1 -1.84,0.34 3.77,3.77 0 0 1 -1.19,-0.16 2.12,2.12 0 0 1 -0.89,-0.82 2.49,2.49 0 0 1 -0.26,-1.29 7.66,7.66 0 0 1 0.64,-2.82 14.28,14.28 0 0 1 2.22,-3.91 20.42,20.42 0 0 1 3.76,-3.55 16.49,16.49 0 0 1 3.46,-1.88 10.31,10.31 0 0 1 3.6,-0.8 6,6 0 0 1 1,0.08 4,4 0 0 1 0.83,0.26 z m -10.89,13 a 3.69,3.69 0 0 0 1,-0.34 c 0.17,-0.08 0.76,-0.44 1.79,-1.09 1.87,-1.63 2.93,-2.56 3.18,-2.8 a 18.47,18.47 0 0 0 1.82,-2.13 20.7,20.7 0 0 0 1.17,-1.86 l 0.58,-1.37 a 10.55,10.55 0 0 0 0.31,-1.4 1.44,1.44 0 0 0 -0.52,-1.05 1.69,1.69 0 0 0 -1.12,-0.3 4.17,4.17 0 0 0 -1.54,0.26 11.4,11.4 0 0 0 -2.64,1.51 17.67,17.67 0 0 0 -3.11,3.21 19.17,19.17 0 0 0 -2.11,3.27 7.14,7.14 0 0 0 -0.85,2.7 1.52,1.52 0 0 0 0.35,1.09 1.15,1.15 0 0 0 0.87,0.36 z"
           fill="#b4162c"
           id="path140" />
        <path
           d="m 290.51,376.6 h -1.36 -0.63 -1.45 -0.29 a 2.53,2.53 0 0 1 0.39,-1 c 2.17,-0.06 3.45,-0.1 3.86,-0.14 0.29,-0.64 0.54,-1.15 0.74,-1.53 0.44,-0.86 0.89,-1.88 1.36,-3.06 a 6.92,6.92 0 0 1 0.48,-1.06 c 0.33,0 0.71,-0.06 1.14,-0.06 a 5.51,5.51 0 0 1 1,0.1 l 0.05,0.32 a 30.75,30.75 0 0 1 -2,4.37 6.79,6.79 0 0 0 -0.37,0.94 c 0.42,0.06 0.67,0.1 0.75,0.1 h 0.46 0.75 2.12 a 2,2 0 0 1 -0.27,1.07 c -0.59,0.05 -1.36,0.08 -2.31,0.08 -0.47,0 -0.77,0 -0.9,0 a 4.71,4.71 0 0 0 -1.3,0.2 l -3.63,7.75 q -0.61,1.13 -2.08,4.27 a 0.42,0.42 0 0 0 0.13,0.27 h 0.29 a 2.72,2.72 0 0 0 1.5,-0.67 25.35,25.35 0 0 0 3.65,-3.48 3.1,3.1 0 0 1 0.66,0.42 q -2.21,2.4 -3.09,3.17 a 16.9,16.9 0 0 1 -2.27,1.59 16.45,16.45 0 0 1 -1.65,0.92 3.06,3.06 0 0 1 -1,0.18 1.25,1.25 0 0 1 -0.8,-0.21 0.72,0.72 0 0 1 -0.27,-0.61 9.06,9.06 0 0 1 1.07,-2.68 l 0.94,-1.85 3.28,-7.05 c 0.44,-0.86 0.79,-1.66 1.05,-2.35 z"
           fill="#b4162c"
           id="path142" />
        <path
           d="m 309.85,379.76 a 12,12 0 0 1 -3.13,8.18 q -3.14,3.58 -6.51,3.58 a 3.8,3.8 0 0 1 -2.92,-1.2 5.44,5.44 0 0 1 -1.12,-3.77 11.26,11.26 0 0 1 0.87,-4 11.61,11.61 0 0 1 2.26,-3.75 c 0.21,-0.22 0.44,-0.49 0.71,-0.81 a 11.09,11.09 0 0 1 2.81,-2.31 6.66,6.66 0 0 1 3.33,-0.93 3.44,3.44 0 0 1 2.63,1.16 5.6,5.6 0 0 1 1.07,3.85 z m -11.6,9 a 1.75,1.75 0 0 0 0.48,1.35 2.28,2.28 0 0 0 1.55,0.43 3.27,3.27 0 0 0 2.12,-0.91 17.67,17.67 0 0 0 3.84,-5.74 16.37,16.37 0 0 0 1.91,-6.42 1.85,1.85 0 0 0 -0.46,-1.32 1.48,1.48 0 0 0 -1.07,-0.49 4.09,4.09 0 0 0 -2.75,1.38 19,19 0 0 0 -4.19,6.35 14.41,14.41 0 0 0 -1.43,5.41 z"
           fill="#b4162c"
           id="path144" />
        <path
           d="m 317.12,376.46 a 9.07,9.07 0 0 0 -1.38,1.11 c -0.12,0.12 -0.8,0.92 -2,2.39 h -0.91 a 12.31,12.31 0 0 1 2.07,-2.65 10.86,10.86 0 0 1 2.62,-2.14 4,4 0 0 1 1.6,-0.44 1.53,1.53 0 0 1 0.77,0.37 0.84,0.84 0 0 1 0.21,0.58 2.63,2.63 0 0 1 -0.09,0.67 27,27 0 0 1 -1,3.1 30.87,30.87 0 0 1 -1.31,3.2 l -1.16,2.45 -0.09,0.35 c 0.21,-0.31 0.64,-1 1.28,-2.12 q 3.63,-6.14 5.24,-7.57 a 4.07,4.07 0 0 1 2.77,-1 2.58,2.58 0 0 1 1.67,0.64 1.63,1.63 0 0 1 0.58,1.31 2.17,2.17 0 0 1 -0.65,1.57 1.71,1.71 0 0 1 -1.27,0.45 1.34,1.34 0 0 1 -1,-0.28 2.6,2.6 0 0 1 -0.35,-1.44 c -0.19,-0.35 -0.41,-0.52 -0.64,-0.52 a 1.19,1.19 0 0 0 -0.76,0.34 q -1.08,0.86 -4.05,5.46 a 50.64,50.64 0 0 0 -3.72,6.41 14.62,14.62 0 0 1 -1.22,2.47 1.05,1.05 0 0 1 -0.9,0.34 1.54,1.54 0 0 1 -0.86,-0.19 0.58,0.58 0 0 1 -0.25,-0.49 2.31,2.31 0 0 1 0.22,-0.91 c 0.64,-1.39 1.67,-4 3.08,-7.69 l 1.56,-4.25 a 7.58,7.58 0 0 1 0.23,-0.73 l 0.13,-0.29 q 0.03,-0.18 -0.42,-0.5 z"
           fill="#b4162c"
           id="path146" />
        <path
           d="m 331.83,376.46 a 2.79,2.79 0 0 0 -0.69,0.06 10.47,10.47 0 0 0 -1.54,0.85 12.62,12.62 0 0 0 -1.9,1.63 l -1.29,0.26 a 13.44,13.44 0 0 1 3.81,-3.24 7.5,7.5 0 0 1 3.31,-1.17 1.14,1.14 0 0 1 0.77,0.23 0.75,0.75 0 0 1 0.25,0.59 8.2,8.2 0 0 1 -1.25,3.24 c -0.1,0.18 -0.35,0.66 -0.73,1.43 q -1.35,2.6 -2.86,4.92 c -0.33,0.5 -0.69,1.1 -1.07,1.79 -0.21,0.37 -0.4,0.68 -0.56,0.93 a 3.33,3.33 0 0 0 -0.69,1.53 0.33,0.33 0 0 0 0.12,0.25 0.44,0.44 0 0 0 0.3,0.11 2,2 0 0 0 0.75,-0.24 10.56,10.56 0 0 0 2,-1.32 11.44,11.44 0 0 0 2.05,-2.12 h 1 a 16.53,16.53 0 0 1 -2,2.47 10.45,10.45 0 0 1 -3,2.22 5.16,5.16 0 0 1 -2.24,0.64 1.8,1.8 0 0 1 -1.1,-0.27 0.85,0.85 0 0 1 -0.35,-0.71 q 0,-1.53 2.52,-5.76 l 3.59,-6 a 10,10 0 0 0 0.78,-1.47 1.57,1.57 0 0 0 0.14,-0.45 1.19,1.19 0 0 0 -0.12,-0.4 z m 1.27,-8.92 a 1.64,1.64 0 0 1 0.6,-1.24 2,2 0 0 1 1.41,-0.55 1.88,1.88 0 0 1 1.29,0.48 1.43,1.43 0 0 1 0.54,1.09 2,2 0 0 1 -0.67,1.45 2.2,2.2 0 0 1 -1.48,0.38 1.76,1.76 0 0 1 -1.2,-0.44 1.48,1.48 0 0 1 -0.49,-1.17 z"
           fill="#b4162c"
           id="path148" />
        <path
           d="m 325,398.13 a 3.47,3.47 0 0 1 0.73,-0.14 1.3,1.3 0 0 1 0.8,0.33 2.13,2.13 0 0 1 0.64,1 1.36,1.36 0 0 0 0.64,0.83 6.42,6.42 0 0 0 1.56,-0.18 5,5 0 0 0 1.42,-0.78 10.12,10.12 0 0 0 1.61,-1.78 23.8,23.8 0 0 0 1.9,-3.17 c 0.76,-1.45 1.34,-2.63 1.74,-3.55 0.21,-0.51 0.42,-1 0.63,-1.43 l 3,-6.41 1.05,-2.25 c 0.21,-0.41 0.5,-1 0.88,-1.67 a 4,4 0 0 0 0.57,-1.84 0.42,0.42 0 0 0 -0.13,-0.33 0.41,0.41 0 0 0 -0.29,-0.13 3.12,3.12 0 0 0 -1.19,0.53 16.43,16.43 0 0 0 -3.05,2.81 2.23,2.23 0 0 1 -0.58,-0.4 19,19 0 0 1 2.53,-2.6 12,12 0 0 1 3.13,-2 5.1,5.1 0 0 1 2,-0.42 0.69,0.69 0 0 1 0.34,0.54 q 0,2 -3,8 c -0.21,0.43 -0.41,0.89 -0.62,1.39 -0.63,1.53 -1.54,3.47 -2.73,5.84 a 63.35,63.35 0 0 1 -3.59,6.59 10.75,10.75 0 0 1 -2.33,2.38 7.57,7.57 0 0 1 -2.42,1.29 10.71,10.71 0 0 1 -2.85,0.45 4.48,4.48 0 0 1 -1.61,-0.2 3.07,3.07 0 0 1 -1.25,-0.84 1.12,1.12 0 0 1 -0.27,-0.78 1.24,1.24 0 0 1 0.74,-1.08 z m 18.85,-30.21 a 1.38,1.38 0 0 1 0.56,-1.08 2.09,2.09 0 0 1 1.43,-0.47 1.23,1.23 0 0 1 0.88,0.39 1.41,1.41 0 0 1 -0.06,2 1.83,1.83 0 0 1 -1.27,0.4 1.65,1.65 0 0 1 -1.12,-0.38 1.14,1.14 0 0 1 -0.44,-0.86 z"
           fill="#b4162c"
           id="path150" />
      </g>
    </g>
  </g>
</svg>
