<?xml version="1.0" encoding="UTF-8" standalone="no"?>
<!-- Generator: Adobe Illustrator 24.3.0, SVG Export Plug-In . SVG Version: 6.00 Build 0)  -->

<svg
   version="1.1"
   x="0px"
   y="0px"
   viewBox="0 0 703 539.00001"
   xml:space="preserve"
   id="svg1313"
   sodipodi:docname="watermark.svg"
   inkscape:version="1.2.2 (b0a8486541, 2022-12-01)"
   width="703"
   height="539"
   xmlns:inkscape="http://www.inkscape.org/namespaces/inkscape"
   xmlns:sodipodi="http://sodipodi.sourceforge.net/DTD/sodipodi-0.dtd"
   xmlns="http://www.w3.org/2000/svg"
   xmlns:svg="http://www.w3.org/2000/svg"><defs
   id="defs1317">
		
		
		
		
		
		
		
		
		
		
		
		
		
		
		
		
		
		
		
		
		
		
		
		
		
		
		
		
		
		
		
	
	
	
	
	
	
	
	
	
	
	
	
	
	
	
	
	
	
	
	
	
	
	
	
	
	
	
	
	

	
	
	
	
	
	
	
	
	
	
	
	
	
	
	
	
	
	
	
	
	
	
	
	
	
	
	
	
	
	
	
	
	
	
	
	
	
	
	
	
	
	
	
	
	
	
		

		
		
		
		
		
		
		
		
		
		
		
		
		
		
		
		
		
		
		
		
		
		
		
		
		
		
		
		
		
		
		
	</defs><sodipodi:namedview
   id="namedview1315"
   pagecolor="#ffffff"
   bordercolor="#000000"
   borderopacity="0.25"
   inkscape:showpageshadow="2"
   inkscape:pageopacity="0.0"
   inkscape:pagecheckerboard="0"
   inkscape:deskcolor="#d1d1d1"
   showgrid="false"
   inkscape:zoom="1.1422087"
   inkscape:cx="269.21525"
   inkscape:cy="354.57618"
   inkscape:window-width="1920"
   inkscape:window-height="1011"
   inkscape:window-x="0"
   inkscape:window-y="0"
   inkscape:window-maximized="1"
   inkscape:current-layer="svg1313" />
<style
   type="text/css"
   id="style2">
	.st0{opacity:0.47;fill:#414042;}
	.st1{fill:#FFFFFF;}
	.st2{fill:#414042;}
	.st3{fill:none;stroke:#80888E;stroke-width:4.3486;stroke-miterlimit:10;}
	.st4{opacity:0.36;}
	.st5{fill:#FFFFFF;stroke:#80888E;stroke-width:4;stroke-miterlimit:10;}
	.st6{fill:#FFFFFF;stroke:#80888E;stroke-width:3.2484;stroke-miterlimit:10;}
	.st7{fill:none;stroke:#80888E;stroke-width:8;stroke-miterlimit:10;}
	.st8{fill:#FFFFFF;stroke:#80888E;stroke-width:9;stroke-miterlimit:10;}
	.st9{fill:none;stroke:#80888E;stroke-width:5.6436;stroke-miterlimit:10;}
	.st10{font-family:'Signika-Medium';}
	.st11{font-size:39px;}
	.st12{font-size:25.6843px;}
	.st13{fill:#EFEFEF;}
	.st14{fill:#DF9D95;}
	.st15{fill:#E6E3B1;}
	.st16{fill:#80888E;}
	.st17{fill:#97CC97;}
	.st18{fill:none;stroke:#B4162C;stroke-width:1.3097;stroke-miterlimit:10;}
	.st19{fill:#B4162C;}
	.st20{font-size:13.8619px;}
	.st21{font-size:16.3229px;}
	.st22{font-size:24.8834px;}
	.st23{font-size:23.3295px;}
	.st24{font-size:12.1392px;}
	.st25{fill:none;stroke:#B4162C;stroke-width:2.6193;stroke-miterlimit:10;}
	.st26{fill:none;}
	.st27{font-size:21px;}
	.st28{fill:none;stroke:#B4162C;stroke-width:8;stroke-miterlimit:10;}
	.st29{fill:#AAAAAA;}
	.st30{font-size:41px;}
	.st31{font-size:30.3213px;}
	.st32{fill:#FCFAFF;}
	.st33{font-family:'Signika-Regular';}
	.st34{font-size:24.1333px;}
	.st35{font-size:24px;}
	.st36{fill:#EFEFEF;stroke:#414042;stroke-width:4;stroke-miterlimit:10;}
	.st37{fill:#EFEFEF;stroke:#414042;stroke-width:3.2484;stroke-miterlimit:10;}
	.st38{fill:#FFFFFF;stroke:#414042;stroke-width:4;stroke-miterlimit:10;}
	.st39{fill:none;stroke:#414042;stroke-width:4;stroke-miterlimit:10;}
	.st40{fill:none;stroke:#414042;stroke-width:8;stroke-miterlimit:10;}
	.st41{fill:none;stroke:#B4162C;stroke-width:9;stroke-miterlimit:10;}
	.st42{opacity:0.33;}
	.st43{font-size:53.9091px;}
</style>


<g
   id="g13630"
   transform="translate(-862.73499,-131.54831)"><path
     class="st5"
     d="m 1008.8344,564.0543 c -0.2,0.4 -0.4,0.8 -0.6,1.2 -0.2,0.3 -0.3,0.7 -0.5,1.1 -0.9,2.1 -1.4,4.4 -1.6,6.8 0,0.4 -0.1,0.9 -0.1,1.3 0,2.1 0.3,4.2 0.9,6.3 -0.6,-0.3 -11.50003,-4.1 -20.50003,3 -2.2,1.8 -4.1,4 -5.4,6.5 -15.1,-40.8 -29.9,-85.6 -43.4,-134.2 -9.6,-34.5 -17.6,-67.8 -24.2,-99.6 9,-6 21.9,-14.1 38.5,-22.5 0.1,-0.1 0.2,-0.1 0.3,-0.2 6.2,36.1 13.9,74.1 23.6,113.8 10.2,41.5 21.4,80.4 33.00003,116.5 z"
     id="path54"
     style="opacity:0.36" /><path
     class="st5"
     d="m 1360.1344,300.6543 c -3,17 -6.3,34.6 -10,52.7 -8.2,-5.3 -19.7,-12.2 -34.1,-19.6 -0.4,-0.2 -0.9,-0.4 -1.3,-0.7 -1,-0.5 -2,-1 -3.1,-1.5 v 0 c -32.3,-15.8 -76.5,-32.4 -130.4,-39.2 2.2,-19.5 4.3,-38.9 6.5,-58.4 85,12.2 145.6,48.6 172.4,66.7 z"
     id="path56"
     style="opacity:0.36" /><path
     class="st5"
     d="m 1350.0344,353.3543 c -7,33.8 -15.4,69.3 -25.6,106.2 -13.1,47.2 -27.4,90.9 -42.2,130.9 -0.5,-0.8 -1.2,-1.5 -1.9,-2.1 -5.2,-4.9 -13.6,-5.3 -19.9,-0.7 0.2,-0.8 2.5,-10.2 -3.9,-17.8 -0.9,-1.1 -1.9,-2 -3.1,-2.9 11.6,-36 22.8,-74.6 33,-115.8 10.3,-41.7 18.5,-81.7 25.1,-119.5 v 0 c 1,0.5 2.1,1 3.1,1.5 0.4,0.2 0.9,0.4 1.3,0.7 14.5,7.3 25.9,14.2 34.1,19.5 z"
     id="path58"
     style="opacity:0.36" /><path
     class="st5"
     d="m 1086.4344,292.8543 c -7.1,0.9 -13.9,1.9 -20.7,3 -4.7,0.8 -9.3,1.7 -13.9,2.7 -8.4,1.8 -16.4,3.7 -24.2,5.9 -1.4,0.4 -2.8,0.8 -4.2,1.2 -4.6,1.3 -9.1,2.7 -13.4,4.1 -4.1,1.4 -8.2,2.8 -12.10003,4.2 -1.4,0.5 -2.8,1.1 -4.2,1.6 -2.3,0.9 -4.6,1.8 -6.8,2.6 -10.3,4.1 -19.8,8.3 -28.4,12.6 -0.9,0.5 -1.9,0.9 -2.8,1.4 -1.1,0.6 -2.3,1.1 -3.4,1.7 -0.1,0.1 -0.2,0.1 -0.3,0.2 -16.6,8.5 -29.6,16.6 -38.5,22.5 -4.1,-19.1 -7.6,-37.7 -10.8,-55.7 26.2,-17.8 89.2,-56.1 178.00003,-67.5 1.9,19.8 3.8,39.6 5.7,59.5 z"
     id="path60"
     style="opacity:0.36" /><path
     class="st5"
     d="m 1191.8344,198.2543 c -1.3,12 -2.7,23.9 -4,35.8 -2.2,19.5 -4.3,38.9 -6.5,58.4 -0.8,6.8 -1.5,13.5 -2.3,20.3 -9.6,-0.9 -19.7,-1.5 -30.3,-1.8 -4.9,-0.2 -10,-0.3 -15.1,-0.3 -5.3,0 -10.5,0 -15.6,0.1 -10.4,0.2 -20.4,0.7 -29.8,1.3 -0.6,-6.4 -1.2,-12.8 -1.8,-19.2 -1.9,-19.8 -3.7,-39.7 -5.6,-59.5 -1.1,-11.2 -2.1,-22.4 -3.2,-33.7 14.8,-4.4 35.7,-8.9 61,-8.7 21.5,0.1 39.6,3.6 53.2,7.3 z"
     id="path62"
     style="opacity:0.36" /><path
     class="st5"
     d="m 864.63437,669.9543 c 3.1,-9.4 11,-15.9 19.7,-16.2 8,-0.3 13.7,4.8 15,6 0.1,-6.9 4.6,-12.9 11,-15 6.1,-1.9 12.8,0 17,5 0.4,-2.3 2.2,-10.1 9.3,-15.4 7.9,-5.8 19.2,-6.1 28.7,-0.7 -3.2,-7.5 -1.9,-15.7 3.1,-20.8 4.2,-4.2 9.5,-4.8 11.3,-5 -1.9,-6.1 -1.3,-12.5 1.5,-17.8 1.3,-2.5 3.1,-4.7 5.4,-6.5 8.9,-7.1 19.80003,-3.2 20.50003,-3 -0.6,-2.1 -0.9,-4.2 -0.9,-6.3 0,-0.5 0,-0.9 0.1,-1.3 0.1,-2.4 0.7,-4.7 1.6,-6.8 0.1,-0.4 0.3,-0.7 0.5,-1.1 0.2,-0.4 0.4,-0.8 0.6,-1.2 0.7,-1.3 1.6,-2.5 2.6,-3.6 l 0.6,-0.6 c 0.3,-0.3 0.6,-0.6 1,-0.9 6,-5 13.2,-4.2 14.7,-4 -5.8,-20.4 -11.4,-41.6 -16.8,-63.6 -4.3,-17.6 -8.2,-34.8 -11.80003,-51.7 1.50003,-1.1 3.60003,-2.5 6.40003,-3.6 2.8,-1.1 5.2,-1.5 7.1,-1.7 1.7,4.6 3.4,9.2 5.2,13.8 1.6,-0.8 3.5,-1.5 5.7,-2.2 2.2,-0.7 4.2,-1.1 6,-1.4 -1.1,-4.9 -2.1,-9.9 -3.1,-14.8 1.6,-1 3.7,-2.2 6.4,-3.2 2.6,-0.9 4.9,-1.2 6.6,-1.4 1.7,5.4 3.4,10.7 5.2,16 1.3,-0.5 2.9,-1 4.5,-1.4 2.6,-0.6 4.9,-0.9 6.9,-1.1 -1.2,-5.6 -2.4,-11.2 -3.6,-16.8 1.6,-0.7 3.7,-1.4 6,-2 3,-0.7 5.7,-0.9 7.8,-0.8 1.8,13.4 3.6,26.9 5.3,40.4 9.3,-1.8 19.6,-3.3 30.7,-4.4 -1.4,-18 -2.9,-35.8 -4.6,-53.2 1.8,-0.7 3.8,-1.3 6.2,-1.8 3.2,-0.7 6.1,-0.9 8.4,-0.8 0.9,5.6 1.7,11.3 2.6,16.9 1.6,-0.3 3.5,-0.7 5.6,-0.8 1.9,-0.2 3.6,-0.2 5.1,-0.1 0.2,-5.9 0.3,-11.8 0.5,-17.8 2.4,-0.5 5.2,-0.9 8.4,-1 2.9,-0.1 5.5,0 7.8,0.2 0.1,5.7 0.2,11.3 0.3,17 2,-0.2 4.2,-0.3 6.7,-0.3 2.1,0 3.9,0.2 5.7,0.4 0.3,-5.5 0.6,-11 0.9,-16.4 1.9,-0.3 4.4,-0.5 7.3,-0.3 3.1,0.3 5.6,1 7.4,1.6 -1.6,18.2 -3,36.9 -4.2,56 10.3,0.9 19.8,2.1 28.5,3.6 1,-12.2 1.8,-24.3 2.5,-36.2 2.3,-0.3 5.1,-0.4 8.4,-0.1 2.9,0.3 5.4,0.9 7.4,1.5 -0.4,4.9 -0.9,9.9 -1.3,14.8 2.4,0 5.2,0.2 8.1,0.5 2.5,0.3 4.9,0.7 7.1,1.1 0.9,-5.1 1.8,-10.3 2.6,-15.5 1.9,-0.1 4.2,0 6.9,0.4 2.9,0.5 5.4,1.3 7.3,2.1 -1.1,5.1 -2.2,10.2 -3.3,15.3 2.2,0.1 4.7,0.4 7.3,0.9 2.4,0.4 4.5,1 6.4,1.6 1.3,-5.1 2.5,-10.1 3.8,-15.1 1.9,0.1 4.6,0.5 7.5,1.5 2.6,0.9 4.7,2.2 6.2,3.2 -4.1,20.8 -8.9,42.7 -14.8,65.5 -5.8,22.6 -12,43.9 -18.4,63.8 5.4,-1.2 11,0 15.4,3.3 1.1,0.9 2.2,1.8 3.1,2.9 6.4,7.6 4.1,17 3.9,17.8 6.3,-4.5 14.6,-4.1 19.9,0.7 0.7,0.7 1.3,1.4 1.9,2.1 2.9,3.9 3.8,9.3 2.4,14.3 7.1,0.5 13.2,4.9 15.6,11.1 0,0.1 0.1,0.2 0.1,0.2 2,5.2 0.9,10.1 -0.9,13.8 5.5,-3.6 12.6,-3.6 18,0 5.6,3.7 8.4,10.4 7,17 0.9,-0.8 6.9,-6.1 15,-5 7.9,1.1 14.6,8 16,17 1,-0.8 8.3,-6.8 18,-5 8.1,1.5 14.7,7.7 17,16"
     id="path64"
     style="opacity:0.36" /><path
     class="st6"
     d="m 1143.5344,310.9543 c -0.2,15.8 -0.5,31.6 -0.8,47.3 -2.3,0.9 -5.2,1.6 -8.6,1.8 -3.7,0.2 -6.9,-0.4 -9.4,-1.1 -0.5,-16.1 -1,-32.1 -1.5,-48.2 3.4,-0.1 6.8,-0.1 10.3,-0.1 3.4,0 6.7,0.1 10,0.3 z"
     id="path66"
     style="opacity:0.36" /><path
     class="st5"
     d="m 1186.5344,578.7543 c -0.3,-5.1 0.3,-12.2 4.6,-19.2 8.1,-13.3 22.5,-14.8 24.1,-14.9 1.4,-4.7 2.7,-10.6 3.1,-17.5 0.2,-3.4 0.2,-6.5 0,-9.4 -0.1,-0.8 -0.1,-1.7 -0.2,-2.5 -0.5,-0.3 -2.5,-1.7 -2.9,-4.1 -0.6,-3.3 2.2,-5.7 2.9,-6.4 3.5,-3.2 8.1,-2.4 8.9,-2.2 0.9,0.2 5.5,1 7.5,5 0.4,0.7 1.6,3.1 0.7,5.7 -0.8,2.6 -3.3,4.5 -6.3,4.9 -1.6,3.6 -3.3,8.1 -4.5,13.4 -1.3,5.8 -1.8,11 -1.9,15.2 4.8,4.7 7.1,9.4 8.2,12.6 5.4,15.1 -2.4,30 -7.7,37.7 -3.7,-1.3 -8.1,-0.5 -11.5,2.5 2,-5.4 -0.1,-11.5 -4.9,-14.4 -3.6,-2.1 -7.9,-2 -11.4,-0.1 -1.2,0.7 -2.2,1.5 -3.2,2.6 -0.2,-3.8 -2.4,-7.1 -5.5,-8.9"
     id="path68"
     style="opacity:0.36" /><path
     class="st5"
     d="m 1146.8344,544.8543 c -7.5,0 -15.1,-0.1 -22.6,-0.1 -0.5,-5.4 -3.7,-45.7 4.2,-55.3 1,-1.2 3.5,-4.3 6.8,-4.3 3.6,0 6.2,3.5 7.3,4.9 8,10.4 4.8,49.6 4.3,54.8 z"
     id="path70"
     style="opacity:0.36" /><path
     class="st5"
     d="m 981.33437,590.8543 c -0.1,-0.2 -0.1,-0.4 -0.2,-0.6"
     id="path72"
     style="opacity:0.36" /><path
     class="st5"
     d="m 1009.5344,566.0543 c -0.2,-0.7 -0.4,-1.3 -0.7,-2"
     id="path74"
     style="opacity:0.36" /><path
     class="st5"
     d="m 1184.2344,558.6543 c 3.1,-24.1 5.9,-49 8.3,-74.7 0.8,-8.6 1.5,-17.2 2.2,-25.7"
     id="path76"
     style="opacity:0.36" /><line
     class="st5"
     x1="1299.9343"
     y1="629.55432"
     x2="1299.9343"
     y2="629.45422"
     id="line78"
     style="opacity:0.36" /><path
     class="st5"
     d="m 1071.5344,459.6543 c 1.1,8.8 2.3,17.6 3.4,26.5 3.4,26.6 6.7,53.1 9.9,79.5 z"
     id="path80"
     style="opacity:0.36" /><path
     class="st5"
     d="m 1102.3344,455.1543 c -0.1,0 -0.1,0 0,0"
     id="path82"
     style="opacity:0.36" /><path
     class="st5"
     d="m 1162.2344,560.3543 c 0.4,-29.1 1.4,-59.1 3.1,-90.2 0.3,-5.2 0.6,-10.4 0.9,-15.5"
     id="path84"
     style="opacity:0.36" /><path
     class="st5"
     d="m 1102.2344,455.1543 c 0.2,2.9 0.4,5.8 0.7,8.7 2.4,34 4.1,67 5.2,99.1 z"
     id="path86"
     style="opacity:0.36" /><path
     class="st5"
     d="m 1069.1344,605.0543 c -1,-5.2 0.8,-10.5 4.7,-13.8 4.3,-3.6 10.4,-4.2 15.4,-1.5 -0.4,-5.4 2.5,-10.4 7.1,-12.3 5.3,-2.2 11.9,0.1 14.9,5.8"
     id="path88"
     style="opacity:0.36" /><path
     class="st5"
     d="m 1128.4344,606.7543 c 0.7,-3.9 3.4,-7.1 7.1,-8.2 4,-1.2 8.3,0.2 10.9,3.6"
     id="path90"
     style="opacity:0.36" /><path
     class="st5"
     d="m 1033.1344,576.2543 c -2.8,-3.5 -7.7,-4.3 -11.3,-1.9 -3.8,2.4 -5.1,7.5 -3.1,11.6"
     id="path92"
     style="opacity:0.36" /><line
     class="st5"
     x1="1148.7344"
     y1="310.95432"
     x2="1148.7344"
     y2="310.95432"
     id="line94"
     style="opacity:0.36" /><line
     class="st5"
     x1="1118.0343"
     y1="310.75424"
     x2="1118.0343"
     y2="310.65427"
     id="line96"
     style="opacity:0.36" /><path
     class="st5"
     d="m 1195.1344,585.1543 c -0.4,-4 0,-8.1 0.5,-12.1 0.6,-4 1.8,-8.1 4.2,-11.6 1.2,-1.8 2.7,-3.3 4.3,-4.6 1.7,-1.3 3.6,-2.3 5.8,-2.7 4.4,-0.9 9,1.3 11.1,4.8 l -0.2,0.2 c -1.6,-1.1 -3.4,-2 -5.1,-2.4 -1.8,-0.4 -3.5,-0.3 -5.2,0.2 -3.3,1 -6.6,3.1 -9,5.9 -2.3,2.9 -3.7,6.7 -4.6,10.5 -0.9,3.9 -1.6,7.8 -1.6,11.8 z"
     id="path98"
     style="opacity:0.36" /><path
     class="st7"
     d="m 1319.7344,475.8543 c 2.9,3.3 5.4,5.9 7,7.6 36.7,38.5 106.7,96.1 237.4,135.8"
     id="path100"
     style="opacity:0.36" /><path
     class="st1"
     d="m 1290.2344,436.1543 c 7.7,14.5 20.7,30 29.5,39.8"
     id="path102"
     style="opacity:0.36" /><path
     class="st7"
     d="m 1298.1344,401.0543 c -5.5,1.2 -9.9,3.3 -12.4,7.3 -4.2,6.8 -1.3,17 4.4,27.8"
     id="path104"
     style="opacity:0.36" /><path
     class="st7"
     d="m 1344.0344,381.5543 c 5.4,4.9 8.3,9 6.7,12.9 -4.2,10.3 -34.2,2.7 -52.6,6.6"
     id="path106"
     style="opacity:0.36" /><path
     class="st1"
     d="m 1308.3344,349.8543 c 12.5,14 27.1,23.8 35.6,31.6"
     id="path108"
     style="opacity:0.36" /><path
     class="st7"
     d="m 1136.6344,190.9543 c -0.7,-5.7 -0.7,-13.9 2.7,-22.5 8.6,-21.9 34,-33.2 54.6,-32.9 34.7,0.5 66.3,33.8 61.8,53.6 -2.7,11.6 -18.4,21.7 -28.1,17.9 -10.7,-4.3 -14.5,-26 -6.6,-35.2 8.6,-10.2 34.8,-9.5 49.5,3.1 34.2,29.2 -13.5,104.8 30.6,166.2 3,4.2 5.7,7.3 7.1,8.9"
     id="path110"
     style="opacity:0.36" /><path
     class="st5"
     d="m 1171.9344,582.5543 c 2.5,-3.8 6.8,-5.8 11.1,-5.1 1.2,0.2 2.4,0.7 3.5,1.3 3.1,1.8 5.3,5.1 5.6,9 0.9,-1.1 2,-2 3.2,-2.6 3.5,-2 7.8,-2 11.4,0.1 4.8,2.9 6.9,9 4.9,14.4 3.4,-3 7.8,-3.8 11.5,-2.5 1.1,0.4 2.1,0.9 3,1.6 3.1,2.5 4.5,6.7 3.8,10.9"
     id="path114"
     style="opacity:0.36" /></g>


</svg>
