<?xml version="1.0" encoding="iso-8859-1"?>
<!DOCTYPE svg PUBLIC "-//W3C//DTD SVG 1.0//EN" "http://www.w3.org/TR/2001/REC-SVG-20010904/DTD/svg10.dtd">
<!-- Creator: CorelDRAW -->
<svg xmlns="http://www.w3.org/2000/svg" xmlns:odm="http://product.corel.com/CGS/11/cddns/" xml:space="preserve" width="800px" height="335px" style="shape-rendering:geometricPrecision; text-rendering:geometricPrecision; image-rendering:optimizeQuality; fill-rule:evenodd"
     viewBox="0 0 800 336">
 <defs>
  <style type="text/css">
   <![CDATA[
    .fil0 {fill:#D92826}
   ]]>
  </style>
 </defs>
 <g id="Ebene 1">
  <path class="fil0" d="M709 162c-3,3 -12,11 -8,16 3,4 14,-3 18,-8 6,-7 9,-18 9,-18 0,0 -12,4 -19,10m-60 3c-7,6 -11,13 -8,16 4,3 13,-3 18,-9 6,-9 8,-17 8,-17 0,0 -6,2 -18,10m-82 -54c18,-11 64,-57 53,-68 -12,-5 -44,46 -53,68m-233 79c-7,10 -15,26 -9,30 6,5 22,-9 27,-16 10,-12 17,-29 11,-32 -9,-5 -24,12 -29,18m-143 25c23,-7 60,-13 73,-14 11,-17 45,-75 -4,-93l-69 107zm-98 75c11,13 102,-1 163,-77 -43,7 -68,16 -77,19 -20,33 -28,44 -36,43 -9,-1 6,-18 14,-35 -34,10 -74,37 -64,50m-35 -194c58,-21 123,-35 190,-26l6 -12c14,-2 28,-4 42,-5l-19 28c18,8 33,27 35,47 0,27 -12,49 -26,70l20 -2c14,-22 52,-49 67,-29l6 -7c0,0 24,-4 25,-4 -22,41 -34,52 -31,56 3,4 44,-31 59,-61l24 -2 -14 24c25,-20 33,-33 47,-28 18,8 -23,52 -18,55 4,2 37,-22 53,-46l-23 3 8 -14 22 -3c24,-45 88,-130 108,-118 17,12 -26,68 -83,109l-3 6 49 -5c1,0 1,2 0,3 -16,13 -47,46 -30,57 14,5 37,-29 39,-35 -13,-4 -3,-40 15,-35 13,4 3,21 0,28 24,-3 45,-27 45,-27 0,-19 12,-39 26,-34 9,5 1,18 -13,34 -2,2 -1,9 -2,18 16,-5 34,-13 49,-20 1,-19 10,-41 25,-36 11,3 0,26 -14,37 0,24 4,41 -2,53 -7,15 -32,27 -47,19 -15,-9 -2,-29 8,-36 8,-7 29,-17 29,-17 0,0 1,-8 1,-12 -8,5 -48,20 -48,20 -2,14 -1,20 -8,33 -9,17 -37,23 -47,14 -6,-6 -4,-22 9,-33 11,-8 32,-17 32,-17 0,0 2,-8 2,-12 -14,12 -30,24 -51,25 -12,25 -45,59 -69,43 -22,-14 14,-53 18,-56 -8,0 -23,4 -23,4l-40 74 1 0c0,0 136,-16 261,-16l-15 14c7,5 14,10 22,14 0,0 -130,-6 -279,6l-22 41 -27 2 23 -41c0,0 -67,2 -216,22 2,-3 2,-3 4,-7 133,-26 223,-32 223,-32 0,0 20,-36 20,-36 -14,11 -42,35 -54,23 -9,-11 21,-46 18,-48 -3,-3 -39,35 -52,55 -8,0 -22,2 -22,2l11 -20c-12,9 -24,19 -38,24 -3,2 -12,2 -16,-8 0,0 -26,24 -44,15 -10,-5 -6,-23 -4,-27l-21 2c-93,107 -213,119 -228,96 -15,-25 40,-59 115,-83 0,0 66,-120 65,-121 -92,-14 -206,57 -206,57l33 -62z"/>
 </g>
</svg>
