<?xml version="1.0" encoding="UTF-8" standalone="no"?>
<svg
   width="24"
   height="24"
   fill-rule="evenodd"
   clip-rule="evenodd"
   version="1.1"
   id="svg4"
   sodipodi:docname="discord.svg"
   inkscape:version="1.2.2 (732a01da63, 2022-12-09)"
   xmlns:inkscape="http://www.inkscape.org/namespaces/inkscape"
   xmlns:sodipodi="http://sodipodi.sourceforge.net/DTD/sodipodi-0.dtd"
   xmlns="http://www.w3.org/2000/svg"
   xmlns:svg="http://www.w3.org/2000/svg">
  <defs
     id="defs8" />
  <sodipodi:namedview
     id="namedview6"
     pagecolor="#ffffff"
     bordercolor="#000000"
     borderopacity="0.25"
     inkscape:showpageshadow="2"
     inkscape:pageopacity="0.0"
     inkscape:pagecheckerboard="true"
     inkscape:deskcolor="#d1d1d1"
     showgrid="false"
     inkscape:zoom="34.541667"
     inkscape:cx="7.3968637"
     inkscape:cy="7.3823884"
     inkscape:window-width="1920"
     inkscape:window-height="1009"
     inkscape:window-x="-8"
     inkscape:window-y="2152"
     inkscape:window-maximized="1"
     inkscape:current-layer="svg4" />
  <path
     d="M19 24h-14c-2.761 0-5-2.239-5-5v-14c0-2.761 2.239-5 5-5h14c2.762 0 5 2.239 5 5v14c0 2.761-2.238 5-5 5zm-3.288-4.888l-.424-1.48 1.024.952.968.896 1.72 1.52v-14.352c0-.912-.736-1.648-1.64-1.648h-10.72c-.904 0-1.64.736-1.64 1.648v10.816c0 .912.736 1.648 1.64 1.648h9.072zm-1.44-3.664c1.768-.056 2.448-1.216 2.448-1.216 0-2.576-1.152-4.664-1.152-4.664-1.152-.864-2.248-.84-2.248-.84l-.112.128c1.36.416 1.992 1.016 1.992 1.016-.832-.456-1.648-.68-2.408-.768-.576-.064-1.128-.048-1.616.016l-.136.016c-.28.024-.96.128-1.816.504l-.472.232s.664-.632 2.104-1.048l-.08-.096s-1.096-.024-2.248.84c0 0-1.152 2.088-1.152 4.664 0 0 .672 1.16 2.44 1.216l.536-.664c-1.016-.304-1.4-.944-1.4-.944l.224.136.032.024.032.018.009.004.031.018c.2.112.4.2.584.272.328.128.72.256 1.176.344.6.112 1.304.152 2.072.008.376-.064.76-.176 1.16-.344.28-.104.592-.256.92-.472 0 0-.4.656-1.448.952l.528.648zm-3.72-3.736c-.456 0-.816.4-.816.888s.368.888.816.888c.456 0 .816-.4.816-.888.008-.488-.36-.888-.816-.888zm2.92 0c-.456 0-.816.4-.816.888s.368.888.816.888c.456 0 .816-.4.816-.888s-.36-.888-.816-.888z"
     id="path2"
     style="fill:#ffffff" />
</svg>
