<svg id="b38cc349-38f0-4e0d-93d3-38b132647a49" data-name="Layer 1" xmlns="http://www.w3.org/2000/svg" viewBox="0 0 447.63 498.41"><path d="M229.18,221.68l-7.83,0c-.17-1.87-1.29-15.87,1.44-19.22a3.4,3.4,0,0,1,2.37-1.48c1.23,0,2.15,1.2,2.53,1.7C230.44,206.25,229.34,219.87,229.18,221.68Z" fill="#fff"/><path d="M221.36,287a414,414,0,0,1-54.79-3.65l-2.25-.3a3.44,3.44,0,0,1-2.3-1.38l-1.35-1.87a37.55,37.55,0,0,1-6.5-28.62l.86-4.76a3.44,3.44,0,0,1,3.25-2.86,14.5,14.5,0,0,1,3.23-4.81c.23-.23.47-.45.71-.66l.09-.46c-5.29-14.53-10.07-29.44-14.19-44.33-3.21-11.62-6.09-23.45-8.55-35.15-1.35-6.35-2.63-13-3.81-19.64l-.62-3.54a3.53,3.53,0,0,1,1.48-3.53l2.92-2A152.07,152.07,0,0,1,196.7,105.9L196,98.13a3.49,3.49,0,0,1,2.44-3.69l4.26-1.27a81.64,81.64,0,0,1,23.22-3.38h.45A80.92,80.92,0,0,1,247,92.61l4.47,1.21A3.51,3.51,0,0,1,254,97.59l-1,8.71a152.48,152.48,0,0,1,55,23.1l2.92,2a3.53,3.53,0,0,1,1.48,3.53l-.62,3.53C310.74,145,309.58,151,308.33,157c-2.58,12.48-5.62,25.08-9,37.46-3.87,14-8.33,28-13.26,41.74l.24.81a15.23,15.23,0,0,1,3.53,4.27l1.19-.12a3.43,3.43,0,0,1,3.72,2.9l.81,5.09a42.42,42.42,0,0,1-5.72,29l-1.31,2.14a3.41,3.41,0,0,1-2.39,1.59l-2.44.37a415.63,415.63,0,0,1-56.21,4.68q-3.06,0-6.07,0h0ZM165,279.14l2.06.28A409.93,409.93,0,0,0,221.36,283h0c2,0,4,0,6-.05a413.21,413.21,0,0,0,55.7-4.63l2.23-.34,1.2-2a38.37,38.37,0,0,0,5.18-26.24l-.74-4.67-1.07.12a3.36,3.36,0,0,1-3.35-1.8,11,11,0,0,0-3.11-3.68l-.51-.39-1-3.3.22-.61c5-13.81,9.48-28,13.39-42.07,3.39-12.29,6.41-24.81,9-37.2,1.24-6,2.39-12,3.51-18.47l.57-3.24L306,132.69a148.77,148.77,0,0,0-54-22.6,3.5,3.5,0,0,1-2.75-3.82l1-8.74-4.1-1.1a77.39,77.39,0,0,0-19.7-2.7h-.44A77.8,77.8,0,0,0,203.74,97l-3.9,1.16.74,7.82a3.5,3.5,0,0,1-2.8,3.77,148.18,148.18,0,0,0-56.1,23L139,134.55l.57,3.24c1.17,6.64,2.44,13.2,3.78,19.51,2.44,11.62,5.3,23.36,8.5,34.9,4.1,14.84,8.86,29.7,14.14,44.17a3.53,3.53,0,0,1,.13,2,9.55,9.55,0,0,0-.18,1.07l-.11.83-.66.5a10.49,10.49,0,0,0-3.43,4.59,3.38,3.38,0,0,1-3,2.16l-.8,4.4a33.49,33.49,0,0,0,5.81,25.55Z" fill="#58595b"/><path d="M303.24,136.87q-1.55,8.88-3.48,18.3c-2.43,11.74-5.36,24.06-8.9,36.89-4.55,16.4-9.54,31.59-14.65,45.47a5.77,5.77,0,0,1,.83,5,6.27,6.27,0,0,1,5.42,3.86,6.41,6.41,0,0,1-.13,4.71c1.52-.14,3-.28,4.54-.44a33.17,33.17,0,0,1-4.5,22.77A408.76,408.76,0,0,1,227.32,278a404.49,404.49,0,0,1-59.61-3.54,28.22,28.22,0,0,1-4.92-11.58,28.53,28.53,0,0,1,0-10.07c1.25.08,2.5.17,3.75.24-1.22-2.91-.79-6,1.06-7.85a5.89,5.89,0,0,1,3.51-1.58,7.94,7.94,0,0,1,.51-6.16c-5.26-14.18-10.39-29.74-15.06-46.61-3.32-12-6.1-23.53-8.42-34.58q-2.12-10-3.75-19.35a143.44,143.44,0,0,1,61.83-23.43c-.36-3.9-.74-7.79-1.1-11.69a72.22,72.22,0,0,1,39.66-.5q-.71,6.23-1.39,12.45A143.45,143.45,0,0,1,303.24,136.87Z" fill="none"/><path d="M229.18,221.68l-7.83,0c-.17-1.87-1.29-15.87,1.44-19.22a3.4,3.4,0,0,1,2.37-1.48c1.23,0,2.15,1.2,2.53,1.7C230.44,206.25,229.34,219.87,229.18,221.68Z" fill="#fff"/><path d="M181.24,228.34c-.08.13-.14.27-.21.41a2.32,2.32,0,0,0-.16.36,7,7,0,0,0-.54,2.38c0,.15,0,.31,0,.46a7.92,7.92,0,0,0,.3,2.19,7.71,7.71,0,0,0-7.12,1,7.31,7.31,0,0,0-1.87,2.27c-5.26-14.18-10.39-29.74-15.06-46.61-3.32-12-6.09-23.53-8.42-34.58a135.26,135.26,0,0,1,13.38-7.83l.12-.06c2.14,12.53,4.82,25.74,8.18,39.52C173.32,202.31,177.2,215.8,181.24,228.34Z" fill="#fff"/><path d="M286.41,147.61c-2.27,13.17-5.12,27-8.7,41.53-3.54,14.3-7.42,27.73-11.46,40.22a6.53,6.53,0,0,0-5.34-1.14c2.23-6.93,4.39-14.33,6.41-22.16s3.72-15.53,5.13-22.75a8.84,8.84,0,0,0-2.15-1.12,9,9,0,0,0-2.61-.53l-1.32,5.26a16.43,16.43,0,0,0-2.22-.54,21.85,21.85,0,0,0-2.54-.31c.38-1.78.77-3.55,1.15-5.33a11.85,11.85,0,0,0-2.54-.73,10.93,10.93,0,0,0-2.38-.15c-.3,1.79-.61,3.59-.91,5.37-.75-.16-1.57-.29-2.45-.39a26.51,26.51,0,0,0-2.8-.19c.14-1.72.3-3.43.45-5.14a12.53,12.53,0,0,0-2.55-.52,13.19,13.19,0,0,0-2.92,0q-.37,6.18-.87,12.56c-3-.5-6.32-.93-9.89-1.24q.6-9.93,1.44-19.43a9.88,9.88,0,0,0-2.56-.57,10.46,10.46,0,0,0-2.54.1q-.17,2.87-.31,5.71c-.61-.06-1.26-.11-2-.12a20.45,20.45,0,0,0-2.31.11c0-2-.07-3.93-.11-5.9a19.24,19.24,0,0,0-2.7-.08,18.13,18.13,0,0,0-2.92.33c0,2.05-.11,4.12-.17,6.17a13.48,13.48,0,0,0-1.76.05,17.81,17.81,0,0,0-1.93.28l-.9-5.87a13.58,13.58,0,0,0-2.91.29,15,15,0,0,0-2.14.63q.85,9.09,1.58,18.48c-3.86.38-7.43.93-10.65,1.54q-.92-7-1.86-14a11.56,11.56,0,0,0-2.72.29,11.12,11.12,0,0,0-2.09.69l1.23,5.82a15,15,0,0,0-2.39.36,14.53,14.53,0,0,0-1.56.48l-1.8-5.58a10.37,10.37,0,0,0-2.3.49,9.9,9.9,0,0,0-2.24,1.11c.37,1.72.72,3.43,1.09,5.15a17.42,17.42,0,0,0-2.07.47,14.83,14.83,0,0,0-2,.76q-.91-2.4-1.81-4.78a9,9,0,0,0-2.46.58,9.13,9.13,0,0,0-2.22,1.26q1.88,8.79,4.11,18,2.79,11.43,5.82,22.08a6.79,6.79,0,0,0-5.09,1.39c-.12.1-.23.19-.34.3l-.2.21a5.87,5.87,0,0,0-.92,1.24c-4-12.54-7.92-26-11.42-40.46-3.36-13.78-6-27-8.18-39.52l1.17-.59,1-.47c3-1.47,6.28-2.94,9.86-4.36L176,142l1.47-.54c1.36-.49,2.76-1,4.2-1.45s3.06-1,4.67-1.44l1.44-.41c2.69-.75,5.49-1.44,8.4-2.05,1.57-.33,3.17-.65,4.81-.94,2.34-.4,4.73-.76,7.18-1.05.21,2.23.42,4.45.64,6.68,3.28-.23,6.73-.4,10.35-.47.27,5.6.54,11.17.81,16.76a23.44,23.44,0,0,0,4.93.38,23,23,0,0,0,4.52-.61c.14-5.49.27-11,.4-16.45,3.67.12,7.19.35,10.51.64.26-2.35.52-4.7.8-7.06A144.44,144.44,0,0,1,286.41,147.61Z" fill="#a7a8aa"/><path d="M303.25,136.88c-1,5.91-2.18,12-3.49,18.3a131.81,131.81,0,0,0-11.84-6.81l-.45-.23-1.06-.53h0A144.15,144.15,0,0,0,241.13,134q1.14-10.12,2.26-20.28A143.29,143.29,0,0,1,303.25,136.88Z" fill="#fff"/><path d="M299.76,155.18c-2.43,11.74-5.36,24.06-8.9,36.88-4.55,16.41-9.53,31.59-14.65,45.47a4.47,4.47,0,0,0-.64-.74,5.47,5.47,0,0,0-6.9-.26,7.17,7.17,0,0,0-1.35-6.16,6.81,6.81,0,0,0-1.07-1c4-12.49,7.92-25.91,11.46-40.22,3.58-14.49,6.42-28.36,8.7-41.52h0l1.06.53.45.23A131.81,131.81,0,0,1,299.76,155.18Z" fill="#fff"/><path d="M282.47,246.36A6.29,6.29,0,0,0,277,242.5a5.7,5.7,0,0,0-.83-5,4.1,4.1,0,0,0-.64-.74,5.46,5.46,0,0,0-6.9-.26,7.17,7.17,0,0,0-1.35-6.16,6.38,6.38,0,0,0-1.07-1,6.53,6.53,0,0,0-5.34-1.14c2.23-6.93,4.39-14.33,6.41-22.16s3.72-15.53,5.13-22.75a8.84,8.84,0,0,0-2.15-1.12,9,9,0,0,0-2.61-.53l-1.32,5.26a16.43,16.43,0,0,0-2.22-.54,21.85,21.85,0,0,0-2.54-.31c.38-1.78.77-3.55,1.15-5.33a11.85,11.85,0,0,0-2.54-.73,10.93,10.93,0,0,0-2.38-.15c-.3,1.79-.61,3.59-.91,5.37-.75-.16-1.57-.29-2.45-.39a26.51,26.51,0,0,0-2.8-.19c.14-1.72.3-3.43.45-5.14a12.53,12.53,0,0,0-2.55-.52,13.19,13.19,0,0,0-2.92,0q-.37,6.18-.87,12.56c-3-.5-6.32-.93-9.89-1.24q.6-9.93,1.44-19.43a9.88,9.88,0,0,0-2.56-.57,10.46,10.46,0,0,0-2.54.1q-.17,2.87-.31,5.71c-.61-.06-1.26-.11-2-.12a20.45,20.45,0,0,0-2.31.11c0-2-.07-3.93-.11-5.9a19.24,19.24,0,0,0-2.7-.08,18.13,18.13,0,0,0-2.92.33c0,2.05-.11,4.12-.17,6.17a13.48,13.48,0,0,0-1.76.05,17.81,17.81,0,0,0-1.93.28l-.9-5.87a13.58,13.58,0,0,0-2.91.29,15,15,0,0,0-2.14.63q.85,9.09,1.58,18.48c-3.86.38-7.43.93-10.65,1.54q-.92-7-1.86-14a11.56,11.56,0,0,0-2.72.29,11.12,11.12,0,0,0-2.09.69l1.23,5.82a15,15,0,0,0-2.39.36,14.53,14.53,0,0,0-1.56.48l-1.8-5.58a10.37,10.37,0,0,0-2.3.49,9.9,9.9,0,0,0-2.24,1.11c.37,1.72.72,3.43,1.09,5.15a17.42,17.42,0,0,0-2.07.47,14.83,14.83,0,0,0-2,.76q-.91-2.4-1.81-4.78a9,9,0,0,0-2.46.58,9.13,9.13,0,0,0-2.22,1.26q1.88,8.79,4.11,18,2.79,11.43,5.82,22.08a6.79,6.79,0,0,0-5.09,1.39c-.12.1-.23.19-.34.3l-.2.21a5.87,5.87,0,0,0-.92,1.24c-.08.13-.14.27-.21.41a2.32,2.32,0,0,0-.16.36,7,7,0,0,0-.54,2.38c0,.15,0,.31,0,.46a7.92,7.92,0,0,0,.3,2.19,7.71,7.71,0,0,0-7.12,1,7.31,7.31,0,0,0-1.87,2.27,8,8,0,0,0-.51,6.16,5.92,5.92,0,0,0-3.51,1.58c-1.84,1.82-2.28,4.94-1,7.85,18.76,1.17,39,1.7,60.53,1.27,19.56-.4,38-1.56,55.25-3.23A6.45,6.45,0,0,0,282.47,246.36Zm-53.29-24.69-7.83,0c-.17-1.86-1.29-15.86,1.44-19.21a3.37,3.37,0,0,1,2.37-1.48c1.23,0,2.15,1.2,2.53,1.69C230.45,206.24,229.34,219.87,229.18,221.67Zm30.68-11a2.59,2.59,0,0,1-2.2,1.69,25.08,25.08,0,0,0-1.55,4.66,26.19,26.19,0,0,0-.65,5.27,11.65,11.65,0,0,1,2.87,4.38c1.86,5.23-.85,10.42-2.68,13.12a4,4,0,0,0-4,.86,4.14,4.14,0,0,0-1.7-5,3.91,3.91,0,0,0-3.94,0,4,4,0,0,0-1.1.91,4.06,4.06,0,0,0-2-3.12,11,11,0,0,1,10-11.84,27.65,27.65,0,0,0,1.07-6.06,29,29,0,0,0-.08-4.14,2.1,2.1,0,0,1-1-1.42,2.7,2.7,0,0,1,1-2.23A3.71,3.71,0,0,1,257,207a3.63,3.63,0,0,1,2.61,1.73A2.59,2.59,0,0,1,259.86,210.71Z" fill="#fff"/><path d="M259.86,210.72a2.58,2.58,0,0,1-2.2,1.68,25.8,25.8,0,0,0-2.2,9.94,11.58,11.58,0,0,1,2.87,4.38c1.86,5.23-.85,10.42-2.69,13.11a4,4,0,0,0-4,.87,4.14,4.14,0,0,0-1.7-5,3.91,3.91,0,0,0-3.94,0,3.66,3.66,0,0,0-1.1.9,4,4,0,0,0-2-3.11,11,11,0,0,1,10-11.84,26.35,26.35,0,0,0,1.07-9.33c0-.29-.05-.58-.07-.87a2.22,2.22,0,0,1-1-1.42,2.57,2.57,0,0,1,1-2.23A3.65,3.65,0,0,1,257,207a3.6,3.6,0,0,1,2.62,1.72A2.65,2.65,0,0,1,259.86,210.72Z" fill="#e03127"/><path d="M208.18,134.14c-2.45.29-4.84.65-7.18,1.05-1.64.29-3.24.61-4.81.94-2.91.61-5.71,1.3-8.4,2.05l-1.44.41c-1.61.46-3.16.94-4.67,1.44s-2.84,1-4.2,1.45L176,142l-2.37.92c-3.58,1.42-6.87,2.89-9.86,4.36l-1,.47-1.17.59-.12.06a135.26,135.26,0,0,0-13.38,7.83c-1.41-6.64-2.64-13.09-3.74-19.35a143.38,143.38,0,0,1,61.83-23.43Z" fill="#fff"/><path d="M244.78,101.28c-.46,4.15-.93,8.31-1.39,12.45q-1.12,10.14-2.26,20.28c-.27,2.36-.53,4.71-.79,7.07-3.33-.3-6.84-.53-10.51-.64-1.71-.06-3.47-.1-5.25-.12s-3.65,0-5.41,0c-3.62.07-7.08.23-10.36.46l-.63-6.68q-1-10.32-2-20.67l-1.11-11.69a72.48,72.48,0,0,1,39.66-.5Z" fill="#fff"/><path d="M287,260.64a33.34,33.34,0,0,1-4.6,12.76,407.27,407.27,0,0,1-55,4.58,404.65,404.65,0,0,1-59.62-3.53,28.4,28.4,0,0,1-4.92-21.66c1.25.08,2.5.17,3.76.24,18.76,1.17,39,1.71,60.53,1.27,19.56-.39,38-1.56,55.25-3.22,1.52-.14,3-.29,4.54-.45A33.54,33.54,0,0,1,287,260.64Z" fill="#fff"/><path d="M171.7,237.65l-.08-.21" fill="#fff"/><path d="M181.47,229.05c-.07-.24-.15-.47-.23-.7" fill="#fff"/><path d="M242.15,226.46q1.64-12.53,2.87-25.94c.28-3,.53-6,.76-8.92" fill="#fff"/><path d="M203,192.07c.39,3.06.79,6.13,1.18,9.21q1.78,13.88,3.46,27.62Z" fill="#fff"/><path d="M234.52,227.05q.19-15.13,1.06-31.32c.09-1.8.2-3.6.32-5.37" fill="#fff"/><path d="M213.68,190.53c.08,1,.15,2,.23,3q1.28,17.7,1.8,34.42Z" fill="#fff"/><path d="M202.16,242.58a5,5,0,0,1,1.65-4.78,4.75,4.75,0,0,1,5.33-.51,4.26,4.26,0,0,1,2.47-4.28,4.13,4.13,0,0,1,5.17,2" fill="#fff"/><path d="M222.77,243.17a3.57,3.57,0,0,1,2.47-2.85,3.47,3.47,0,0,1,3.77,1.26" fill="#fff"/><path d="M255.64,239.83a3.57,3.57,0,0,1,1.05.57,4,4,0,0,1,1.31,3.78" fill="#fff"/><path d="M237.88,234.78a3.86,3.86,0,0,1,3.86-1.77,3.77,3.77,0,0,1,1.21.45" fill="#fff"/><path d="M189.68,232.59a3,3,0,0,0-3.94-.67,3.15,3.15,0,0,0-1.07,4" fill="#fff"/><path d="M229.18,221.68l-7.83,0c-.17-1.87-1.29-15.87,1.44-19.22a3.4,3.4,0,0,1,2.37-1.48c1.23,0,2.15,1.2,2.53,1.7C230.44,206.25,229.34,219.87,229.18,221.68Z" fill="#fff"/><path d="M253.9,211.42a.17.17,0,0,1,0-.07" fill="#fff"/><path d="M229.83,140.43c-.13,5.49-.26,11-.4,16.45a23,23,0,0,1-4.52.61,23.44,23.44,0,0,1-4.93-.38c-.27-5.59-.54-11.16-.81-16.76,1.76,0,3.57,0,5.41,0S228.12,140.37,229.83,140.43Z" fill="#fff"/><path d="M246,235.67a18,18,0,0,1,.19-4.21,9.63,9.63,0,0,1,1.46-4,6.57,6.57,0,0,1,1.51-1.6,4.8,4.8,0,0,1,2-1,3.77,3.77,0,0,1,3.86,1.66l-.07.07a5,5,0,0,0-1.77-.82,3.69,3.69,0,0,0-1.81,0,6.62,6.62,0,0,0-3.12,2.06,9.2,9.2,0,0,0-1.6,3.65,17.24,17.24,0,0,0-.56,4.1Z" fill="#fff"/><path d="M241.2,142.14l-.94-.08c-5.18-.46-10.46-.71-15.69-.75s-10.49.12-15.69.5l-.94.07-3.86-40.82.77-.23a73.43,73.43,0,0,1,40.17-.51l.81.22ZM223,139.33h1.56c5,0,10,.27,14.9.68l4.23-38a71.51,71.51,0,0,0-37.56.49l3.52,37.26C214.11,139.48,218.59,139.33,223,139.33Z" fill="#58595b"/><path d="M299.25,156A138.19,138.19,0,0,0,241,135.09l.22-2a140.09,140.09,0,0,1,59,21.2Z" fill="#58595b"/><path d="M148.66,157.08l-1-1.65a139.77,139.77,0,0,1,60.46-22.27l.22,2A137.91,137.91,0,0,0,148.66,157.08Z" fill="#58595b"/><path d="M221.42,279a407,407,0,0,1-53.83-3.58l-.41-.05-.24-.34a29.4,29.4,0,0,1-5.1-22.43l.16-.86.85.06c21.29,1.43,42.9,1.94,64.21,1.51,19.87-.41,40-1.64,59.72-3.67l.9-.09.14.91a34.12,34.12,0,0,1-4.62,23.45l-.24.38-.44.07A406.35,406.35,0,0,1,227.34,279C225.37,279,223.4,279,221.42,279Zm-53.17-5.48A405.18,405.18,0,0,0,227.31,277a406,406,0,0,0,54.49-4.5,32.28,32.28,0,0,0,4.25-20.78c-19.51,2-39.34,3.18-59,3.58-21.08.43-42.44-.06-63.5-1.46a27.39,27.39,0,0,0,4.65,19.7Z" fill="#58595b"/><path d="M267.16,229.67l-1.83-.62c4.27-13.18,8.11-26.69,11.44-40.15,3.37-13.64,6.29-27.59,8.69-41.46l1.9.34c-2.4,13.92-5.34,27.92-8.72,41.61C275.3,202.89,271.44,216.45,267.16,229.67Z" fill="#58595b"/><path d="M170.8,238c-5.7-15.33-10.8-31.11-15.16-46.89-4.91-17.73-9-35.91-12.19-54l-.12-.64.53-.35a143.6,143.6,0,0,1,62.25-23.59l.23,2a141.69,141.69,0,0,0-60.88,22.91c3.15,17.85,7.2,35.74,12,53.2,4.35,15.73,9.44,31.45,15.11,46.73Z" fill="#58595b"/><path d="M180.31,228.68c-4.32-13.29-8.2-26.92-11.53-40.52-3.19-13-5.95-26.33-8.21-39.57l1.9-.33c2.25,13.19,5,26.45,8.18,39.42,3.32,13.55,7.18,27.13,11.49,40.38Z" fill="#58595b"/><path d="M261.6,228.46l-1.38-.47c2.34-7.27,4.49-14.71,6.4-22.12s3.57-14.78,5-22.21a8.55,8.55,0,0,0-1.58-.77,8.72,8.72,0,0,0-1.83-.44l-1.34,5.39-.72-.21a20.37,20.37,0,0,0-2.15-.52,18.4,18.4,0,0,0-2.45-.29l-.85,0,1.2-5.56a12.46,12.46,0,0,0-1.82-.47,10.24,10.24,0,0,0-1.66-.14l-.92,5.52-.73-.16c-.79-.16-1.6-.29-2.4-.39s-1.81-.16-2.73-.18h-.78l.48-5.32a11.77,11.77,0,0,0-1.85-.33,13,13,0,0,0-2.16,0c-.43,7-1,14-1.61,20.89-.79,8.64-1.76,17.37-2.87,26l-1.44-.19c1.11-8.58,2.08-17.3,2.87-25.92.66-7.11,1.21-14.33,1.64-21.47l0-.62.6-.07a14,14,0,0,1,5.76.51l.57.18-.45,5c.71,0,1.41.09,2.1.17s1.19.16,1.78.27l.88-5.22.58,0a11.87,11.87,0,0,1,2.53.15,12.48,12.48,0,0,1,2.7.78l.57.24-1.1,5.11c.59.05,1.19.14,1.77.24s1.06.22,1.58.36l1.28-5.12.6,0a10,10,0,0,1,2.81.58,9.83,9.83,0,0,1,2.32,1.2l.39.27-.09.48c-1.49,7.63-3.22,15.3-5.14,22.8S263.94,221.16,261.6,228.46Z" fill="#58595b"/><path d="M282.24,251a6,6,0,0,0-.56-5.5,6.06,6.06,0,0,0-4.68-2.49l-.64,0,.16-.68a5.28,5.28,0,0,0-.13-3.05,4.47,4.47,0,0,0-1.78-2.3,4.53,4.53,0,0,0-2.75-.68,5.19,5.19,0,0,0-2.62,1l-2,1.5.51-2.57a8.24,8.24,0,0,0,0-2.93,6,6,0,0,0-1.22-2.65,6.35,6.35,0,0,0-2.42-1.81,7.07,7.07,0,0,0-3.16-.57l0-.19a6.23,6.23,0,0,1,3.51-.31,6.7,6.7,0,0,1,3.29,1.73,7,7,0,0,1,1.94,3.34,7.85,7.85,0,0,1,0,3.91l-1.51-1.08a6.39,6.39,0,0,1,7.35,0,6,6,0,0,1,2.17,3.16,6.68,6.68,0,0,1-.05,3.76l-.49-.7a6.9,6.9,0,0,1,3,1,6.46,6.46,0,0,1,2.19,2.22,6,6,0,0,1,.83,3,6.81,6.81,0,0,1-.65,3Z" fill="#58595b"/><path d="M187.78,225.3a7.61,7.61,0,0,0-3.14.77,5.88,5.88,0,0,0-2.27,2,6.5,6.5,0,0,0-1,2.81,7.88,7.88,0,0,0,.22,3l.5,1.9-1.81-.65a7.93,7.93,0,0,0-3.6-.4,6,6,0,0,0-3.26,1.57,6.74,6.74,0,0,0-1.87,3.28,7.62,7.62,0,0,0,.08,3.88l.19.66-.64,0a5.87,5.87,0,0,0-2.64.85,4.93,4.93,0,0,0-1.84,2.14,7.61,7.61,0,0,0,0,5.87l-.18.08a8.83,8.83,0,0,1-.8-3,7.16,7.16,0,0,1,.43-3.17,5.84,5.84,0,0,1,1.94-2.61,6.37,6.37,0,0,1,3-1.18l-.45.7a9,9,0,0,1-.33-4.51,8.23,8.23,0,0,1,2.06-4.08,7.69,7.69,0,0,1,4-2.26,8.84,8.84,0,0,1,4.61.25l-1.32,1.25a8.44,8.44,0,0,1-.16-3.87,7.51,7.51,0,0,1,1.66-3.48,6.34,6.34,0,0,1,3.14-2,6.7,6.7,0,0,1,3.53,0Z" fill="#58595b"/><path d="M207,229c-1.11-9.13-2.27-18.42-3.45-27.62Q202,190,200.55,178.8a11,11,0,0,0-3.35.68l1.28,6.05-.84.06a13.39,13.39,0,0,0-2.27.35,12.23,12.23,0,0,0-1.49.45l-.7.25-1.84-5.72a8.58,8.58,0,0,0-1.57.39,8.82,8.82,0,0,0-1.65.76l1.14,5.41-.77.11a15.19,15.19,0,0,0-2,.46,14,14,0,0,0-1.88.72l-.69.32-1.88-5a9.11,9.11,0,0,0-1.72.47,9.29,9.29,0,0,0-1.68.89c1.24,5.84,2.59,11.71,4,17.47,1.79,7.35,3.75,14.77,5.82,22.06l-1.39.41c-2.08-7.3-4-14.74-5.84-22.11-1.45-5.93-2.83-12-4.11-18l-.1-.46.37-.29a10.23,10.23,0,0,1,2.41-1.36,10.07,10.07,0,0,1,2.64-.63l.55,0,1.73,4.59c.45-.18.9-.34,1.36-.48s.94-.26,1.41-.36l-1-4.9.42-.28a10.63,10.63,0,0,1,2.39-1.18,10.15,10.15,0,0,1,2.49-.53l.57,0,1.74,5.43c.31-.1.62-.19.94-.26a15.82,15.82,0,0,1,1.67-.31l-1.18-5.6.54-.24a12.64,12.64,0,0,1,2.23-.73,12.13,12.13,0,0,1,2.89-.31h.62l.08.63q1.55,11.56,3,23.23c1.18,9.2,2.34,18.49,3.45,27.63Z" fill="#58595b"/><path d="M203.16,192.8l-.27-1.46c3.55-.67,7.16-1.19,10.74-1.55l.14,1.48C210.23,191.62,206.66,192.13,203.16,192.8Z" fill="#58595b"/><path d="M245.67,192.33c-3.25-.54-6.55-1-9.84-1.23l.12-1.48c3.32.28,6.67.7,10,1.25Z" fill="#58595b"/><path d="M215,228c-.38-11.42-1-23-1.81-34.4-.51-7.17-1.12-14.39-1.8-21.47l-.06-.57.52-.2a15.71,15.71,0,0,1,2.25-.66,16.2,16.2,0,0,1,3.06-.31h.62l.88,5.74c.42-.07.85-.13,1.27-.16s.75,0,1.12,0l.16-6,.58-.11a19.14,19.14,0,0,1,3-.35,18.72,18.72,0,0,1,2.8.09l.65.06.1,5.77c.54,0,1.09,0,1.62,0l1.28.06.29-5.53.58-.1a10.79,10.79,0,0,1,2.72-.11,10.42,10.42,0,0,1,2.75.61l.53.19-.05.57c-.72,8.22-1.32,16.56-1.77,24.79-.56,10.36-.92,20.89-1.06,31.28l-1.45,0c.14-10.41.5-21,1.07-31.35.44-8,1-16.2,1.72-24.24a9.86,9.86,0,0,0-1.86-.36,9.72,9.72,0,0,0-1.79,0l-.32,5.88-.76-.08a17.67,17.67,0,0,0-1.9-.13,18.3,18.3,0,0,0-2.23.11l-.79.08-.11-6a18.47,18.47,0,0,0-2,0,18.7,18.7,0,0,0-2.23.22l-.17,6.31-.73,0a15.7,15.7,0,0,0-1.68,0,16.7,16.7,0,0,0-1.84.28l-.74.17-.93-6a12.9,12.9,0,0,0-2.15.27c-.51.11-1,.25-1.51.41.66,6.91,1.25,13.95,1.76,20.94.82,11.42,1.42,23,1.8,34.45Z" fill="#58595b"/><path d="M202.07,242.6a5.15,5.15,0,0,1,0-2.86,5.28,5.28,0,0,1,1.61-2.48,5.38,5.38,0,0,1,5.79-.65l-1.12.75A5.5,5.5,0,0,1,209,234a4.24,4.24,0,0,1,6-1.56,4,4,0,0,1,1.82,2.51l-.17.09a5,5,0,0,0-2.22-1.33,3.64,3.64,0,0,0-2.2.08,3.84,3.84,0,0,0-1.66,1.26,3.43,3.43,0,0,0-.71,2.15l0,1.48-1.14-.73a4.17,4.17,0,0,0-4.5.06,4.72,4.72,0,0,0-2,4.52Z" fill="#58595b"/><path d="M222.68,243.15a3.7,3.7,0,0,1,.62-2.15,3.9,3.9,0,0,1,1.89-1.49,3,3,0,0,1,2.51-.06,2.45,2.45,0,0,1,1.39,2.06l-.15.13a14.18,14.18,0,0,0-1.88-.33,9.63,9.63,0,0,0-1.49-.26,3,3,0,0,0-1.56.61,3.51,3.51,0,0,0-1.14,1.53Z" fill="#58595b"/><path d="M237.8,234.72a4.14,4.14,0,0,1,1.8-1.69,3.93,3.93,0,0,1,2.51-.31,4.24,4.24,0,0,1,2.26,1.33,4.66,4.66,0,0,1,1.11,2.47l-1-.36a5.09,5.09,0,0,1,5.75-1.22,5.49,5.49,0,0,1,2.44,2.09,5.18,5.18,0,0,1,.78,3.22l-1.43-1a4.58,4.58,0,0,1,4.86.53,4,4,0,0,1,1.31,2.11,4.07,4.07,0,0,1-.12,2.3l-.19,0a4.87,4.87,0,0,0-.6-1.91,3.09,3.09,0,0,0-1.25-1.21,3.38,3.38,0,0,0-3.14.05l-1.52.79.09-1.79a4.35,4.35,0,0,0-.41-2.09,3.55,3.55,0,0,0-1.49-1.58,3.72,3.72,0,0,0-4.27.58l-.92.86-.06-1.23a3.57,3.57,0,0,0-2.39-3.2,3.65,3.65,0,0,0-4,1.4Z" fill="#58595b"/><path d="M189.61,232.65a2.82,2.82,0,0,0-1.88-.67,2.51,2.51,0,0,0-1.61.63c-.43.4-.49,1-.75,1.39a6.48,6.48,0,0,0-.61,1.91l-.17.09a2.44,2.44,0,0,1-1.08-2.49,3.08,3.08,0,0,1,1.76-2.22,3.43,3.43,0,0,1,2.61-.28,3.2,3.2,0,0,1,1.88,1.52Z" fill="#58595b"/><path d="M229.84,222.42l-9.16,0-.06-.67c-.32-3.77-1.14-16.36,1.62-19.75a4,4,0,0,1,2.91-1.75h0c1.59,0,2.69,1.44,3.1,2,2.77,3.63,2,15.88,1.64,19.55ZM222,220.9l6.5,0c.54-6.84.49-15.37-1.39-17.83-.32-.43-1.08-1.42-2-1.42h0c-.82,0-1.51.85-1.81,1.21C221.49,205.18,221.46,213.86,222,220.9Z" fill="#58595b"/><path d="M224.17,158.49a23.59,23.59,0,0,1-4.36-.41l-.76-.14-.85-17.54,1.93-.1.78,16a21.94,21.94,0,0,0,7.58-.19l.38-15.67,1.93.05-.42,17.21-.73.18a24.13,24.13,0,0,1-4.71.62Z" fill="#58595b"/><path d="M277.12,237.88l-1.81-.7c5.48-14.85,10.39-30.12,14.62-45.39,4.94-17.86,9.06-36.17,12.25-54.45a142,142,0,0,0-58.92-22.63l.26-1.95a143.89,143.89,0,0,1,60.26,23.3l.52.35-.11.64c-3.22,18.55-7.39,37.15-12.41,55.28C287.54,207.65,282.61,223,277.12,237.88Z" fill="#58595b"/><path d="M129.78,335.77c1.86,1.6,2.78,4,2.78,7.12s-.92,5.51-2.78,7.12-4.59,2.41-8.22,2.41h-2.78v7.95h-6.06v-27h8.84Q127,333.35,129.78,335.77Zm-8.37,11.4a5.15,5.15,0,0,0,3.55-1.08,4.91,4.91,0,0,0,0-6.41,5.15,5.15,0,0,0-3.55-1.08h-2.63v8.57Z" fill="#58595b"/><path d="M143.18,349.06v6.06h12.08v5.25H137.12v-27h17.95v5.25H143.18V344h11.54v5.09Z" fill="#58595b"/><path d="M163.75,360.35a15,15,0,0,1-3.82-1.56v-6.37a14,14,0,0,0,4,2.18,12.17,12.17,0,0,0,4.26.83q4,0,4-2.7a2.54,2.54,0,0,0-.82-2,6.32,6.32,0,0,0-2.62-1.25l-2.89-.77q-6.34-1.71-6.34-7.84a7.64,7.64,0,0,1,1.14-4.09,7.94,7.94,0,0,1,3.4-3,12.45,12.45,0,0,1,5.46-1.1,13.89,13.89,0,0,1,3.61.45,13.11,13.11,0,0,1,3.34,1.41v6.25a13.62,13.62,0,0,0-3.36-1.95,10.37,10.37,0,0,0-3.7-.64,5,5,0,0,0-2.94.74,2.26,2.26,0,0,0-1,1.93,2.15,2.15,0,0,0,.69,1.62,5.31,5.31,0,0,0,2.24,1.08l3.44,1q6.45,1.81,6.45,7.8a8.31,8.31,0,0,1-1.22,4.52,7.85,7.85,0,0,1-3.47,3,12.67,12.67,0,0,1-5.31,1A17,17,0,0,1,163.75,360.35Z" fill="#58595b"/><path d="M206.17,333.35l-10.69,12.43,12.2,14.59h-7.84L189.5,348.1v12.27h-6.06v-27h6.06v11l9.41-11Z" fill="#58595b"/><path d="M214,359.24a12.39,12.39,0,0,1-5-4.93,16.24,16.24,0,0,1,0-14.9,12.43,12.43,0,0,1,5-4.92,16.56,16.56,0,0,1,14.7,0,12.43,12.43,0,0,1,5,4.92,16.16,16.16,0,0,1,0,14.9,12.39,12.39,0,0,1-5,4.93,16.65,16.65,0,0,1-14.7,0Zm13-6.14a10.12,10.12,0,0,0,0-12.47,8.09,8.09,0,0,0-11.38,0,10.12,10.12,0,0,0,0,12.47,8.11,8.11,0,0,0,11.38,0Z" fill="#58595b"/><path d="M251,351.15l7-17.8h7.11l-12.24,27H249l-12.2-27h7.1Z" fill="#58595b"/><path d="M286.81,349.1V333.35h5.9v27h-3.39l-14.86-15.75v15.75h-5.91v-27H272Z" fill="#58595b"/><path d="M305,360.37h-6.06v-27H305Z" fill="#58595b"/><path d="M333.86,333.35l-10.69,12.43,12.2,14.59h-7.84L317.19,348.1v12.27h-6.06v-27h6.06v11l9.41-11Z" fill="#58595b"/><path d="M94.7,400.52a8.78,8.78,0,0,1-3.56-3.73A12.53,12.53,0,0,1,89.89,391a15.31,15.31,0,0,1,1.58-7,12,12,0,0,1,4.37-4.81,11.59,11.59,0,0,1,6.28-1.74,11.18,11.18,0,0,1,5.5,1.3,8.66,8.66,0,0,1,3.57,3.74,12.61,12.61,0,0,1,1.23,5.76,15.25,15.25,0,0,1-1.57,7,11.64,11.64,0,0,1-10.66,6.55A11,11,0,0,1,94.7,400.52Zm9.17-4.25a7.59,7.59,0,0,0,2.43-3.2,11.5,11.5,0,0,0,.89-4.62,7.9,7.9,0,0,0-1.32-4.89,4.64,4.64,0,0,0-4-1.74A5.7,5.7,0,0,0,98.45,383a7.78,7.78,0,0,0-2.41,3.2,11.57,11.57,0,0,0-.89,4.62,8,8,0,0,0,1.32,4.9,4.62,4.62,0,0,0,3.92,1.73A5.66,5.66,0,0,0,103.87,396.27Z" fill="#e03127"/><path d="M133.39,377.29,131.29,391c-.27,1.65-.48,2.87-.64,3.67q-.3,1.58-.45,2.58a13.83,13.83,0,0,0-.15,2,12.3,12.3,0,0,0,.17,2.07h-4.87a9.13,9.13,0,0,1-.2-2,7.23,7.23,0,0,1-2.18,1.87,5.29,5.29,0,0,1-2.62.67,5.09,5.09,0,0,1-4.11-1.89,7.66,7.66,0,0,1-1.59-5.11,14.74,14.74,0,0,1,1-5.38,9.3,9.3,0,0,1,2.8-4,6.51,6.51,0,0,1,4.23-1.48,4.82,4.82,0,0,1,2.72.73,4.74,4.74,0,0,1,1.72,2.1l.33-2.33,1.1-7.17ZM125.09,396a8.63,8.63,0,0,0,1.16-4.75,3.88,3.88,0,0,0-.7-2.52,2.3,2.3,0,0,0-1.86-.85,3.49,3.49,0,0,0-3,1.78,8.65,8.65,0,0,0-1.15,4.75,3.86,3.86,0,0,0,.7,2.52,2.23,2.23,0,0,0,1.83.85A3.53,3.53,0,0,0,125.09,396Z" fill="#e03127"/><path d="M149.67,385.84a7.71,7.71,0,0,1,1.58,5.11,14.83,14.83,0,0,1-1,5.39,9.42,9.42,0,0,1-2.79,4,6.5,6.5,0,0,1-4.25,1.49,4.77,4.77,0,0,1-2.58-.67,4.72,4.72,0,0,1-1.72-1.87l-1.33,9.37h-4.77l3.44-24.16h4.76l-.3,2a5.88,5.88,0,0,1,4.8-2.53A5.12,5.12,0,0,1,149.67,385.84ZM145.32,396a9,9,0,0,0,1.1-4.75,3.88,3.88,0,0,0-.7-2.52,2.29,2.29,0,0,0-1.83-.85,3.34,3.34,0,0,0-2.72,1.42,8.34,8.34,0,0,0-1.42,4.35q-.06.66-.06.9a3.62,3.62,0,0,0,.71,2.42,2.56,2.56,0,0,0,2,.81A3.29,3.29,0,0,0,145.32,396Z" fill="#e03127"/><path d="M165.52,384.59v4.8a3.8,3.8,0,0,0-1.44-.27,4.09,4.09,0,0,0-3.51,1.89,13.49,13.49,0,0,0-1.85,5.88l-.6,4.4h-4.8l2.37-16.83h4.56l-.57,4c1.29-2.66,2.92-4,4.87-4A3.7,3.7,0,0,1,165.52,384.59Z" fill="#e03127"/><path d="M173.65,388.22l-1.2,7.54a4.93,4.93,0,0,0-.1,1,1,1,0,0,0,.28.76,1,1,0,0,0,.75.27,3.39,3.39,0,0,0,1.7-.5,12.59,12.59,0,0,0,2.1-1.63v4.43a7.79,7.79,0,0,1-2.43,1.25,9,9,0,0,1-2.73.42,4.65,4.65,0,0,1-3.25-1.12,4.23,4.23,0,0,1-1.25-3.35,9.91,9.91,0,0,1,.1-1.4l1.26-7.7h-2.36l.5-3.76h2.46l.6-3.57,4.87-.73-.7,4.3h4.27l-.54,3.76Z" fill="#e03127"/><path d="M184.45,401.29h-4.77L182,384.46h4.76Zm-1.38-20a2.6,2.6,0,0,1-.75-1.87,3,3,0,0,1,.91-2.2,3,3,0,0,1,2.22-.9,2.47,2.47,0,0,1,1.85.78,2.63,2.63,0,0,1,.75,1.89,2.9,2.9,0,0,1-.93,2.16,3,3,0,0,1-2.14.9A2.56,2.56,0,0,1,183.07,381.26Z" fill="#e03127"/><path d="M201,401.29h-4.77l3.4-24h4.77Z" fill="#e03127"/><path d="M223,384.46,222,391c-.27,1.65-.48,2.87-.64,3.67-.19,1.05-.35,1.91-.45,2.58a15.36,15.36,0,0,0-.14,2,12.33,12.33,0,0,0,.16,2.07H216a8.58,8.58,0,0,1-.2-2,7.38,7.38,0,0,1-2.19,1.87,5.28,5.28,0,0,1-2.61.67,5.11,5.11,0,0,1-4.12-1.89,7.66,7.66,0,0,1-1.58-5.11,14.74,14.74,0,0,1,1-5.38,9.38,9.38,0,0,1,2.8-4,6.54,6.54,0,0,1,4.24-1.48,4.59,4.59,0,0,1,4.43,2.76l.33-2.26ZM215.75,396a8.54,8.54,0,0,0,1.17-4.75,3.94,3.94,0,0,0-.7-2.52,2.32,2.32,0,0,0-1.87-.85,3.51,3.51,0,0,0-3,1.78,8.65,8.65,0,0,0-1.15,4.75,3.86,3.86,0,0,0,.7,2.52,2.26,2.26,0,0,0,1.83.85A3.53,3.53,0,0,0,215.75,396Z" fill="#e03127"/><path d="M240.5,385.84a7.71,7.71,0,0,1,1.58,5.11,14.63,14.63,0,0,1-1,5.39,9.31,9.31,0,0,1-2.78,4,6.52,6.52,0,0,1-4.25,1.49,5,5,0,0,1-2.75-.75,4.69,4.69,0,0,1-1.75-2.15l-.37,2.4h-4.66l3.67-24.1H233l-1,6.8-.53,2.67a6,6,0,0,1,4.93-2.7A5.12,5.12,0,0,1,240.5,385.84ZM236.15,396a9,9,0,0,0,1.1-4.75,3.94,3.94,0,0,0-.7-2.52,2.29,2.29,0,0,0-1.83-.85,3.36,3.36,0,0,0-2.75,1.42,8.34,8.34,0,0,0-1.42,4.35,7.64,7.64,0,0,0-.07.86,3.65,3.65,0,0,0,.72,2.46,2.59,2.59,0,0,0,2.05.81A3.3,3.3,0,0,0,236.15,396Z" fill="#e03127"/><path d="M247.78,400.79a6.47,6.47,0,0,1-2.55-2.69,8.14,8.14,0,0,1-.85-3.75,12.05,12.05,0,0,1,1.18-5.46,8.74,8.74,0,0,1,3.27-3.65,8.88,8.88,0,0,1,4.78-1.28,8,8,0,0,1,4.15,1,6.57,6.57,0,0,1,2.59,2.74,8.34,8.34,0,0,1,.86,3.78,11.71,11.71,0,0,1-1.2,5.43,8.69,8.69,0,0,1-3.31,3.6,9.1,9.1,0,0,1-4.79,1.27A8.07,8.07,0,0,1,247.78,400.79Zm7.2-4.74a8.88,8.88,0,0,0,1.1-4.73,3.67,3.67,0,0,0-.78-2.53,2.54,2.54,0,0,0-2-.87,3.31,3.31,0,0,0-2.95,1.77,9,9,0,0,0-1.09,4.76,3.65,3.65,0,0,0,.77,2.5,2.47,2.47,0,0,0,1.93.87A3.35,3.35,0,0,0,255,396.05Z" fill="#e03127"/><path d="M275.48,384.59v4.8a3.79,3.79,0,0,0-1.43-.27,4.09,4.09,0,0,0-3.52,1.89,13.49,13.49,0,0,0-1.85,5.88l-.6,4.4h-4.8l2.37-16.83h4.56l-.56,4q1.94-4,4.86-4A3.7,3.7,0,0,1,275.48,384.59Z" fill="#e03127"/><path d="M293.71,384.46l-1,6.49c-.26,1.65-.48,2.87-.63,3.67q-.3,1.58-.45,2.58a13.83,13.83,0,0,0-.15,2,11.34,11.34,0,0,0,.17,2.07h-4.87a9.13,9.13,0,0,1-.2-2,7.35,7.35,0,0,1-2.18,1.87,5.35,5.35,0,0,1-2.62.67,5.13,5.13,0,0,1-4.12-1.89,7.71,7.71,0,0,1-1.58-5.11,14.54,14.54,0,0,1,1-5.38,9.21,9.21,0,0,1,2.8-4,6.51,6.51,0,0,1,4.23-1.48,4.83,4.83,0,0,1,2.68.71,4.78,4.78,0,0,1,1.75,2.05l.34-2.26ZM286.51,396a8.54,8.54,0,0,0,1.17-4.75,3.88,3.88,0,0,0-.7-2.52,2.32,2.32,0,0,0-1.87-.85,3.52,3.52,0,0,0-3.05,1.78,8.74,8.74,0,0,0-1.15,4.75,3.92,3.92,0,0,0,.7,2.52,2.26,2.26,0,0,0,1.84.85A3.52,3.52,0,0,0,286.51,396Z" fill="#e03127"/><path d="M302.74,388.22l-1.2,7.54a5.71,5.71,0,0,0-.1,1,1,1,0,0,0,.29.76,1,1,0,0,0,.75.27,3.45,3.45,0,0,0,1.7-.5,12.59,12.59,0,0,0,2.1-1.63v4.43a8,8,0,0,1-2.44,1.25,9,9,0,0,1-2.73.42,4.67,4.67,0,0,1-3.25-1.12,4.27,4.27,0,0,1-1.25-3.35,9.91,9.91,0,0,1,.1-1.4l1.27-7.7h-2.37l.5-3.76h2.47l.6-3.57,4.86-.73-.7,4.3h4.27l-.53,3.76Z" fill="#e03127"/><path d="M312.08,400.79a6.35,6.35,0,0,1-2.55-2.69,8.14,8.14,0,0,1-.85-3.75,12.05,12.05,0,0,1,1.18-5.46,8.74,8.74,0,0,1,3.27-3.65,8.88,8.88,0,0,1,4.78-1.28,8,8,0,0,1,4.15,1,6.48,6.48,0,0,1,2.58,2.74,8.21,8.21,0,0,1,.87,3.78,11.71,11.71,0,0,1-1.2,5.43,8.64,8.64,0,0,1-3.32,3.6,9.06,9.06,0,0,1-4.78,1.27A8.07,8.07,0,0,1,312.08,400.79Zm7.2-4.74a8.88,8.88,0,0,0,1.1-4.73,3.62,3.62,0,0,0-.79-2.53,2.51,2.51,0,0,0-1.95-.87,3.33,3.33,0,0,0-2.95,1.77,9.09,9.09,0,0,0-1.08,4.76,3.65,3.65,0,0,0,.77,2.5,2.46,2.46,0,0,0,1.93.87A3.36,3.36,0,0,0,319.28,396.05Z" fill="#e03127"/><path d="M339.78,384.59v4.8a3.84,3.84,0,0,0-1.44-.27,4.07,4.07,0,0,0-3.51,1.89,13.49,13.49,0,0,0-1.85,5.88l-.6,4.4h-4.8l2.36-16.83h4.57l-.57,4q1.94-4,4.87-4A3.76,3.76,0,0,1,339.78,384.59Z" fill="#e03127"/><path d="M345.28,401.29h-4.77l2.33-16.83h4.77Zm-1.39-20a2.6,2.6,0,0,1-.75-1.87,3,3,0,0,1,.92-2.2,3,3,0,0,1,2.22-.9,2.47,2.47,0,0,1,1.85.78,2.63,2.63,0,0,1,.75,1.89,2.91,2.91,0,0,1-.94,2.16,3,3,0,0,1-2.13.9A2.57,2.57,0,0,1,343.89,381.26Z" fill="#e03127"/><path d="M345.34,408.62a16.53,16.53,0,0,0,2.94-4.35,21.92,21.92,0,0,0,1.53-5.91l2-13.9h4.76l-2,14a25.23,25.23,0,0,1-1.43,6,12.5,12.5,0,0,1-2.7,4.1Zm7.42-27.36a2.6,2.6,0,0,1-.75-1.87,2.93,2.93,0,0,1,.92-2.2,3,3,0,0,1,2.21-.9,2.45,2.45,0,0,1,1.85.78,2.63,2.63,0,0,1,.75,1.89,2.9,2.9,0,0,1-.93,2.16,3,3,0,0,1-2.13.9A2.57,2.57,0,0,1,352.76,381.26Z" fill="#e03127"/></svg>