<svg id="b5780321-32e4-422c-b912-4dc5bf083116" data-name="Layer 1" xmlns="http://www.w3.org/2000/svg" viewBox="0 0 707.24 269.75"><path d="M171,164l-6.75,0c-.14-1.63-1.1-13.89,1.25-16.82a2.92,2.92,0,0,1,2-1.3c1.06,0,1.85,1.06,2.17,1.49C172,150.51,171.08,162.43,171,164Z" fill="#fff"/><path d="M164.22,221.17A350.89,350.89,0,0,1,117,218l-1.93-.27a3,3,0,0,1-2-1.21l-1.16-1.63a33.17,33.17,0,0,1-5.6-25.05l.74-4.17a3,3,0,0,1,2.8-2.51,12.87,12.87,0,0,1,2.78-4.21l.62-.57c0-.13,0-.27.07-.41-4.56-12.71-8.67-25.76-12.22-38.8-2.77-10.16-5.25-20.51-7.37-30.76-1.16-5.55-2.27-11.34-3.28-17.19l-.53-3.09A3.11,3.11,0,0,1,91.2,85l2.52-1.74A130,130,0,0,1,143,62.68l-.63-6.8a3.06,3.06,0,0,1,2.1-3.23l3.67-1.11a69,69,0,0,1,20-3h.39a68.94,68.94,0,0,1,17.81,2.47l3.85,1.05a3.07,3.07,0,0,1,2.17,3.31L191.51,63a130.42,130.42,0,0,1,47.42,20.23L241.45,85a3.11,3.11,0,0,1,1.27,3.09l-.53,3.09c-1,5.69-2,11-3,16.27-2.23,10.92-4.85,21.95-7.79,32.79-3.34,12.25-7.19,24.53-11.43,36.53l.21.71a13,13,0,0,1,3,3.74l1-.11a3,3,0,0,1,3.2,2.54l.71,4.45a38.16,38.16,0,0,1,.11,11.14,37.28,37.28,0,0,1-5,14.23l-1.13,1.87a2.93,2.93,0,0,1-2.06,1.4l-2.1.32a352.9,352.9,0,0,1-48.43,4.09c-1.76,0-3.5,0-5.22,0h0Zm-48.55-6.86,1.77.24a347.91,347.91,0,0,0,46.78,3.17h0c1.7,0,3.43,0,5.18,0a349.77,349.77,0,0,0,48-4.06l1.93-.29,1-1.72a33.72,33.72,0,0,0,4.57-12.88,34.48,34.48,0,0,0-.1-10.09l-.65-4.08-.92.1a2.85,2.85,0,0,1-2.88-1.58,9.62,9.62,0,0,0-2.68-3.21l-.44-.34-.83-2.89.19-.54c4.29-12.09,8.17-24.48,11.54-36.82,2.92-10.76,5.52-21.72,7.73-32.56,1.07-5.22,2.06-10.51,3-16.16l.49-2.84-2.31-1.59a127,127,0,0,0-46.57-19.78A3.07,3.07,0,0,1,188.16,63l.84-7.64-3.53-1a65.62,65.62,0,0,0-17-2.36h-.38A65.69,65.69,0,0,0,149,54.86l-3.36,1,.63,6.84A3.05,3.05,0,0,1,143.9,66,126.89,126.89,0,0,0,95.56,86.15l-2.31,1.6.49,2.84c1,5.81,2.1,11.56,3.26,17.07,2.1,10.18,4.57,20.45,7.32,30.55,3.54,13,7.63,26,12.18,38.66a3,3,0,0,1,.11,1.72c-.06.31-.11.62-.15.94l-.1.72-.56.43c-.29.23-.57.48-.84.74a9.41,9.41,0,0,0-2.12,3.29,2.92,2.92,0,0,1-2.56,1.89l-.68,3.85a29.58,29.58,0,0,0,5,22.36Z" fill="#58595b"/><path d="M234.76,89.79q-1.33,7.77-3,16c-2.1,10.28-4.62,21.06-7.67,32.29-3.92,14.36-8.22,27.65-12.62,39.8a5.09,5.09,0,0,1,.71,4.35,5.39,5.39,0,0,1,4.67,3.37,5.74,5.74,0,0,1-.11,4.13c1.31-.12,2.62-.25,3.91-.39a29.53,29.53,0,0,1-3.87,19.93,346,346,0,0,1-47.43,4A343.3,343.3,0,0,1,118,210.2a25.15,25.15,0,0,1-4.24-10.14,25.59,25.59,0,0,1,0-8.82l3.24.21a6.31,6.31,0,0,1,.9-6.86,5,5,0,0,1,3-1.39,7.1,7.1,0,0,1,.44-5.39c-4.53-12.41-9-26-13-40.79q-4.29-15.74-7.26-30.28Q99.32,98,97.9,89.81A122.49,122.49,0,0,1,151.17,69.3c-.31-3.41-.64-6.82-.95-10.23a61.37,61.37,0,0,1,34.17-.44l-1.2,10.9A122.44,122.44,0,0,1,234.76,89.79Z" fill="none"/><path d="M171,164l-6.75,0c-.14-1.63-1.1-13.89,1.25-16.82a2.92,2.92,0,0,1,2-1.3c1.06,0,1.85,1.06,2.17,1.49C172,150.51,171.08,162.43,171,164Z" fill="#fff"/><path d="M129.65,169.85a3.84,3.84,0,0,0-.18.35,3.09,3.09,0,0,0-.14.32,6.31,6.31,0,0,0-.47,2.08c0,.13,0,.27,0,.41a7.44,7.44,0,0,0,.26,1.91,6.56,6.56,0,0,0-6.12.9,6.34,6.34,0,0,0-1.62,2c-4.53-12.41-9-26-13-40.79-2.86-10.49-5.25-20.6-7.26-30.28a116.8,116.8,0,0,1,11.53-6.84l.1-.05c1.85,11,4.16,22.52,7,34.59C122.83,147.06,126.17,158.87,129.65,169.85Z" fill="#fff"/><path d="M220.26,99.19c-2,11.52-4.42,23.66-7.5,36.34-3,12.52-6.39,24.27-9.87,35.21a5.54,5.54,0,0,0-4.6-1c1.92-6.07,3.78-12.54,5.52-19.4s3.21-13.59,4.42-19.91a7.82,7.82,0,0,0-1.85-1,7.58,7.58,0,0,0-2.25-.46l-1.14,4.6a15.81,15.81,0,0,0-1.92-.48,19.12,19.12,0,0,0-2.18-.26l1-4.67a9.48,9.48,0,0,0-2.19-.63,9,9,0,0,0-2.05-.13c-.26,1.56-.53,3.13-.78,4.69a20.26,20.26,0,0,0-2.11-.34,21.61,21.61,0,0,0-2.41-.17q.18-2.25.39-4.5a11.12,11.12,0,0,0-2.21-.45,11.41,11.41,0,0,0-2.51,0q-.31,5.41-.75,11c-2.6-.44-5.45-.82-8.52-1.09q.52-8.68,1.24-17a8.92,8.92,0,0,0-2.21-.49,8.16,8.16,0,0,0-2.18.09c-.09,1.66-.19,3.33-.27,5a14.72,14.72,0,0,0-1.7-.11,17.61,17.61,0,0,0-2,.09c0-1.72-.06-3.44-.09-5.16a15.63,15.63,0,0,0-2.33-.07,14.7,14.7,0,0,0-2.51.29l-.15,5.4a11.5,11.5,0,0,0-1.52,0,13.93,13.93,0,0,0-1.66.25c-.26-1.71-.51-3.43-.77-5.14a12.86,12.86,0,0,0-2.51.25,13.73,13.73,0,0,0-1.85.56q.75,8,1.37,16.17c-3.33.34-6.4.81-9.18,1.35-.52-4.1-1.06-8.2-1.6-12.27a9.71,9.71,0,0,0-2.34.25,10.22,10.22,0,0,0-1.8.6q.52,2.55,1.06,5.1a11.55,11.55,0,0,0-2.06.32,12.09,12.09,0,0,0-1.35.41c-.51-1.62-1-3.25-1.54-4.88a8.65,8.65,0,0,0-2,.43,8.82,8.82,0,0,0-1.93,1c.32,1.5.62,3,.94,4.51A12.75,12.75,0,0,0,134,134a11,11,0,0,0-1.69.67c-.53-1.4-1-2.8-1.56-4.19a7.6,7.6,0,0,0-2.12.51,8.13,8.13,0,0,0-1.92,1.1q1.62,7.69,3.54,15.73,2.41,10,5,19.32a5.81,5.81,0,0,0-4.38,1.22c-.1.09-.2.17-.3.27l-.17.18a5.32,5.32,0,0,0-.79,1.09c-3.48-11-6.82-22.79-9.84-35.41-2.89-12.07-5.2-23.63-7-34.59.33-.18.67-.35,1-.52l.83-.42c2.57-1.28,5.41-2.57,8.49-3.81l2.05-.81,1.26-.47c1.17-.43,2.38-.86,3.61-1.27s2.65-.86,4-1.26l1.24-.36c2.32-.65,4.73-1.26,7.24-1.79,1.35-.3,2.73-.57,4.14-.82,2-.36,4.08-.67,6.19-.93.18,2,.36,3.9.55,5.85,2.82-.2,5.8-.35,8.91-.41.24,4.9.47,9.78.7,14.67a20.13,20.13,0,0,0,4.25.33,19,19,0,0,0,3.9-.53q.17-7.2.34-14.4c3.17.11,6.19.31,9.06.56.22-2.06.45-4.11.68-6.18A122.78,122.78,0,0,1,220.26,99.19Z" fill="#a7a8aa"/><path d="M234.76,89.79q-1.33,7.77-3,16a111.8,111.8,0,0,0-10.21-6l-.38-.2-.91-.47h0a122.8,122.8,0,0,0-39-11.9l1.95-17.76A122.44,122.44,0,0,1,234.76,89.79Z" fill="#fff"/><path d="M231.76,105.81c-2.09,10.27-4.62,21.06-7.67,32.28-3.92,14.36-8.21,27.65-12.62,39.8a4.85,4.85,0,0,0-.55-.65A4.64,4.64,0,0,0,205,177a6.38,6.38,0,0,0-1.16-5.4,5.89,5.89,0,0,0-.92-.88c3.48-10.93,6.82-22.68,9.87-35.2,3.08-12.69,5.54-24.83,7.5-36.35h0l.91.47.38.2A111.8,111.8,0,0,1,231.76,105.81Z" fill="#fff"/><path d="M216.86,185.61a5.39,5.39,0,0,0-4.67-3.37,5.09,5.09,0,0,0-.72-4.35,4.3,4.3,0,0,0-.55-.65A4.65,4.65,0,0,0,205,177a6.35,6.35,0,0,0-1.16-5.39,5.46,5.46,0,0,0-.92-.88,5.54,5.54,0,0,0-4.6-1c1.92-6.07,3.78-12.54,5.52-19.4s3.21-13.59,4.42-19.91a7.82,7.82,0,0,0-1.85-1,7.58,7.58,0,0,0-2.25-.46l-1.14,4.6a15.81,15.81,0,0,0-1.92-.48,19.12,19.12,0,0,0-2.18-.26l1-4.67a9.48,9.48,0,0,0-2.19-.63,9,9,0,0,0-2.05-.13c-.26,1.56-.53,3.13-.78,4.69a20.26,20.26,0,0,0-2.11-.34,21.61,21.61,0,0,0-2.41-.17q.18-2.25.39-4.5a11.12,11.12,0,0,0-2.21-.45,11.41,11.41,0,0,0-2.51,0q-.31,5.41-.75,11c-2.6-.44-5.45-.82-8.52-1.09q.52-8.68,1.24-17a8.92,8.92,0,0,0-2.21-.49,8.16,8.16,0,0,0-2.18.09c-.09,1.66-.19,3.33-.27,5a14.72,14.72,0,0,0-1.7-.11,17.61,17.61,0,0,0-2,.09c0-1.72-.06-3.44-.09-5.16a15.63,15.63,0,0,0-2.33-.07,14.7,14.7,0,0,0-2.51.29l-.15,5.4a11.5,11.5,0,0,0-1.52,0,13.93,13.93,0,0,0-1.66.25c-.26-1.71-.51-3.43-.77-5.14a12.86,12.86,0,0,0-2.51.25,13.73,13.73,0,0,0-1.85.56q.75,8,1.37,16.17c-3.33.34-6.4.81-9.18,1.35-.52-4.1-1.06-8.2-1.6-12.27a9.71,9.71,0,0,0-2.34.25,10.22,10.22,0,0,0-1.8.6q.52,2.55,1.06,5.1a11.55,11.55,0,0,0-2.06.32,12.09,12.09,0,0,0-1.35.41c-.51-1.62-1-3.25-1.54-4.88a8.65,8.65,0,0,0-2,.43,8.82,8.82,0,0,0-1.93,1c.32,1.5.62,3,.94,4.51A12.75,12.75,0,0,0,134,134a11,11,0,0,0-1.69.67c-.53-1.4-1-2.8-1.56-4.19a7.6,7.6,0,0,0-2.12.51,8.13,8.13,0,0,0-1.92,1.1q1.62,7.69,3.54,15.73,2.41,10,5,19.32a5.81,5.81,0,0,0-4.38,1.22c-.1.09-.2.17-.3.27l-.17.18a5.32,5.32,0,0,0-.79,1.09,3.84,3.84,0,0,0-.18.35,3.09,3.09,0,0,0-.14.32,6.31,6.31,0,0,0-.47,2.08c0,.13,0,.27,0,.41a7.44,7.44,0,0,0,.26,1.91,6.56,6.56,0,0,0-6.12.9,6.34,6.34,0,0,0-1.62,2,7.1,7.1,0,0,0-.44,5.39,5,5,0,0,0-3,1.39c-1.59,1.58-2,4.31-.91,6.86,16.17,1,33.61,1.49,52.15,1.11,16.86-.34,32.77-1.36,47.6-2.82A5.67,5.67,0,0,0,216.86,185.61ZM171,164l-6.75,0c-.14-1.63-1.1-13.88,1.25-16.82a2.91,2.91,0,0,1,2-1.29c1.06,0,1.85,1,2.17,1.48C172,150.5,171.09,162.43,171,164Zm26.43-9.59a2.23,2.23,0,0,1-1.89,1.47,22.78,22.78,0,0,0-1.9,8.7,10.1,10.1,0,0,1,2.47,3.83c1.61,4.58-.73,9.12-2.31,11.48a3.42,3.42,0,0,0-3.44.76,3.66,3.66,0,0,0-1.46-4.38,3.34,3.34,0,0,0-3.4,0,3.43,3.43,0,0,0-.95.8,3.51,3.51,0,0,0-1.69-2.73,10,10,0,0,1,1.37-5.83,9.62,9.62,0,0,1,7.21-4.53,23.88,23.88,0,0,0,.92-5.31,23.57,23.57,0,0,0-.06-3.62,1.85,1.85,0,0,1-.88-1.24,2.37,2.37,0,0,1,.88-2,3.15,3.15,0,0,1,2.67-.66,3.1,3.1,0,0,1,2.26,1.51A2.36,2.36,0,0,1,197.38,154.42Z" fill="#fff"/><path d="M197.38,154.42a2.23,2.23,0,0,1-1.89,1.48,22.28,22.28,0,0,0-1.34,4.07,23.38,23.38,0,0,0-.56,4.62,10.17,10.17,0,0,1,2.47,3.83c1.61,4.58-.73,9.12-2.31,11.48a3.42,3.42,0,0,0-3.44.76,3.67,3.67,0,0,0-1.46-4.38,3.32,3.32,0,0,0-3.4,0,3.26,3.26,0,0,0-.95.79,3.55,3.55,0,0,0-1.69-2.73,10,10,0,0,1,1.37-5.83,9.66,9.66,0,0,1,7.21-4.53,23.62,23.62,0,0,0,.92-5.31,24.59,24.59,0,0,0,0-2.85l-.06-.77a1.91,1.91,0,0,1-.88-1.24,2.26,2.26,0,0,1,.88-1.95,3.37,3.37,0,0,1,4.93.84A2.37,2.37,0,0,1,197.38,154.42Z" fill="#e03127"/><path d="M152.86,87.39c-2.11.26-4.18.57-6.19.93-1.41.25-2.79.52-4.14.82-2.51.53-4.92,1.14-7.24,1.79l-1.24.36c-1.38.4-2.72.83-4,1.26s-2.44.84-3.61,1.27l-1.26.47-2.05.81c-3.08,1.24-5.92,2.53-8.49,3.81l-.83.42c-.35.17-.69.34-1,.52l-.1.05a116.8,116.8,0,0,0-11.53,6.84c-1.21-5.81-2.27-11.45-3.22-16.93A122.43,122.43,0,0,1,151.18,69.3Q152,78.35,152.86,87.39Z" fill="#fff"/><path d="M184.39,58.64c-.4,3.63-.8,7.27-1.19,10.89l-1.95,17.76c-.23,2.06-.46,4.11-.68,6.18-2.87-.26-5.89-.46-9.06-.56-1.47-.06-3-.09-4.52-.11s-3.14,0-4.67,0c-3.11.06-6.09.2-8.91.4-.19-1.95-.37-3.89-.55-5.84q-.84-9-1.68-18.09l-1-10.23a61.37,61.37,0,0,1,34.17-.44Z" fill="#fff"/><path d="M220.75,198.11a29.49,29.49,0,0,1-4,11.17,344.27,344.27,0,0,1-47.42,4A341.89,341.89,0,0,1,118,210.2a25.17,25.17,0,0,1-4.24-18.95l3.23.2c16.17,1,33.61,1.5,52.15,1.12,16.86-.35,32.77-1.37,47.6-2.83l3.92-.38A30,30,0,0,1,220.75,198.11Z" fill="#fff"/><path d="M121.43,178c0-.06,0-.12-.07-.18" fill="#fff"/><path d="M129.85,170.46c-.07-.2-.13-.4-.2-.61" fill="#fff"/><path d="M182.12,168.2q1.41-11,2.48-22.71c.24-2.62.46-5.23.66-7.8" fill="#fff"/><path d="M148.42,138.1c.34,2.68.68,5.36,1,8.06q1.53,12.15,3,24.17Z" fill="#fff"/><path d="M175.55,168.72q.16-13.25.91-27.42c.09-1.58.18-3.15.28-4.7" fill="#fff"/><path d="M157.59,136.75c.08.88.14,1.76.2,2.65.74,10.32,1.24,20.37,1.56,30.12Z" fill="#fff"/><path d="M147.68,182.31a4.41,4.41,0,0,1,1.41-4.19,4,4,0,0,1,4.6-.44,3.73,3.73,0,0,1,2.12-3.75,3.55,3.55,0,0,1,4.46,1.77" fill="#fff"/><path d="M165.43,182.82a3.12,3.12,0,0,1,2.12-2.49,3,3,0,0,1,3.26,1.1" fill="#fff"/><path d="M193.75,179.9a3,3,0,0,1,.9.5,3.54,3.54,0,0,1,1.13,3.31" fill="#fff"/><path d="M178.45,175.48a3.29,3.29,0,0,1,3.32-1.55,3.19,3.19,0,0,1,1,.39" fill="#fff"/><path d="M136.92,173.57a2.53,2.53,0,0,0-3.39-.59,2.77,2.77,0,0,0-.92,3.53" fill="#fff"/><path d="M171,164l-6.75,0c-.14-1.63-1.1-13.89,1.25-16.82a2.92,2.92,0,0,1,2-1.3c1.06,0,1.85,1.06,2.17,1.49C172,150.51,171.08,162.43,171,164Z" fill="#fff"/><path d="M192.25,155s0,0,0-.06" fill="#fff"/><path d="M171.51,92.9q-.16,7.2-.34,14.4a19,19,0,0,1-3.9.53,20.13,20.13,0,0,1-4.25-.33c-.23-4.89-.46-9.77-.7-14.67,1.53,0,3.08,0,4.67,0S170,92.85,171.51,92.9Z" fill="#fff"/><path d="M185.41,176.26a15.12,15.12,0,0,1,.16-3.68,8.48,8.48,0,0,1,1.26-3.53,6,6,0,0,1,1.3-1.4,4.16,4.16,0,0,1,1.73-.83,3.23,3.23,0,0,1,3.33,1.46l-.06.06a4.45,4.45,0,0,0-1.53-.72,3.16,3.16,0,0,0-1.56,0,5.57,5.57,0,0,0-2.68,1.8,7.78,7.78,0,0,0-1.38,3.19,15.53,15.53,0,0,0-.49,3.59Z" fill="#fff"/><path d="M181.3,94.4l-.8-.07c-4.47-.4-9-.63-13.52-.66s-9,.11-13.52.44l-.8.06-3.33-35.72.66-.2a62.68,62.68,0,0,1,18.49-2.68A62,62,0,0,1,184.6,57.8l.7.19Zm-15.65-2.46H167c4.28,0,8.59.24,12.84.6l3.65-33.26a60.58,60.58,0,0,0-32.36.43l3,32.62C158,92.07,161.83,91.94,165.65,91.94Z" fill="#58595b"/><path d="M231.32,106.54a117.87,117.87,0,0,0-50.15-18.31l.19-1.71a119.44,119.44,0,0,1,50.84,18.55Z" fill="#58595b"/><path d="M101.58,107.47l-.9-1.44a119.29,119.29,0,0,1,52.08-19.49l.2,1.71A117.82,117.82,0,0,0,101.58,107.47Z" fill="#58595b"/><path d="M164.27,214.19a345.8,345.8,0,0,1-46.38-3.13l-.35-.05-.21-.29a26.07,26.07,0,0,1-4.39-19.63l.13-.76.74,0c18.34,1.26,36.95,1.71,55.32,1.32,17.11-.35,34.42-1.43,51.44-3.21l.78-.08.12.8a30.65,30.65,0,0,1,.1,9,30.19,30.19,0,0,1-4.08,11.51l-.2.33-.38.06a344.41,344.41,0,0,1-47.54,4C167.67,214.18,166,214.19,164.27,214.19Zm-45.81-4.79a345.12,345.12,0,0,0,50.88,3,343.36,343.36,0,0,0,46.94-4A28.61,28.61,0,0,0,220,190.3c-16.81,1.72-33.89,2.78-50.79,3.13-18.16.38-36.56-.05-54.71-1.27a24.25,24.25,0,0,0,4,17.24Z" fill="#58595b"/><path d="M203.68,171l-1.58-.54c3.67-11.54,7-23.36,9.85-35.14,2.91-11.94,5.42-24.16,7.49-36.3l1.63.3c-2.07,12.19-4.59,24.44-7.51,36.42C210.69,147.57,207.36,159.43,203.68,171Z" fill="#58595b"/><path d="M120.65,178.3c-4.9-13.42-9.3-27.23-13.06-41.05-4.22-15.51-7.76-31.42-10.5-47.28l-.1-.56.46-.31a122.65,122.65,0,0,1,53.62-20.65l.21,1.72a121,121,0,0,0-52.46,20c2.72,15.62,6.21,31.28,10.37,46.56,3.75,13.77,8.13,27.53,13,40.91Z" fill="#58595b"/><path d="M128.85,170.14c-3.73-11.63-7.07-23.56-9.94-35.46-2.74-11.39-5.12-23.05-7.07-34.63l1.64-.3c1.94,11.55,4.31,23.16,7,34.51,2.86,11.86,6.19,23.75,9.91,35.34Z" fill="#58595b"/><path d="M198.88,170l-1.18-.41c2-6.36,3.86-12.88,5.5-19.36s3.08-12.94,4.33-19.44a6.37,6.37,0,0,0-1.36-.67,7.22,7.22,0,0,0-1.57-.39l-1.16,4.72-.62-.19a16.8,16.8,0,0,0-1.86-.45,16.43,16.43,0,0,0-2.11-.26l-.73,0,1-4.86a8.64,8.64,0,0,0-1.57-.41,8.54,8.54,0,0,0-1.43-.13l-.8,4.83-.63-.14c-.68-.14-1.37-.25-2.06-.34s-1.56-.14-2.35-.16h-.67l.41-4.65a9.66,9.66,0,0,0-1.59-.29,10.62,10.62,0,0,0-1.87,0c-.37,6.09-.83,12.23-1.38,18.28-.68,7.56-1.52,15.21-2.48,22.74l-1.23-.17c1-7.51,1.79-15.14,2.47-22.69.56-6.22,1-12.54,1.41-18.79l0-.54.51-.06a11.74,11.74,0,0,1,2.65,0,11.43,11.43,0,0,1,2.31.48l.49.15L191,131c.61,0,1.21.08,1.81.15s1,.14,1.53.23l.76-4.57.5,0a10.61,10.61,0,0,1,2.18.14,10,10,0,0,1,2.33.68l.48.21-.95,4.47q.78.07,1.53.21c.46.09.91.19,1.37.31l1.1-4.48.51,0a8.43,8.43,0,0,1,2.43.51,8.59,8.59,0,0,1,2,1l.34.25-.08.42c-1.28,6.67-2.77,13.39-4.43,19.95S200.9,163.56,198.88,170Z" fill="#58595b"/><path d="M216.66,189.72a5.27,5.27,0,0,0-.48-4.82,5.16,5.16,0,0,0-4-2.18l-.56,0,.15-.6a4.75,4.75,0,0,0-.11-2.67,3.9,3.9,0,0,0-1.54-2,3.83,3.83,0,0,0-2.37-.6,4.45,4.45,0,0,0-2.26.91L203.73,179l.43-2.25a7.1,7.1,0,0,0,0-2.56,5.21,5.21,0,0,0-1-2.32,5.57,5.57,0,0,0-2.08-1.59,6,6,0,0,0-2.72-.49l0-.17a5.25,5.25,0,0,1,3-.27,5.64,5.64,0,0,1,2.83,1.51,6.12,6.12,0,0,1,1.68,2.93,7,7,0,0,1,0,3.42l-1.31-.94a5.4,5.4,0,0,1,6.33,0,5.14,5.14,0,0,1,1.87,2.76,5.84,5.84,0,0,1,0,3.29l-.42-.62a6.07,6.07,0,0,1,2.55.88,5.49,5.49,0,0,1,1.88,2,5.23,5.23,0,0,1,.72,2.61,6.11,6.11,0,0,1-.56,2.6Z" fill="#58595b"/><path d="M135.28,167.18a6.42,6.42,0,0,0-2.7.68,5,5,0,0,0-2,1.75,5.83,5.83,0,0,0-.88,2.46,7,7,0,0,0,.2,2.61l.43,1.66-1.57-.57a6.72,6.72,0,0,0-3.1-.35,5,5,0,0,0-2.8,1.38,6,6,0,0,0-1.62,2.86,6.87,6.87,0,0,0,.07,3.4l.16.57-.54.05a5,5,0,0,0-2.28.73,4.37,4.37,0,0,0-1.59,1.88,6.79,6.79,0,0,0,0,5.13l-.15.07a7.75,7.75,0,0,1-.69-2.65,6.3,6.3,0,0,1,.37-2.78,5.12,5.12,0,0,1,1.67-2.28,5.46,5.46,0,0,1,2.61-1l-.39.61a7.84,7.84,0,0,1-.28-3.94,7.23,7.23,0,0,1,1.77-3.57,6.59,6.59,0,0,1,3.46-2,7.53,7.53,0,0,1,4,.22l-1.13,1.09a7.61,7.61,0,0,1-.14-3.39,6.68,6.68,0,0,1,1.43-3,5.46,5.46,0,0,1,2.71-1.75,5.8,5.8,0,0,1,3,0Z" fill="#58595b"/><path d="M151.8,170.41c-1-8-2-16.12-3-24.17q-1.26-9.93-2.55-19.75a9.43,9.43,0,0,0-1.67.22,10,10,0,0,0-1.21.37l1.1,5.29-.72.06a11.75,11.75,0,0,0-2,.3c-.43.11-.87.24-1.28.39l-.61.23-1.58-5a8.2,8.2,0,0,0-1.36.34,7.66,7.66,0,0,0-1.42.67l1,4.73-.66.1a11.33,11.33,0,0,0-1.7.4,12.33,12.33,0,0,0-1.62.63l-.6.28-1.62-4.36a7.78,7.78,0,0,0-1.48.42,7,7,0,0,0-1.45.78c1.08,5.1,2.24,10.24,3.45,15.29,1.54,6.43,3.23,12.92,5,19.3l-1.19.36c-1.79-6.39-3.48-12.9-5-19.35-1.25-5.19-2.44-10.49-3.54-15.75l-.09-.4.32-.25a8.24,8.24,0,0,1,2.07-1.19,8.55,8.55,0,0,1,2.28-.56l.47,0,1.49,4c.39-.16.78-.3,1.18-.42a11.93,11.93,0,0,1,1.21-.32l-.89-4.29.36-.24a9.56,9.56,0,0,1,2.07-1,9.21,9.21,0,0,1,2.13-.46l.5,0,1.5,4.75c.26-.09.53-.16.81-.23q.71-.16,1.44-.27l-1-4.9.47-.21a10,10,0,0,1,1.91-.64,10.52,10.52,0,0,1,2.5-.27h.53l.07.55q1.34,10.13,2.62,20.33c1,8.05,2,16.19,3,24.18Z" fill="#58595b"/><path d="M148.53,138.74l-.22-1.28c3.05-.59,6.16-1,9.24-1.35l.12,1.28C154.62,137.7,151.55,138.15,148.53,138.74Z" fill="#58595b"/><path d="M185.16,138.32c-2.8-.47-5.65-.83-8.48-1.07l.11-1.29c2.86.24,5.74.61,8.57,1.09Z" fill="#58595b"/><path d="M158.72,169.55c-.32-10-.84-20.12-1.55-30.11-.45-6.28-1-12.6-1.56-18.79l0-.5L156,120a12,12,0,0,1,1.94-.58,12.71,12.71,0,0,1,2.64-.27h.53l.76,5A10.15,10.15,0,0,1,163,124c.32,0,.65,0,1,0l.14-5.29.49-.09a16.66,16.66,0,0,1,5-.23l.56,0,.09,5c.46,0,.93,0,1.39,0l1.1.06.26-4.85.49-.08a8.83,8.83,0,0,1,2.35-.1,9.24,9.24,0,0,1,2.37.53l.45.17,0,.5c-.62,7.19-1.13,14.49-1.52,21.69-.49,9.07-.8,18.29-.92,27.38h-1.25c.12-9.12.43-18.35.92-27.44.38-7,.88-14.18,1.48-21.22a7.81,7.81,0,0,0-1.6-.31,7.21,7.21,0,0,0-1.54,0l-.28,5.14-.65-.07a15.22,15.22,0,0,0-1.64-.11,15.43,15.43,0,0,0-1.92.09l-.68.07-.09-5.28a16,16,0,0,0-1.7,0,15.6,15.6,0,0,0-1.92.19l-.15,5.52-.63,0a9.9,9.9,0,0,0-1.44,0,10.91,10.91,0,0,0-1.59.24l-.64.14-.8-5.26a12.81,12.81,0,0,0-1.85.23c-.44.1-.87.22-1.3.36.57,6,1.08,12.21,1.51,18.33.71,10,1.23,20.14,1.56,30.15Z" fill="#58595b"/><path d="M147.59,182.33a4.62,4.62,0,0,1,1.42-4.68,4.59,4.59,0,0,1,5-.57l-1,.66a4.91,4.91,0,0,1,.55-2.92,3.66,3.66,0,0,1,2.35-1.84,3.72,3.72,0,0,1,2.84.47,3.5,3.5,0,0,1,1.57,2.21l-.15.08a4.34,4.34,0,0,0-1.91-1.17,3.1,3.1,0,0,0-1.89.07,3.34,3.34,0,0,0-1.44,1.1,3.08,3.08,0,0,0-.61,1.89l0,1.29-1-.64a3.53,3.53,0,0,0-3.88.06,4.13,4.13,0,0,0-1.74,3.95Z" fill="#58595b"/><path d="M165.35,182.81a3.32,3.32,0,0,1,2.17-3.19,2.55,2.55,0,0,1,2.16-.05,2.13,2.13,0,0,1,1.19,1.81l-.13.1a12.17,12.17,0,0,0-1.61-.28c-.43,0-.82-.28-1.29-.24a2.72,2.72,0,0,0-1.34.54,3,3,0,0,0-1,1.34Z" fill="#58595b"/><path d="M178.38,175.43a3.52,3.52,0,0,1,1.55-1.48,3.35,3.35,0,0,1,2.16-.27,3.65,3.65,0,0,1,1.95,1.16,4.22,4.22,0,0,1,1,2.16l-.85-.32a4.36,4.36,0,0,1,2.29-1.32,4.28,4.28,0,0,1,2.66.26,4.78,4.78,0,0,1,2.11,1.83,4.61,4.61,0,0,1,.67,2.82l-1.23-.88a3.9,3.9,0,0,1,4.18.47A3.47,3.47,0,0,1,196,181.7a3.63,3.63,0,0,1-.1,2l-.16,0a4.61,4.61,0,0,0-.52-1.67A2.68,2.68,0,0,0,194.1,181a2.87,2.87,0,0,0-2.7,0l-1.31.7.07-1.57a3.75,3.75,0,0,0-.35-1.83,3,3,0,0,0-1.29-1.38,3.14,3.14,0,0,0-3.67.5l-.8.76,0-1.08a3.16,3.16,0,0,0-2.07-2.8,3.09,3.09,0,0,0-3.42,1.22Z" fill="#58595b"/><path d="M136.86,173.62a2.36,2.36,0,0,0-1.62-.59,2.1,2.1,0,0,0-1.39.56c-.37.34-.42.83-.64,1.21a5.65,5.65,0,0,0-.53,1.67l-.15.07a2.14,2.14,0,0,1-.93-2.17,2.68,2.68,0,0,1,1.52-1.94,2.89,2.89,0,0,1,2.25-.25,2.77,2.77,0,0,1,1.62,1.33Z" fill="#58595b"/><path d="M171.52,164.66l-7.89,0,0-.59c-.28-3.3-1-14.32,1.39-17.28a3.52,3.52,0,0,1,2.51-1.54h0a3.72,3.72,0,0,1,2.67,1.74c2.38,3.18,1.68,13.91,1.41,17.12Zm-6.75-1.33,5.6,0c.47-6,.43-13.45-1.19-15.61-.28-.37-.93-1.24-1.69-1.24h0c-.7,0-1.29.75-1.55,1.06C164.33,149.57,164.3,157.17,164.77,163.33Z" fill="#58595b"/><path d="M166.64,108.71a19.72,19.72,0,0,1-3.76-.36l-.65-.12-.73-15.36,1.66-.08.66,14a18.66,18.66,0,0,0,3.42.21,19.26,19.26,0,0,0,3.12-.37l.32-13.72,1.66,0L172,108l-.63.15a19.26,19.26,0,0,1-4.06.55Z" fill="#58595b"/><path d="M212.25,178.19l-1.55-.61c4.71-13,9-26.36,12.59-39.73,4.25-15.62,7.8-31.65,10.56-47.65a121.32,121.32,0,0,0-50.77-19.81l.23-1.71a122.87,122.87,0,0,1,51.91,20.39l.45.31-.09.56c-2.78,16.24-6.37,32.52-10.69,48.38C221.23,151.73,217,165.15,212.25,178.19Z" fill="#58595b"/><path d="M309.19,92.58q4.17,3.67,4.16,10.85t-4.16,10.84q-4.17,3.67-12.33,3.67H292.7v12.11h-9.09V88.91h13.25Q305,88.91,309.19,92.58ZM296.63,110A7.63,7.63,0,0,0,302,108.3a7.53,7.53,0,0,0,0-9.75,7.63,7.63,0,0,0-5.33-1.65H292.7v13Z" fill="#58595b"/><path d="M329.27,112.83v9.23h18.11v8h-27.2V88.91h26.91v8H329.27v8.17h17.3v7.76Z" fill="#58595b"/><path d="M360.1,130a22.51,22.51,0,0,1-5.72-2.38v-9.7a20.93,20.93,0,0,0,5.93,3.33,18.33,18.33,0,0,0,6.39,1.26q6,0,6-4.11a3.89,3.89,0,0,0-1.22-3,9.44,9.44,0,0,0-3.93-1.91l-4.34-1.18q-9.5-2.58-9.49-11.93a11.79,11.79,0,0,1,1.71-6.23,12,12,0,0,1,5.09-4.5A18.26,18.26,0,0,1,368.73,88a20.82,20.82,0,0,1,5.41.68,20.19,20.19,0,0,1,5,2.15v9.52a20.18,20.18,0,0,0-5-3,15.12,15.12,0,0,0-5.56-1,7.4,7.4,0,0,0-4.39,1.12,3.43,3.43,0,0,0-1.57,2.94,3.31,3.31,0,0,0,1,2.47A8.07,8.07,0,0,0,367,104.6l5.15,1.47q9.66,2.76,9.66,11.87a12.74,12.74,0,0,1-1.82,6.88,11.86,11.86,0,0,1-5.21,4.53,18.52,18.52,0,0,1-7.95,1.59A25,25,0,0,1,360.1,130Z" fill="#58595b"/><path d="M423.69,88.91l-16,18.92L426,130.05H414.2l-15.5-18.69v18.69h-9.09V88.91h9.09V105.6l14.11-16.69Z" fill="#58595b"/><path d="M435.47,128.32a18.64,18.64,0,0,1-7.55-7.49,25,25,0,0,1,0-22.7,18.64,18.64,0,0,1,7.55-7.49,24.49,24.49,0,0,1,22,0,18.64,18.64,0,0,1,7.55,7.49,25,25,0,0,1,0,22.7,18.64,18.64,0,0,1-7.55,7.49,24.49,24.49,0,0,1-22,0ZM455,119q3.21-3.56,3.22-9.49T455,100A12,12,0,0,0,438,100q-3.22,3.56-3.22,9.49T438,119A12,12,0,0,0,455,119Z" fill="#58595b"/><path d="M490.87,116l10.47-27.09H512l-18.34,41.14h-5.73L469.63,88.91h10.65Z" fill="#58595b"/><path d="M544.56,112.89v-24h8.86v41.14h-5.1l-22.27-24v24H517.2V88.91h5.09Z" fill="#58595b"/><path d="M571.76,130.05h-9.09V88.91h9.09Z" fill="#58595b"/><path d="M615.09,88.91l-16,18.92,18.28,22.22H605.61L590.1,111.36v18.69H581V88.91h9.09V105.6l14.12-16.69Z" fill="#58595b"/><path d="M288.43,180.07a11.11,11.11,0,0,1-4.46-4.74,16.1,16.1,0,0,1-1.56-7.33,19.62,19.62,0,0,1,2-9,15.08,15.08,0,0,1,5.46-6.11,14.38,14.38,0,0,1,7.86-2.21,13.6,13.6,0,0,1,6.87,1.66,10.83,10.83,0,0,1,4.46,4.74,16.19,16.19,0,0,1,1.55,7.32,19.85,19.85,0,0,1-2,9,15,15,0,0,1-5.46,6.12,14.49,14.49,0,0,1-7.88,2.2A13.63,13.63,0,0,1,288.43,180.07Zm11.47-5.4a9.7,9.7,0,0,0,3-4.07,15,15,0,0,0,1.1-5.86,10.25,10.25,0,0,0-1.64-6.22,5.78,5.78,0,0,0-4.94-2.21,7,7,0,0,0-4.34,1.46,9.81,9.81,0,0,0-3,4.07,14.82,14.82,0,0,0-1.1,5.86,10.22,10.22,0,0,0,1.64,6.23,5.73,5.73,0,0,0,4.9,2.2A7.11,7.11,0,0,0,299.9,174.67Z" fill="#e03127"/><path d="M336.8,150.55l-2.62,17.37c-.34,2.09-.6,3.64-.79,4.65-.25,1.33-.44,2.42-.57,3.29a18.47,18.47,0,0,0-.18,2.56,15.57,15.57,0,0,0,.2,2.62h-6.08a11.15,11.15,0,0,1-.25-2.58,9.19,9.19,0,0,1-2.73,2.37,6.59,6.59,0,0,1-3.27.85,6.35,6.35,0,0,1-5.15-2.4,9.86,9.86,0,0,1-2-6.49,18.85,18.85,0,0,1,1.21-6.84,11.7,11.7,0,0,1,3.5-5,8.07,8.07,0,0,1,5.29-1.89,5.68,5.68,0,0,1,5.55,3.6l.41-3,1.38-9.11Zm-10.38,23.82a10.94,10.94,0,0,0,1.46-6,5,5,0,0,0-.87-3.2,2.86,2.86,0,0,0-2.34-1.08,4.36,4.36,0,0,0-3.81,2.27,11.12,11.12,0,0,0-1.44,6,5,5,0,0,0,.88,3.2,2.81,2.81,0,0,0,2.29,1.08A4.4,4.4,0,0,0,326.42,174.37Z" fill="#e03127"/><path d="M357.16,161.42a9.88,9.88,0,0,1,2,6.5,19,19,0,0,1-1.2,6.83,11.93,11.93,0,0,1-3.48,5,8.08,8.08,0,0,1-5.32,1.89,5.75,5.75,0,0,1-5.38-3.22l-1.66,11.9h-6l4.29-30.7h6l-.38,2.58a7.35,7.35,0,0,1,6-3.22A6.35,6.35,0,0,1,357.16,161.42Zm-5.44,13a11.5,11.5,0,0,0,1.38-6,5,5,0,0,0-.88-3.2,2.79,2.79,0,0,0-2.29-1.08,4.16,4.16,0,0,0-3.39,1.8,10.71,10.71,0,0,0-1.78,5.53c-.05.56-.08.94-.08,1.14a4.56,4.56,0,0,0,.9,3.07,3.14,3.14,0,0,0,2.52,1A4.11,4.11,0,0,0,351.72,174.37Z" fill="#e03127"/><path d="M377,159.83v6.1a4.6,4.6,0,0,0-1.79-.34,5.09,5.09,0,0,0-4.4,2.39c-1.09,1.59-1.87,4.09-2.31,7.47l-.75,5.59h-6l3-21.38h5.71l-.71,5.08q2.42-5.09,6.08-5.08A4.71,4.71,0,0,1,377,159.83Z" fill="#e03127"/><path d="M387.15,164.44l-1.5,9.57a7.2,7.2,0,0,0-.12,1.32,1.31,1.31,0,0,0,.35,1,1.29,1.29,0,0,0,.94.34,4.12,4.12,0,0,0,2.12-.64,15.43,15.43,0,0,0,2.63-2.07v5.63a9.71,9.71,0,0,1-3,1.59,11.31,11.31,0,0,1-3.42.53,5.82,5.82,0,0,1-4.06-1.42,5.44,5.44,0,0,1-1.57-4.26,14.22,14.22,0,0,1,.13-1.78l1.58-9.78h-3l.63-4.78h3.08l.75-4.53,6.09-.93-.88,5.46h5.34l-.67,4.78Z" fill="#e03127"/><path d="M400.66,181h-6l2.91-21.38h6Zm-1.73-25.45a3.27,3.27,0,0,1-.94-2.37,3.93,3.93,0,0,1,3.92-3.94,3.06,3.06,0,0,1,2.31,1,3.34,3.34,0,0,1,.94,2.39,4,4,0,0,1-3.84,3.9A3.17,3.17,0,0,1,398.93,155.59Z" fill="#e03127"/><path d="M421.29,181h-6l4.25-30.49h6Z" fill="#e03127"/><path d="M448.8,159.66l-1.25,8.26c-.34,2.09-.6,3.64-.8,4.65-.25,1.33-.43,2.42-.56,3.29a18.49,18.49,0,0,0-.19,2.56,15.54,15.54,0,0,0,.21,2.62h-6.08a11.15,11.15,0,0,1-.25-2.58,9.19,9.19,0,0,1-2.73,2.37,6.59,6.59,0,0,1-3.27.85,6.35,6.35,0,0,1-5.15-2.4,9.86,9.86,0,0,1-2-6.49A18.85,18.85,0,0,1,428,166a11.7,11.7,0,0,1,3.5-5,8.07,8.07,0,0,1,5.29-1.89,5.73,5.73,0,0,1,5.54,3.52l.42-2.88Zm-9,14.71a10.94,10.94,0,0,0,1.46-6,5,5,0,0,0-.87-3.2,2.86,2.86,0,0,0-2.34-1.08,4.36,4.36,0,0,0-3.81,2.27,11.12,11.12,0,0,0-1.44,6,5,5,0,0,0,.88,3.2,2.79,2.79,0,0,0,2.29,1.08A4.4,4.4,0,0,0,439.79,174.37Z" fill="#e03127"/><path d="M470.74,161.42a9.88,9.88,0,0,1,2,6.5,18.83,18.83,0,0,1-1.21,6.83,11.75,11.75,0,0,1-3.48,5,8,8,0,0,1-5.31,1.89,6.14,6.14,0,0,1-3.44-1,6,6,0,0,1-2.19-2.74l-.46,3H450.8l4.58-30.61h6l-1.3,8.64-.66,3.38a7.42,7.42,0,0,1,6.16-3.43A6.35,6.35,0,0,1,470.74,161.42Zm-5.44,13a11.5,11.5,0,0,0,1.38-6,5,5,0,0,0-.88-3.2,2.81,2.81,0,0,0-2.29-1.08,4.21,4.21,0,0,0-3.44,1.8,10.81,10.81,0,0,0-1.77,5.53,9.88,9.88,0,0,0-.08,1.1,4.64,4.64,0,0,0,.89,3.11,3.23,3.23,0,0,0,2.57,1A4.11,4.11,0,0,0,465.3,174.37Z" fill="#e03127"/><path d="M479.85,180.41a8.17,8.17,0,0,1-3.19-3.41,10.53,10.53,0,0,1-1.06-4.76,15.52,15.52,0,0,1,1.48-7A10.76,10.76,0,0,1,487.14,159a9.8,9.8,0,0,1,5.19,1.3,8.24,8.24,0,0,1,3.23,3.47,10.65,10.65,0,0,1,1.09,4.8,15.13,15.13,0,0,1-1.5,6.91,11.16,11.16,0,0,1-4.15,4.57,11.33,11.33,0,0,1-6,1.61A10,10,0,0,1,479.85,180.41Zm9-6a11.38,11.38,0,0,0,1.38-6,4.73,4.73,0,0,0-1-3.22,3.16,3.16,0,0,0-2.44-1.1,4.13,4.13,0,0,0-3.69,2.25,11.66,11.66,0,0,0-1.35,6.05,4.7,4.7,0,0,0,1,3.18,3.09,3.09,0,0,0,2.42,1.1A4.18,4.18,0,0,0,488.85,174.39Z" fill="#e03127"/><path d="M514.48,159.83v6.1a4.6,4.6,0,0,0-1.79-.34A5.06,5.06,0,0,0,508.3,168c-1.1,1.59-1.87,4.09-2.32,7.47l-.75,5.59h-6l3-21.38h5.71l-.71,5.08q2.42-5.09,6.09-5.08A4.69,4.69,0,0,1,514.48,159.83Z" fill="#e03127"/><path d="M537.28,159.66,536,167.92c-.33,2.09-.59,3.64-.79,4.65-.25,1.33-.44,2.42-.56,3.29a17.06,17.06,0,0,0-.19,2.56,15.54,15.54,0,0,0,.21,2.62h-6.09a11.73,11.73,0,0,1-.25-2.58,9,9,0,0,1-2.73,2.37,6.54,6.54,0,0,1-3.27.85,6.37,6.37,0,0,1-5.15-2.4,9.86,9.86,0,0,1-2-6.49,19.06,19.06,0,0,1,1.2-6.84,11.81,11.81,0,0,1,3.51-5,8.06,8.06,0,0,1,5.29-1.89,6.06,6.06,0,0,1,3.35.91,6.15,6.15,0,0,1,2.19,2.61l.42-2.88Zm-9,14.71a11,11,0,0,0,1.46-6,5,5,0,0,0-.88-3.2,2.84,2.84,0,0,0-2.33-1.08,4.36,4.36,0,0,0-3.81,2.27,11.12,11.12,0,0,0-1.44,6,5,5,0,0,0,.87,3.2,2.83,2.83,0,0,0,2.3,1.08A4.4,4.4,0,0,0,528.28,174.37Z" fill="#e03127"/><path d="M548.58,164.44l-1.5,9.57a7.2,7.2,0,0,0-.13,1.32,1.21,1.21,0,0,0,1.3,1.31,4.12,4.12,0,0,0,2.12-.64,15.83,15.83,0,0,0,2.63-2.07v5.63a9.71,9.71,0,0,1-3,1.59,11.41,11.41,0,0,1-3.42.53,5.87,5.87,0,0,1-4.07-1.42,5.47,5.47,0,0,1-1.56-4.26,12.54,12.54,0,0,1,.13-1.78l1.58-9.78h-3l.63-4.78h3.08l.75-4.53,6.09-.93-.88,5.46h5.33l-.66,4.78Z" fill="#e03127"/><path d="M560.25,180.41a8.17,8.17,0,0,1-3.19-3.41,10.53,10.53,0,0,1-1.06-4.76,15.52,15.52,0,0,1,1.48-7A10.76,10.76,0,0,1,567.54,159a9.8,9.8,0,0,1,5.19,1.3,8.24,8.24,0,0,1,3.23,3.47,10.52,10.52,0,0,1,1.09,4.8,15.13,15.13,0,0,1-1.5,6.91,11.09,11.09,0,0,1-4.15,4.57,11.33,11.33,0,0,1-6,1.61A10,10,0,0,1,560.25,180.41Zm9-6a11.38,11.38,0,0,0,1.38-6,4.73,4.73,0,0,0-1-3.22,3.15,3.15,0,0,0-2.44-1.1,4.13,4.13,0,0,0-3.69,2.25,11.66,11.66,0,0,0-1.35,6.05,4.7,4.7,0,0,0,1,3.18,3.06,3.06,0,0,0,2.41,1.1A4.17,4.17,0,0,0,569.25,174.39Z" fill="#e03127"/><path d="M594.89,159.83v6.1a4.69,4.69,0,0,0-1.8-.34A5.06,5.06,0,0,0,588.7,168c-1.1,1.59-1.87,4.09-2.32,7.47l-.75,5.59h-6l3-21.38h5.71l-.71,5.08q2.42-5.09,6.09-5.08A4.77,4.77,0,0,1,594.89,159.83Z" fill="#e03127"/><path d="M601.76,181h-6l2.92-21.38h6ZM600,155.59a3.31,3.31,0,0,1-.93-2.37,3.91,3.91,0,0,1,3.91-3.94,3.09,3.09,0,0,1,2.32,1,3.38,3.38,0,0,1,.94,2.39,4,4,0,0,1-3.84,3.9A3.2,3.2,0,0,1,600,155.59Z" fill="#e03127"/><path d="M601.85,190.36a20.9,20.9,0,0,0,3.66-5.53,28.14,28.14,0,0,0,1.92-7.51l2.46-17.66h6l-2.5,17.83a32.72,32.72,0,0,1-1.79,7.66,16.07,16.07,0,0,1-3.38,5.21Zm9.27-34.77a3.27,3.27,0,0,1-.94-2.37,3.93,3.93,0,0,1,3.92-3.94,3,3,0,0,1,2.31,1,3.34,3.34,0,0,1,.94,2.39,3.71,3.71,0,0,1-1.17,2.75,3.66,3.66,0,0,1-2.66,1.15A3.19,3.19,0,0,1,611.12,155.59Z" fill="#e03127"/></svg>